<?xml version="1.0" standalone="no"?>
<!DOCTYPE svg PUBLIC "-//W3C//DTD SVG 1.1//EN" "http://www.w3.org/Graphics/SVG/1.1/DTD/svg11.dtd" >
<svg xmlns="http://www.w3.org/2000/svg" xmlns:xlink="http://www.w3.org/1999/xlink" version="1.1">
<metadata>
Created by FontForge 20170731 at Sun Jun 11 13:21:29 2023
 By Aleksey,,,
Copyright (c) 2015 by Type-O-Tones. All rights reserved. |DCNT
</metadata>
<defs>
<font id="MultiDisplay-MediumItalic" horiz-adv-x="1128" >
  <font-face 
    font-family="Multi Display Medium"
    font-weight="500"
    font-style="italic"
    font-stretch="normal"
    units-per-em="2048"
    panose-1="2 0 6 3 5 0 0 2 0 4"
    ascent="1522"
    descent="-526"
    x-height="1104"
    cap-height="1448"
    bbox="-573 -545 2480 2150"
    underline-thickness="135"
    underline-position="-548"
    slope="-8"
    unicode-range="U+0020-FB04"
  />
<missing-glyph horiz-adv-x="1024" 
d="M1024 0h-1024v1438h1024v-1438zM881 1294h-738v-1151h738v1151z" />
    <glyph glyph-name="IJ" unicode="IJ" horiz-adv-x="1349" 
d="M545 1448q0 -9 -19 -118.5t-22 -137.5l-47 -336q-11 -74 -20 -181.5t-9 -139.5q-55 0 -157 -5t-138 -6l39 252l47 336q11 71 20 180t9 144q113 0 297 12zM901 580l76 532q11 68 19 177t8 147q31 0 72.5 1t79 3t70 4t53 3t21.5 1q0 -2 -8 -54t-17.5 -115t-12.5 -87
q-12 -80 -45 -318t-43 -305q-41 -290 -190 -434.5t-396 -144.5q-191 0 -326 96q8 14 24.5 45.5t24.5 47t19.5 40.5t19 47.5t12.5 46.5l13 4q95 -77 215 -77q118 0 202 83t109 257z" />
    <glyph glyph-name="f_f" unicode="ff" horiz-adv-x="1454" 
d="M57 -10l41 248l92 671l-124 27q17 108 20 143l131 17l14 98q16 105 58.5 181.5t104.5 118.5t130.5 61.5t147.5 19.5q143 0 223 -62q-59 -133 -72 -180q-48 39 -118 39q-76 0 -135 -49t-72 -139l-13 -80h416l12 90q11 85 42 151.5t73 109t97 70t111 39t118 11.5
q143 0 223 -62q-59 -133 -72 -180q-48 39 -119 39q-76 0 -134.5 -49t-71.5 -139l-13 -80h277q-31 -147 -33 -207h-272l-95 -668q-10 -73 -24 -229q-186 -4 -281 -10l41 248l90 659h-413l-95 -668q-10 -73 -24 -229q-186 -4 -281 -10z" />
    <glyph glyph-name="f_f_i" unicode="ffi" horiz-adv-x="1921" 
d="M1731 1249q-58 0 -98 35.5t-40 91.5q0 68 53 115t123 47q58 0 97 -34.5t39 -90.5q0 -67 -54.5 -115.5t-119.5 -48.5zM1485 240l67 485q27 210 31 334q45 0 121.5 13.5t132.5 31.5h41l-121 -868q-24 -192 -24 -236q-153 0 -289 -10q35 201 41 250zM57 -10l41 248l92 671
l-124 27q17 108 20 143l131 17l14 98q16 105 58.5 181.5t104.5 118.5t130.5 61.5t147.5 19.5q143 0 223 -62q-59 -133 -72 -180q-48 39 -118 39q-76 0 -135 -49t-72 -139l-13 -80h416l12 90q11 85 42 151.5t73 109t97 70t111 39t118 11.5q143 0 223 -62q-59 -133 -72 -180
q-48 39 -119 39q-76 0 -134.5 -49t-71.5 -139l-13 -80h277q-31 -147 -33 -207h-272l-95 -668q-10 -73 -24 -229q-186 -4 -281 -10l41 248l90 659h-413l-95 -668q-10 -73 -24 -229q-186 -4 -281 -10z" />
    <glyph glyph-name="f_f_l" unicode="ffl" horiz-adv-x="2002" 
d="M1544 238l135 956q27 200 27 324q80 3 256 43h41l-186 -1325q-2 -18 -7.5 -62.5t-8.5 -68.5t-5.5 -55t-1.5 -50q-167 0 -289 -10q2 11 11 65.5t17 106.5t11 76zM57 -10l41 248l92 671l-124 27q17 108 20 143l131 17l14 98q16 105 58.5 181.5t104.5 118.5t130.5 61.5
t147.5 19.5q143 0 223 -62q-59 -133 -72 -180q-48 39 -118 39q-76 0 -135 -49t-72 -139l-13 -80h416l12 90q11 85 42 151.5t73 109t97 70t111 39t118 11.5q143 0 223 -62q-59 -133 -72 -180q-48 39 -119 39q-76 0 -134.5 -49t-71.5 -139l-13 -80h277q-31 -147 -33 -207h-272
l-95 -668q-10 -73 -24 -229q-186 -4 -281 -10l41 248l90 659h-413l-95 -668q-10 -73 -24 -229q-186 -4 -281 -10z" />
    <glyph glyph-name="LdotL.CAT" unicode="L&#xb7;L" horiz-adv-x="2119" 
d="M1968 -4q-434 10 -844 -4q0 3 8 46.5t18.5 104t14.5 97.5l123 872q27 281 27 324l297 12q-33 -194 -39 -254l-137 -977h286q156 0 295 8q-2 -7 -9 -29t-8.5 -26.5t-6.5 -21.5t-6 -21.5t-4.5 -18.5t-4.5 -20t-3 -18.5t-3 -22.5t-2 -23t-2 -28zM901 -4q-434 10 -844 -4
q0 3 8 46.5t18.5 104t14.5 97.5l123 872q27 281 27 324l297 12q-33 -194 -39 -254l-137 -977h286q156 0 295 8q-2 -7 -9 -29t-8.5 -26.5t-6.5 -21.5t-6 -21.5t-4.5 -18.5t-4.5 -20t-3 -18.5t-3 -22.5t-2 -23t-2 -28zM862 905q54 0 91.5 -35t37.5 -86q0 -66 -51.5 -112.5
t-116.5 -46.5q-56 0 -92.5 33.5t-36.5 86.5q0 66 50.5 113t117.5 47z" />
    <glyph glyph-name="IJacute" unicode="&#xcd;J" horiz-adv-x="1349" 
d="M1405 1905l-186 -314h-129l77 336h238v-22zM659 1905l-186 -314h-129l78 336h237v-22zM545 1448q0 -9 -19 -118.5t-22 -137.5l-47 -336q-11 -74 -20 -181.5t-9 -139.5q-55 0 -157 -5t-138 -6l39 252l47 336q11 71 20 180t9 144q113 0 297 12zM901 580l76 532
q11 68 19 177t8 147q31 0 72.5 1t79 3t70 4t53 3t21.5 1q0 -2 -8 -54t-17.5 -115t-12.5 -87q-12 -80 -45 -318t-43 -305q-41 -290 -190 -434.5t-396 -144.5q-191 0 -326 96q8 14 24.5 45.5t24.5 47t19.5 40.5t19 47.5t12.5 46.5l13 4q95 -77 215 -77q118 0 202 83t109 257z
" />
    <glyph glyph-name="ldotl.CAT" unicode="l&#xb7;l" horiz-adv-x="1314" 
d="M856 238l135 956q27 200 27 324q80 3 256 43h41l-187 -1325q-23 -197 -22 -236q-166 0 -289 -10q2 11 11 65.5t17 106.5t11 76zM90 238l135 956q27 200 27 324q80 3 256 43h41l-187 -1325q-23 -197 -22 -236q-166 0 -289 -10q2 11 11 65.5t17 106.5t11 76zM702 905
q54 0 91.5 -35t37.5 -86q0 -66 -51 -112.5t-116 -46.5q-56 0 -92.5 33.5t-36.5 86.5q0 67 50 113.5t117 46.5z" />
    <glyph glyph-name="ijacute" unicode="&#xed;j" horiz-adv-x="1062" 
d="M47 -10l41 250l68 485q23 178 28 334q45 0 121 13t135 32h39l-121 -868q-21 -172 -24 -236q-154 0 -287 -10zM571 1569l-186 -314h-129l78 336h237v-22zM479 -434q-30 51 -106 121q50 33 118.5 135t86.5 229l92 662q25 172 30 348q51 3 125 12q75 12 131 31h41l-139 -995
q-24 -178 -133.5 -327t-245.5 -216zM1114 1569l-186 -314h-129l78 336h237v-22z" />
    <glyph glyph-name="f_i" unicode="fi" horiz-adv-x="1236" 
d="M57 -10l41 248l92 669l-124 27q19 109 20 145l131 17l14 98q14 105 57 181.5t106 118.5t131.5 61.5t146.5 19.5q143 0 223 -62q-59 -133 -72 -180q-48 39 -118 39q-74 0 -134 -49.5t-73 -138.5l-13 -80h277q-21 -104 -23 -115q-7 -41 -10 -92h-272l-95 -668
q-10 -73 -24 -229q-186 -4 -281 -10zM1047 1249q-58 0 -98 35.5t-40 91.5q0 68 53 115t123 47q58 0 97 -34.5t39 -90.5q0 -67 -54.5 -115.5t-119.5 -48.5zM801 240l67 485q27 210 31 334q45 0 121.5 13.5t132.5 31.5h41l-121 -868q-24 -192 -24 -236q-153 0 -289 -10
q34 201 41 250z" />
    <glyph glyph-name="f_l" unicode="fl" horiz-adv-x="1320" 
d="M57 -10l41 248l92 669l-124 27q19 109 20 145l131 17l14 98q14 105 57 181.5t106 118.5t131.5 61.5t146.5 19.5q143 0 223 -62q-59 -133 -72 -180q-48 39 -118 39q-74 0 -134 -49.5t-73 -138.5l-13 -80h277q-21 -104 -23 -115q-7 -41 -10 -92h-272l-95 -668
q-10 -73 -24 -229q-186 -4 -281 -10zM862 238l135 956q27 200 27 324q80 3 256 43h41l-186 -1325q-2 -18 -7.5 -62.5t-8.5 -68.5t-5.5 -55t-1.5 -50q-166 0 -289 -10q2 11 11 65.5t17 106.5t11 76z" />
    <glyph glyph-name=".notdef" horiz-adv-x="1024" 
d="M1024 0h-1024v1438h1024v-1438zM881 1294h-738v-1151h738v1151z" />
    <glyph glyph-name=".null" horiz-adv-x="0" 
 />
    <glyph glyph-name="nonmarkingreturn" horiz-adv-x="682" 
 />
    <glyph glyph-name="space" unicode=" " horiz-adv-x="358" 
 />
    <glyph glyph-name="exclam" unicode="!" horiz-adv-x="505" 
d="M225 399q-56 0 -100 -8q12 166 34.5 409.5t39 411t16.5 189.5q40 1 74.5 5.5t91.5 15.5t88 16h41l-182 -1047q-47 8 -103 8zM209 272q55 0 92 -33.5t37 -86.5q0 -67 -51.5 -114.5t-116.5 -47.5q-55 0 -92 37.5t-37 91.5q0 66 50 109.5t118 43.5z" />
    <glyph glyph-name="quotedbl" unicode="&#x22;" horiz-adv-x="739" 
d="M465 913q-7 111 -18.5 204t-19 140t-7.5 58q1 58 50 96.5t114 38.5q55 0 90 -31.5t35 -81.5q0 -42 -43 -129q-47 -103 -113 -295q-42 3 -88 0zM115 913q-7 111 -18.5 204t-19 140t-7.5 58q1 58 49.5 96.5t113.5 38.5q55 0 90 -31.5t35 -81.5q0 -42 -43 -129
q-43 -94 -112 -295q-42 3 -88 0z" />
    <glyph glyph-name="numbersign" unicode="#" horiz-adv-x="1210" 
d="M512 582h176l68 221h-178zM1073 1366l-131 -432h266l-49 -131h-256l-65 -221h266l-49 -131h-256l-137 -455h-152l137 455h-174l-137 -455h-152l138 455h-293l49 131h284l66 221h-295l49 131h287l131 432h145l-129 -432h179l131 432h147z" />
    <glyph glyph-name="dollar" unicode="$" horiz-adv-x="1105" 
d="M1008 467q0 -51 -12.5 -105.5t-43.5 -113.5t-76.5 -108t-117.5 -88.5t-160 -57.5l-18 -207h-232l17 207q-106 7 -205 42.5t-168 76.5q54 80 98 225q49 -31 152 -72q110 -43 227 -43q127 0 199.5 56t72.5 149q0 71 -55 112.5t-166 69.5q-194 48 -296.5 130.5t-102.5 222.5
q0 100 37.5 188.5t122 161.5t206.5 108l19 189h231l-14 -162q216 -3 385 -111q-46 -65 -78 -178l-14 -6q-39 28 -126.5 49t-182.5 21q-131 0 -214 -55.5t-83 -143.5q0 -36 17 -64t51 -49t72.5 -36t92.5 -29q365 -101 365 -379z" />
    <glyph glyph-name="percent" unicode="%" horiz-adv-x="1701" 
d="M985 340q0 92 30.5 184t83.5 166t132 120t168 46q143 0 215 -100q74 -103 74 -244q0 -126 -52 -245.5t-149 -198t-213 -78.5q-142 0 -215 102q-74 103 -74 248zM1294 131q60 0 110.5 60t76.5 145.5t26 169.5q0 91 -33.5 151t-97.5 60q-61 0 -111 -59.5t-75 -142.5
t-25 -165q0 -95 32.5 -157t96.5 -62zM55 932q0 92 30.5 184t83.5 166t132 120t168 46q143 0 215 -100q74 -103 74 -244q0 -126 -52 -245.5t-149 -198t-213 -78.5q-142 0 -215 102q-74 103 -74 248zM365 723q60 0 110.5 60t76.5 145.5t26 169.5q0 91 -34 151t-98 60
q-61 0 -110.5 -59.5t-74.5 -142.5t-25 -165q0 -95 32.5 -157t96.5 -62z" />
    <glyph glyph-name="ampersand" unicode="&#x26;" horiz-adv-x="1468" 
d="M608 860q122 74 182 135t60 133q0 59 -41 98.5t-111 39.5q-91 0 -147.5 -55.5t-56.5 -131.5q0 -42 23 -89t91 -130zM324 336q0 -68 47.5 -108t126.5 -40q141 0 278 105q-35 39 -135.5 157t-110.5 128q-103 -63 -154.5 -118t-51.5 -124zM455 -10q-197 0 -307.5 84.5
t-110.5 222.5q0 262 358 451q-75 99 -108 168.5t-33 134.5q0 67 31.5 136t88 127.5t147.5 96t198 37.5q162 0 267.5 -76t105.5 -215q0 -44 -11 -86t-27 -76t-45.5 -69t-55.5 -60.5t-67 -57.5t-70.5 -52t-76.5 -51q9 -14 52.5 -63.5t93.5 -105.5t61 -69q122 148 187 305
q70 -4 112 -4q37 0 123 4q-120 -274 -291 -467l244 -291l-2 -14q-69 6 -121 6q-104 0 -176 -8l-125 143q-205 -151 -442 -151z" />
    <glyph glyph-name="quotesingle" unicode="'" horiz-adv-x="389" 
d="M115 913q-7 111 -18.5 204t-19 140t-7.5 58q1 58 49.5 96.5t113.5 38.5q55 0 90 -31.5t35 -81.5q0 -42 -43 -129q-43 -94 -112 -295q-42 3 -88 0z" />
    <glyph glyph-name="parenleft" unicode="(" horiz-adv-x="716" 
d="M561 -289h-221q-123 132 -189.5 325.5t-66.5 405.5q0 140 31 286.5t91.5 293.5t162.5 287.5t233 249.5h221q-131 -129 -227.5 -279.5t-150.5 -300t-79.5 -289t-25.5 -274.5q0 -193 54.5 -374.5t166.5 -330.5z" />
    <glyph glyph-name="parenright" unicode=")" horiz-adv-x="708" 
d="M147 1559h222q124 -140 190 -333.5t66 -408.5q0 -135 -30.5 -280t-90 -293t-160 -288t-229.5 -245h-221q127 125 222.5 274.5t149 299t79.5 288.5t26 269q0 410 -224 717z" />
    <glyph glyph-name="asterisk" unicode="*" horiz-adv-x="634" 
d="M377 1200l110 -104l-127 -86l-41 157l-81 -157l-107 86l148 104l-166 8l67 138l123 -91l-18 160h143l-63 -160l151 93l25 -140z" />
    <glyph glyph-name="plus" unicode="+" horiz-adv-x="1255" 
d="M1110 791l-27 -191h-356l-55 -391h-209l57 391h-373l27 191h371l53 374h209l-53 -374h356z" />
    <glyph glyph-name="comma" unicode="," horiz-adv-x="532" 
d="M51 -190v16q62 12 115 59t59 95q-70 0 -105.5 35t-35.5 98q0 62 52 110.5t128 48.5q67 0 105.5 -43t38.5 -123q0 -71 -28 -136t-72.5 -112t-93.5 -80t-97 -50q-22 43 -66 82z" />
    <glyph glyph-name="hyphen" unicode="-" horiz-adv-x="837" 
d="M123 600l33 191h559l-33 -191h-559z" />
    <glyph glyph-name="period" unicode="." horiz-adv-x="487" 
d="M254 270q54 0 91.5 -34.5t37.5 -85.5q0 -66 -51.5 -113t-116.5 -47q-56 0 -92.5 33.5t-36.5 87.5q0 66 50.5 112.5t117.5 46.5z" />
    <glyph glyph-name="slash" unicode="/" horiz-adv-x="987" 
d="M-47 -100l897 1616h248l-897 -1616h-248z" />
    <glyph glyph-name="zero" unicode="0" horiz-adv-x="1263" 
d="M514 -10q-214 0 -341.5 160t-127.5 423q0 77 12.5 159t39.5 168t66 164.5t96.5 149t126 122t159.5 82t194 30.5q210 0 341.5 -157.5t131.5 -422.5q0 -91 -18 -187.5t-53 -196t-93.5 -187.5t-133 -157t-178 -109.5t-222.5 -40.5zM328 563q0 -170 61.5 -262t171.5 -92
q82 0 148 48.5t105.5 122t66.5 167t37 176t10 156.5q0 169 -60.5 258.5t-171.5 89.5q-80 0 -145 -46.5t-105.5 -118t-68 -163t-38.5 -175.5t-11 -161z" />
    <glyph glyph-name="one" unicode="1" horiz-adv-x="827" 
d="M-4 -8l27 205q87 0 227 10q56 368 133 952l-252 -31q22 75 25 170q219 37 440 140h100q-110 -692 -174 -1233q29 -2 86 -3.5t96.5 -2.5t40.5 -2l-28 -205q-125 8 -369 8q-61 0 -198 -4t-154 -4z" />
    <glyph glyph-name="two" unicode="2" horiz-adv-x="1118" 
d="M936 0h-954q0 2 13 85.5t13 86.5q98 65 191 134.5t198.5 163t182.5 181.5t128.5 186.5t51.5 182.5q0 98 -65 149.5t-160 51.5q-86 0 -172 -45t-142 -123l-12 -2q-8 45 -45 98q-34 49 -51 63q88 99 220.5 167.5t289.5 68.5q202 0 315 -97t113 -266q0 -212 -166.5 -427.5
t-499.5 -452.5q131 8 584 8q-20 -85 -33 -213z" />
    <glyph glyph-name="three" unicode="3" horiz-adv-x="1038" 
d="M387 -10q-125 0 -242.5 36.5t-191.5 94.5q54 86 80 207q138 -119 344 -119q90 0 158 42t99.5 101.5t31.5 122.5q0 50 -23.5 84t-66.5 51.5t-85.5 24.5t-99.5 10h-37q13 50 13 100q0 7 -5 74q138 3 238 68q98 64 98 174q0 76 -52 118t-136 42q-77 0 -156.5 -38.5
t-132.5 -109.5l-14 -2q-8 45 -45 98q-33 47 -53 64q86 95 215.5 155t289.5 60q174 0 273.5 -87.5t99.5 -221.5q0 -71 -29.5 -140.5t-99.5 -134.5t-170 -96q123 -26 190.5 -105.5t67.5 -195.5q0 -67 -20.5 -133.5t-65.5 -129t-108.5 -110t-158 -76t-206.5 -28.5z" />
    <glyph glyph-name="four" unicode="4" horiz-adv-x="1210" 
d="M569 -10q21 118 49 297l17 110q-97 0 -327 1t-283 1l16 140q31 34 147 168l240 282q235 279 236 281q29 35 62.5 75t51.5 61.5t27 31.5h233l-118 -838q22 0 124 1t107 1q-31 -102 -31 -207h-229l-23 -155q-2 -9 -16 -127q-6 -74 -6 -113q-42 0 -144 -4.5t-133 -5.5z
M322 600h344l75 498q-32 -44 -189.5 -230t-229.5 -268z" />
    <glyph glyph-name="five" unicode="5" horiz-adv-x="1052" 
d="M969 545q0 -66 -18.5 -137.5t-63 -147t-108.5 -135t-164 -97.5t-220 -38t-235.5 36.5t-190.5 94.5q53 83 82 207q54 -48 136.5 -83.5t187.5 -35.5q69 0 124 21t88 53t55.5 74.5t31 81.5t8.5 77q0 95 -65 149t-183 54q-123 0 -287 -70l-28 21q35 163 145 768h793
q-31 -97 -31 -215q-17 0 -271 3t-300 3l-72 -365q94 43 197 43q187 0 288 -104t101 -258z" />
    <glyph glyph-name="six" unicode="6" horiz-adv-x="1187" 
d="M1106 557q0 -70 -21 -145t-68 -151t-114 -136t-168.5 -97.5t-222.5 -37.5q-205 0 -338 127q-129 129 -129 377q0 132 45 290q47 168 146 312q102 151 253 250q156 102 373 102q178 0 264 -45q-64 -134 -77 -213l-15 -8q-58 26 -100.5 36.5t-108.5 10.5q-112 0 -214 -67.5
t-170.5 -178t-96.5 -242.5q81 76 184.5 120t210.5 44q164 0 265.5 -93t101.5 -255zM829 514q0 93 -55.5 145t-150.5 52q-155 0 -308 -162v-27q0 -313 228 -313q78 0 137 30t89.5 78t45 97.5t14.5 99.5z" />
    <glyph glyph-name="seven" unicode="7" horiz-adv-x="1079" 
d="M317 0h-309l119 186q39 61 117.5 186.5t111.5 178.5q153 245 242 397q106 176 156 277h-635q26 120 28 213q125 -2 488 -2q354 0 475 2q-8 -34 -20 -148l-156 -260q-57 -98 -219 -366q-38 -65 -226 -377q-92 -151 -172 -287z" />
    <glyph glyph-name="eight" unicode="8" horiz-adv-x="1198" 
d="M471 -10q-130 0 -234.5 35t-169.5 110t-65 180q0 63 22.5 119t57.5 97t87 78.5t101 62.5t109 49q-248 107 -248 299q0 53 20 110t64 114t107 102t157.5 73.5t206.5 28.5q204 0 326 -94q125 -94 125 -242q0 -124 -92.5 -221.5t-256.5 -167.5q45 -22 77 -40t73 -48
t66 -59.5t43 -71.5t18 -88q0 -77 -39.5 -151.5t-112 -136.5t-188 -100t-254.5 -38zM596 827q112 50 182 103q78 60 78 160q0 69 -53 113t-139 44q-123 0 -187 -67q-63 -66 -63 -142q0 -67 48.5 -117.5t133.5 -93.5zM512 195q106 0 180 59t74 149q0 36 -15 67t-45 58
t-59.5 46.5t-73.5 43.5q-137 -61 -200.5 -121.5t-63.5 -146.5q0 -68 57 -110.5t146 -44.5z" />
    <glyph glyph-name="nine" unicode="9" horiz-adv-x="1216" 
d="M874 889v24q0 316 -229 316q-78 0 -136.5 -30t-89.5 -78t-46 -97.5t-15 -99.5q0 -93 56 -145t151 -52q156 0 309 162zM63 35q65 137 78 215l15 6q58 -26 100.5 -36.5t108.5 -10.5q113 0 214.5 67.5t169 177.5t95.5 242q-79 -76 -183 -120t-212 -44q-164 0 -264.5 93.5
t-100.5 255.5q0 70 20.5 145t67 151t113.5 136t169 97.5t224 37.5q207 0 336 -129q131 -125 131 -375q0 -125 -47 -293q-48 -168 -144 -311q-102 -149 -254 -248q-156 -102 -372 -102q-179 0 -265 45z" />
    <glyph glyph-name="colon" unicode=":" horiz-adv-x="487" 
d="M270 270q54 0 91.5 -34.5t37.5 -85.5q0 -66 -51.5 -113t-116.5 -47q-56 0 -92.5 33.5t-36.5 87.5q0 66 50.5 112.5t117.5 46.5zM336 893q54 0 91.5 -35t37.5 -86q0 -66 -51.5 -113t-116.5 -47q-56 0 -92.5 33.5t-36.5 87.5q0 66 50.5 113t117.5 47z" />
    <glyph glyph-name="semicolon" unicode=";" horiz-adv-x="534" 
d="M53 -190v16q62 12 115 59t59 95q-70 0 -105.5 35t-35.5 98q0 62 52 110.5t128 48.5q67 0 105.5 -43t38.5 -123q0 -71 -28 -136t-72.5 -112t-93.5 -80t-97 -50q-22 43 -66 82zM336 893q54 0 91.5 -35t37.5 -86q0 -66 -51.5 -113t-116.5 -47q-56 0 -92.5 33.5t-36.5 87.5
q0 66 50.5 113t117.5 47z" />
    <glyph glyph-name="less" unicode="&#x3c;" horiz-adv-x="1056" 
d="M848 432l-31 -209l-665 416l18 129l782 416l-30 -209l-504 -273z" />
    <glyph glyph-name="equal" unicode="=" horiz-adv-x="1257" 
d="M1143 1018l-27 -193h-936l27 193h936zM1081 575l-26 -192h-936l26 192h936z" />
    <glyph glyph-name="greater" unicode="&#x3e;" horiz-adv-x="1056" 
d="M905 768l-20 -129l-781 -414l29 207l506 270l-430 273l29 209z" />
    <glyph glyph-name="question" unicode="?" horiz-adv-x="868" 
d="M459 428h-152q-71 62 -71 160q0 90 65 143q58 50 143 105q95 65 144 112q65 65 65 170q0 66 -43 105t-112 39q-91 0 -146 -54t-55 -137q-10 0 -40.5 1t-49.5 1q-26 0 -119 -6q0 189 123.5 295t329.5 106q98 0 181.5 -32t138 -100t54.5 -160q0 -50 -6.5 -89t-26 -78.5
t-45 -72.5t-73.5 -78t-101.5 -87.5t-138.5 -106.5q-86 -66 -86 -144q0 -35 21 -92zM510 150q0 -66 -51.5 -113t-116.5 -47q-56 0 -92.5 33.5t-36.5 87.5q0 66 50 109.5t118 43.5q55 0 92 -32t37 -82z" />
    <glyph glyph-name="at" unicode="@" horiz-adv-x="2091" 
d="M1417 502q0 -119 109 -119q39 0 79 12t82.5 42t75 75t53.5 118.5t21 164.5q0 136 -50 245t-138.5 180t-208 108.5t-260.5 37.5q-162 0 -313.5 -58.5t-266 -159.5t-183.5 -247.5t-69 -312.5q0 -154 54.5 -277.5t153.5 -204.5t236.5 -124t303.5 -43q150 0 288 38
q153 41 256 97q4 -71 29 -133q-250 -172 -612 -172q-187 0 -351.5 56t-287.5 157.5t-194.5 255t-71.5 337.5q0 201 83 380.5t223 306t331 200.5t401 74q240 0 427 -85.5t296.5 -255t109.5 -400.5q0 -116 -35.5 -214.5t-93 -165t-132.5 -114t-153.5 -69t-156.5 -21.5
q-104 0 -165.5 47.5t-76.5 120.5q-166 -158 -344 -158q-112 0 -183 77t-71 214q0 126 42.5 235t115.5 185.5t175 120t218 43.5q142 0 353 -92q-47 -209 -69 -317t-26 -135t-4 -50zM1200 485q14 131 37 256q23 128 25 148q-59 41 -121 41q-72 0 -139 -50.5t-108.5 -134
t-41.5 -174.5q0 -84 38 -130t101 -46q39 0 80 15.5t65.5 31t63.5 43.5z" />
    <glyph glyph-name="A" unicode="A" horiz-adv-x="1372" 
d="M-74 -10q159 317 372.5 761t326.5 689q102 -4 163 -4q58 0 168 4q93 -539 289 -1440q-47 -1 -155.5 -5t-159.5 -5l-21 129q-2 20 -39 227q-110 4 -270 4q-129 0 -215 -4q-25 -54 -64 -141.5t-64 -146t-26 -58.5q-47 -1 -151 -5t-154 -5zM745 1206l-272 -641h369z" />
    <glyph glyph-name="B" unicode="B" horiz-adv-x="1226" 
d="M592 0h-535q0 3 7 44.5t16.5 99.5t13.5 94l123 866q11 69 21 185.5t10 148.5h514q210 0 313 -95q105 -91 105 -221q0 -49 -12.5 -97t-41 -99t-84.5 -96t-133 -74v-4q109 -37 165 -112.5t56 -172.5q0 -56 -17 -116.5t-57.5 -124t-100 -113t-154 -81.5t-209.5 -32z
M508 1225l-55 -385h209q109 0 180 65t71 162q0 75 -53 116.5t-155 41.5h-197zM424 637l-59 -424h219q70 0 124.5 23.5t84 60.5t44.5 77t15 79q0 82 -63 133t-177 51h-188z" />
    <glyph glyph-name="C" unicode="C" horiz-adv-x="1185" 
d="M651 -10q-272 0 -426 160q-153 164 -153 430q0 114 26.5 230t87.5 232t150 205t226 145t302 56q129 0 228.5 -44t150.5 -124q-12 -20 -42 -67t-46.5 -78t-32.5 -72l-10 -2q-32 68 -103 106.5t-157 38.5q-101 0 -185 -35t-139.5 -92t-93.5 -132t-55 -152.5t-17 -155.5
q0 -173 93 -295q91 -117 268 -117q162 0 317 78q1 -58 10.5 -98t32.5 -103q-76 -55 -195.5 -84.5t-236.5 -29.5z" />
    <glyph glyph-name="D" unicode="D" horiz-adv-x="1388" 
d="M55 0l39 238l121 866q11 69 21 185.5t10 148.5h502q137 0 248.5 -50t182 -136t108.5 -198t38 -239q0 -115 -29.5 -228.5t-93 -219.5t-154 -187.5t-222.5 -130.5t-289 -49h-482zM504 1206l-137 -979h213q102 0 184 40t132 101.5t84 142t47 156t13 148.5q0 182 -97 286.5
t-265 104.5h-174z" />
    <glyph glyph-name="E" unicode="E" horiz-adv-x="1122" 
d="M98 248l121 860l33 330h911q-29 -114 -47 -230q-72 6 -368 6q-26 0 -122 -1t-116 -1l-53 -366q29 0 89 -1t89 -1q61 0 183.5 3t144.5 3q-5 -13 -21 -90q-11 -63 -14 -148q-264 6 -269 6q-81 0 -233 -4l-55 -393q66 -2 235 -2q268 0 385 6q-24 -82 -28 -100
q-8 -34 -17 -127q-52 4 -368 4q-344 0 -521 -8q2 11 10.5 60.5t17.5 103t13 90.5z" />
    <glyph glyph-name="F" unicode="F" horiz-adv-x="1071" 
d="M250 1438h261.5t247 0.5t199.5 1t145 0.5h58q-30 -86 -51 -234q-118 9 -602 6l-53 -381q412 0 508 5q0 -6 -16.5 -116t-16.5 -118q-104 4 -269 4t-239 -4l-43 -295q-25 -170 -25 -307q-52 0 -123.5 -2.5t-122.5 -5t-53 -2.5q0 3 8 46.5t18.5 104t14.5 97.5l123 866
q11 70 21 184.5t10 149.5z" />
    <glyph glyph-name="G" unicode="G" horiz-adv-x="1308" 
d="M664 -10q-292 0 -442 171t-150 468q0 99 23 196.5t67 189.5t114 170.5t158 137t204.5 92t248.5 33.5q133 0 234 -46.5t159 -121.5q-13 -22 -34.5 -55t-32.5 -51.5t-26.5 -48.5t-29.5 -62l-10 -2q-86 143 -283 143q-121 0 -218.5 -48t-157 -127t-90.5 -174t-31 -196
q0 -93 24 -173.5t70.5 -143t120.5 -98t168 -35.5q92 0 141 22q11 73 28 239.5t17 193.5q48 0 119.5 2t123 4t52.5 2q-25 -113 -43 -260q-36 -281 -37 -318q-222 -104 -487 -104z" />
    <glyph glyph-name="H" unicode="H" horiz-adv-x="1435" 
d="M889 -10l90 606q-21 0 -119.5 1t-159.5 1q-64 0 -162 -1t-118 -1l-39 -274q-27 -238 -27 -322q-53 0 -154.5 -4.5t-142.5 -5.5q3 11 19 111.5t20 138.5l123 872q11 69 20 179t9 145q105 0 297 12q0 -7 -9 -59t-19 -113.5t-13 -83.5l-47 -334q27 -2 278 -2q252 0 279 2
l37 254q11 68 18.5 176t7.5 148q99 0 299 12q0 -4 -9 -56t-19 -114t-13 -86l-123 -870q-11 -71 -18.5 -173t-7.5 -149q-55 0 -156.5 -4.5t-140.5 -5.5z" />
    <glyph glyph-name="I" unicode="I" horiz-adv-x="602" 
d="M504 1198l-123 -883q-11 -71 -20 -175.5t-9 -139.5q-55 0 -159.5 -3.5t-135.5 -4.5q2 11 10 61t16.5 101.5t12.5 85.5l123 876q29 267 29 322q167 0 297 10q-2 -9 -10.5 -61.5t-17.5 -105t-13 -83.5z" />
    <glyph glyph-name="J" unicode="J" horiz-adv-x="1042" 
d="M594 580l76 532q11 68 18.5 176t7.5 148q31 0 72.5 1t79 3t70.5 4t53.5 3t21.5 1q0 -2 -8.5 -54t-18 -115t-12.5 -87l-88 -623q-41 -290 -189.5 -434.5t-395.5 -144.5q-196 0 -324 96q6 11 20.5 38.5t20.5 39t17 34.5t16.5 38t12.5 36t11 41l13 4q95 -77 217 -77
q118 0 201 83t108 257z" />
    <glyph glyph-name="K" unicode="K" horiz-adv-x="1273" 
d="M55 -10q0 1 8 45.5t18.5 106.5t14.5 98l123 872q11 71 20 180t9 144q62 0 178 6t119 6l-41 -256l-60 -424q207 219 375.5 416.5t200.5 253.5q247 0 321 6v-10l-624 -686q17 -30 78 -127q110 -169 139 -215q7 -10 145 -228l103 -158l-4 -22q-205 0 -322 -8q-1 2 -31 57
t-43 79t-47 84t-62 105.5t-67 109t-83 129t-91 132.5l-51 -364q-11 -80 -20 -184.5t-9 -137.5q-32 0 -74 -1t-79 -2.5t-69.5 -3t-53 -2.5t-21.5 -1z" />
    <glyph glyph-name="L" unicode="L" horiz-adv-x="1052" 
d="M901 -4q-434 10 -844 -4q0 3 8 46.5t18.5 104t14.5 97.5l123 872q27 281 27 324l297 12q-33 -194 -39 -254l-137 -977h286q156 0 295 8q-2 -7 -9 -29t-8.5 -26.5t-6.5 -21.5t-6 -21.5t-4.5 -18.5t-4.5 -20t-3 -18.5t-3 -22.5t-2 -23t-2 -28z" />
    <glyph glyph-name="M" unicode="M" horiz-adv-x="1794" 
d="M10 -10q171 813 289 1448q213 0 358 8q0 -11 33 -160l74 -346l74 -350q9 -41 18.5 -86t13 -61.5t4.5 -18.5l500 1014q199 0 340 8l-112 -1446q-105 0 -297 -10l110 1106q-45 -102 -47 -105l-440 -895h-199l-211 901q-13 50 -18 95l-191 -1092q-52 0 -124 -2.5t-123 -5
t-52 -2.5z" />
    <glyph glyph-name="N" unicode="N" horiz-adv-x="1531" 
d="M94 242l123 874q29 232 29 322q64 0 176 4t127 4l512 -1067l65 565q52 419 52 496q66 0 180.5 4t118.5 4q-5 -23 -22 -135t-21 -150l-119 -841q-3 -23 -13 -102t-16 -136t-6 -84l-328 -8q-19 56 -90 211q-64 144 -141 297q-91 194 -143 295q-74 149 -101 206l-76 -528
q-13 -106 -30 -275t-17 -198q-52 0 -111 -2t-117 -5t-71 -3q3 23 19.5 123.5t19.5 128.5z" />
    <glyph glyph-name="O" unicode="O" horiz-adv-x="1443" 
d="M74 584q0 96 19 194.5t56.5 196t100 182.5t143 150.5t192.5 103t242 37.5q250 0 398 -160q149 -155 149 -434q0 -97 -19.5 -195.5t-57.5 -196.5t-100.5 -182.5t-143.5 -149.5t-192 -102.5t-240 -37.5q-249 0 -400 157q-147 159 -147 437zM365 627q0 -116 29.5 -207.5
t96 -150t162.5 -58.5q88 0 162.5 38.5t124.5 100.5t85 141t51 158.5t16 155.5q0 118 -31.5 211t-99.5 151t-164 58q-88 0 -161.5 -38.5t-122.5 -100.5t-83.5 -141.5t-49.5 -160t-15 -157.5z" />
    <glyph glyph-name="P" unicode="P" horiz-adv-x="1173" 
d="M352 0q-52 0 -124 -2.5t-123 -5t-52 -2.5q4 24 20.5 116t22.5 140l121 866q11 71 21 181t10 145h477q221 0 333.5 -100t112.5 -273q0 -72 -18.5 -146.5t-63 -150t-109.5 -133.5t-166 -94.5t-224 -36.5h-187l-24 -180q-27 -238 -27 -324zM506 1225l-72 -504h172
q77 0 137 28.5t94 73.5t51 95t17 100q0 92 -58 149.5t-169 57.5h-172z" />
    <glyph glyph-name="Q" unicode="Q" horiz-adv-x="1437" 
d="M588 -10q-238 9 -377 166q-137 158 -137 428q0 96 19 194.5t56.5 196t100 182.5t143 150.5t192.5 103t242 37.5q250 0 398 -160q149 -155 149 -434q0 -100 -19 -200.5t-61 -200t-102.5 -182.5t-149.5 -147.5t-196 -94.5q28 -106 104.5 -156.5t186.5 -50.5q22 0 45 2
q43 3 45 4q-16 -103 -17 -123q-117 -57 -233 -57q-163 0 -276 91.5t-113 250.5zM653 211q88 0 162.5 38.5t124.5 100.5t85 141t51 158.5t16 155.5q0 118 -31.5 211t-99.5 151t-164 58q-88 0 -161.5 -38.5t-122.5 -100.5t-83.5 -141.5t-49.5 -160t-15 -157.5
q0 -116 29.5 -207.5t96 -150t162.5 -58.5z" />
    <glyph glyph-name="R" unicode="R" horiz-adv-x="1234" 
d="M252 1438h455q224 0 346.5 -98t122.5 -265q0 -73 -23 -147.5t-69 -145t-124.5 -127t-179.5 -84.5q51 -80 190.5 -311t145.5 -240l-2 -20q-35 0 -169 -5t-165 -5l-268 551h-98l-31 -217q-27 -238 -27 -324q-197 0 -299 -10q2 12 11 61t18.5 103.5t13.5 91.5l121 866
q11 71 21 181t10 145zM510 1221l-66 -463h172q148 0 221.5 79t73.5 189q0 90 -58 142.5t-171 52.5h-172z" />
    <glyph glyph-name="S" unicode="S" horiz-adv-x="1101" 
d="M1008 467q0 -60 -17 -122t-59.5 -127t-105.5 -114.5t-164.5 -81.5t-227.5 -32q-141 0 -260 43q-125 45 -182 80q54 80 98 225q49 -31 152 -72q110 -43 227 -43q127 0 199.5 56t72.5 149q0 71 -55.5 113.5t-165.5 70.5q-194 48 -296.5 129.5t-102.5 221.5q0 73 21.5 142
t68 131.5t113 109.5t163.5 74.5t213 27.5q118 0 224 -30.5t184 -80.5q-46 -65 -78 -178l-14 -6q-39 28 -126.5 49t-182.5 21q-131 0 -214 -55.5t-83 -143.5q0 -67 58.5 -104t174.5 -68q179 -50 272 -147.5t93 -237.5z" />
    <glyph glyph-name="T" unicode="T" horiz-adv-x="1204" 
d="M389 240l133 948h-422q2 8 11 50t13.5 63.5t10.5 61.5t10 77q54 0 258.5 -1t296.5 -1q145 0 316.5 1t247.5 1q-45 -155 -50 -252h-415l-123 -873q-2 -10 -39 -315q-32 0 -287 -10q24 139 39 250z" />
    <glyph glyph-name="U" unicode="U" horiz-adv-x="1394" 
d="M592 -10q-229 0 -354 103t-125 323q0 99 133 1022h37q131 0 239 12q-62 -419 -91 -630.5t-32.5 -250.5t-3.5 -77q0 -134 61.5 -200.5t176.5 -66.5q129 0 215 87t110 263l119 863q133 0 277 12l-123 -881q-42 -293 -208 -436t-431 -143z" />
    <glyph glyph-name="V" unicode="V" horiz-adv-x="1347" 
d="M113 1425v13q78 -4 182 -4q55 0 133 4q20 -136 90 -538.5t98 -629.5q79 200 252 585.5t250 582.5q98 -4 176 -4q45 0 131 4v-13q-452 -883 -702 -1427q-118 4 -170 4q-45 0 -147 -4q-90 521 -293 1427z" />
    <glyph glyph-name="W" unicode="W" horiz-adv-x="2158" 
d="M113 1427v11q70 -4 174 -4q69 0 139 4q27 -196 133 -1114l6 -56l19 56q13 42 178 444l131 315l121 285h321l58 -604q10 -90 20 -187t16.5 -169.5t8.5 -88.5q4 -50 4 -51l18 54l74 188l145 375l148 372l69 181q70 -4 132 -4q100 0 170 4v-11q-26 -46 -127 -266
q-140 -310 -195 -436l-195 -442q-108 -255 -120 -285q-94 4 -175 4q-27 0 -141 -4l-117 1051l-428 -1051q-114 4 -149 4q-167 0 -197 -4q-10 87 -43 285q-6 35 -30.5 193.5t-40.5 248.5q-68 392 -76 436q-31 183 -51 266z" />
    <glyph glyph-name="X" unicode="X" horiz-adv-x="1372" 
d="M-84 -10v12q76 83 188 216t241.5 290.5t174.5 210.5l-74 147q-20 40 -60 116.5t-52 100.5q-20 40 -58 110.5t-55 102.5q-48 93 -74 136v8q10 0 328 6q53 -161 236 -535q206 268 278 373l105 154l331 8v-6l-110 -140l-172 -219l-172 -225q-105 -138 -113 -149
q70 -137 189 -348t204 -349l-2 -12q-30 0 -342 -6l-39 86q-40 87 -102 217.5t-109 220.5q-72 -85 -169.5 -213.5t-160.5 -214.5t-63 -88q-250 -5 -348 -10z" />
    <glyph glyph-name="Y" unicode="Y" horiz-adv-x="1302" 
d="M471 -4l68 483l-398 948v11q166 0 314 8l235 -633q23 -57 27 -94q5 12 47 94l340 625q27 -2 84 -2q102 0 229 10v-8l-596 -961l-59 -477q-173 0 -291 -4z" />
    <glyph glyph-name="Z" unicode="Z" horiz-adv-x="1226" 
d="M1059 0h-1088q25 102 25 176l858 1036h-159.5t-178.5 -0.5t-161 -1t-123 -0.5h-48q34 101 31 228h1022q-27 -127 -27 -203l-845 -1016q66 0 164.5 1.5t192.5 3.5t177.5 4t137.5 3.5t55 1.5q-35 -116 -35 -204q0 -5 1 -15t1 -14z" />
    <glyph glyph-name="bracketleft" unicode="[" horiz-adv-x="628" 
d="M471 1372l-209 -1474h195l-25 -187h-424l258 1848h426l-26 -187h-195z" />
    <glyph glyph-name="backslash" unicode="\" horiz-adv-x="987" 
d="M115 1516h247l672 -1616h-248z" />
    <glyph glyph-name="bracketright" unicode="]" horiz-adv-x="626" 
d="M-63 -289l24 187h195l209 1474h-195l25 187h423l-258 -1848h-423z" />
    <glyph glyph-name="asciicircum" unicode="^" horiz-adv-x="995" 
d="M186 737h-204l475 701h178l280 -701h-206l-193 486z" />
    <glyph glyph-name="underscore" unicode="_" horiz-adv-x="1212" 
d="M1008 -238l-29 -190h-977l29 190h977z" />
    <glyph glyph-name="grave" unicode="`" 
d="M719 1255h-129l-187 314v22h238z" />
    <glyph glyph-name="a" unicode="a" horiz-adv-x="1163" 
d="M1137 1110q-40 -238 -72.5 -458.5t-46.5 -338t-14 -143.5q-2 -80 2 -170q-154 0 -287 -10q1 8 1.5 34.5t2.5 61.5t6 72q-126 -168 -299 -168q-161 0 -268 125t-107 323q0 92 24.5 185.5t75.5 181.5t122.5 156.5t174.5 109.5t222 41q110 0 192 -59l11 51h45q11 0 215 6z
M748 319l81 562q-67 47 -151 47q-79 0 -144 -44.5t-104.5 -114t-60.5 -148t-21 -152.5q0 -120 53 -196t140 -76q117 0 207 122z" />
    <glyph glyph-name="b" unicode="b" horiz-adv-x="1183" 
d="M307 51l-155 -51h-95l185 1313q18 129 18 207q40 1 256 41h37q-31 -153 -92 -596q118 147 270 147q122 0 212 -61.5t134.5 -162t44.5 -226.5q0 -91 -24 -184t-75.5 -181t-122.5 -156t-174 -109.5t-222 -41.5q-113 0 -197 61zM436 786l-82 -567q81 -47 148 -47
q79 0 143.5 45t103.5 114.5t59.5 147.5t20.5 152q0 120 -52.5 196t-139.5 76q-110 0 -201 -117z" />
    <glyph glyph-name="c" unicode="c" horiz-adv-x="1054" 
d="M514 -12q-205 0 -332 118q-127 121 -127 340q0 94 24 187.5t74 180t120.5 152.5t171.5 106t219 40q67 0 126 -13.5t111.5 -43t83.5 -84t31 -127.5q0 -37 -15 -107q-155 0 -223 -18q15 51 15 86q0 55 -39.5 86t-108.5 31q-68 0 -122 -33.5t-86.5 -84t-53.5 -115.5
t-29 -122t-8 -110q0 -262 250 -262q141 0 287 86q8 -28 28 -72t37 -68q-91 -72 -207 -112.5t-227 -40.5z" />
    <glyph glyph-name="d" unicode="d" horiz-adv-x="1189" 
d="M430 -10q-161 0 -268 125t-107 323q0 92 24.5 185.5t75.5 181.5t122.5 156.5t174.5 109.5t222 41q99 0 170 -49q40 317 51 457q38 0 119.5 14t134.5 27h41l-182 -1301q-13 -96 -13 -164q0 -42 4 -96q-151 0 -284 -10q-3 25 10 164q-60 -83 -138 -123.5t-157 -40.5z
M745 317l76 568q-74 43 -143 43q-79 0 -144 -44.5t-104.5 -114t-60.5 -148t-21 -152.5q0 -120 53 -196t140 -76q109 0 204 120z" />
    <glyph glyph-name="e" unicode="e" horiz-adv-x="1110" 
d="M512 -10q-207 0 -332 120t-125 336q0 94 24 187.5t73.5 179.5t119 152.5t168.5 106.5t213 40q184 0 290 -98.5t106 -270.5q0 -41 -15 -114q-11 -69 -28 -121h-656q-6 -48 -6 -66q0 -122 64 -184.5t184 -62.5q132 0 287 86q49 -118 63 -140q-86 -72 -202 -111.5
t-228 -39.5zM371 664h434q6 54 6 63q0 66 -35 131q-34 64 -139 64q-116 0 -178 -80q-61 -76 -88 -178z" />
    <glyph glyph-name="f" unicode="f" horiz-adv-x="772" 
d="M57 -10l41 248l92 669l-124 27q19 109 20 145l131 17l14 98q14 105 57 181.5t106 118.5t131.5 61.5t146.5 19.5q143 0 223 -62q-59 -133 -72 -180q-48 39 -118 39q-74 0 -134 -49.5t-73 -138.5l-13 -80h277q-21 -104 -23 -115q-7 -41 -10 -92h-272l-95 -668
q-10 -73 -24 -229q-186 -4 -281 -10z" />
    <glyph glyph-name="g" unicode="g" horiz-adv-x="1171" 
d="M748 315q9 62 28.5 204t33.5 245t17 117q-67 47 -149 47q-79 0 -144 -44.5t-104.5 -114t-60.5 -148t-21 -152.5q0 -120 53 -196t140 -76q115 0 207 118zM424 -440q-111 0 -225 32t-193 78q30 53 44 89.5t28 97.5q63 -37 143.5 -58.5t155.5 -21.5q302 0 338 274l10 80
q-60 -71 -137 -106t-154 -35q-168 0 -273.5 126.5t-105.5 321.5q0 92 24.5 185.5t75.5 181.5t122.5 156.5t174.5 109.5t222 41q110 0 194 -61l15 51h47q39 0 110.5 3.5t92.5 4.5q-20 -137 -74 -535.5t-68 -488.5q-45 -266 -180.5 -396t-386.5 -130z" />
    <glyph glyph-name="h" unicode="h" horiz-adv-x="1206" 
d="M88 240l133 954q19 144 21 209q7 108 8 115q40 1 256 41h39l-94 -662q85 97 189.5 156t215.5 59q52 0 98.5 -13.5t87 -42.5t64.5 -79.5t24 -118.5q0 -56 -90 -670q-6 -53 -14 -188q-167 0 -287 -10l39 246q10 77 26.5 203.5t28 210.5t11.5 87q6 78 -34 113t-105 35
q-69 0 -142.5 -41.5t-132.5 -100.5l-72 -507q-24 -183 -22 -236q-166 0 -289 -10q22 108 41 250z" />
    <glyph glyph-name="i" unicode="i" horiz-adv-x="516" 
d="M326 1249q-58 0 -98 35.5t-40 91.5q0 68 53.5 115t123.5 47q58 0 96.5 -34.5t38.5 -90.5q0 -67 -54.5 -115.5t-119.5 -48.5zM80 240l67 485q27 210 31 334q45 0 121.5 13.5t132.5 31.5h41l-121 -868q-24 -192 -24 -236q-153 0 -289 -10q34 201 41 250z" />
    <glyph glyph-name="j" unicode="j" horiz-adv-x="538" 
d="M326 1249q-58 0 -98 35.5t-40 91.5q0 68 53.5 115t123.5 47q58 0 96.5 -34.5t38.5 -90.5q0 -67 -54.5 -115.5t-119.5 -48.5zM-45 -434q-22 43 -107 121q50 33 118.5 135t86.5 229l94 662q24 190 29 348q51 3 125 12q76 11 133 31h39q-15 -102 -68 -490t-71 -505
q-24 -178 -133.5 -327t-245.5 -216z" />
    <glyph glyph-name="k" unicode="k" horiz-adv-x="1122" 
d="M88 242l133 952q21 149 27 324q22 1 54.5 5.5t59.5 9.5t72.5 14t71.5 14h39l-135 -955q47 41 109 107t117 131t103.5 124.5t77.5 96.5l29 37q51 -2 158 -2q65 0 149 6v-14l-463 -506l332 -580l-2 -6q-33 0 -104.5 -2.5t-129.5 -5t-59 -2.5l-324 571l-45 -325
q-23 -204 -22 -236q-166 0 -289 -10q30 150 41 252z" />
    <glyph glyph-name="l" unicode="l" horiz-adv-x="548" 
d="M90 238l135 956q27 200 27 324q80 3 256 43h41l-187 -1325q-23 -197 -22 -236q-166 0 -289 -10q2 11 11 65.5t17 106.5t11 76z" />
    <glyph glyph-name="m" unicode="m" horiz-adv-x="1902" 
d="M49 -10l109 735q11 68 19.5 172t8.5 152q0 3 41.5 12t121.5 24.5t93 18.5h41l-30 -209q87 99 192 158t215 59q48 0 93 -12t85.5 -36t67.5 -68t33 -101q86 99 193.5 158t219.5 59q53 0 100 -13.5t88 -42.5t65 -79.5t24 -118.5q0 -34 -32 -269t-58 -401q-15 -90 -15 -188
q-154 0 -286 -10q15 81 28 182q31 210 35 238q24 157 29 217q12 99 12 127q0 131 -139 131q-68 0 -139.5 -38t-130.5 -93l-58 -404l-24 -162q-13 -109 -13 -188q-168 0 -288 -10q0 2 8 52.5t17.5 112t12.5 85.5q68 461 68 512q0 70 -41.5 101.5t-105.5 31.5q-69 0 -144 -42
t-133 -100l-72 -507q-22 -145 -22 -236q-153 0 -289 -10z" />
    <glyph glyph-name="n" unicode="n" horiz-adv-x="1216" 
d="M88 242l70 483q19 138 22 225q6 99 6 105q26 0 66.5 8t97 21t92.5 20h41l-30 -209q87 99 192 158t215 59q53 0 101.5 -14t90 -42t66.5 -79.5t25 -118.5q0 -71 -92 -670q-13 -109 -13 -188q-168 0 -288 -10q0 2 8 52.5t17.5 112t12.5 85.5q68 504 68 512q0 70 -41.5 101.5
t-105.5 31.5q-69 0 -144 -42t-133 -100l-72 -507q-22 -194 -22 -236q-153 0 -289 -10l9 52q9 52 18.5 114.5t11.5 85.5z" />
    <glyph glyph-name="o" unicode="o" horiz-adv-x="1146" 
d="M55 451q0 183 79 334.5t216.5 239t302.5 87.5q189 0 310.5 -119.5t121.5 -343.5q0 -182 -78.5 -334t-215.5 -239.5t-302 -87.5q-91 0 -169 29.5t-137.5 85.5t-93.5 145.5t-34 202.5zM815 668q0 119 -53 185.5t-141 66.5q-65 0 -117.5 -35.5t-84 -88.5t-53 -119.5
t-30 -123.5t-8.5 -104q0 -121 51.5 -187.5t140.5 -66.5q79 0 140 53t92.5 132t47 153.5t15.5 134.5z" />
    <glyph glyph-name="p" unicode="p" horiz-adv-x="1181" 
d="M432 788l-78 -571q78 -45 144 -45q79 0 144 45t104 114.5t60 148t21 151.5q0 120 -52.5 196t-139.5 76q-114 0 -203 -115zM1118 662q0 -91 -24 -184t-75 -181t-122.5 -156t-174 -109.5t-220.5 -41.5q-101 0 -172 49l-35 -238q-19 -156 -21 -227q-158 0 -288 -10
q32 175 39 241l131 920q12 87 19 165.5t7 113v55.5q28 0 67 6.5t99.5 20t89.5 18.5h39l-16 -135q114 143 266 143q123 0 213 -61.5t134 -162t44 -226.5z" />
    <glyph glyph-name="q" unicode="q" horiz-adv-x="1169" 
d="M868 1051l15 53q48 0 135 3.5t115 4.5l-185 -1325q-17 -136 -20 -213q-157 0 -287 -10q30 176 84 571q-61 -72 -138.5 -108.5t-156.5 -36.5q-161 0 -268 125t-107 323q0 92 24.5 185.5t75.5 181.5t122.5 156.5t174.5 109.5t222 41q110 0 194 -61zM748 315q9 62 28.5 204
t33.5 245t17 117q-67 47 -149 47q-79 0 -144 -44.5t-104.5 -114t-60.5 -148t-21 -152.5q0 -120 53 -196t140 -76q115 0 207 118z" />
    <glyph glyph-name="r" unicode="r" horiz-adv-x="823" 
d="M88 242l70 483q23 163 28 334q26 0 65.5 6.5t99.5 19.5t91 19h41l-34 -242q133 250 311 250q76 0 147 -41q-24 -42 -41 -82.5t-23.5 -61t-13.5 -49.5t-8 -32q-82 20 -123 20q-163 0 -276 -196l-62 -434q-22 -157 -22 -236q-153 0 -289 -10q4 30 21 138t18 114z" />
    <glyph glyph-name="s" unicode="s" horiz-adv-x="919" 
d="M369 -10q-101 0 -209 30q-104 34 -156 80q49 72 78 164q14 -14 104 -49q91 -31 193 -31q96 0 153.5 44t57.5 114q0 43 -40 70t-130 51q-161 40 -238.5 102.5t-77.5 179.5q0 166 124.5 266.5t334.5 100.5q90 0 175.5 -23t144.5 -65q-51 -84 -74 -150l-23 -12
q-96 60 -223 60q-88 0 -144.5 -41.5t-56.5 -104.5q0 -39 37 -64t121 -50q166 -38 246 -108.5t80 -176.5q0 -31 -6.5 -65t-23 -72.5t-41 -73.5t-63 -67.5t-86.5 -56.5t-114 -38t-143 -14z" />
    <glyph glyph-name="t" unicode="t" horiz-adv-x="808" 
d="M756 897h-271q-75 -488 -75 -537q0 -153 133 -153q69 0 149 39v-21q0 -63 25 -149q-141 -86 -287 -86q-131 0 -215 77.5t-84 225.5q0 99 78 608l-156 31q4 19 19 133l172 33q9 65 41 229q27 0 59 5t85.5 16.5t86.5 17.5h39l-39 -262h275q-35 -134 -35 -207z" />
    <glyph glyph-name="u" unicode="u" horiz-adv-x="1196" 
d="M360 -10q-110 0 -192 68t-82 200q0 22 8 81t26.5 181t31.5 217q11 81 20.5 191.5t9.5 154.5q26 1 60 4t89.5 8t102.5 9h41l-53 -369q-49 -350 -49 -373q0 -71 39.5 -107t99.5 -36q67 0 139 43t129 105l51 362q12 82 22.5 196.5t10.5 157.5q33 1 117 9t137 12h39l-53 -377
l-62 -436q-16 -109 -16 -207q0 -34 4 -84q-153 0 -285 -10q0 69 13 211q-87 -96 -190 -153.5t-208 -57.5z" />
    <glyph glyph-name="v" unicode="v" horiz-adv-x="1120" 
d="M139 893l-49 211h285q0 -25 14 -117l25 -139l39 -225l41 -220l24 -120q8 -32 8 -60q1 1 17 41l18 45q22 43 62 137l98 224q80 177 94 211q12 26 23.5 52t16 36.5t5.5 11.5q2 3 24.5 62.5t22.5 60.5h279l-113 -215q-29 -59 -90 -175.5t-78 -150.5q-32 -62 -89.5 -173.5
t-80.5 -156.5l-119 -233h-131q-89 -5 -131 -10q-43 193 -59 258l-80 332z" />
    <glyph glyph-name="w" unicode="w" horiz-adv-x="1658" 
d="M285 -10l-203 1114h260l16 -113q17 -113 41 -287.5t39 -300.5l17 -143l51 148l278 696h238l102 -694l13 -150l49 152q39 124 105 296t112.5 284t48.5 112h272q-26 -57 -79 -172l-172 -375l-175 -379q-79 -171 -79 -176q-100 0 -250 -10l-82 567q-23 195 -23 227
q-55 -175 -82 -235l-233 -551q-154 0 -264 -10z" />
    <glyph glyph-name="x" unicode="x" horiz-adv-x="1087" 
d="M-66 -8q69 84 247.5 311t205.5 260q-88 148 -283 541h291l49 -121q33 -74 129 -260q154 191 203 260q70 94 84 121h275q-313 -403 -437 -541q25 -49 142.5 -266t158.5 -297q-200 0 -280 -10q-24 63 -68 149q-43 94 -125 246q-133 -161 -194 -244q-67 -88 -103 -141
q-46 0 -161.5 -4t-133.5 -4z" />
    <glyph glyph-name="y" unicode="y" horiz-adv-x="1118" 
d="M387 4l-291 1100h291q0 -3 23 -137.5t59.5 -330.5t62.5 -317l13 -73l28 73l64 142l117 266q38 83 112 258q52 116 52 119h274l-109 -219q-5 -11 -180 -369l-178 -362q-90 -184 -98 -205q-90 -196 -206 -289.5t-265 -93.5q-108 0 -222 72q63 83 105 184q71 -39 135 -39
q68 0 124 59.5t89 161.5z" />
    <glyph glyph-name="z" unicode="z" horiz-adv-x="970" 
d="M-4 0l24 184l138 156l198 227l193 215l115 125q-28 0 -164 1t-164 1q-73 0 -191 -4q26 171 27 199h819l-26 -193l-158 -178l-209 -233q-180 -200 -186 -207l-86 -94q18 0 146.5 1t148.5 1q145 0 241 8q-23 -112 -31 -209h-835z" />
    <glyph glyph-name="braceleft" unicode="{" horiz-adv-x="686" 
d="M494 -279q-88 -24 -172 -24q-128 0 -200.5 76.5t-72.5 208.5q0 42 24.5 203.5t24.5 203.5q0 65 -24 100.5t-80 69.5q24 55 24 115q0 29 -2 39q77 42 115.5 90t50.5 143l37 264q23 167 121 265t246 98q88 0 164 -25q-23 -77 -23 -114q0 -4 1 -13t1 -14q-63 0 -106.5 -7.5
t-74 -26t-48.5 -44t-30.5 -68.5t-20.5 -92t-17 -121q-2 -23 -4 -34q-17 -122 -39.5 -190.5t-55 -107.5t-93.5 -77q53 -44 76.5 -93t23.5 -122q0 -34 -24.5 -209t-24.5 -205q0 -33 9.5 -57.5t32.5 -45.5t67.5 -31.5t109.5 -10.5q-18 -53 -18 -111q0 -5 1 -16.5t1 -16.5z" />
    <glyph glyph-name="bar" unicode="|" horiz-adv-x="483" 
d="M258 1559h227l-260 -1848h-227z" />
    <glyph glyph-name="braceright" unicode="}" horiz-adv-x="686" 
d="M195 1546q88 27 170 27q128 0 200 -76.5t72 -210.5q0 -42 -24.5 -202.5t-24.5 -202.5q0 -64 24.5 -100t79.5 -70q-24 -55 -24 -115q0 -29 2 -39q-51 -27 -80.5 -52t-52 -70t-31.5 -111l-37 -267q-23 -165 -122.5 -262.5t-246.5 -97.5q-87 0 -163 24q20 61 20 111v31
q171 0 216.5 62t75.5 271q6 39 9 60q17 122 39 190.5t54.5 107.5t94.5 77q-53 44 -76.5 93t-23.5 122q0 34 24.5 209t24.5 202q0 71 -47 109.5t-172 38.5q19 58 19 141z" />
    <glyph glyph-name="asciitilde" unicode="~" horiz-adv-x="841" 
d="M137 479q-48 34 -80 47q59 117 125 148q67 31 117 31q43 0 84 -15.5t68.5 -34t63 -34t67.5 -15.5q70 0 127 76q33 -33 82 -49q-70 -119 -136 -150q-65 -30 -114 -30q-54 0 -104 25t-95 50t-86 25q-64 0 -119 -74z" />
    <glyph glyph-name="uni00A0" unicode="&#xa0;" horiz-adv-x="401" 
 />
    <glyph glyph-name="exclamdown" unicode="&#xa1;" horiz-adv-x="520" 
d="M473 1073q0 -67 -51 -111t-117 -44q-56 0 -92.5 31.5t-36.5 82.5q0 66 51.5 113t116.5 47q55 0 92 -34t37 -85zM45 -258h-41l180 1046q47 -8 101 -8q60 0 104 8q-15 -184 -53 -610q-8 -83 -17.5 -178t-15 -151t-6.5 -70q-51 0 -252 -37z" />
    <glyph glyph-name="cent" unicode="&#xa2;" horiz-adv-x="1083" 
d="M948 141q-151 -121 -352 -147l-29 -205h-227l31 217q-146 38 -231 152t-85 288q0 82 18.5 164t57 160t92.5 143t131.5 113.5t167.5 69.5l37 258h227l-34 -248q103 -15 182 -76q82 -58 82 -186q0 -37 -15 -107q-155 0 -223 -18q15 51 15 86q0 55 -39.5 86t-108.5 31
q-68 0 -122 -33.5t-86.5 -84t-53.5 -115.5t-29 -122t-8 -110q0 -262 250 -262q141 0 287 86q8 -28 28 -72t37 -68z" />
    <glyph glyph-name="sterling" unicode="&#xa3;" horiz-adv-x="1144" 
d="M1163 1286q-9 -15 -40.5 -61.5t-47.5 -74.5t-24 -54l-39 -19q-75 117 -230 117q-78 0 -135.5 -31.5t-90.5 -87t-48.5 -122.5t-15.5 -146v-19h360q-27 -76 -27 -165v-19h-311q4 -54 4 -80q0 -191 -133 -301q252 -6 264 -6q68 0 190.5 3.5t153.5 4.5q-29 -120 -32 -229
q-192 4 -408 4q-380 0 -555 -8l29 217q89 41 148 138t65 257h-121q23 85 26 184h84q-1 18 -5.5 67.5t-4.5 76.5q0 233 148.5 375.5t416.5 142.5q116 0 220 -39q107 -37 159 -125z" />
    <glyph glyph-name="currency" unicode="&#xa4;" horiz-adv-x="1179" 
d="M889 459l158 -183l-140 -122l-159 186q-101 -61 -220 -61q-120 0 -196 61l-213 -186l-103 125l209 182q-41 71 -41 155q0 148 99 269l-156 186l139 123l158 -184q103 61 219 61q124 0 199 -63l213 186l102 -123l-211 -182q43 -75 43 -162q0 -139 -100 -268zM551 428
q122 0 202.5 88t80.5 193q0 89 -60 150t-153 61q-114 0 -196.5 -87t-82.5 -194q0 -89 56.5 -150t152.5 -61z" />
    <glyph glyph-name="yen" unicode="&#xa5;" horiz-adv-x="1316" 
d="M489 244h-366l37 123h346l14 96h-366l36 121h289l-352 839v15h332l221 -604q2 -6 6 -17.5t6.5 -19t6 -23.5t6.5 -35q34 79 43 95l339 604h320v-8l-537 -846h301l-38 -121h-330l-15 -96h353l-37 -123h-332l-35 -244h-282z" />
    <glyph glyph-name="brokenbar" unicode="&#xa6;" horiz-adv-x="483" 
d="M256 1559h227l-106 -764h-227zM109 494h227l-111 -783h-227z" />
    <glyph glyph-name="section" unicode="&#xa7;" horiz-adv-x="1107" 
d="M772 457q0 59 -49 96t-164 76q-97 26 -168 71q-57 -64 -57 -137q0 -62 49.5 -99t153.5 -69q137 -46 184 -76q51 66 51 138zM395 -432q-153 0 -268 47q-118 48 -172 80q45 65 90 215q38 -36 135 -80q93 -43 217 -43q111 0 193 61q84 63 84 162q0 64 -65 105t-189 78
q-90 27 -151 54t-110 64t-72.5 86t-23.5 113q0 75 31 156.5t90 152.5q-41 62 -41 146q0 61 18 124.5t61.5 128.5t106.5 115.5t162 82.5t220 32q125 0 237 -30.5t187 -74.5q-57 -88 -84 -182l-33 -16q-42 31 -123.5 57.5t-179.5 26.5q-128 0 -205 -68q-74 -68 -74 -149
q0 -29 12.5 -53.5t32 -42t53 -34t65.5 -28t79 -25.5q202 -61 285.5 -129.5t83.5 -181.5q0 -170 -125 -321q45 -60 45 -150q0 -58 -18 -120t-61.5 -127t-106.5 -116t-163.5 -83.5t-222.5 -32.5z" />
    <glyph glyph-name="dieresis" unicode="&#xa8;" 
d="M733 1270q-47 0 -77.5 29.5t-30.5 74.5q0 57 43 98t100 41q49 0 80 -30.5t31 -75.5q0 -56 -44.5 -96.5t-101.5 -40.5zM373 1270q-47 0 -78 30t-31 74q0 57 43.5 98t100.5 41q49 0 79.5 -30.5t30.5 -75.5q0 -56 -44 -96.5t-101 -40.5z" />
    <glyph glyph-name="copyright" unicode="&#xa9;" horiz-adv-x="1630" 
d="M1569 801q0 -78 -16.5 -160t-51.5 -165t-86 -159.5t-123.5 -143.5t-159.5 -116t-199.5 -77.5t-238.5 -28.5q-144 0 -264 50t-200.5 137t-124.5 204.5t-44 253.5q0 111 33.5 227t104.5 228t170.5 199t244 140.5t312.5 53.5q145 0 266.5 -50.5t203.5 -137.5t127.5 -204.5
t45.5 -250.5zM215 604q0 -226 143 -370t379 -144q135 0 250 45.5t191.5 118.5t130.5 165.5t78 185t24 179.5q0 227 -141.5 373t-380.5 146q-135 0 -250 -46t-191.5 -119t-130.5 -166.5t-78 -187t-24 -180.5zM782 293q-158 0 -252 83t-94 234q0 46 11 98t33 108.5t59 106.5
t85 90.5t116 64.5t147 24q49 0 94.5 -12.5t84 -38t62 -69.5t23.5 -101q0 -5 -4.5 -37.5t-5.5 -46.5q-100 13 -172 -2q1 6 3 23t3.5 30.5t1.5 17.5q0 46 -32 70.5t-81 24.5q-47 0 -86 -23t-64 -58t-42.5 -78t-25 -81t-7.5 -70q0 -94 51 -151.5t156 -57.5q116 0 219 64
q1 -22 13.5 -49.5t25.5 -42.5q-59 -58 -147.5 -89.5t-174.5 -31.5z" />
    <glyph glyph-name="ordfeminine" unicode="&#xaa;" horiz-adv-x="757" 
d="M80 1055q0 68 24 137t68 129t116.5 97.5t160.5 37.5q66 0 114 -37l6 27l158 10q-4 -22 -29.5 -159t-39 -240t-13.5 -185q0 -6 6 -81q-77 0 -176 -9l6 88q-76 -88 -174 -88q-101 0 -164 77t-63 196zM489 967q0 2 9.5 61t22.5 144.5t20 140.5q-36 28 -90 28q-61 0 -107 -45
t-66 -104.5t-20 -120.5q0 -71 29.5 -115.5t87.5 -44.5q52 0 114 56z" />
    <glyph glyph-name="guillemotleft" unicode="&#xab;" horiz-adv-x="1081" 
d="M508 184h-217l-242 402v22l359 404h215l-326 -406v-18zM979 184h-217l-242 402v22l359 404h215l-326 -406v-18z" />
    <glyph glyph-name="logicalnot" unicode="&#xac;" horiz-adv-x="1255" 
d="M897 727h-721l27 188h936l-86 -606h-213z" />
    <glyph glyph-name="uni00AD" unicode="&#xad;" horiz-adv-x="868" 
d="M123 600l33 191h559l-33 -191h-559z" />
    <glyph glyph-name="registered" unicode="&#xae;" horiz-adv-x="872" 
d="M82 1081q0 75 30 151t83.5 140t139 104t185.5 40q146 0 236 -93q90 -90 90 -227q0 -73 -30 -149t-84 -141t-141 -106.5t-190 -41.5q-142 0 -231 92q-88 91 -88 231zM760 1188q0 111 -71.5 180.5t-186.5 69.5q-138 0 -236 -104t-98 -249q0 -109 72.5 -178t183.5 -69
q136 0 235 102q101 101 101 248zM502 958l-70 136h-18l-17 -131l-82 -5l52 381h135q55 0 85.5 -28t30.5 -72q0 -48 -27.5 -85t-74.5 -50l80 -141zM487 1276h-49l-14 -115h49q32 0 49 22t17 46q0 20 -14 33.5t-38 13.5z" />
    <glyph glyph-name="overscore" unicode="&#xaf;" 
d="M803 1319h-502l12 63q11 68 13 95h501q-2 -10 -16 -95q-6 -58 -8 -63z" />
    <glyph glyph-name="degree" unicode="&#xb0;" horiz-adv-x="618" 
d="M266 909q-103 0 -164 59.5t-61 157.5q0 132 88 217q89 89 219 89q105 0 167.5 -60t62.5 -158q0 -130 -95 -219q-92 -86 -217 -86zM326 1303q-61 0 -104.5 -44.5t-43.5 -111.5q0 -49 30 -78t81 -29q64 0 107.5 44.5t43.5 111.5q0 50 -30 78.5t-84 28.5z" />
    <glyph glyph-name="plusminus" unicode="&#xb1;" horiz-adv-x="1257" 
d="M1112 791l-27 -191h-354l-45 -311h-209l45 311h-372l26 191h373l51 374h209l-53 -374h356zM1028 193l-29 -193h-936l29 193h936z" />
    <glyph glyph-name="twosuperior" unicode="&#xb2;" horiz-adv-x="702" 
d="M623 608h-592l14 107q53 36 102 71.5t112.5 89.5t108.5 103.5t77 107t32 105.5q0 54 -35.5 81t-89.5 27q-50 0 -100.5 -25t-85.5 -69h-8q-2 12 -7 25.5t-12.5 26t-13.5 21t-14 19t-9 11.5q59 65 149.5 102t180.5 37q106 0 175 -56.5t69 -162.5q0 -223 -357 -488
q2 0 138.5 2t185.5 2q-17 -68 -20 -137z" />
    <glyph glyph-name="threesuperior" unicode="&#xb3;" horiz-adv-x="661" 
d="M104 1321q51 55 135 91t183 36q103 0 162 -48t59 -124q0 -70 -42.5 -133.5t-121.5 -100.5q67 -13 103 -56t36 -109q0 -115 -101 -205t-230 -90q-82 0 -157 22.5t-116 54.5q36 55 52 136q76 -72 202 -72q69 0 113.5 44t44.5 95q0 49 -42.5 75t-107.5 26h-34q1 9 2.5 26
t2.5 30t1 23q0 6 -1 14t-1 11q71 0 133 45q63 45 63 109q0 41 -27.5 62.5t-72.5 21.5q-44 0 -92.5 -24t-79.5 -64h-10q-5 33 -56 104z" />
    <glyph glyph-name="acute" unicode="&#xb4;" 
d="M678 1569l-186 -314h-130l78 336h238v-22z" />
    <glyph glyph-name="mu" unicode="&#xb5;" horiz-adv-x="1189" 
d="M1137 1104h43l-115 -801q-14 -104 -14 -215q0 -38 4 -88q-153 0 -285 -10q0 95 12 215q-196 -217 -387 -217q-15 0 -47 4l-29 -203q-24 -163 -24 -229q-168 0 -285 -9q-1 1 16.5 115.5t51 342.5t61.5 435l43 306q33 250 33 337q42 0 248 17h43l-100 -707q-3 -15 -3 -32
q0 -70 41 -108t99 -38q111 0 258 139l53 373q9 79 22.5 213.5t14.5 142.5q34 0 246 17z" />
    <glyph glyph-name="paragraph" unicode="&#xb6;" horiz-adv-x="1490" 
d="M1448 1194l-182 -1288q-27 -254 -27 -326q-51 0 -256 -10q27 140 41 256l182 1288q7 54 19 178.5t12 149.5h250q-2 -14 -19 -109.5t-20 -138.5zM760 504h-187q-211 0 -328.5 107t-117.5 290q0 73 16.5 144t58.5 144t105 128t165 90t230 35h445q-14 -56 -57 -328
l-183 -1282l-28 -252q-119 0 -269 -10q26 93 49 232.5t101 701.5z" />
    <glyph glyph-name="middot" unicode="&#xb7;" horiz-adv-x="477" 
d="M270 829q54 0 91.5 -34.5t37.5 -85.5q0 -66 -51.5 -113t-116.5 -47q-56 0 -92.5 33.5t-36.5 87.5q0 66 50.5 112.5t117.5 46.5z" />
    <glyph glyph-name="cedilla" unicode="&#xb8;" 
d="M586 -92q85 0 134.5 -40t49.5 -104q0 -81 -76 -145q-74 -65 -194 -65q-50 0 -96.5 13t-71.5 34q30 54 33 96q19 -11 57.5 -21t73.5 -10q56 0 93.5 22t37.5 72q0 70 -131 70q-18 0 -51.5 -4t-36.5 -4l-9 31l93 157h98l-49 -104q7 0 22.5 1t22.5 1z" />
    <glyph glyph-name="onesuperior" unicode="&#xb9;" horiz-adv-x="550" 
d="M473 606h-461l17 123l151 6l76 527l-160 -21q10 40 10 105q53 8 123 32q70 20 158 60h76l-101 -703l127 -4z" />
    <glyph glyph-name="ordmasculine" unicode="&#xba;" horiz-adv-x="768" 
d="M80 1057q0 166 104.5 278.5t253.5 112.5q112 0 186 -71t74 -206q0 -166 -104.5 -279.5t-253.5 -113.5q-112 0 -186 72t-74 207zM532 1182q0 70 -32.5 108.5t-79.5 38.5q-46 0 -82 -30t-54.5 -75t-28 -88.5t-9.5 -80.5q0 -71 32.5 -110.5t79.5 -39.5q46 0 82 30t54.5 76
t28 90t9.5 81z" />
    <glyph glyph-name="guillemotright" unicode="&#xbb;" horiz-adv-x="1081" 
d="M205 184h-217l323 404v18l-211 406h217l242 -404v-22zM680 184h-217l323 404v18l-211 406h218l241 -404v-22z" />
    <glyph glyph-name="onequarter" unicode="&#xbc;" horiz-adv-x="1570" 
d="M473 606h-461l17 123l151 6l76 527l-160 -21q10 40 10 105q53 8 123 32q70 20 158 60h76l-101 -703l127 -4zM1356 0q-121 0 -187 -6q3 21 17.5 107.5t17.5 111.5h-364l12 86q14 14 76 88l137 160q73 85 143 170l97 112h161l-69 -489h123q-10 -36 -21 -127h-121
q-20 -159 -22 -213zM1036 340h189l39 270q-17 -26 -107.5 -133t-120.5 -137z" />
    <glyph glyph-name="onehalf" unicode="&#xbd;" horiz-adv-x="1689" 
d="M473 606h-461l17 123l151 6l76 527l-160 -21q10 40 10 105q53 8 123 32q70 20 158 60h76l-101 -703l127 -4zM1610 0h-592l14 106q53 35 102 71t112.5 90t109 104t77 107.5t31.5 105.5q0 54 -35.5 81t-89.5 27q-50 0 -100.5 -25t-85.5 -69h-8q-2 12 -7 25t-12.5 25.5
t-13 21t-13.5 19t-9 11.5q59 65 149 102.5t180 37.5q106 0 175 -56.5t69 -162.5q0 -224 -356 -488q2 0 138 2t185 2q-17 -68 -20 -137z" />
    <glyph glyph-name="threequarters" unicode="&#xbe;" horiz-adv-x="1566" 
d="M104 1321q51 55 135 91t183 36q103 0 162 -48t59 -124q0 -70 -42.5 -133.5t-121.5 -100.5q67 -13 103 -56t36 -109q0 -115 -101 -205t-230 -90q-82 0 -157 22.5t-116 54.5q36 55 52 136q76 -72 202 -72q69 0 113.5 44t44.5 95q0 49 -42.5 75t-107.5 26h-34q1 9 2.5 26
t2.5 30t1 23q0 6 -1 14t-1 11q71 0 133 45q63 45 63 109q0 41 -27.5 62.5t-72.5 21.5q-44 0 -92.5 -24t-79.5 -64h-10q-5 33 -56 104zM1356 0q-121 0 -187 -6q3 21 17.5 107.5t17.5 111.5h-364l12 86q14 14 76 88l137 160q73 85 143 170l97 112h161l-69 -489h123
q-10 -36 -21 -127h-121q-20 -159 -22 -213zM1036 340h189l39 270q-17 -26 -107.5 -133t-120.5 -137z" />
    <glyph glyph-name="questiondown" unicode="&#xbf;" horiz-adv-x="890" 
d="M367 1049q0 66 51.5 112.5t116.5 46.5q56 0 92.5 -33.5t36.5 -87.5q0 -66 -50 -109.5t-118 -43.5q-55 0 -92 32.5t-37 82.5zM418 770h151q72 -63 72 -160q0 -88 -66 -145q-54 -44 -143 -105q-88 -57 -143 -112q-66 -63 -66 -168q0 -65 43 -104t113 -39q91 0 146 53.5
t55 136.5q10 0 40.5 -1t49.5 -1q25 0 118 6q0 -189 -123 -295t-329 -106q-98 0 -181.5 32t-138.5 100.5t-55 160.5q0 50 6.5 89t26 78.5t45 72.5t73.5 78t101.5 87.5t138.5 106.5q42 32 64 65.5t22 77.5q0 38 -20 92z" />
    <glyph glyph-name="Agrave" unicode="&#xc0;" horiz-adv-x="1372" 
d="M-74 -10q159 317 372.5 761t326.5 689q102 -4 163 -4q58 0 168 4q93 -539 289 -1440q-47 -1 -155.5 -5t-159.5 -5l-21 129q-2 20 -39 227q-110 4 -270 4q-129 0 -215 -4q-25 -54 -64 -141.5t-64 -146t-26 -58.5q-47 -1 -151 -5t-154 -5zM745 1206l-272 -641h369z
M866 1591h-129l-186 314v22h237z" />
    <glyph glyph-name="Aacute" unicode="&#xc1;" horiz-adv-x="1372" 
d="M-74 -10q159 317 372.5 761t326.5 689q102 -4 163 -4q58 0 168 4q93 -539 289 -1440q-47 -1 -155.5 -5t-159.5 -5l-21 129q-2 20 -39 227q-110 4 -270 4q-129 0 -215 -4q-25 -54 -64 -141.5t-64 -146t-26 -58.5q-47 -1 -151 -5t-154 -5zM745 1206l-272 -641h369z
M1040 1905l-186 -314h-129l78 336h237v-22z" />
    <glyph glyph-name="Acircumflex" unicode="&#xc2;" horiz-adv-x="1372" 
d="M-74 -10q159 317 372.5 761t326.5 689q102 -4 163 -4q58 0 168 4q93 -539 289 -1440q-47 -1 -155.5 -5t-159.5 -5l-21 129q-2 20 -39 227q-110 4 -270 4q-129 0 -215 -4q-25 -54 -64 -141.5t-64 -146t-26 -58.5q-47 -1 -151 -5t-154 -5zM745 1206l-272 -641h369z
M670 1591h-142l238 336h174l143 -336h-139l-110 193z" />
    <glyph glyph-name="Atilde" unicode="&#xc3;" horiz-adv-x="1372" 
d="M-74 -10q159 317 372.5 761t326.5 689q102 -4 163 -4q58 0 168 4q93 -539 289 -1440q-47 -1 -155.5 -5t-159.5 -5l-21 129q-2 20 -39 227q-110 4 -270 4q-129 0 -215 -4q-25 -54 -64 -141.5t-64 -146t-26 -58.5q-47 -1 -151 -5t-154 -5zM745 1206l-272 -641h369z
M434 1692q66 123 127 151q62 33 117 33q45 0 84 -16t62.5 -36t54.5 -36t61 -16q34 0 64.5 16t68.5 63q48 -40 86 -51q-43 -74 -91 -116.5t-85 -55t-80 -12.5q-36 0 -67 10.5t-53.5 26t-43 31t-45.5 26t-51 10.5q-72 0 -127 -78q-6 4 -20 15.5t-20 15.5t-18 9.5t-24 9.5z" />
    <glyph glyph-name="Adieresis" unicode="&#xc4;" horiz-adv-x="1372" 
d="M-74 -10q159 317 372.5 761t326.5 689q102 -4 163 -4q58 0 168 4q93 -539 289 -1440q-47 -1 -155.5 -5t-159.5 -5l-21 129q-2 20 -39 227q-110 4 -270 4q-129 0 -215 -4q-25 -54 -64 -141.5t-64 -146t-26 -58.5q-47 -1 -151 -5t-154 -5zM745 1206l-272 -641h369z
M991 1622q-47 0 -77.5 29.5t-30.5 74.5q0 57 43 98.5t100 41.5q49 0 80 -31t31 -76q0 -56 -44.5 -96.5t-101.5 -40.5zM631 1622q-47 0 -78 30t-31 74q0 57 43.5 98.5t100.5 41.5q49 0 79.5 -31t30.5 -76q0 -56 -44 -96.5t-101 -40.5z" />
    <glyph glyph-name="Aring" unicode="&#xc5;" horiz-adv-x="1372" 
d="M-74 -10q159 317 372.5 761t326.5 689q102 -4 163 -4q58 0 168 4q93 -539 289 -1440q-47 -1 -155.5 -5t-159.5 -5l-21 129q-2 20 -39 227q-110 4 -270 4q-129 0 -215 -4q-25 -54 -64 -141.5t-64 -146t-26 -58.5q-47 -1 -151 -5t-154 -5zM745 1206l-272 -641h369z
M848 1898q68 0 110.5 -39.5t42.5 -101.5q0 -79 -59 -134.5t-141 -55.5q-68 0 -109 38t-41 99q0 82 55.5 138t141.5 56zM815 1661q31 0 53.5 25t22.5 57q0 26 -14.5 43.5t-42.5 17.5q-35 0 -55.5 -26.5t-20.5 -59.5q0 -25 14.5 -41t42.5 -16z" />
    <glyph glyph-name="AE" unicode="&#xc6;" horiz-adv-x="1972" 
d="M1081 1198l-413 -590h329zM1978 1309l-20 -117q-75 7 -301 8t-301 -4l-49 -354q440 0 505 4q-20 -115 -20 -117q-6 -34 -12 -117q-50 3 -144.5 3.5t-220 -0.5t-141.5 -1l-51 -366q26 0 128 -1t136 -1q230 0 358 8q-43 -144 -53 -256q-76 0 -218.5 0.5t-230 0.5t-211 -1
t-229.5 -4l58 397h-435q-44 -52 -116.5 -147.5t-121.5 -163.5t-59 -82q-44 0 -95.5 -1t-115.5 -2.5t-100 -2.5q139 171 297 389q237 322 342 471l283 403q117 171 129 183h1040q-25 -99 -31 -129z" />
    <glyph glyph-name="Ccedilla" unicode="&#xc7;" horiz-adv-x="1185" 
d="M651 -10q-272 0 -426 160q-153 164 -153 430q0 114 26.5 230t87.5 232t150 205t226 145t302 56q129 0 228.5 -44t150.5 -124q-12 -20 -42 -67t-46.5 -78t-32.5 -72l-10 -2q-32 68 -103 106.5t-157 38.5q-101 0 -185 -35t-139.5 -92t-93.5 -132t-55 -152.5t-17 -155.5
q0 -173 93 -295q91 -117 268 -117q162 0 317 78q1 -58 10.5 -98t32.5 -103q-76 -55 -195.5 -84.5t-236.5 -29.5zM664 -102q85 0 134.5 -40t49.5 -104q0 -81 -76 -145q-75 -66 -194 -66q-50 0 -96.5 13t-71.5 34q9 16 20 47t12 50q19 -11 57.5 -21t73.5 -10q57 0 94.5 22
t37.5 72q0 70 -132 70q-18 0 -51.5 -4t-36.5 -4l-8 30l92 158h99l-50 -104q7 0 23 1t23 1z" />
    <glyph glyph-name="Egrave" unicode="&#xc8;" horiz-adv-x="1122" 
d="M98 248l121 860l33 330h911q-29 -114 -47 -230q-72 6 -368 6q-26 0 -122 -1t-116 -1l-53 -366q29 0 89 -1t89 -1q61 0 183.5 3t144.5 3q-5 -13 -21 -90q-11 -63 -14 -148q-264 6 -269 6q-81 0 -233 -4l-55 -393q66 -2 235 -2q268 0 385 6q-24 -82 -28 -100
q-8 -34 -17 -127q-52 4 -368 4q-344 0 -521 -8q2 11 10.5 60.5t17.5 103t13 90.5zM821 1591h-129l-186 314v22h237z" />
    <glyph glyph-name="Eacute" unicode="&#xc9;" horiz-adv-x="1122" 
d="M98 248l121 860l33 330h911q-29 -114 -47 -230q-72 6 -368 6q-26 0 -122 -1t-116 -1l-53 -366q29 0 89 -1t89 -1q61 0 183.5 3t144.5 3q-5 -13 -21 -90q-11 -63 -14 -148q-264 6 -269 6q-81 0 -233 -4l-55 -393q66 -2 235 -2q268 0 385 6q-24 -82 -28 -100
q-8 -34 -17 -127q-52 4 -368 4q-344 0 -521 -8q2 11 10.5 60.5t17.5 103t13 90.5zM909 1905l-186 -314h-129l78 336h237v-22z" />
    <glyph glyph-name="Ecircumflex" unicode="&#xca;" horiz-adv-x="1122" 
d="M98 248l121 860l33 330h911q-29 -114 -47 -230q-72 6 -368 6q-26 0 -122 -1t-116 -1l-53 -366q29 0 89 -1t89 -1q61 0 183.5 3t144.5 3q-5 -13 -21 -90q-11 -63 -14 -148q-264 6 -269 6q-81 0 -233 -4l-55 -393q66 -2 235 -2q268 0 385 6q-24 -82 -28 -100
q-8 -34 -17 -127q-52 4 -368 4q-344 0 -521 -8q2 11 10.5 60.5t17.5 103t13 90.5zM571 1591h-141l238 336h174l143 -336h-139l-111 193z" />
    <glyph glyph-name="Edieresis" unicode="&#xcb;" horiz-adv-x="1122" 
d="M98 248l121 860l33 330h911q-29 -114 -47 -230q-72 6 -368 6q-26 0 -122 -1t-116 -1l-53 -366q29 0 89 -1t89 -1q61 0 183.5 3t144.5 3q-5 -13 -21 -90q-11 -63 -14 -148q-264 6 -269 6q-81 0 -233 -4l-55 -393q66 -2 235 -2q268 0 385 6q-24 -82 -28 -100
q-8 -34 -17 -127q-52 4 -368 4q-344 0 -521 -8q2 11 10.5 60.5t17.5 103t13 90.5zM897 1620q-47 0 -78 30t-31 74q0 57 43.5 98.5t100.5 41.5q49 0 79.5 -31t30.5 -76q0 -56 -44 -96.5t-101 -40.5zM537 1620q-47 0 -78 30t-31 74q0 57 43 98.5t100 41.5q49 0 80 -31t31 -76
q0 -56 -44 -96.5t-101 -40.5z" />
    <glyph glyph-name="Igrave" unicode="&#xcc;" horiz-adv-x="602" 
d="M504 1198l-123 -883q-11 -71 -20 -175.5t-9 -139.5q-55 0 -159.5 -3.5t-135.5 -4.5q2 11 10 61t16.5 101.5t12.5 85.5l123 876q29 267 29 322q167 0 297 10q-2 -9 -10.5 -61.5t-17.5 -105t-13 -83.5zM477 1591h-129l-186 314v22h237z" />
    <glyph glyph-name="Iacute" unicode="&#xcd;" horiz-adv-x="602" 
d="M504 1198l-123 -883q-11 -71 -20 -175.5t-9 -139.5q-55 0 -159.5 -3.5t-135.5 -4.5q2 11 10 61t16.5 101.5t12.5 85.5l123 876q29 267 29 322q167 0 297 10q-2 -9 -10.5 -61.5t-17.5 -105t-13 -83.5zM625 1905l-187 -314h-129l78 336h238v-22z" />
    <glyph glyph-name="Icircumflex" unicode="&#xce;" horiz-adv-x="602" 
d="M504 1198l-123 -883q-11 -71 -20 -175.5t-9 -139.5q-55 0 -159.5 -3.5t-135.5 -4.5q2 11 10 61t16.5 101.5t12.5 85.5l123 876q29 267 29 322q167 0 297 10q-2 -9 -10.5 -61.5t-17.5 -105t-13 -83.5zM285 1591h-142l238 336h174l143 -336h-139l-110 193z" />
    <glyph glyph-name="Idieresis" unicode="&#xcf;" horiz-adv-x="602" 
d="M504 1198l-123 -883q-11 -71 -20 -175.5t-9 -139.5q-55 0 -159.5 -3.5t-135.5 -4.5q2 11 10 61t16.5 101.5t12.5 85.5l123 876q29 267 29 322q167 0 297 10q-2 -9 -10.5 -61.5t-17.5 -105t-13 -83.5zM598 1622q-47 0 -78 30t-31 74q0 57 43.5 98.5t100.5 41.5
q49 0 79.5 -31t30.5 -76q0 -56 -44 -96.5t-101 -40.5zM238 1622q-47 0 -78 30t-31 74q0 57 43 98.5t100 41.5q49 0 80 -31t31 -76q0 -56 -44 -96.5t-101 -40.5z" />
    <glyph glyph-name="Eth" unicode="&#xd0;" horiz-adv-x="1370" 
d="M246 1438h502q137 0 248.5 -50t182 -136t108.5 -198t38 -239q0 -115 -29.5 -228.5t-93 -219.5t-154 -187.5t-222.5 -130.5t-289 -49h-482q5 39 19.5 123t19.5 115l51 380h-139q24 141 25 168h139l45 318q11 69 21 185.5t10 148.5zM422 623l-55 -394h213q102 0 184 39.5
t132 101t84 141.5t47 155.5t13 148.5q0 182 -97 285.5t-265 103.5h-174l-60 -420q28 0 135 1t136 1q-25 -119 -27 -163h-266z" />
    <glyph glyph-name="Ntilde" unicode="&#xd1;" horiz-adv-x="1531" 
d="M94 242l123 874q29 232 29 322q64 0 176 4t127 4l512 -1067l65 565q52 419 52 496q66 0 180.5 4t118.5 4q-5 -23 -22 -135t-21 -150l-119 -841q-3 -23 -13 -102t-16 -136t-6 -84l-328 -8q-19 56 -90 211q-64 144 -141 297q-91 194 -143 295q-74 149 -101 206l-76 -528
q-13 -106 -30 -275t-17 -198q-52 0 -111 -2t-117 -5t-71 -3q3 23 19.5 123.5t19.5 128.5zM514 1692q66 123 127 151q62 33 117 33q45 0 84 -16t62.5 -36t54.5 -36t61 -16q34 0 64.5 16t68.5 63q48 -40 86 -51q-43 -74 -91 -116.5t-85 -55t-80 -12.5q-36 0 -67 10.5t-53.5 26
t-43 31t-45.5 26t-51 10.5q-72 0 -127 -78q-6 4 -20 15.5t-20 15.5t-18 9.5t-24 9.5z" />
    <glyph glyph-name="Ograve" unicode="&#xd2;" horiz-adv-x="1443" 
d="M74 584q0 96 19 194.5t56.5 196t100 182.5t143 150.5t192.5 103t242 37.5q250 0 398 -160q149 -155 149 -434q0 -97 -19.5 -195.5t-57.5 -196.5t-100.5 -182.5t-143.5 -149.5t-192 -102.5t-240 -37.5q-249 0 -400 157q-147 159 -147 437zM365 627q0 -116 29.5 -207.5
t96 -150t162.5 -58.5q88 0 162.5 38.5t124.5 100.5t85 141t51 158.5t16 155.5q0 118 -31.5 211t-99.5 151t-164 58q-88 0 -161.5 -38.5t-122.5 -100.5t-83.5 -141.5t-49.5 -160t-15 -157.5zM901 1591h-129l-186 314v22h237z" />
    <glyph glyph-name="Oacute" unicode="&#xd3;" horiz-adv-x="1443" 
d="M74 584q0 96 19 194.5t56.5 196t100 182.5t143 150.5t192.5 103t242 37.5q250 0 398 -160q149 -155 149 -434q0 -97 -19.5 -195.5t-57.5 -196.5t-100.5 -182.5t-143.5 -149.5t-192 -102.5t-240 -37.5q-249 0 -400 157q-147 159 -147 437zM365 627q0 -116 29.5 -207.5
t96 -150t162.5 -58.5q88 0 162.5 38.5t124.5 100.5t85 141t51 158.5t16 155.5q0 118 -31.5 211t-99.5 151t-164 58q-88 0 -161.5 -38.5t-122.5 -100.5t-83.5 -141.5t-49.5 -160t-15 -157.5zM1036 1905l-186 -314h-129l78 336h237v-22z" />
    <glyph glyph-name="Ocircumflex" unicode="&#xd4;" horiz-adv-x="1443" 
d="M74 584q0 96 19 194.5t56.5 196t100 182.5t143 150.5t192.5 103t242 37.5q250 0 398 -160q149 -155 149 -434q0 -97 -19.5 -195.5t-57.5 -196.5t-100.5 -182.5t-143.5 -149.5t-192 -102.5t-240 -37.5q-249 0 -400 157q-147 159 -147 437zM365 627q0 -116 29.5 -207.5
t96 -150t162.5 -58.5q88 0 162.5 38.5t124.5 100.5t85 141t51 158.5t16 155.5q0 118 -31.5 211t-99.5 151t-164 58q-88 0 -161.5 -38.5t-122.5 -100.5t-83.5 -141.5t-49.5 -160t-15 -157.5zM686 1589h-141l237 336h174l144 -336h-139l-111 193z" />
    <glyph glyph-name="Otilde" unicode="&#xd5;" horiz-adv-x="1443" 
d="M74 584q0 96 19 194.5t56.5 196t100 182.5t143 150.5t192.5 103t242 37.5q250 0 398 -160q149 -155 149 -434q0 -97 -19.5 -195.5t-57.5 -196.5t-100.5 -182.5t-143.5 -149.5t-192 -102.5t-240 -37.5q-249 0 -400 157q-147 159 -147 437zM365 627q0 -116 29.5 -207.5
t96 -150t162.5 -58.5q88 0 162.5 38.5t124.5 100.5t85 141t51 158.5t16 155.5q0 118 -31.5 211t-99.5 151t-164 58q-88 0 -161.5 -38.5t-122.5 -100.5t-83.5 -141.5t-49.5 -160t-15 -157.5zM477 1692q66 123 127 151q62 33 117 33q45 0 84 -16t62.5 -36t54.5 -36t61 -16
q34 0 64.5 16t68.5 63q48 -40 86 -51q-43 -74 -91 -116.5t-85 -55t-80 -12.5q-36 0 -67 10.5t-53.5 26t-43 31t-45.5 26t-51 10.5q-72 0 -127 -78q-6 4 -20 15.5t-20 15.5t-18 9.5t-24 9.5z" />
    <glyph glyph-name="Odieresis" unicode="&#xd6;" horiz-adv-x="1443" 
d="M74 584q0 96 19 194.5t56.5 196t100 182.5t143 150.5t192.5 103t242 37.5q250 0 398 -160q149 -155 149 -434q0 -97 -19.5 -195.5t-57.5 -196.5t-100.5 -182.5t-143.5 -149.5t-192 -102.5t-240 -37.5q-249 0 -400 157q-147 159 -147 437zM365 627q0 -116 29.5 -207.5
t96 -150t162.5 -58.5q88 0 162.5 38.5t124.5 100.5t85 141t51 158.5t16 155.5q0 118 -31.5 211t-99.5 151t-164 58q-88 0 -161.5 -38.5t-122.5 -100.5t-83.5 -141.5t-49.5 -160t-15 -157.5zM1012 1622q-47 0 -78 30t-31 74q0 57 43.5 98.5t100.5 41.5q49 0 79.5 -31
t30.5 -76q0 -56 -44 -96.5t-101 -40.5zM651 1622q-47 0 -77.5 29.5t-30.5 74.5q0 57 43 98.5t100 41.5q49 0 80 -31t31 -76q0 -56 -44.5 -96.5t-101.5 -40.5z" />
    <glyph glyph-name="multiply" unicode="&#xd7;" horiz-adv-x="1257" 
d="M940 1094l111 -133l-287 -250l244 -281l-170 -147l-242 280l-299 -264l-113 131l299 264l-227 264l168 148l227 -266z" />
    <glyph glyph-name="Oslash" unicode="&#xd8;" horiz-adv-x="1443" 
d="M1337 1454h211l-252 -264q78 -143 78 -336q0 -97 -19.5 -195.5t-57.5 -196.5t-100.5 -182.5t-143.5 -149.5t-192 -102.5t-240 -37.5q-215 0 -347 119l-104 -109h-213l209 219q-92 150 -92 365q0 96 19 194.5t57 196t100.5 182.5t143 150.5t192.5 103t241 37.5
q226 0 367 -141zM389 455l619 653q-70 117 -211 117q-88 0 -161.5 -38.5t-122.5 -100.5t-83.5 -141.5t-49.5 -160t-15 -157.5q0 -104 24 -172zM655 211q88 0 162.5 38.5t124 100t84.5 141t50.5 159t15.5 155.5q0 74 -17 147l-616 -645q70 -96 196 -96z" />
    <glyph glyph-name="Ugrave" unicode="&#xd9;" horiz-adv-x="1394" 
d="M592 -10q-229 0 -354 103t-125 323q0 99 133 1022h37q131 0 239 12q-62 -419 -91 -630.5t-32.5 -250.5t-3.5 -77q0 -134 61.5 -200.5t176.5 -66.5q129 0 215 87t110 263l119 863q133 0 277 12l-123 -881q-42 -293 -208 -436t-431 -143zM885 1591h-129l-187 314v22h238z
" />
    <glyph glyph-name="Uacute" unicode="&#xda;" horiz-adv-x="1394" 
d="M592 -10q-229 0 -354 103t-125 323q0 99 133 1022h37q131 0 239 12q-62 -419 -91 -630.5t-32.5 -250.5t-3.5 -77q0 -134 61.5 -200.5t176.5 -66.5q129 0 215 87t110 263l119 863q133 0 277 12l-123 -881q-42 -293 -208 -436t-431 -143zM1020 1907l-186 -314h-129l77 336
h238v-22z" />
    <glyph glyph-name="Ucircumflex" unicode="&#xdb;" horiz-adv-x="1394" 
d="M592 -10q-229 0 -354 103t-125 323q0 99 133 1022h37q131 0 239 12q-62 -419 -91 -630.5t-32.5 -250.5t-3.5 -77q0 -134 61.5 -200.5t176.5 -66.5q129 0 215 87t110 263l119 863q133 0 277 12l-123 -881q-42 -293 -208 -436t-431 -143zM659 1591h-141l238 336h174
l143 -336h-139l-111 193z" />
    <glyph glyph-name="Udieresis" unicode="&#xdc;" horiz-adv-x="1394" 
d="M592 -10q-229 0 -354 103t-125 323q0 99 133 1022h37q131 0 239 12q-62 -419 -91 -630.5t-32.5 -250.5t-3.5 -77q0 -134 61.5 -200.5t176.5 -66.5q129 0 215 87t110 263l119 863q133 0 277 12l-123 -881q-42 -293 -208 -436t-431 -143zM993 1622q-47 0 -77.5 29.5
t-30.5 74.5q0 57 43 98.5t100 41.5q49 0 80 -31t31 -76q0 -56 -44.5 -96.5t-101.5 -40.5zM633 1622q-47 0 -78 30t-31 74q0 57 43.5 98.5t100.5 41.5q49 0 79.5 -31t30.5 -76q0 -56 -44 -96.5t-101 -40.5z" />
    <glyph glyph-name="Yacute" unicode="&#xdd;" horiz-adv-x="1302" 
d="M471 -4l68 483l-398 948v11q166 0 314 8l235 -633q23 -57 27 -94q5 12 47 94l340 625q27 -2 84 -2q102 0 229 10v-8l-596 -961l-59 -477q-173 0 -291 -4zM997 1905l-186 -314h-129l78 336h237v-22z" />
    <glyph glyph-name="Thorn" unicode="&#xde;" horiz-adv-x="1222" 
d="M580 307h-187q-26 -217 -26 -307q-19 0 -314 -10q37 221 41 250l123 872q11 71 20 180t9 144q64 0 180.5 6t128.5 6q-1 -9 -18 -116.5t-21 -139.5h199q222 0 344.5 -88.5t122.5 -274.5q0 -108 -37 -201t-109.5 -165.5t-189.5 -114t-266 -41.5zM485 950l-65 -426h170
q83 0 148 22t103.5 59t58.5 82t20 93q0 81 -56 125.5t-164 44.5h-215z" />
    <glyph glyph-name="germandbls" unicode="&#xdf;" horiz-adv-x="1296" 
d="M1202 379q0 -46 -12 -95t-44 -102.5t-80 -95.5t-127.5 -69t-178.5 -27q-97 0 -185 29.5t-149 80.5q48 71 80 164q14 -20 94 -51q82 -31 172 -31q92 0 147 43t60 111q1 49 -34 75.5t-122 61.5q-164 64 -234.5 119t-70.5 123q0 67 40.5 121.5t135.5 124.5q129 99 172 145
t43 111q0 69 -49 110t-131 41q-120 0 -199 -85t-98 -224l-117 -828q-22 -183 -24 -231q-168 0 -291 -10q2 13 43 250l121 862q12 90 52 168t96.5 133t126 94.5t143.5 58.5t147 19q213 0 324.5 -83.5t111.5 -223.5q0 -76 -29 -140.5t-72 -106t-94 -79t-95 -63.5t-74 -55.5
t-31 -57.5q-2 -32 36 -57.5t128 -51.5q268 -70 268 -278z" />
    <glyph glyph-name="agrave" unicode="&#xe0;" horiz-adv-x="1163" 
d="M1137 1110q-40 -238 -72.5 -458.5t-46.5 -338t-14 -143.5q-2 -80 2 -170q-154 0 -287 -10q1 8 1.5 34.5t2.5 61.5t6 72q-126 -168 -299 -168q-161 0 -268 125t-107 323q0 92 24.5 185.5t75.5 181.5t122.5 156.5t174.5 109.5t222 41q110 0 192 -59l11 51h45q11 0 215 6z
M748 319l81 562q-67 47 -151 47q-79 0 -144 -44.5t-104.5 -114t-60.5 -148t-21 -152.5q0 -120 53 -196t140 -76q117 0 207 122zM743 1255h-129l-186 314v22h238z" />
    <glyph glyph-name="aacute" unicode="&#xe1;" horiz-adv-x="1163" 
d="M1137 1110q-40 -238 -72.5 -458.5t-46.5 -338t-14 -143.5q-2 -80 2 -170q-154 0 -287 -10q1 8 1.5 34.5t2.5 61.5t6 72q-126 -168 -299 -168q-161 0 -268 125t-107 323q0 92 24.5 185.5t75.5 181.5t122.5 156.5t174.5 109.5t222 41q110 0 192 -59l11 51h45q11 0 215 6z
M748 319l81 562q-67 47 -151 47q-79 0 -144 -44.5t-104.5 -114t-60.5 -148t-21 -152.5q0 -120 53 -196t140 -76q117 0 207 122zM870 1569l-186 -314h-129l78 336h237v-22z" />
    <glyph glyph-name="acircumflex" unicode="&#xe2;" horiz-adv-x="1163" 
d="M1137 1110q-40 -238 -72.5 -458.5t-46.5 -338t-14 -143.5q-2 -80 2 -170q-154 0 -287 -10q1 8 1.5 34.5t2.5 61.5t6 72q-126 -168 -299 -168q-161 0 -268 125t-107 323q0 92 24.5 185.5t75.5 181.5t122.5 156.5t174.5 109.5t222 41q110 0 192 -59l11 51h45q11 0 215 6z
M748 319l81 562q-67 47 -151 47q-79 0 -144 -44.5t-104.5 -114t-60.5 -148t-21 -152.5q0 -120 53 -196t140 -76q117 0 207 122zM545 1255h-142l238 336h174l143 -336h-139l-110 193z" />
    <glyph glyph-name="atilde" unicode="&#xe3;" horiz-adv-x="1163" 
d="M1137 1110q-40 -238 -72.5 -458.5t-46.5 -338t-14 -143.5q-2 -80 2 -170q-154 0 -287 -10q1 8 1.5 34.5t2.5 61.5t6 72q-126 -168 -299 -168q-161 0 -268 125t-107 323q0 92 24.5 185.5t75.5 181.5t122.5 156.5t174.5 109.5t222 41q110 0 192 -59l11 51h45q11 0 215 6z
M748 319l81 562q-67 47 -151 47q-79 0 -144 -44.5t-104.5 -114t-60.5 -148t-21 -152.5q0 -120 53 -196t140 -76q117 0 207 122zM297 1331q67 124 127 152q62 33 117 33q45 0 84 -16.5t62.5 -36t54.5 -36t61 -16.5q33 0 64 16.5t69 63.5q48 -40 86 -51q-63 -107 -126 -146
t-130 -39q-43 0 -81.5 16.5t-61 36t-54 36t-63.5 16.5q-72 0 -127 -78q-5 4 -16.5 12.5t-16.5 12t-13.5 9t-17 9t-18.5 6.5z" />
    <glyph glyph-name="adieresis" unicode="&#xe4;" horiz-adv-x="1163" 
d="M1137 1110q-40 -238 -72.5 -458.5t-46.5 -338t-14 -143.5q-2 -80 2 -170q-154 0 -287 -10q1 8 1.5 34.5t2.5 61.5t6 72q-126 -168 -299 -168q-161 0 -268 125t-107 323q0 92 24.5 185.5t75.5 181.5t122.5 156.5t174.5 109.5t222 41q110 0 192 -59l11 51h45q11 0 215 6z
M748 319l81 562q-67 47 -151 47q-79 0 -144 -44.5t-104.5 -114t-60.5 -148t-21 -152.5q0 -120 53 -196t140 -76q117 0 207 122zM864 1268q-47 0 -77.5 29.5t-30.5 74.5q0 57 43 98t100 41q49 0 80 -30.5t31 -75.5q0 -56 -44.5 -96.5t-101.5 -40.5zM504 1268q-47 0 -78 30
t-31 74q0 57 43.5 98t100.5 41q49 0 79.5 -30.5t30.5 -75.5q0 -56 -44 -96.5t-101 -40.5z" />
    <glyph glyph-name="aring" unicode="&#xe5;" horiz-adv-x="1163" 
d="M1137 1110q-40 -238 -72.5 -458.5t-46.5 -338t-14 -143.5q-2 -80 2 -170q-154 0 -287 -10q1 8 1.5 34.5t2.5 61.5t6 72q-126 -168 -299 -168q-161 0 -268 125t-107 323q0 92 24.5 185.5t75.5 181.5t122.5 156.5t174.5 109.5t222 41q110 0 192 -59l11 51h45q11 0 215 6z
M748 319l81 562q-67 47 -151 47q-79 0 -144 -44.5t-104.5 -114t-60.5 -148t-21 -152.5q0 -120 53 -196t140 -76q117 0 207 122zM717 1563q68 0 110.5 -40t42.5 -102q0 -79 -59 -134.5t-141 -55.5q-68 0 -109 38t-41 99q0 83 56 139t141 56zM684 1325q31 0 53.5 25t22.5 57
q0 26 -15 43.5t-43 17.5q-35 0 -55 -26t-20 -60q0 -25 14.5 -41t42.5 -16z" />
    <glyph glyph-name="ae" unicode="&#xe6;" horiz-adv-x="1761" 
d="M451 -10q-127 0 -218 60t-134.5 158t-43.5 222q0 92 23.5 186t74.5 183.5t122 158.5t174.5 111.5t224.5 42.5q174 0 307 -133q150 133 358 133q185 0 291.5 -98.5t106.5 -270.5q0 -34 -13 -114q-12 -75 -30 -121h-656q-6 -30 -6 -66q0 -122 63 -184.5t181 -62.5
q134 0 293 86q5 -12 17.5 -43.5t24 -57.5t19.5 -37q-89 -74 -204 -113.5t-230 -39.5q-124 0 -220.5 41.5t-152.5 122.5q-155 -164 -372 -164zM563 195q102 0 211 71q-26 68 -26 166q0 101 34 217t99 209q-91 70 -191 70q-67 0 -124.5 -29t-97 -76t-67.5 -107t-41.5 -121.5
t-13.5 -119.5q0 -133 58 -206.5t159 -73.5zM1059 664h436q4 36 4 63q0 66 -35 131q-34 64 -137 64q-116 0 -178 -80q-64 -80 -90 -178z" />
    <glyph glyph-name="ccedilla" unicode="&#xe7;" horiz-adv-x="1054" 
d="M537 -100q85 0 134.5 -40t49.5 -104q0 -81 -76 -145q-75 -66 -194 -66q-50 0 -96.5 13t-71.5 34q9 16 20 47t12 50q19 -11 57.5 -21t73.5 -10q57 0 94.5 22t37.5 72q0 70 -132 70q-18 0 -51.5 -4t-36.5 -4l-8 30l86 150q-174 21 -277.5 139.5t-103.5 312.5q0 94 24 187.5
t74 180t120.5 152.5t171.5 106t219 40q67 0 126 -13.5t111.5 -43t83.5 -84t31 -127.5q0 -37 -15 -107q-155 0 -223 -18q15 51 15 86q0 55 -39.5 86t-108.5 31q-68 0 -122 -33.5t-86.5 -84t-53.5 -115.5t-29 -122t-8 -110q0 -262 250 -262q141 0 287 86q8 -28 28 -72t37 -68
q-86 -68 -198 -108t-218 -45l-40 -90q7 0 22.5 1t22.5 1z" />
    <glyph glyph-name="egrave" unicode="&#xe8;" horiz-adv-x="1110" 
d="M512 -10q-207 0 -332 120t-125 336q0 94 24 187.5t73.5 179.5t119 152.5t168.5 106.5t213 40q184 0 290 -98.5t106 -270.5q0 -41 -15 -114q-11 -69 -28 -121h-656q-6 -48 -6 -66q0 -122 64 -184.5t184 -62.5q132 0 287 86q49 -118 63 -140q-86 -72 -202 -111.5
t-228 -39.5zM371 664h434q6 54 6 63q0 66 -35 131q-34 64 -139 64q-116 0 -178 -80q-61 -76 -88 -178zM698 1255h-129l-186 314v22h238z" />
    <glyph glyph-name="eacute" unicode="&#xe9;" horiz-adv-x="1110" 
d="M512 -10q-207 0 -332 120t-125 336q0 94 24 187.5t73.5 179.5t119 152.5t168.5 106.5t213 40q184 0 290 -98.5t106 -270.5q0 -41 -15 -114q-11 -69 -28 -121h-656q-6 -48 -6 -66q0 -122 64 -184.5t184 -62.5q132 0 287 86q49 -118 63 -140q-86 -72 -202 -111.5
t-228 -39.5zM371 664h434q6 54 6 63q0 66 -35 131q-34 64 -139 64q-116 0 -178 -80q-61 -76 -88 -178zM864 1569l-186 -314h-129l78 336h237v-22z" />
    <glyph glyph-name="ecircumflex" unicode="&#xea;" horiz-adv-x="1110" 
d="M512 -10q-207 0 -332 120t-125 336q0 94 24 187.5t73.5 179.5t119 152.5t168.5 106.5t213 40q184 0 290 -98.5t106 -270.5q0 -41 -15 -114q-11 -69 -28 -121h-656q-6 -48 -6 -66q0 -122 64 -184.5t184 -62.5q132 0 287 86q49 -118 63 -140q-86 -72 -202 -111.5
t-228 -39.5zM371 664h434q6 54 6 63q0 66 -35 131q-34 64 -139 64q-116 0 -178 -80q-61 -76 -88 -178zM508 1255h-141l237 336h174l144 -336h-140l-110 193z" />
    <glyph glyph-name="edieresis" unicode="&#xeb;" horiz-adv-x="1110" 
d="M512 -10q-207 0 -332 120t-125 336q0 94 24 187.5t73.5 179.5t119 152.5t168.5 106.5t213 40q184 0 290 -98.5t106 -270.5q0 -41 -15 -114q-11 -69 -28 -121h-656q-6 -48 -6 -66q0 -122 64 -184.5t184 -62.5q132 0 287 86q49 -118 63 -140q-86 -72 -202 -111.5
t-228 -39.5zM371 664h434q6 54 6 63q0 66 -35 131q-34 64 -139 64q-116 0 -178 -80q-61 -76 -88 -178zM821 1268q-47 0 -77.5 29.5t-30.5 74.5q0 57 43 98t100 41q49 0 80 -30.5t31 -75.5q0 -56 -44.5 -96.5t-101.5 -40.5zM461 1268q-47 0 -78 30t-31 74q0 57 43.5 98
t100.5 41q49 0 79.5 -30.5t30.5 -75.5q0 -56 -44 -96.5t-101 -40.5z" />
    <glyph glyph-name="igrave" unicode="&#xec;" horiz-adv-x="516" 
d="M47 -10l41 250l68 485q23 178 28 334q45 0 121 13t135 32h39l-121 -868q-21 -172 -24 -236q-154 0 -287 -10zM444 1255h-129l-186 314v22h238z" />
    <glyph glyph-name="iacute" unicode="&#xed;" horiz-adv-x="516" 
d="M47 -10l41 250l68 485q23 178 28 334q45 0 121 13t135 32h39l-121 -868q-21 -172 -24 -236q-154 0 -287 -10zM573 1569l-186 -314h-129l78 336h237v-22z" />
    <glyph glyph-name="icircumflex" unicode="&#xee;" horiz-adv-x="516" 
d="M47 -10l41 250l68 485q23 178 28 334q45 0 121 13t135 32h39l-121 -868q-21 -172 -24 -236q-154 0 -287 -10zM227 1255h-141l238 336h174l143 -336h-139l-111 193z" />
    <glyph glyph-name="idieresis" unicode="&#xef;" horiz-adv-x="516" 
d="M47 -10l41 250l68 485q23 178 28 334q45 0 121 13t135 32h39l-121 -868q-21 -172 -24 -236q-154 0 -287 -10zM532 1270q-47 0 -77.5 29.5t-30.5 74.5q0 57 43 98t100 41q49 0 80 -30.5t31 -75.5q0 -56 -44.5 -96.5t-101.5 -40.5zM172 1270q-47 0 -78 30t-31 74
q0 57 43.5 98t100.5 41q49 0 79.5 -30.5t30.5 -75.5q0 -56 -44 -96.5t-101 -40.5z" />
    <glyph glyph-name="eth" unicode="&#xf0;" horiz-adv-x="1140" 
d="M377 1139l-66 94l176 117q-87 46 -227 49q40 95 43 178q3 0 11 1t12 1q196 0 370 -82l156 105q0 -1 14.5 -24t29 -47.5t15.5 -25.5l-102 -67q135 -105 208 -280.5t73 -389.5q0 -106 -18.5 -209.5t-63.5 -208t-112 -183t-172 -128t-235 -49.5q-138 0 -237.5 66t-147 172.5
t-47.5 238.5q0 128 46.5 247.5t124.5 208t187 142t228 53.5q57 0 110.5 -18t88.5 -49q-49 160 -217 256zM328 459q0 -113 47 -187.5t141 -74.5q65 0 117.5 34.5t84 86t53 116t30 119.5t8.5 100q0 110 -45 187q-47 80 -148 80q-64 0 -116 -35.5t-83 -88t-52 -117.5t-29 -120
t-8 -100z" />
    <glyph glyph-name="ntilde" unicode="&#xf1;" horiz-adv-x="1216" 
d="M88 242l70 483q19 138 22 225q6 99 6 105q26 0 66.5 8t97 21t92.5 20h41l-30 -209q87 99 192 158t215 59q53 0 101.5 -14t90 -42t66.5 -79.5t25 -118.5q0 -71 -92 -670q-13 -109 -13 -188q-168 0 -288 -10q0 2 8 52.5t17.5 112t12.5 85.5q68 504 68 512q0 70 -41.5 101.5
t-105.5 31.5q-69 0 -144 -42t-133 -100l-72 -507q-22 -194 -22 -236q-153 0 -289 -10l9 52q9 52 18.5 114.5t11.5 85.5zM315 1331q67 124 127 152q62 33 117 33q45 0 84 -16.5t62.5 -36t54.5 -36t61 -16.5q33 0 64 16.5t69 63.5q48 -40 86 -51q-63 -107 -126 -146t-130 -39
q-43 0 -81.5 16.5t-61 36t-54 36t-63.5 16.5q-72 0 -127 -78q-5 4 -16.5 12.5t-16.5 12t-13.5 9t-17 9t-18.5 6.5z" />
    <glyph glyph-name="ograve" unicode="&#xf2;" horiz-adv-x="1146" 
d="M55 451q0 183 79 334.5t216.5 239t302.5 87.5q189 0 310.5 -119.5t121.5 -343.5q0 -182 -78.5 -334t-215.5 -239.5t-302 -87.5q-91 0 -169 29.5t-137.5 85.5t-93.5 145.5t-34 202.5zM815 668q0 119 -53 185.5t-141 66.5q-65 0 -117.5 -35.5t-84 -88.5t-53 -119.5
t-30 -123.5t-8.5 -104q0 -121 51.5 -187.5t140.5 -66.5q79 0 140 53t92.5 132t47 153.5t15.5 134.5zM702 1255h-129l-186 314v22h238z" />
    <glyph glyph-name="oacute" unicode="&#xf3;" horiz-adv-x="1146" 
d="M55 451q0 183 79 334.5t216.5 239t302.5 87.5q189 0 310.5 -119.5t121.5 -343.5q0 -182 -78.5 -334t-215.5 -239.5t-302 -87.5q-91 0 -169 29.5t-137.5 85.5t-93.5 145.5t-34 202.5zM815 668q0 119 -53 185.5t-141 66.5q-65 0 -117.5 -35.5t-84 -88.5t-53 -119.5
t-30 -123.5t-8.5 -104q0 -121 51.5 -187.5t140.5 -66.5q79 0 140 53t92.5 132t47 153.5t15.5 134.5zM899 1569l-186 -314h-129l78 336h237v-22z" />
    <glyph glyph-name="ocircumflex" unicode="&#xf4;" horiz-adv-x="1146" 
d="M55 451q0 183 79 334.5t216.5 239t302.5 87.5q189 0 310.5 -119.5t121.5 -343.5q0 -182 -78.5 -334t-215.5 -239.5t-302 -87.5q-91 0 -169 29.5t-137.5 85.5t-93.5 145.5t-34 202.5zM815 668q0 119 -53 185.5t-141 66.5q-65 0 -117.5 -35.5t-84 -88.5t-53 -119.5
t-30 -123.5t-8.5 -104q0 -121 51.5 -187.5t140.5 -66.5q79 0 140 53t92.5 132t47 153.5t15.5 134.5zM502 1255h-142l238 336h174l143 -336h-139l-110 193z" />
    <glyph glyph-name="otilde" unicode="&#xf5;" horiz-adv-x="1146" 
d="M55 451q0 183 79 334.5t216.5 239t302.5 87.5q189 0 310.5 -119.5t121.5 -343.5q0 -182 -78.5 -334t-215.5 -239.5t-302 -87.5q-91 0 -169 29.5t-137.5 85.5t-93.5 145.5t-34 202.5zM815 668q0 119 -53 185.5t-141 66.5q-65 0 -117.5 -35.5t-84 -88.5t-53 -119.5
t-30 -123.5t-8.5 -104q0 -121 51.5 -187.5t140.5 -66.5q79 0 140 53t92.5 132t47 153.5t15.5 134.5zM268 1331q67 124 127 152q62 33 117 33q45 0 84 -16.5t62.5 -36t54.5 -36t61 -16.5q33 0 64 16.5t69 63.5q48 -40 86 -51q-63 -107 -126 -146t-130 -39q-43 0 -81.5 16.5
t-61 36t-54 36t-63.5 16.5q-72 0 -127 -78q-5 4 -16.5 12.5t-16.5 12t-13.5 9t-17 9t-18.5 6.5z" />
    <glyph glyph-name="odieresis" unicode="&#xf6;" horiz-adv-x="1146" 
d="M55 451q0 183 79 334.5t216.5 239t302.5 87.5q189 0 310.5 -119.5t121.5 -343.5q0 -182 -78.5 -334t-215.5 -239.5t-302 -87.5q-91 0 -169 29.5t-137.5 85.5t-93.5 145.5t-34 202.5zM815 668q0 119 -53 185.5t-141 66.5q-65 0 -117.5 -35.5t-84 -88.5t-53 -119.5
t-30 -123.5t-8.5 -104q0 -121 51.5 -187.5t140.5 -66.5q79 0 140 53t92.5 132t47 153.5t15.5 134.5zM821 1270q-47 0 -77.5 29.5t-30.5 74.5q0 57 43 98t100 41q49 0 80 -30.5t31 -75.5q0 -56 -44.5 -96.5t-101.5 -40.5zM461 1270q-47 0 -78 30t-31 74q0 57 43.5 98
t100.5 41q49 0 79.5 -30.5t30.5 -75.5q0 -56 -44 -96.5t-101 -40.5z" />
    <glyph glyph-name="divide" unicode="&#xf7;" horiz-adv-x="1257" 
d="M842 1114q0 -68 -52.5 -116t-119.5 -48q-57 0 -96 36t-39 91q0 67 52.5 112.5t121.5 45.5q57 0 95 -33.5t38 -87.5zM1110 791l-27 -191h-936l27 191h936zM594 442q57 0 96 -32.5t39 -85.5q0 -70 -53 -118t-121 -48q-58 0 -96.5 35t-38.5 90q0 67 52.5 113t121.5 46z" />
    <glyph glyph-name="oslash" unicode="&#xf8;" horiz-adv-x="1146" 
d="M55 451q0 183 79 334.5t216.5 239t302.5 87.5q125 0 217 -51l80 98q105 -9 211 0l-168 -203q92 -119 92 -307q0 -182 -78.5 -334t-215.5 -239.5t-302 -87.5q-142 0 -245 65l-43 -53q-96 3 -209 0l137 166q-74 117 -74 285zM621 920q-65 0 -117.5 -35.5t-84 -88.5
t-53 -119.5t-30 -123.5t-8.5 -104v-41l397 479q-39 33 -104 33zM815 668q0 13 -6 67l-412 -495q48 -45 123 -45q79 0 140 53t92.5 132t47 153.5t15.5 134.5z" />
    <glyph glyph-name="ugrave" unicode="&#xf9;" horiz-adv-x="1196" 
d="M360 -10q-110 0 -192 68t-82 200q0 22 8 81t26.5 181t31.5 217q11 81 20.5 191.5t9.5 154.5q26 1 60 4t89.5 8t102.5 9h41l-53 -369q-49 -350 -49 -373q0 -71 39.5 -107t99.5 -36q67 0 139 43t129 105l51 362q12 82 22.5 196.5t10.5 157.5q33 1 117 9t137 12h39l-53 -377
l-62 -436q-16 -109 -16 -207q0 -34 4 -84q-153 0 -285 -10q0 69 13 211q-87 -96 -190 -153.5t-208 -57.5zM756 1255h-129l-187 314v22h238z" />
    <glyph glyph-name="uacute" unicode="&#xfa;" horiz-adv-x="1196" 
d="M344 -10q-110 0 -192 68t-82 200q0 22 7.5 79.5t26 183t31.5 216.5q12 82 21.5 192.5t9.5 153.5q26 1 60 4t89.5 8t102.5 9h41l-53 -369q-50 -357 -50 -373q0 -71 40 -107t100 -36q67 0 139 43t129 105l51 362q12 82 22.5 196.5t10.5 157.5q33 1 117 9t137 12h39
l-54 -377l-61 -436q-16 -109 -16 -207q0 -34 4 -84q-152 0 -285 -10q0 80 12 211q-87 -96 -189.5 -153.5t-207.5 -57.5zM907 1569l-186 -314h-129l78 336h237v-22z" />
    <glyph glyph-name="ucircumflex" unicode="&#xfb;" horiz-adv-x="1196" 
d="M360 -10q-110 0 -192 68t-82 200q0 22 8 81t26.5 181t31.5 217q11 81 20.5 191.5t9.5 154.5q26 1 60 4t89.5 8t102.5 9h41l-53 -369q-49 -350 -49 -373q0 -71 39.5 -107t99.5 -36q67 0 139 43t129 105l51 362q12 82 22.5 196.5t10.5 157.5q33 1 117 9t137 12h39l-53 -377
l-62 -436q-16 -109 -16 -207q0 -34 4 -84q-153 0 -285 -10q0 69 13 211q-87 -96 -190 -153.5t-208 -57.5zM549 1255h-141l237 336h174l144 -336h-140l-110 193z" />
    <glyph glyph-name="udieresis" unicode="&#xfc;" horiz-adv-x="1196" 
d="M360 -10q-110 0 -192 68t-82 200q0 22 8 81t26.5 181t31.5 217q11 81 20.5 191.5t9.5 154.5q26 1 60 4t89.5 8t102.5 9h41l-53 -369q-49 -350 -49 -373q0 -71 39.5 -107t99.5 -36q67 0 139 43t129 105l51 362q12 82 22.5 196.5t10.5 157.5q33 1 117 9t137 12h39l-53 -377
l-62 -436q-16 -109 -16 -207q0 -34 4 -84q-153 0 -285 -10q0 69 13 211q-87 -96 -190 -153.5t-208 -57.5zM868 1270q-47 0 -77.5 29.5t-30.5 74.5q0 57 43 98t100 41q49 0 80 -30.5t31 -75.5q0 -56 -44.5 -96.5t-101.5 -40.5zM508 1270q-47 0 -78 30t-31 74q0 57 43.5 98
t100.5 41q49 0 79.5 -30.5t30.5 -75.5q0 -56 -44 -96.5t-101 -40.5z" />
    <glyph glyph-name="yacute" unicode="&#xfd;" horiz-adv-x="1118" 
d="M387 4l-291 1100h291q0 -3 23 -137.5t59.5 -330.5t62.5 -317l13 -73l28 73l64 142l117 266q38 83 112 258q52 116 52 119h274l-109 -219q-5 -11 -180 -369l-178 -362q-90 -184 -98 -205q-90 -196 -206 -289.5t-265 -93.5q-108 0 -222 72q63 83 105 184q71 -39 135 -39
q68 0 124 59.5t89 161.5zM870 1569l-186 -314h-129l78 336h237v-22z" />
    <glyph glyph-name="thorn" unicode="&#xfe;" horiz-adv-x="1159" 
d="M463 172q67 0 124.5 27.5t97.5 72.5t68.5 102.5t42 117.5t13.5 118q0 136 -58.5 215.5t-160.5 79.5q-80 0 -166 -53l-90 -637q49 -43 129 -43zM-35 -444q3 29 19.5 122.5t19.5 120.5q43 338 92 693.5t78 555t31 218.5q4 25 12 128t8 119q26 1 66 8.5t97.5 20.5t92.5 19
h39l-74 -535q111 86 256 86q95 0 171.5 -36.5t125 -100t74 -145.5t25.5 -175q0 -91 -24.5 -183.5t-75.5 -179t-122 -154t-173.5 -108t-221.5 -40.5q-103 0 -174 49l-35 -246q-20 -140 -20 -227q-157 0 -287 -10z" />
    <glyph glyph-name="ydieresis" unicode="&#xff;" horiz-adv-x="1118" 
d="M387 4l-291 1100h291q0 -3 23 -137.5t59.5 -330.5t62.5 -317l13 -73l28 73l64 142l117 266q38 83 112 258q52 116 52 119h274l-109 -219q-5 -11 -180 -369l-178 -362q-90 -184 -98 -205q-90 -196 -206 -289.5t-265 -93.5q-108 0 -222 72q63 83 105 184q71 -39 135 -39
q68 0 124 59.5t89 161.5zM846 1270q-47 0 -78 30t-31 74q0 57 43.5 98t100.5 41q49 0 79.5 -30.5t30.5 -75.5q0 -56 -44 -96.5t-101 -40.5zM485 1270q-47 0 -77.5 29.5t-30.5 74.5q0 57 43 98t100 41q49 0 80 -30.5t31 -75.5q0 -56 -44.5 -96.5t-101.5 -40.5z" />
    <glyph glyph-name="Amacron" unicode="&#x100;" horiz-adv-x="1372" 
d="M-74 -10q159 317 372.5 761t326.5 689q102 -4 163 -4q58 0 168 4q93 -539 289 -1440q-47 -1 -155.5 -5t-159.5 -5l-21 129q-2 20 -39 227q-110 4 -270 4q-129 0 -215 -4q-25 -54 -64 -141.5t-64 -146t-26 -58.5q-47 -1 -151 -5t-154 -5zM745 1206l-272 -641h369z
M1044 1655h-501l12 63q9 57 12 94h502q-3 -13 -16 -94q-6 -53 -9 -63z" />
    <glyph glyph-name="amacron" unicode="&#x101;" horiz-adv-x="1163" 
d="M1137 1110q-40 -238 -72.5 -458.5t-46.5 -338t-14 -143.5q-2 -80 2 -170q-154 0 -287 -10q1 8 1.5 34.5t2.5 61.5t6 72q-126 -168 -299 -168q-161 0 -268 125t-107 323q0 92 24.5 185.5t75.5 181.5t122.5 156.5t174.5 109.5t222 41q110 0 192 -59l11 51h45q11 0 215 6z
M748 319l81 562q-67 47 -151 47q-79 0 -144 -44.5t-104.5 -114t-60.5 -148t-21 -152.5q0 -120 53 -196t140 -76q117 0 207 122zM915 1319h-501l12 63q9 56 12 95h502q-2 -10 -16 -95q-6 -53 -9 -63z" />
    <glyph glyph-name="Abreve" unicode="&#x102;" horiz-adv-x="1372" 
d="M-74 -10q159 317 372.5 761t326.5 689q102 -4 163 -4q58 0 168 4q93 -539 289 -1440q-47 -1 -155.5 -5t-159.5 -5l-21 129q-2 20 -39 227q-110 4 -270 4q-129 0 -215 -4q-25 -54 -64 -141.5t-64 -146t-26 -58.5q-47 -1 -151 -5t-154 -5zM745 1206l-272 -641h369z
M573 1884q32 -4 62 -4q21 0 57 4q0 -62 36.5 -100.5t113.5 -38.5q78 0 126 39t62 100q20 -4 55 -4q32 0 64 4q-19 -136 -105.5 -213.5t-222.5 -77.5q-121 0 -186.5 62.5t-65.5 173.5q0 19 4 55z" />
    <glyph glyph-name="abreve" unicode="&#x103;" horiz-adv-x="1163" 
d="M1137 1110q-40 -238 -72.5 -458.5t-46.5 -338t-14 -143.5q-2 -80 2 -170q-154 0 -287 -10q1 8 1.5 34.5t2.5 61.5t6 72q-126 -168 -299 -168q-161 0 -268 125t-107 323q0 92 24.5 185.5t75.5 181.5t122.5 156.5t174.5 109.5t222 41q110 0 192 -59l11 51h45q11 0 215 6z
M748 319l81 562q-67 47 -151 47q-79 0 -144 -44.5t-104.5 -114t-60.5 -148t-21 -152.5q0 -120 53 -196t140 -76q117 0 207 122zM434 1534q32 -4 62 -4q21 0 57 4q0 -62 36 -100.5t113 -38.5q78 0 126.5 39t62.5 100q20 -4 55 -4q32 0 64 4q-19 -136 -105.5 -213.5
t-222.5 -77.5q-121 0 -186.5 62.5t-65.5 173.5q0 19 4 55z" />
    <glyph glyph-name="Aogonek" unicode="&#x104;" horiz-adv-x="1372" 
d="M-74 -10q159 317 372.5 761t326.5 689q102 -4 163 -4q58 0 168 4q93 -539 289 -1440l-239 -6q-185 -119 -185 -232q0 -44 28.5 -69t76.5 -25q31 0 88 21l14 -84q-87 -56 -188 -56q-86 0 -143.5 44.5t-57.5 123.5t75.5 155.5t215.5 121.5l-21 127q-15 90 -39 225
q-110 4 -270 4q-129 0 -215 -4q-25 -54 -64 -141.5t-64 -146t-26 -58.5q-47 -1 -151 -5t-154 -5zM745 1206l-272 -641h369z" />
    <glyph glyph-name="aogonek" unicode="&#x105;" horiz-adv-x="1163" 
d="M1137 1110q-40 -238 -72.5 -458.5t-46.5 -338t-14 -143.5q-2 -80 2 -170q-118 0 -181 -2q-166 -109 -166 -219q0 -44 28.5 -69t76.5 -25q34 0 88 20l14 -84q-85 -55 -188 -55q-86 0 -143.5 44.5t-57.5 123.5q0 72 62 141t180 117l10 166q-126 -168 -299 -168
q-161 0 -268 125t-107 323q0 92 24.5 185.5t75.5 181.5t122.5 156.5t174.5 109.5t222 41q110 0 192 -59l11 51h45q11 0 215 6zM748 319l81 562q-67 47 -151 47q-79 0 -144 -44.5t-104.5 -114t-60.5 -148t-21 -152.5q0 -120 53 -196t140 -76q117 0 207 122z" />
    <glyph glyph-name="Cacute" unicode="&#x106;" horiz-adv-x="1185" 
d="M651 -10q-272 0 -426 160q-153 164 -153 430q0 114 26.5 230t87.5 232t150 205t226 145t302 56q129 0 228.5 -44t150.5 -124q-12 -20 -42 -67t-46.5 -78t-32.5 -72l-10 -2q-32 68 -103 106.5t-157 38.5q-101 0 -185 -35t-139.5 -92t-93.5 -132t-55 -152.5t-17 -155.5
q0 -173 93 -295q91 -117 268 -117q162 0 317 78q1 -58 10.5 -98t32.5 -103q-76 -55 -195.5 -84.5t-236.5 -29.5zM985 1907l-186 -314h-129l78 336h237v-22z" />
    <glyph glyph-name="cacute" unicode="&#x107;" horiz-adv-x="1054" 
d="M514 -12q-205 0 -332 118q-127 121 -127 340q0 94 24 187.5t74 180t120.5 152.5t171.5 106t219 40q67 0 126 -13.5t111.5 -43t83.5 -84t31 -127.5q0 -37 -15 -107q-155 0 -223 -18q15 51 15 86q0 55 -39.5 86t-108.5 31q-68 0 -122 -33.5t-86.5 -84t-53.5 -115.5
t-29 -122t-8 -110q0 -262 250 -262q141 0 287 86q8 -28 28 -72t37 -68q-91 -72 -207 -112.5t-227 -40.5zM860 1569l-186 -314h-129l78 336h237v-22z" />
    <glyph glyph-name="Ccircumflex" unicode="&#x108;" horiz-adv-x="1185" 
d="M651 -10q-272 0 -426 160q-153 164 -153 430q0 114 26.5 230t87.5 232t150 205t226 145t302 56q129 0 228.5 -44t150.5 -124q-12 -20 -42 -67t-46.5 -78t-32.5 -72l-10 -2q-32 68 -103 106.5t-157 38.5q-101 0 -185 -35t-139.5 -92t-93.5 -132t-55 -152.5t-17 -155.5
q0 -173 93 -295q91 -117 268 -117q162 0 317 78q1 -58 10.5 -98t32.5 -103q-76 -55 -195.5 -84.5t-236.5 -29.5zM655 1591h-141l238 336h174l143 -336h-139l-111 193z" />
    <glyph glyph-name="ccircumflex" unicode="&#x109;" horiz-adv-x="1054" 
d="M514 -12q-205 0 -332 118q-127 121 -127 340q0 94 24 187.5t74 180t120.5 152.5t171.5 106t219 40q67 0 126 -13.5t111.5 -43t83.5 -84t31 -127.5q0 -37 -15 -107q-155 0 -223 -18q15 51 15 86q0 55 -39.5 86t-108.5 31q-68 0 -122 -33.5t-86.5 -84t-53.5 -115.5
t-29 -122t-8 -110q0 -262 250 -262q141 0 287 86q8 -28 28 -72t37 -68q-91 -72 -207 -112.5t-227 -40.5zM522 1255h-141l237 336h175l143 -336h-139l-111 193z" />
    <glyph glyph-name="Cdotaccent" unicode="&#x10a;" horiz-adv-x="1185" 
d="M651 -10q-272 0 -426 160q-153 164 -153 430q0 114 26.5 230t87.5 232t150 205t226 145t302 56q129 0 228.5 -44t150.5 -124q-12 -20 -42 -67t-46.5 -78t-32.5 -72l-10 -2q-32 68 -103 106.5t-157 38.5q-101 0 -185 -35t-139.5 -92t-93.5 -132t-55 -152.5t-17 -155.5
q0 -173 93 -295q91 -117 268 -117q162 0 317 78q1 -58 10.5 -98t32.5 -103q-76 -55 -195.5 -84.5t-236.5 -29.5zM819 1618q-51 0 -82.5 28.5t-31.5 73.5q0 61 43.5 100.5t105.5 39.5q48 0 80.5 -30t32.5 -77q0 -58 -45.5 -96.5t-102.5 -38.5z" />
    <glyph glyph-name="cdotaccent" unicode="&#x10b;" horiz-adv-x="1054" 
d="M514 -12q-205 0 -332 118q-127 121 -127 340q0 94 24 187.5t74 180t120.5 152.5t171.5 106t219 40q67 0 126 -13.5t111.5 -43t83.5 -84t31 -127.5q0 -37 -15 -107q-155 0 -223 -18q15 51 15 86q0 55 -39.5 86t-108.5 31q-68 0 -122 -33.5t-86.5 -84t-53.5 -115.5
t-29 -122t-8 -110q0 -262 250 -262q141 0 287 86q8 -28 28 -72t37 -68q-91 -72 -207 -112.5t-227 -40.5zM645 1274q-51 0 -83 29t-32 73q0 61 43.5 100.5t106.5 39.5q48 0 80.5 -30t32.5 -77q0 -58 -45.5 -96.5t-102.5 -38.5z" />
    <glyph glyph-name="Ccaron" unicode="&#x10c;" horiz-adv-x="1185" 
d="M651 -10q-272 0 -426 160q-153 164 -153 430q0 114 26.5 230t87.5 232t150 205t226 145t302 56q129 0 228.5 -44t150.5 -124q-12 -20 -42 -67t-46.5 -78t-32.5 -72l-10 -2q-32 68 -103 106.5t-157 38.5q-101 0 -185 -35t-139.5 -92t-93.5 -132t-55 -152.5t-17 -155.5
q0 -173 93 -295q91 -117 268 -117q162 0 317 78q1 -58 10.5 -98t32.5 -103q-76 -55 -195.5 -84.5t-236.5 -29.5zM727 1593l-141 336h139l109 -196l165 196h140l-238 -336h-174z" />
    <glyph glyph-name="ccaron" unicode="&#x10d;" horiz-adv-x="1054" 
d="M514 -12q-205 0 -332 118q-127 121 -127 340q0 94 24 187.5t74 180t120.5 152.5t171.5 106t219 40q67 0 126 -13.5t111.5 -43t83.5 -84t31 -127.5q0 -37 -15 -107q-155 0 -223 -18q15 51 15 86q0 55 -39.5 86t-108.5 31q-68 0 -122 -33.5t-86.5 -84t-53.5 -115.5
t-29 -122t-8 -110q0 -262 250 -262q141 0 287 86q8 -28 28 -72t37 -68q-91 -72 -207 -112.5t-227 -40.5zM535 1255l-142 336h139l109 -196l166 196h139l-237 -336h-174z" />
    <glyph glyph-name="Dcaron" unicode="&#x10e;" horiz-adv-x="1388" 
d="M55 0l39 238l121 866q11 69 21 185.5t10 148.5h502q137 0 248.5 -50t182 -136t108.5 -198t38 -239q0 -115 -29.5 -228.5t-93 -219.5t-154 -187.5t-222.5 -130.5t-289 -49h-482zM504 1206l-137 -979h213q102 0 184 40t132 101.5t84 142t47 156t13 148.5q0 182 -97 286.5
t-265 104.5h-174zM653 1591l-141 336h139l109 -196l166 196h139l-238 -336h-174z" />
    <glyph glyph-name="dcaron" unicode="&#x10f;" horiz-adv-x="1415" 
d="M430 -10q-161 0 -268 125t-107 323q0 92 24.5 185.5t75.5 181.5t122.5 156.5t174.5 109.5t222 41q99 0 170 -49q40 317 51 457q38 0 119.5 14t134.5 27h41l-182 -1301q-13 -96 -13 -164q0 -42 4 -96q-151 0 -284 -10q-3 25 10 164q-60 -83 -138 -123.5t-157 -40.5z
M745 317l76 568q-74 43 -143 43q-79 0 -144 -44.5t-104.5 -114t-60.5 -148t-21 -152.5q0 -120 53 -196t140 -76q109 0 204 120zM1303 1020q-9 25 -54 70l2 12q55 12 98.5 51.5t49.5 81.5q-60 0 -92.5 25t-32.5 69q0 65 46.5 103t106.5 38q56 0 86.5 -33t30.5 -96
q0 -71 -30.5 -133.5t-73 -100.5t-79 -60t-58.5 -27z" />
    <glyph glyph-name="Dcroat" unicode="&#x110;" horiz-adv-x="1388" 
d="M246 1438h502q137 0 248.5 -50t182 -136t108.5 -198t38 -239q0 -115 -29.5 -228.5t-93 -219.5t-154 -187.5t-222.5 -130.5t-289 -49h-482q5 39 19.5 123t19.5 115l51 380h-139q24 141 25 168h139l45 318q11 69 21 185.5t10 148.5zM422 623l-55 -394h213q102 0 184 39.5
t132 101t84 141.5t47 155.5t13 148.5q0 182 -97 285.5t-265 103.5h-174l-60 -420q28 0 135 1t136 1q-25 -119 -27 -163h-266z" />
    <glyph glyph-name="dslash" unicode="&#x111;" horiz-adv-x="1159" 
d="M430 -10q-161 0 -268 125t-107 323q0 92 24.5 185.5t75.5 181.5t122.5 156.5t174.5 109.5t222 41q99 0 170 -49l20 166h-370q0 3 6 33t12 68.5t6 62.5h365q9 67 12 127q38 0 119.5 14t134.5 27h41l-25 -168h111l-25 -164h-108l-135 -969q-13 -96 -13 -164q0 -42 4 -96
q-151 0 -284 -10q-3 25 10 164q-60 -83 -138 -123.5t-157 -40.5zM745 317l76 568q-74 43 -143 43q-79 0 -144 -44.5t-104.5 -114t-60.5 -148t-21 -152.5q0 -120 53 -196t140 -76q109 0 204 120z" />
    <glyph glyph-name="Emacron" unicode="&#x112;" horiz-adv-x="1122" 
d="M98 248l121 860l33 330h911q-29 -114 -47 -230q-72 6 -368 6q-26 0 -122 -1t-116 -1l-53 -366q29 0 89 -1t89 -1q61 0 183.5 3t144.5 3q-5 -13 -21 -90q-11 -63 -14 -148q-264 6 -269 6q-81 0 -233 -4l-55 -393q66 -2 235 -2q268 0 385 6q-24 -82 -28 -100
q-8 -34 -17 -127q-52 4 -368 4q-344 0 -521 -8q2 11 10.5 60.5t17.5 103t13 90.5zM975 1655h-502l12 63q11 69 13 94h501q-3 -13 -16 -94q-6 -58 -8 -63z" />
    <glyph glyph-name="emacron" unicode="&#x113;" horiz-adv-x="1110" 
d="M512 -10q-207 0 -332 120t-125 336q0 94 24 187.5t73.5 179.5t119 152.5t168.5 106.5t213 40q184 0 290 -98.5t106 -270.5q0 -41 -15 -114q-11 -69 -28 -121h-656q-6 -48 -6 -66q0 -122 64 -184.5t184 -62.5q132 0 287 86q49 -118 63 -140q-86 -72 -202 -111.5
t-228 -39.5zM371 664h434q6 54 6 63q0 66 -35 131q-34 64 -139 64q-116 0 -178 -80q-61 -76 -88 -178zM885 1319h-502l12 63q11 68 13 95h501q-2 -10 -16 -95q-6 -58 -8 -63z" />
    <glyph glyph-name="Ebreve" unicode="&#x114;" horiz-adv-x="1122" 
d="M98 248l121 860l33 330h911q-29 -114 -47 -230q-72 6 -368 6q-26 0 -122 -1t-116 -1l-53 -366q29 0 89 -1t89 -1q61 0 183.5 3t144.5 3q-5 -13 -21 -90q-11 -63 -14 -148q-264 6 -269 6q-81 0 -233 -4l-55 -393q66 -2 235 -2q268 0 385 6q-24 -82 -28 -100
q-8 -34 -17 -127q-52 4 -368 4q-344 0 -521 -8q2 11 10.5 60.5t17.5 103t13 90.5zM453 1884q32 -4 61 -4q21 0 57 4q0 -62 36.5 -100.5t113.5 -38.5q78 0 126 39t62 100q20 -4 56 -4q31 0 63 4q-19 -136 -105.5 -213.5t-222.5 -77.5q-120 0 -185.5 62.5t-65.5 173.5
q0 19 4 55z" />
    <glyph glyph-name="ebreve" unicode="&#x115;" horiz-adv-x="1110" 
d="M512 -10q-207 0 -332 120t-125 336q0 94 24 187.5t73.5 179.5t119 152.5t168.5 106.5t213 40q184 0 290 -98.5t106 -270.5q0 -41 -15 -114q-11 -69 -28 -121h-656q-6 -48 -6 -66q0 -122 64 -184.5t184 -62.5q132 0 287 86q49 -118 63 -140q-86 -72 -202 -111.5
t-228 -39.5zM371 664h434q6 54 6 63q0 66 -35 131q-34 64 -139 64q-116 0 -178 -80q-61 -76 -88 -178zM367 1534q32 -4 61 -4q21 0 57 4q0 -62 36.5 -100.5t113.5 -38.5q78 0 126 39t62 100q20 -4 56 -4q31 0 63 4q-19 -136 -105.5 -213.5t-222.5 -77.5q-121 0 -186.5 62.5
t-65.5 173.5q0 10 5 55z" />
    <glyph glyph-name="Edotaccent" unicode="&#x116;" horiz-adv-x="1122" 
d="M98 248l121 860l33 330h911q-29 -114 -47 -230q-72 6 -368 6q-26 0 -122 -1t-116 -1l-53 -366q29 0 89 -1t89 -1q61 0 183.5 3t144.5 3q-5 -13 -21 -90q-11 -63 -14 -148q-264 6 -269 6q-81 0 -233 -4l-55 -393q66 -2 235 -2q268 0 385 6q-24 -82 -28 -100
q-8 -34 -17 -127q-52 4 -368 4q-344 0 -521 -8q2 11 10.5 60.5t17.5 103t13 90.5zM715 1618q-51 0 -83 29t-32 73q0 61 43.5 100.5t106.5 39.5q48 0 80 -30t32 -77q0 -58 -45 -96.5t-102 -38.5z" />
    <glyph glyph-name="edotaccent" unicode="&#x117;" horiz-adv-x="1110" 
d="M512 -10q-207 0 -332 120t-125 336q0 94 24 187.5t73.5 179.5t119 152.5t168.5 106.5t213 40q184 0 290 -98.5t106 -270.5q0 -41 -15 -114q-11 -69 -28 -121h-656q-6 -48 -6 -66q0 -122 64 -184.5t184 -62.5q132 0 287 86q49 -118 63 -140q-86 -72 -202 -111.5
t-228 -39.5zM371 664h434q6 54 6 63q0 66 -35 131q-34 64 -139 64q-116 0 -178 -80q-61 -76 -88 -178zM647 1274q-51 0 -83 29t-32 73q0 61 43.5 100.5t106.5 39.5q48 0 80.5 -30t32.5 -77q0 -58 -45.5 -96.5t-102.5 -38.5z" />
    <glyph glyph-name="Eogonek" unicode="&#x118;" horiz-adv-x="1122" 
d="M98 248l121 860l33 330h911q-29 -114 -47 -230q-72 6 -368 6q-26 0 -122 -1t-116 -1l-53 -366q29 0 89 -1t89 -1q61 0 183.5 3t144.5 3q-5 -13 -21 -90q-11 -63 -14 -148q-264 6 -269 6q-81 0 -233 -4l-55 -393q66 -2 235 -2q268 0 385 6q-24 -82 -28 -100
q-8 -34 -17 -127q-16 2 -65 2q-85 -48 -140 -108t-55 -119q0 -43 29.5 -67.5t79.5 -24.5q34 0 88 20l16 -82q-87 -53 -192 -53q-86 0 -145.5 44t-59.5 120q0 78 80 153t227 117q-84 2 -231 2q-344 0 -521 -8q2 11 10.5 60.5t17.5 103t13 90.5z" />
    <glyph glyph-name="eogonek" unicode="&#x119;" horiz-adv-x="1110" 
d="M512 -10q-207 0 -332 120t-125 336q0 94 24 187.5t73.5 179.5t119 152.5t168.5 106.5t213 40q184 0 290 -98.5t106 -270.5q0 -39 -15 -116q-11 -69 -28 -121h-656q-6 -48 -6 -64q0 -122 64 -184.5t184 -62.5q132 0 287 86q45 -109 63 -140q-30 -26 -53 -39
q-87 -62 -154 -143q-71 -86 -80 -170q-5 -51 25 -82t84 -31q29 0 86 21q1 -2 4.5 -23t7 -40.5t4.5 -20.5q-82 -53 -188 -53q-87 0 -146 46t-59 132q0 68 47.5 139t128.5 127q-75 -14 -137 -14zM371 666h434q6 54 6 61q0 66 -35 131q-34 64 -139 64q-115 0 -178 -78
q-61 -76 -88 -178z" />
    <glyph glyph-name="Ecaron" unicode="&#x11a;" horiz-adv-x="1122" 
d="M98 248l121 860l33 330h911q-29 -114 -47 -230q-72 6 -368 6q-26 0 -122 -1t-116 -1l-53 -366q29 0 89 -1t89 -1q61 0 183.5 3t144.5 3q-5 -13 -21 -90q-11 -63 -14 -148q-264 6 -269 6q-81 0 -233 -4l-55 -393q66 -2 235 -2q268 0 385 6q-24 -82 -28 -100
q-8 -34 -17 -127q-52 4 -368 4q-344 0 -521 -8q2 11 10.5 60.5t17.5 103t13 90.5zM596 1591l-141 336h139l108 -196l166 196h140l-238 -336h-174z" />
    <glyph glyph-name="ecaron" unicode="&#x11b;" horiz-adv-x="1110" 
d="M512 -10q-207 0 -332 120t-125 336q0 94 24 187.5t73.5 179.5t119 152.5t168.5 106.5t213 40q184 0 290 -98.5t106 -270.5q0 -41 -15 -114q-11 -69 -28 -121h-656q-6 -48 -6 -66q0 -122 64 -184.5t184 -62.5q132 0 287 86q49 -118 63 -140q-86 -72 -202 -111.5
t-228 -39.5zM371 664h434q6 54 6 63q0 66 -35 131q-34 64 -139 64q-116 0 -178 -80q-61 -76 -88 -178zM530 1255l-141 336h139l109 -196l166 196h139l-237 -336h-175z" />
    <glyph glyph-name="Gcircumflex" unicode="&#x11c;" horiz-adv-x="1308" 
d="M664 -10q-292 0 -442 171t-150 468q0 99 23 196.5t67 189.5t114 170.5t158 137t204.5 92t248.5 33.5q133 0 234 -46.5t159 -121.5q-13 -22 -34.5 -55t-32.5 -51.5t-26.5 -48.5t-29.5 -62l-10 -2q-86 143 -283 143q-121 0 -218.5 -48t-157 -127t-90.5 -174t-31 -196
q0 -93 24 -173.5t70.5 -143t120.5 -98t168 -35.5q92 0 141 22q11 73 28 239.5t17 193.5q48 0 119.5 2t123 4t52.5 2q-25 -113 -43 -260q-36 -281 -37 -318q-222 -104 -487 -104zM696 1591h-141l238 336h174l143 -336h-139l-111 193z" />
    <glyph glyph-name="gcircumflex" unicode="&#x11d;" horiz-adv-x="1171" 
d="M748 315q9 62 28.5 204t33.5 245t17 117q-67 47 -149 47q-79 0 -144 -44.5t-104.5 -114t-60.5 -148t-21 -152.5q0 -120 53 -196t140 -76q115 0 207 118zM424 -440q-111 0 -225 32t-193 78q30 53 44 89.5t28 97.5q63 -37 143.5 -58.5t155.5 -21.5q302 0 338 274l10 80
q-60 -71 -137 -106t-154 -35q-168 0 -273.5 126.5t-105.5 321.5q0 92 24.5 185.5t75.5 181.5t122.5 156.5t174.5 109.5t222 41q110 0 194 -61l15 51h47q39 0 110.5 3.5t92.5 4.5q-20 -137 -74 -535.5t-68 -488.5q-45 -266 -180.5 -396t-386.5 -130zM512 1255h-141l237 336
h174l144 -336h-140l-110 193z" />
    <glyph glyph-name="Gbreve" unicode="&#x11e;" horiz-adv-x="1308" 
d="M664 -10q-292 0 -442 171t-150 468q0 99 23 196.5t67 189.5t114 170.5t158 137t204.5 92t248.5 33.5q133 0 234 -46.5t159 -121.5q-13 -22 -34.5 -55t-32.5 -51.5t-26.5 -48.5t-29.5 -62l-10 -2q-86 143 -283 143q-121 0 -218.5 -48t-157 -127t-90.5 -174t-31 -196
q0 -93 24 -173.5t70.5 -143t120.5 -98t168 -35.5q92 0 141 22q11 73 28 239.5t17 193.5q48 0 119.5 2t123 4t52.5 2q-25 -113 -43 -260q-36 -281 -37 -318q-222 -104 -487 -104zM545 1884q32 -4 61 -4q22 0 58 4q0 -62 36 -100.5t113 -38.5q78 0 126 39t62 100q20 -4 56 -4
q31 0 63 4q-19 -136 -105 -213.5t-222 -77.5q-121 0 -186.5 62.5t-65.5 173.5q0 19 4 55z" />
    <glyph glyph-name="gbreve" unicode="&#x11f;" horiz-adv-x="1171" 
d="M748 315q9 62 28.5 204t33.5 245t17 117q-67 47 -149 47q-79 0 -144 -44.5t-104.5 -114t-60.5 -148t-21 -152.5q0 -120 53 -196t140 -76q115 0 207 118zM424 -440q-111 0 -225 32t-193 78q30 53 44 89.5t28 97.5q63 -37 143.5 -58.5t155.5 -21.5q302 0 338 274l10 80
q-60 -71 -137 -106t-154 -35q-168 0 -273.5 126.5t-105.5 321.5q0 92 24.5 185.5t75.5 181.5t122.5 156.5t174.5 109.5t222 41q110 0 194 -61l15 51h47q39 0 110.5 3.5t92.5 4.5q-20 -137 -74 -535.5t-68 -488.5q-45 -266 -180.5 -396t-386.5 -130zM422 1536q32 -4 61 -4
q22 0 58 4q0 -62 36 -100.5t113 -38.5q78 0 126.5 39t62.5 100q20 -4 55 -4q31 0 63 4q-19 -136 -105 -213.5t-222 -77.5q-121 0 -186.5 62.5t-65.5 173.5q0 19 4 55z" />
    <glyph glyph-name="Gdotaccent" unicode="&#x120;" horiz-adv-x="1308" 
d="M664 -10q-292 0 -442 171t-150 468q0 99 23 196.5t67 189.5t114 170.5t158 137t204.5 92t248.5 33.5q133 0 234 -46.5t159 -121.5q-13 -22 -34.5 -55t-32.5 -51.5t-26.5 -48.5t-29.5 -62l-10 -2q-86 143 -283 143q-121 0 -218.5 -48t-157 -127t-90.5 -174t-31 -196
q0 -93 24 -173.5t70.5 -143t120.5 -98t168 -35.5q92 0 141 22q11 73 28 239.5t17 193.5q48 0 119.5 2t123 4t52.5 2q-25 -113 -43 -260q-36 -281 -37 -318q-222 -104 -487 -104zM840 1618q-51 0 -83 29t-32 73q0 61 43.5 100.5t105.5 39.5q48 0 80.5 -30t32.5 -77
q0 -58 -45 -96.5t-102 -38.5z" />
    <glyph glyph-name="gdotaccent" unicode="&#x121;" horiz-adv-x="1171" 
d="M748 315q9 62 28.5 204t33.5 245t17 117q-67 47 -149 47q-79 0 -144 -44.5t-104.5 -114t-60.5 -148t-21 -152.5q0 -120 53 -196t140 -76q115 0 207 118zM424 -440q-111 0 -225 32t-193 78q30 53 44 89.5t28 97.5q63 -37 143.5 -58.5t155.5 -21.5q302 0 338 274l10 80
q-60 -71 -137 -106t-154 -35q-168 0 -273.5 126.5t-105.5 321.5q0 92 24.5 185.5t75.5 181.5t122.5 156.5t174.5 109.5t222 41q110 0 194 -61l15 51h47q39 0 110.5 3.5t92.5 4.5q-20 -137 -74 -535.5t-68 -488.5q-45 -266 -180.5 -396t-386.5 -130zM670 1274q-51 0 -83 29
t-32 73q0 61 43.5 100.5t106.5 39.5q48 0 80 -30t32 -77q0 -58 -45 -96.5t-102 -38.5z" />
    <glyph glyph-name="Gcommaaccent" unicode="&#x122;" horiz-adv-x="1308" 
d="M664 -10q-292 0 -442 171t-150 468q0 99 23 196.5t67 189.5t114 170.5t158 137t204.5 92t248.5 33.5q133 0 234 -46.5t159 -121.5q-13 -22 -34.5 -55t-32.5 -51.5t-26.5 -48.5t-29.5 -62l-10 -2q-86 143 -283 143q-121 0 -218.5 -48t-157 -127t-90.5 -174t-31 -196
q0 -93 24 -173.5t70.5 -143t120.5 -98t168 -35.5q92 0 141 22q11 73 28 239.5t17 193.5q48 0 119.5 2t123 4t52.5 2q-25 -113 -43 -260q-36 -281 -37 -318q-222 -104 -487 -104zM567 -545q-10 27 -53 70l2 12q55 12 98.5 51.5t49.5 81.5q-60 0 -92.5 25t-32.5 69
q0 65 46.5 103.5t106.5 38.5q56 0 86.5 -33t30.5 -96q0 -71 -30.5 -133.5t-73.5 -101t-79.5 -60.5t-58.5 -27z" />
    <glyph glyph-name="gcommaaccent" unicode="&#x123;" horiz-adv-x="1171" 
d="M748 315q9 62 28.5 204t33.5 245t17 117q-67 47 -149 47q-79 0 -144 -44.5t-104.5 -114t-60.5 -148t-21 -152.5q0 -120 53 -196t140 -76q115 0 207 118zM424 -440q-111 0 -225 32t-193 78q30 53 44 89.5t28 97.5q63 -37 143.5 -58.5t155.5 -21.5q302 0 338 274l10 80
q-60 -71 -137 -106t-154 -35q-168 0 -273.5 126.5t-105.5 321.5q0 92 24.5 185.5t75.5 181.5t122.5 156.5t174.5 109.5t222 41q110 0 194 -61l15 51h47q39 0 110.5 3.5t92.5 4.5q-20 -137 -74 -535.5t-68 -488.5q-45 -266 -180.5 -396t-386.5 -130z" />
    <glyph glyph-name="Hcircumflex" unicode="&#x124;" horiz-adv-x="1435" 
d="M889 -10l90 606q-21 0 -119.5 1t-159.5 1q-64 0 -162 -1t-118 -1l-39 -274q-27 -238 -27 -322q-53 0 -154.5 -4.5t-142.5 -5.5q3 11 19 111.5t20 138.5l123 872q11 69 20 179t9 145q105 0 297 12q0 -7 -9 -59t-19 -113.5t-13 -83.5l-47 -334q27 -2 278 -2q252 0 279 2
l37 254q11 68 18.5 176t7.5 148q99 0 299 12q0 -4 -9 -56t-19 -114t-13 -86l-123 -870q-11 -71 -18.5 -173t-7.5 -149q-55 0 -156.5 -4.5t-140.5 -5.5zM682 1591h-141l237 336h174l144 -336h-140l-110 193z" />
    <glyph glyph-name="hcircumflex" unicode="&#x125;" horiz-adv-x="1206" 
d="M88 240l133 954q19 144 21 209q7 108 8 115q40 1 256 41h39l-94 -662q85 97 189.5 156t215.5 59q52 0 98.5 -13.5t87 -42.5t64.5 -79.5t24 -118.5q0 -56 -90 -670q-6 -53 -14 -188q-167 0 -287 -10l39 246q10 77 26.5 203.5t28 210.5t11.5 87q6 78 -34 113t-105 35
q-69 0 -142.5 -41.5t-132.5 -100.5l-72 -507q-24 -183 -22 -236q-166 0 -289 -10q22 108 41 250zM293 1636h-141l237 336h174l144 -336h-140l-110 193z" />
    <glyph glyph-name="Hbar" unicode="&#x126;" horiz-adv-x="1435" 
d="M889 -10l90 606q-21 0 -119.5 1t-159.5 1q-64 0 -162 -1t-118 -1l-39 -274q-27 -238 -27 -322q-53 0 -154.5 -4.5t-142.5 -5.5q3 11 19 111.5t20 138.5l113 802h-115q3 10 12 66q13 63 13 100h110q7 61 19 228q105 0 297 12q0 -6 -7.5 -50.5t-17.5 -104t-14 -85.5h555
q16 147 16 228q99 0 299 12q0 -4 -7.5 -48.5t-17.5 -104t-14 -87.5h111q-25 -137 -25 -166h-110l-101 -720q-11 -71 -18.5 -173t-7.5 -149q-55 0 -156.5 -4.5t-140.5 -5.5zM735 856q252 0 279 2l26 184h-559l-24 -184q27 -2 278 -2z" />
    <glyph glyph-name="hbar" unicode="&#x127;" horiz-adv-x="1206" 
d="M88 240l76 555l41 286l14 107q1 4 2 8.5t1.5 6.5t0.5 3h-121q0 2 5.5 32t12 70t9.5 62h111q3 32 5 67t3 55t2 26q40 1 256 41h39l-29 -189h371q-5 -22 -11.5 -62t-11 -70t-4.5 -32h-366l-43 -309q85 97 189.5 156t215.5 59q52 0 98.5 -13.5t87 -42.5t64.5 -79.5
t24 -118.5q0 -56 -90 -670q-6 -53 -14 -188q-167 0 -287 -10l39 246q12 83 28.5 205t27 207t10.5 89q6 78 -34 113t-105 35q-69 0 -142.5 -41.5t-132.5 -100.5l-72 -507q-24 -183 -22 -236q-166 0 -289 -10q22 108 41 250z" />
    <glyph glyph-name="Itilde" unicode="&#x128;" horiz-adv-x="602" 
d="M504 1198l-123 -883q-11 -71 -20 -175.5t-9 -139.5q-55 0 -159.5 -3.5t-135.5 -4.5q2 11 10 61t16.5 101.5t12.5 85.5l123 876q29 267 29 322q167 0 297 10q-2 -9 -10.5 -61.5t-17.5 -105t-13 -83.5zM82 1692q66 123 127 151q62 33 117 33q45 0 84 -16t62.5 -36t54.5 -36
t61 -16q34 0 64.5 16t68.5 63q48 -40 86 -51q-43 -74 -91 -116.5t-85 -55t-80 -12.5q-36 0 -67 10.5t-53.5 26t-43 31t-45.5 26t-51 10.5q-72 0 -127 -78q-6 4 -20 15.5t-20 15.5t-18 9.5t-24 9.5z" />
    <glyph glyph-name="itilde" unicode="&#x129;" horiz-adv-x="516" 
d="M47 -10l41 250l68 485q23 178 28 334q45 0 121 13t135 32h39l-121 -868q-21 -172 -24 -236q-154 0 -287 -10zM12 1331q67 124 127 152q62 33 117 33q45 0 84 -16.5t62.5 -36t54.5 -36t61 -16.5q33 0 64 16.5t69 63.5q48 -40 86 -51q-63 -107 -126 -146t-130 -39
q-43 0 -81.5 16.5t-61 36t-54 36t-63.5 16.5q-72 0 -127 -78q-5 4 -16.5 12.5t-16.5 12t-13.5 9t-17 9t-18.5 6.5z" />
    <glyph glyph-name="Imacron" unicode="&#x12a;" horiz-adv-x="602" 
d="M504 1198l-123 -883q-11 -71 -20 -175.5t-9 -139.5q-55 0 -159.5 -3.5t-135.5 -4.5q2 11 10 61t16.5 101.5t12.5 85.5l123 876q29 267 29 322q167 0 297 10q-2 -9 -10.5 -61.5t-17.5 -105t-13 -83.5zM657 1655h-501l12 63q9 57 12 94h502q-3 -13 -16 -94q-6 -53 -9 -63z
" />
    <glyph glyph-name="imacron" unicode="&#x12b;" horiz-adv-x="516" 
d="M47 -10l41 250l68 485q23 178 28 334q45 0 121 13t135 32h39l-121 -868q-21 -172 -24 -236q-154 0 -287 -10zM610 1319h-501l12 63q9 56 12 95h502q-6 -27 -17 -95q-6 -58 -8 -63z" />
    <glyph glyph-name="Ibreve" unicode="&#x12c;" horiz-adv-x="602" 
d="M504 1198l-123 -883q-11 -71 -20 -175.5t-9 -139.5q-55 0 -159.5 -3.5t-135.5 -4.5q2 11 10 61t16.5 101.5t12.5 85.5l123 876q29 267 29 322q167 0 297 10q-2 -9 -10.5 -61.5t-17.5 -105t-13 -83.5zM156 1886q32 -4 61 -4q21 0 57 4q0 -62 36.5 -100.5t113.5 -38.5
q78 0 126 39t62 100q20 -4 56 -4q31 0 63 4q-19 -136 -105.5 -213.5t-222.5 -77.5q-120 0 -185.5 62.5t-65.5 173.5q0 19 4 55z" />
    <glyph glyph-name="ibreve" unicode="&#x12d;" horiz-adv-x="516" 
d="M47 -10l41 250l68 485q23 178 28 334q45 0 121 13t135 32h39l-121 -868q-21 -172 -24 -236q-154 0 -287 -10zM133 1534q32 -4 62 -4q21 0 57 4q0 -62 36 -100.5t113 -38.5q78 0 126.5 39t62.5 100q20 -4 55 -4q32 0 64 4q-19 -136 -105.5 -213.5t-222.5 -77.5
q-121 0 -186.5 62.5t-65.5 173.5q0 19 4 55z" />
    <glyph glyph-name="Iogonek" unicode="&#x12e;" horiz-adv-x="602" 
d="M504 1192l-123 -870q-11 -78 -19 -182t-8 -140h-49q-170 -109 -170 -221q0 -44 28.5 -69t76.5 -25q34 0 88 20l14 -84q-85 -55 -188 -55q-86 0 -143.5 44.5t-57.5 123.5q0 73 65.5 144.5t188.5 119.5l-150 -8l39 250l123 872q11 71 20 180t9 144q113 0 297 12
q0 -9 -19 -118.5t-22 -137.5z" />
    <glyph glyph-name="iogonek" unicode="&#x12f;" horiz-adv-x="516" 
d="M326 1249q-58 0 -98 35.5t-40 91.5q0 68 53.5 115t123.5 47q58 0 96.5 -34.5t38.5 -90.5q0 -67 -54.5 -115.5t-119.5 -48.5zM84 240l68 485q25 199 30 334q45 0 121.5 13.5t132.5 31.5h41l-121 -868q-21 -172 -24 -236h-70q-164 -113 -164 -217q0 -44 28.5 -69t78.5 -25
q30 0 84 20l18 -82q-86 -55 -188 -55q-86 0 -144.5 44t-58.5 122q0 69 61.5 140.5t182.5 119.5l-117 -8q35 201 41 250z" />
    <glyph glyph-name="Idot" unicode="&#x130;" horiz-adv-x="602" 
d="M504 1198l-123 -883q-11 -71 -20 -175.5t-9 -139.5q-55 0 -159.5 -3.5t-135.5 -4.5q2 11 10 61t16.5 101.5t12.5 85.5l123 876q29 267 29 322q167 0 297 10q-2 -9 -10.5 -61.5t-17.5 -105t-13 -83.5zM414 1618q-51 0 -83 29t-32 73q0 61 43.5 100.5t106.5 39.5
q48 0 80 -30t32 -77q0 -58 -45 -96.5t-102 -38.5z" />
    <glyph glyph-name="dotlessi" unicode="&#x131;" horiz-adv-x="516" 
d="M47 -10l41 250l68 485q23 178 28 334q45 0 121 13t135 32h39l-121 -868q-21 -172 -24 -236q-154 0 -287 -10z" />
    <glyph glyph-name="ij" unicode="&#x133;" horiz-adv-x="1060" 
d="M326 1249q-58 0 -98 35.5t-40 91.5q0 68 53.5 115t123.5 47q58 0 96.5 -34.5t38.5 -90.5q0 -67 -54.5 -115.5t-119.5 -48.5zM80 240l67 485q27 210 31 334q45 0 121.5 13.5t132.5 31.5h41l-121 -868q-24 -192 -24 -236q-153 0 -289 -10q34 201 41 250zM842 1249
q-58 0 -97.5 35.5t-39.5 91.5q0 68 53 115t123 47q58 0 96.5 -34.5t38.5 -90.5q0 -67 -54.5 -115.5t-119.5 -48.5zM471 -434q-23 45 -106 121q50 32 118 134.5t86 229.5l95 662q23 180 28 348q51 3 125 12q76 11 133 31h39q-15 -102 -68 -490t-71 -505q-24 -178 -133.5 -327
t-245.5 -216z" />
    <glyph glyph-name="Jcircumflex" unicode="&#x134;" horiz-adv-x="1042" 
d="M594 580l76 532q11 68 18.5 176t7.5 148q31 0 72.5 1t79 3t70.5 4t53.5 3t21.5 1q0 -2 -8.5 -54t-18 -115t-12.5 -87l-88 -623q-41 -290 -189.5 -434.5t-395.5 -144.5q-196 0 -324 96q6 11 20.5 38.5t20.5 39t17 34.5t16.5 38t12.5 36t11 41l13 4q95 -77 217 -77
q118 0 201 83t108 257zM705 1591h-142l238 336h174l143 -336h-139l-111 193z" />
    <glyph glyph-name="jcircumflex" unicode="&#x135;" horiz-adv-x="548" 
d="M231 1255h-141l238 336h174l143 -336h-139l-111 193zM-35 -434q-30 51 -106 121q50 32 118 134.5t86 229.5l93 662q25 172 30 348q51 3 125 12q75 12 131 31h41l-139 -995q-24 -178 -133.5 -327t-245.5 -216z" />
    <glyph glyph-name="Kcommaaccent" unicode="&#x136;" horiz-adv-x="1273" 
d="M55 -10q0 1 8 45.5t18.5 106.5t14.5 98l123 872q11 71 20 180t9 144q62 0 178 6t119 6l-41 -256l-60 -424q207 219 375.5 416.5t200.5 253.5q247 0 321 6v-10l-624 -686q17 -30 78 -127q110 -169 139 -215q7 -10 145 -228l103 -158l-4 -22q-205 0 -322 -8q-1 2 -31 57
t-43 79t-47 84t-62 105.5t-67 109t-83 129t-91 132.5l-51 -364q-11 -80 -20 -184.5t-9 -137.5q-32 0 -74 -1t-79 -2.5t-69.5 -3t-53 -2.5t-21.5 -1zM479 -545q-10 27 -53 70l2 12q55 12 98 51.5t49 81.5q-60 0 -92 25t-32 69q0 65 46.5 103.5t106.5 38.5q56 0 86.5 -33
t30.5 -96q0 -71 -30.5 -133.5t-73.5 -101t-79.5 -60.5t-58.5 -27z" />
    <glyph glyph-name="kcommaaccent" unicode="&#x137;" horiz-adv-x="1122" 
d="M88 242l133 952q21 149 27 324q22 1 54.5 5.5t59.5 9.5t72.5 14t71.5 14h39l-135 -955q47 41 109 107t117 131t103.5 124.5t77.5 96.5l29 37q51 -2 158 -2q65 0 149 6v-14l-463 -506l332 -580l-2 -6q-33 0 -104.5 -2.5t-129.5 -5t-59 -2.5l-324 571l-45 -325
q-23 -204 -22 -236q-166 0 -289 -10q30 150 41 252zM395 -545q-10 27 -53 70l2 12q55 12 98.5 51.5t49.5 81.5q-60 0 -92.5 25t-32.5 69q0 65 46.5 103.5t106.5 38.5q56 0 86.5 -33t30.5 -96q0 -71 -30.5 -133.5t-73.5 -101t-79.5 -60.5t-58.5 -27z" />
    <glyph glyph-name="kgreenlandic" unicode="&#x138;" horiz-adv-x="1101" 
d="M66 242l73 495q22 152 27 322q21 0 54 4.5t57.5 9t75 14t69.5 13.5h39l-72 -494q73 64 181.5 186.5t180.5 212.5t72 93q55 -2 160 -2q66 0 150 6l-3 -15l-460 -501l329 -580v-6h-40t-51 -1t-55.5 -2t-53.5 -2.5t-46.5 -2.5t-32.5 -2h-13l-324 571l-47 -325
q-22 -198 -21 -236q-168 0 -288 -10q3 26 19.5 126t19.5 126z" />
    <glyph glyph-name="Lacute" unicode="&#x139;" horiz-adv-x="1052" 
d="M901 -4q-434 10 -844 -4q0 3 8 46.5t18.5 104t14.5 97.5l123 872q27 281 27 324l297 12q-33 -194 -39 -254l-137 -977h286q156 0 295 8q-2 -7 -9 -29t-8.5 -26.5t-6.5 -21.5t-6 -21.5t-4.5 -18.5t-4.5 -20t-3 -18.5t-3 -22.5t-2 -23t-2 -28zM672 1905l-187 -314h-129
l78 336h238v-22z" />
    <glyph glyph-name="lacute" unicode="&#x13a;" horiz-adv-x="548" 
d="M90 238l135 956q27 200 27 324q80 3 256 43h41l-187 -1325q-23 -197 -22 -236q-166 0 -289 -10q2 11 11 65.5t17 106.5t11 76zM641 1950l-186 -314h-129l77 336h238v-22z" />
    <glyph glyph-name="Lcommaaccent" unicode="&#x13b;" horiz-adv-x="1052" 
d="M901 -4q-434 10 -844 -4q0 3 8 46.5t18.5 104t14.5 97.5l123 872q27 281 27 324l297 12q-33 -194 -39 -254l-137 -977h286q156 0 295 8q-2 -7 -9 -29t-8.5 -26.5t-6.5 -21.5t-6 -21.5t-4.5 -18.5t-4.5 -20t-3 -18.5t-3 -22.5t-2 -23t-2 -28zM369 -545q-9 25 -54 70l2 12
q55 12 98.5 51.5t49.5 81.5q-60 0 -92.5 25t-32.5 69q0 65 47 103.5t107 38.5q56 0 86 -33t30 -96q0 -71 -30.5 -133.5t-73 -101t-79 -60.5t-58.5 -27z" />
    <glyph glyph-name="lcommaaccent" unicode="&#x13c;" horiz-adv-x="532" 
d="M90 238l135 956q27 200 27 324q80 3 256 43h41l-187 -1325q-23 -197 -22 -236q-166 0 -289 -10q2 11 11 65.5t17 106.5t11 76zM-31 -545q-10 27 -53 70l2 12q55 12 98.5 51.5t49.5 81.5q-60 0 -92.5 25t-32.5 69q0 65 46.5 103.5t106.5 38.5q56 0 86.5 -33t30.5 -96
q0 -71 -30.5 -133.5t-73.5 -101t-79.5 -60.5t-58.5 -27z" />
    <glyph glyph-name="Lcaron" unicode="&#x13d;" horiz-adv-x="1052" 
d="M901 -4q-434 10 -844 -4q0 3 8 46.5t18.5 104t14.5 97.5l123 872q27 281 27 324l297 12q-33 -194 -39 -254l-137 -977h286q156 0 295 8q-2 -7 -9 -29t-8.5 -26.5t-6.5 -21.5t-6 -21.5t-4.5 -18.5t-4.5 -20t-3 -18.5t-3 -22.5t-2 -23t-2 -28zM922 1016q-9 24 -54 69l2 13
q55 12 98.5 51.5t49.5 81.5q-60 0 -92.5 25t-32.5 69q0 65 47 103t107 38q56 0 86 -33t30 -96q0 -71 -30.5 -133.5t-73 -100.5t-79 -60t-58.5 -27z" />
    <glyph glyph-name="lcaron" unicode="&#x13e;" horiz-adv-x="774" 
d="M90 238l135 956q27 200 27 324q80 3 256 43h41l-187 -1325q-23 -197 -22 -236q-166 0 -289 -10q2 11 11 65.5t17 106.5t11 76zM662 1022q-9 25 -54 70l2 12q55 12 98.5 51.5t49.5 81.5q-60 0 -92.5 25t-32.5 69q0 65 46.5 103.5t106.5 38.5q56 0 86.5 -33.5t30.5 -96.5
q0 -71 -30.5 -133.5t-73 -100.5t-79 -60t-58.5 -27z" />
    <glyph glyph-name="Ldot" unicode="&#x13f;" horiz-adv-x="1052" 
d="M901 -4q-434 10 -844 -4q0 3 8 46.5t18.5 104t14.5 97.5l123 872q27 281 27 324l297 12q-33 -194 -39 -254l-137 -977h286q156 0 295 8q-2 -7 -9 -29t-8.5 -26.5t-6.5 -21.5t-6 -21.5t-4.5 -18.5t-4.5 -20t-3 -18.5t-3 -22.5t-2 -23t-2 -28zM862 905q54 0 91.5 -35
t37.5 -86q0 -66 -51.5 -112.5t-116.5 -46.5q-56 0 -92.5 33.5t-36.5 86.5q0 66 50.5 113t117.5 47z" />
    <glyph glyph-name="ldot" unicode="&#x140;" horiz-adv-x="823" 
d="M90 238l135 956q27 200 27 324q80 3 256 43h41l-187 -1325q-23 -197 -22 -236q-166 0 -289 -10q2 11 11 65.5t17 106.5t11 76zM702 905q54 0 91.5 -35t37.5 -86q0 -66 -51 -112.5t-116 -46.5q-56 0 -92.5 33.5t-36.5 86.5q0 67 50 113.5t117 46.5z" />
    <glyph glyph-name="Lslash" unicode="&#x141;" horiz-adv-x="1052" 
d="M901 -4q-184 4 -338 4q-195 0 -289 -2l-217 -6q0 3 8 46.5t18.5 104t14.5 97.5l41 286l-176 -67q24 135 25 170l174 67l59 416q11 68 19 177t8 147l297 12q-33 -194 -39 -254l-55 -387l401 154q-25 -137 -25 -168q-25 -8 -78.5 -29t-144.5 -57t-176 -68l-59 -422h286
q156 0 295 8q-2 -7 -9 -29t-8.5 -26.5t-6.5 -21.5t-6 -21.5t-4.5 -18.5t-4.5 -20t-3 -18.5t-3 -22.5t-2 -23t-2 -28z" />
    <glyph glyph-name="lslash" unicode="&#x142;" horiz-adv-x="548" 
d="M8 686l129 57l64 451q22 164 28 324q38 1 254 41h39l-96 -687l131 58q0 -3 -9 -64t-9 -65l-131 -58l-70 -507q-3 -23 -8 -65t-8 -67t-5.5 -55t-1.5 -49q-165 0 -288 -10q3 25 19.5 123t19.5 125l53 374l-131 -57q0 3 10 66t10 65z" />
    <glyph glyph-name="Nacute" unicode="&#x143;" horiz-adv-x="1531" 
d="M94 242l123 874q29 232 29 322q64 0 176 4t127 4l512 -1067l65 565q52 419 52 496q66 0 180.5 4t118.5 4q-5 -23 -22 -135t-21 -150l-119 -841q-3 -23 -13 -102t-16 -136t-6 -84l-328 -8q-19 56 -90 211q-64 144 -141 297q-91 194 -143 295q-74 149 -101 206l-76 -528
q-13 -106 -30 -275t-17 -198q-52 0 -111 -2t-117 -5t-71 -3q3 23 19.5 123.5t19.5 128.5zM1108 1905l-186 -314h-129l77 336h238v-22z" />
    <glyph glyph-name="nacute" unicode="&#x144;" horiz-adv-x="1216" 
d="M88 242l70 483q19 138 22 225q6 99 6 105q26 0 66.5 8t97 21t92.5 20h41l-30 -209q87 99 192 158t215 59q53 0 101.5 -14t90 -42t66.5 -79.5t25 -118.5q0 -71 -92 -670q-13 -109 -13 -188q-168 0 -288 -10q0 2 8 52.5t17.5 112t12.5 85.5q68 504 68 512q0 70 -41.5 101.5
t-105.5 31.5q-69 0 -144 -42t-133 -100l-72 -507q-22 -194 -22 -236q-153 0 -289 -10l9 52q9 52 18.5 114.5t11.5 85.5zM905 1569l-186 -314h-129l78 336h237v-22z" />
    <glyph glyph-name="Ncommaaccent" unicode="&#x145;" horiz-adv-x="1531" 
d="M94 242l123 874q29 232 29 322q64 0 176 4t127 4l512 -1067l65 565q52 419 52 496q66 0 180.5 4t118.5 4q-5 -23 -22 -135t-21 -150l-119 -841q-3 -23 -13 -102t-16 -136t-6 -84l-328 -8q-19 56 -90 211q-64 144 -141 297q-91 194 -143 295q-74 149 -101 206l-76 -528
q-13 -106 -30 -275t-17 -198q-52 0 -111 -2t-117 -5t-71 -3q3 23 19.5 123.5t19.5 128.5zM573 -545q-10 27 -53 70l2 12q55 12 98.5 51.5t49.5 81.5q-60 0 -92.5 25t-32.5 69q0 65 46.5 103.5t106.5 38.5q56 0 86.5 -33t30.5 -96q0 -71 -30.5 -133.5t-73.5 -101t-79.5 -60.5
t-58.5 -27z" />
    <glyph glyph-name="ncommaaccent" unicode="&#x146;" horiz-adv-x="1216" 
d="M88 242l70 483q19 138 22 225q6 99 6 105q26 0 66.5 8t97 21t92.5 20h41l-30 -209q87 99 192 158t215 59q53 0 101.5 -14t90 -42t66.5 -79.5t25 -118.5q0 -71 -92 -670q-13 -109 -13 -188q-168 0 -288 -10q0 2 8 52.5t17.5 112t12.5 85.5q68 504 68 512q0 70 -41.5 101.5
t-105.5 31.5q-69 0 -144 -42t-133 -100l-72 -507q-22 -194 -22 -236q-153 0 -289 -10l9 52q9 52 18.5 114.5t11.5 85.5zM449 -545q-9 25 -54 70l2 12q55 12 98.5 51.5t49.5 81.5q-60 0 -92.5 25t-32.5 69q0 65 46.5 103.5t106.5 38.5q56 0 86.5 -33t30.5 -96
q0 -71 -30.5 -133.5t-73 -101t-79 -60.5t-58.5 -27z" />
    <glyph glyph-name="Ncaron" unicode="&#x147;" horiz-adv-x="1531" 
d="M94 242l123 874q29 232 29 322q64 0 176 4t127 4l512 -1067l65 565q52 419 52 496q66 0 180.5 4t118.5 4q-5 -23 -22 -135t-21 -150l-119 -841q-3 -23 -13 -102t-16 -136t-6 -84l-328 -8q-19 56 -90 211q-64 144 -141 297q-91 194 -143 295q-74 149 -101 206l-76 -528
q-13 -106 -30 -275t-17 -198q-52 0 -111 -2t-117 -5t-71 -3q3 23 19.5 123.5t19.5 128.5zM782 1591l-141 336h139l109 -196l166 196h139l-238 -336h-174z" />
    <glyph glyph-name="ncaron" unicode="&#x148;" horiz-adv-x="1216" 
d="M88 242l70 483q19 138 22 225q6 99 6 105q26 0 66.5 8t97 21t92.5 20h41l-30 -209q87 99 192 158t215 59q53 0 101.5 -14t90 -42t66.5 -79.5t25 -118.5q0 -71 -92 -670q-13 -109 -13 -188q-168 0 -288 -10q0 2 8 52.5t17.5 112t12.5 85.5q68 504 68 512q0 70 -41.5 101.5
t-105.5 31.5q-69 0 -144 -42t-133 -100l-72 -507q-22 -194 -22 -236q-153 0 -289 -10l9 52q9 52 18.5 114.5t11.5 85.5zM598 1255l-141 336h139l109 -196l165 196h140l-238 -336h-174z" />
    <glyph glyph-name="napostrophe" unicode="&#x149;" horiz-adv-x="1415" 
d="M287 242l69 483q21 147 23 225q6 99 6 105q26 0 66.5 8t97 21t92.5 20h41l-31 -209q86 99 191.5 158t216.5 59q53 0 101.5 -13.5t90 -42.5t66 -79.5t24.5 -118.5q0 -71 -92 -670q-12 -101 -12 -188q-169 0 -289 -10q0 2 8.5 52.5t18 112t12.5 85.5q68 504 68 512
q0 70 -42 101.5t-106 31.5q-69 0 -143 -41.5t-133 -100.5l-72 -507q-22 -194 -22 -236q-153 0 -289 -10l9 52q9 52 18.5 114.5t11.5 85.5zM154 1020q-9 25 -54 70l2 12q55 12 98.5 51.5t49.5 81.5q-60 0 -92.5 25t-32.5 69q0 65 47 103t107 38q56 0 86 -33t30 -96
q0 -71 -30.5 -133.5t-73 -100.5t-79 -60t-58.5 -27z" />
    <glyph glyph-name="Eng" unicode="&#x14a;" horiz-adv-x="1529" 
d="M549 1446l512 -1067l65 565q52 426 52 496q66 0 180.5 4t118.5 4q-1 -10 -17 -119t-52.5 -359.5t-74.5 -516.5q-53 -367 -71 -433q-60 -222 -200.5 -335t-356.5 -113q-188 0 -326 98q43 73 65.5 121t34.5 105l13 6q96 -78 217 -78q79 0 148 44.5t106 131.5h-9
q-23 65 -92 209q-70 153 -141 295q-14 28 -66.5 134t-79.5 159l-100 204l-74 -528q-13 -106 -30 -275t-17 -198q-52 0 -111 -2t-117 -5t-71 -3l41 256l121 870q29 232 29 322q64 0 176 4t127 4z" />
    <glyph glyph-name="eng" unicode="&#x14b;" horiz-adv-x="1210" 
d="M659 -434q-25 48 -104 121q45 28 107 116t88 201q14 103 42.5 301.5t45 317.5t16.5 131q0 70 -40.5 100.5t-104.5 30.5q-69 0 -144 -42t-133 -100l-72 -507q-22 -194 -22 -236q-153 0 -289 -10l9 52q9 52 18.5 114.5t11.5 85.5l70 483q19 141 22 227q6 94 6 103
q26 0 66.5 8t97 21t92.5 20h41l-30 -209q87 99 192 158t215 59q52 0 99.5 -14t89.5 -42t67 -79.5t25 -118.5q0 -28 -101 -733q-17 -112 -66 -219.5t-131.5 -199.5t-183.5 -140z" />
    <glyph glyph-name="Omacron" unicode="&#x14c;" horiz-adv-x="1443" 
d="M74 584q0 96 19 194.5t56.5 196t100 182.5t143 150.5t192.5 103t242 37.5q250 0 398 -160q149 -155 149 -434q0 -97 -19.5 -195.5t-57.5 -196.5t-100.5 -182.5t-143.5 -149.5t-192 -102.5t-240 -37.5q-249 0 -400 157q-147 159 -147 437zM365 627q0 -116 29.5 -207.5
t96 -150t162.5 -58.5q88 0 162.5 38.5t124.5 100.5t85 141t51 158.5t16 155.5q0 118 -31.5 211t-99.5 151t-164 58q-88 0 -161.5 -38.5t-122.5 -100.5t-83.5 -141.5t-49.5 -160t-15 -157.5zM1063 1655h-502l12 63q11 69 13 94h501q-3 -13 -16 -94q-6 -58 -8 -63z" />
    <glyph glyph-name="omacron" unicode="&#x14d;" horiz-adv-x="1146" 
d="M55 451q0 183 79 334.5t216.5 239t302.5 87.5q189 0 310.5 -119.5t121.5 -343.5q0 -182 -78.5 -334t-215.5 -239.5t-302 -87.5q-91 0 -169 29.5t-137.5 85.5t-93.5 145.5t-34 202.5zM815 668q0 119 -53 185.5t-141 66.5q-65 0 -117.5 -35.5t-84 -88.5t-53 -119.5
t-30 -123.5t-8.5 -104q0 -121 51.5 -187.5t140.5 -66.5q79 0 140 53t92.5 132t47 153.5t15.5 134.5zM944 1319h-502l13 63q9 56 12 95h502q-6 -27 -17 -95q-6 -58 -8 -63z" />
    <glyph glyph-name="Obreve" unicode="&#x14e;" horiz-adv-x="1443" 
d="M74 584q0 96 19 194.5t56.5 196t100 182.5t143 150.5t192.5 103t242 37.5q250 0 398 -160q149 -155 149 -434q0 -97 -19.5 -195.5t-57.5 -196.5t-100.5 -182.5t-143.5 -149.5t-192 -102.5t-240 -37.5q-249 0 -400 157q-147 159 -147 437zM365 627q0 -116 29.5 -207.5
t96 -150t162.5 -58.5q88 0 162.5 38.5t124.5 100.5t85 141t51 158.5t16 155.5q0 118 -31.5 211t-99.5 151t-164 58q-88 0 -161.5 -38.5t-122.5 -100.5t-83.5 -141.5t-49.5 -160t-15 -157.5zM575 1888q32 -4 62 -4q21 0 57 4q0 -62 36.5 -100.5t113.5 -38.5q78 0 126 39
t62 100q20 -4 55 -4q32 0 64 4q-19 -136 -105.5 -213.5t-222.5 -77.5q-121 0 -186.5 62.5t-65.5 173.5q0 19 4 55z" />
    <glyph glyph-name="obreve" unicode="&#x14f;" horiz-adv-x="1146" 
d="M55 451q0 183 79 334.5t216.5 239t302.5 87.5q189 0 310.5 -119.5t121.5 -343.5q0 -182 -78.5 -334t-215.5 -239.5t-302 -87.5q-91 0 -169 29.5t-137.5 85.5t-93.5 145.5t-34 202.5zM815 668q0 119 -53 185.5t-141 66.5q-65 0 -117.5 -35.5t-84 -88.5t-53 -119.5
t-30 -123.5t-8.5 -104q0 -121 51.5 -187.5t140.5 -66.5q79 0 140 53t92.5 132t47 153.5t15.5 134.5zM403 1534q32 -4 62 -4q21 0 57 4q0 -62 36.5 -100.5t113.5 -38.5q78 0 126 39t62 100q20 -4 55 -4q32 0 64 4q-19 -136 -105.5 -213.5t-222.5 -77.5q-121 0 -186.5 62.5
t-65.5 173.5q0 19 4 55z" />
    <glyph glyph-name="Ohungarumlaut" unicode="&#x150;" horiz-adv-x="1443" 
d="M74 584q0 96 19 194.5t56.5 196t100 182.5t143 150.5t192.5 103t242 37.5q250 0 398 -160q149 -155 149 -434q0 -97 -19.5 -195.5t-57.5 -196.5t-100.5 -182.5t-143.5 -149.5t-192 -102.5t-240 -37.5q-249 0 -400 157q-147 159 -147 437zM365 627q0 -116 29.5 -207.5
t96 -150t162.5 -58.5q88 0 162.5 38.5t124.5 100.5t85 141t51 158.5t16 155.5q0 118 -31.5 211t-99.5 151t-164 58q-88 0 -161.5 -38.5t-122.5 -100.5t-83.5 -141.5t-49.5 -160t-15 -157.5zM1180 1905l-166 -314h-129l57 336h238v-22zM885 1905l-166 -314h-129l78 336h217
v-22z" />
    <glyph glyph-name="ohungarumlaut" unicode="&#x151;" horiz-adv-x="1146" 
d="M55 451q0 183 79 334.5t216.5 239t302.5 87.5q189 0 310.5 -119.5t121.5 -343.5q0 -182 -78.5 -334t-215.5 -239.5t-302 -87.5q-91 0 -169 29.5t-137.5 85.5t-93.5 145.5t-34 202.5zM815 668q0 119 -53 185.5t-141 66.5q-65 0 -117.5 -35.5t-84 -88.5t-53 -119.5
t-30 -123.5t-8.5 -104q0 -121 51.5 -187.5t140.5 -66.5q79 0 140 53t92.5 132t47 153.5t15.5 134.5zM1024 1569l-166 -314h-129l57 336h238v-22zM729 1569l-166 -314h-129l78 336h217v-22z" />
    <glyph glyph-name="OE" unicode="&#x152;" horiz-adv-x="2048" 
d="M365 627q0 -116 29.5 -207.5t96 -150t162.5 -58.5q88 0 162.5 38.5t124.5 100.5t85 141t51 158.5t16 155.5q0 118 -31.5 211t-99.5 151t-164 58q-88 0 -161.5 -38.5t-122.5 -100.5t-83.5 -141.5t-49.5 -160t-15 -157.5zM74 584q0 96 19 194.5t56.5 196t100 182.5
t143 150.5t192.5 103t242 37.5q200 0 342 -107l9 97h911q-29 -114 -47 -230q-72 6 -369 6q-25 0 -121 -1t-116 -1l-54 -366q30 0 90 -1t89 -1q61 0 182.5 3t144.5 3q-3 -8 -20 -90q-12 -70 -15 -148q-264 6 -268 6q-81 0 -233 -4l-56 -393q66 -2 236 -2q268 0 385 6
q-28 -96 -29 -100q-6 -26 -16 -127q-52 4 -369 4q-343 0 -520 -8l16 98q-162 -102 -378 -102q-249 0 -400 157q-147 159 -147 437z" />
    <glyph glyph-name="oe" unicode="&#x153;" horiz-adv-x="1814" 
d="M1112 664h434q6 54 6 63q0 67 -34 131t-140 64q-116 0 -178 -80q-61 -76 -88 -178zM815 668q0 119 -53 185.5t-141 66.5q-65 0 -117.5 -35.5t-84 -88.5t-53 -119.5t-30 -123.5t-8.5 -104q0 -121 51.5 -187.5t140.5 -66.5q79 0 140 53t92.5 132t47 153.5t15.5 134.5z
M1253 -10q-119 0 -213.5 41t-154.5 119q-168 -162 -396 -162q-91 0 -169 29.5t-137.5 85.5t-93.5 145.5t-34 202.5q0 183 79 334.5t216.5 239t302.5 87.5q107 0 197.5 -41t146.5 -121q165 162 398 162q184 0 289.5 -98.5t105.5 -270.5q0 -45 -14 -114q-10 -63 -29 -121h-655
q-7 -56 -7 -66q0 -122 64 -184.5t184 -62.5q132 0 287 86q49 -118 63 -140q-86 -72 -202 -111.5t-228 -39.5z" />
    <glyph glyph-name="Racute" unicode="&#x154;" horiz-adv-x="1234" 
d="M252 1438h455q224 0 346.5 -98t122.5 -265q0 -73 -23 -147.5t-69 -145t-124.5 -127t-179.5 -84.5q51 -80 190.5 -311t145.5 -240l-2 -20q-35 0 -169 -5t-165 -5l-268 551h-98l-31 -217q-27 -238 -27 -324q-197 0 -299 -10q2 12 11 61t18.5 103.5t13.5 91.5l121 866
q11 71 21 181t10 145zM510 1221l-66 -463h172q148 0 221.5 79t73.5 189q0 90 -58 142.5t-171 52.5h-172zM930 1905l-187 -314h-129l78 336h238v-22z" />
    <glyph glyph-name="racute" unicode="&#x155;" horiz-adv-x="823" 
d="M88 242l70 483q23 163 28 334q26 0 65.5 6.5t99.5 19.5t91 19h41l-34 -242q133 250 311 250q76 0 147 -41q-24 -42 -41 -82.5t-23.5 -61t-13.5 -49.5t-8 -32q-82 20 -123 20q-163 0 -276 -196l-62 -434q-22 -157 -22 -236q-153 0 -289 -10q4 30 21 138t18 114zM639 1569
l-186 -314h-129l77 336h238v-22z" />
    <glyph glyph-name="Rcommaaccent" unicode="&#x156;" horiz-adv-x="1234" 
d="M252 1438h455q224 0 346.5 -98t122.5 -265q0 -73 -23 -147.5t-69 -145t-124.5 -127t-179.5 -84.5q51 -80 190.5 -311t145.5 -240l-2 -20q-35 0 -169 -5t-165 -5l-268 551h-98l-31 -217q-27 -238 -27 -324q-197 0 -299 -10q2 12 11 61t18.5 103.5t13.5 91.5l121 866
q11 71 21 181t10 145zM510 1221l-66 -463h172q148 0 221.5 79t73.5 189q0 90 -58 142.5t-171 52.5h-172zM440 -545q-10 27 -53 70l2 12q55 12 98.5 51.5t49.5 81.5q-60 0 -92.5 25t-32.5 69q0 65 46.5 103.5t106.5 38.5q56 0 86.5 -33t30.5 -96q0 -71 -30.5 -133.5
t-73.5 -101t-79.5 -60.5t-58.5 -27z" />
    <glyph glyph-name="rcommaaccent" unicode="&#x157;" horiz-adv-x="825" 
d="M88 242l70 483q23 163 28 334q26 0 65.5 6.5t99.5 19.5t91 19h41l-34 -242q133 250 311 250q76 0 147 -41q-24 -42 -41 -82.5t-23.5 -61t-13.5 -49.5t-8 -32q-82 20 -123 20q-163 0 -276 -196l-62 -434q-22 -157 -22 -236q-153 0 -289 -10q4 30 21 138t18 114zM-10 -545
q-10 27 -53 70l2 12q55 12 98 51.5t49 81.5q-60 0 -92.5 25t-32.5 69q0 65 47 103.5t107 38.5q56 0 86 -33t30 -96q0 -71 -30.5 -133.5t-73 -101t-79 -60.5t-58.5 -27z" />
    <glyph glyph-name="Rcaron" unicode="&#x158;" horiz-adv-x="1234" 
d="M252 1438h455q224 0 346.5 -98t122.5 -265q0 -73 -23 -147.5t-69 -145t-124.5 -127t-179.5 -84.5q51 -80 190.5 -311t145.5 -240l-2 -20q-35 0 -169 -5t-165 -5l-268 551h-98l-31 -217q-27 -238 -27 -324q-197 0 -299 -10q2 12 11 61t18.5 103.5t13.5 91.5l121 866
q11 71 21 181t10 145zM510 1221l-66 -463h172q148 0 221.5 79t73.5 189q0 90 -58 142.5t-171 52.5h-172zM610 1591l-141 336h139l109 -196l166 196h139l-238 -336h-174z" />
    <glyph glyph-name="rcaron" unicode="&#x159;" horiz-adv-x="823" 
d="M88 242l70 483q23 163 28 334q26 0 65.5 6.5t99.5 19.5t91 19h41l-34 -242q133 250 311 250q76 0 147 -41q-24 -42 -41 -82.5t-23.5 -61t-13.5 -49.5t-8 -32q-82 20 -123 20q-163 0 -276 -196l-62 -434q-22 -157 -22 -236q-153 0 -289 -10q4 30 21 138t18 114zM406 1255
l-142 336h139l109 -196l166 196h139l-237 -336h-174z" />
    <glyph glyph-name="Sacute" unicode="&#x15a;" horiz-adv-x="1101" 
d="M1008 467q0 -60 -17 -122t-59.5 -127t-105.5 -114.5t-164.5 -81.5t-227.5 -32q-141 0 -260 43q-125 45 -182 80q54 80 98 225q49 -31 152 -72q110 -43 227 -43q127 0 199.5 56t72.5 149q0 71 -55.5 113.5t-165.5 70.5q-194 48 -296.5 129.5t-102.5 221.5q0 73 21.5 142
t68 131.5t113 109.5t163.5 74.5t213 27.5q118 0 224 -30.5t184 -80.5q-46 -65 -78 -178l-14 -6q-39 28 -126.5 49t-182.5 21q-131 0 -214 -55.5t-83 -143.5q0 -67 58.5 -104t174.5 -68q179 -50 272 -147.5t93 -237.5zM866 1907l-186 -314h-129l78 336h237v-22z" />
    <glyph glyph-name="sacute" unicode="&#x15b;" horiz-adv-x="919" 
d="M369 -10q-101 0 -209 30q-104 34 -156 80q49 72 78 164q14 -14 104 -49q91 -31 193 -31q96 0 153.5 44t57.5 114q0 43 -40 70t-130 51q-161 40 -238.5 102.5t-77.5 179.5q0 166 124.5 266.5t334.5 100.5q90 0 175.5 -23t144.5 -65q-51 -84 -74 -150l-23 -12
q-96 60 -223 60q-88 0 -144.5 -41.5t-56.5 -104.5q0 -39 37 -64t121 -50q166 -38 246 -108.5t80 -176.5q0 -31 -6.5 -65t-23 -72.5t-41 -73.5t-63 -67.5t-86.5 -56.5t-114 -38t-143 -14zM735 1569l-186 -314h-129l78 336h237v-22z" />
    <glyph glyph-name="Scircumflex" unicode="&#x15c;" horiz-adv-x="1101" 
d="M1008 467q0 -60 -17 -122t-59.5 -127t-105.5 -114.5t-164.5 -81.5t-227.5 -32q-141 0 -260 43q-125 45 -182 80q54 80 98 225q49 -31 152 -72q110 -43 227 -43q127 0 199.5 56t72.5 149q0 71 -55.5 113.5t-165.5 70.5q-194 48 -296.5 129.5t-102.5 221.5q0 73 21.5 142
t68 131.5t113 109.5t163.5 74.5t213 27.5q118 0 224 -30.5t184 -80.5q-46 -65 -78 -178l-14 -6q-39 28 -126.5 49t-182.5 21q-131 0 -214 -55.5t-83 -143.5q0 -67 58.5 -104t174.5 -68q179 -50 272 -147.5t93 -237.5zM514 1591h-141l237 336h174l144 -336h-140l-110 193z
" />
    <glyph glyph-name="scircumflex" unicode="&#x15d;" horiz-adv-x="919" 
d="M369 -10q-101 0 -209 30q-104 34 -156 80q49 72 78 164q14 -14 104 -49q91 -31 193 -31q96 0 153.5 44t57.5 114q0 43 -40 70t-130 51q-161 40 -238.5 102.5t-77.5 179.5q0 166 124.5 266.5t334.5 100.5q90 0 175.5 -23t144.5 -65q-51 -84 -74 -150l-23 -12
q-96 60 -223 60q-88 0 -144.5 -41.5t-56.5 -104.5q0 -39 37 -64t121 -50q166 -38 246 -108.5t80 -176.5q0 -31 -6.5 -65t-23 -72.5t-41 -73.5t-63 -67.5t-86.5 -56.5t-114 -38t-143 -14zM399 1255h-141l238 336h174l143 -336h-139l-111 193z" />
    <glyph glyph-name="Scedilla" unicode="&#x15e;" horiz-adv-x="1101" 
d="M506 -92q85 0 134.5 -40t49.5 -104q0 -81 -76 -145q-74 -65 -194 -65q-50 0 -96.5 13t-71.5 34q30 54 33 96q19 -11 57.5 -21t73.5 -10q56 0 93.5 22t37.5 72q0 70 -131 70q-18 0 -51.5 -4t-36.5 -4l-9 31l80 139q-117 5 -227.5 42t-179.5 79q54 80 98 225
q49 -31 152 -72q110 -43 227 -43q127 0 199.5 56t72.5 149q0 71 -55.5 113.5t-165.5 70.5q-194 48 -296.5 129.5t-102.5 221.5q0 73 21.5 142t68 131.5t113 109.5t163.5 74.5t213 27.5q118 0 224 -30.5t184 -80.5q-46 -65 -78 -178l-14 -6q-39 28 -126.5 49t-182.5 21
q-131 0 -214 -55.5t-83 -143.5q0 -67 58.5 -104t174.5 -68q179 -50 272 -147.5t93 -237.5q0 -57 -15 -115.5t-52.5 -120.5t-93.5 -111.5t-145 -84.5t-200 -43l-41 -86q7 0 22.5 1t22.5 1z" />
    <glyph glyph-name="scedilla" unicode="&#x15f;" horiz-adv-x="919" 
d="M428 -92q85 0 134.5 -40t49.5 -104q0 -82 -75 -145q-74 -65 -195 -65q-50 0 -96.5 13t-71.5 34q30 54 33 96q19 -11 57.5 -21t73.5 -10q56 0 93.5 22t37.5 72q0 70 -131 70q-18 0 -51.5 -4t-36.5 -4l-8 31l80 139q-95 6 -184.5 36t-133.5 72q49 72 78 164q14 -14 104 -49
q91 -31 193 -31q96 0 153.5 44t57.5 114q0 43 -41 71.5t-129 49.5q-162 41 -239 103.5t-77 178.5q0 166 124.5 266.5t334.5 100.5q90 0 175.5 -23t144.5 -65q-51 -84 -74 -150l-23 -12q-96 60 -223 60q-88 0 -144.5 -41.5t-56.5 -104.5q0 -40 38 -66.5t120 -47.5
q168 -41 247 -110t79 -175q0 -42 -12 -87.5t-42.5 -97t-76.5 -92.5t-121.5 -71t-169.5 -37l-41 -86q7 0 22.5 1t22.5 1z" />
    <glyph glyph-name="Scaron" unicode="&#x160;" horiz-adv-x="1101" 
d="M1008 467q0 -60 -17 -122t-59.5 -127t-105.5 -114.5t-164.5 -81.5t-227.5 -32q-141 0 -260 43q-125 45 -182 80q54 80 98 225q49 -31 152 -72q110 -43 227 -43q127 0 199.5 56t72.5 149q0 71 -55.5 113.5t-165.5 70.5q-194 48 -296.5 129.5t-102.5 221.5q0 73 21.5 142
t68 131.5t113 109.5t163.5 74.5t213 27.5q118 0 224 -30.5t184 -80.5q-46 -65 -78 -178l-14 -6q-39 28 -126.5 49t-182.5 21q-131 0 -214 -55.5t-83 -143.5q0 -67 58.5 -104t174.5 -68q179 -50 272 -147.5t93 -237.5zM559 1591l-141 336h139l109 -196l165 196h140l-238 -336
h-174z" />
    <glyph glyph-name="scaron" unicode="&#x161;" horiz-adv-x="919" 
d="M369 -10q-101 0 -209 30q-104 34 -156 80q49 72 78 164q14 -14 104 -49q91 -31 193 -31q96 0 153.5 44t57.5 114q0 43 -40 70t-130 51q-161 40 -238.5 102.5t-77.5 179.5q0 166 124.5 266.5t334.5 100.5q90 0 175.5 -23t144.5 -65q-51 -84 -74 -150l-23 -12
q-96 60 -223 60q-88 0 -144.5 -41.5t-56.5 -104.5q0 -39 37 -64t121 -50q166 -38 246 -108.5t80 -176.5q0 -31 -6.5 -65t-23 -72.5t-41 -73.5t-63 -67.5t-86.5 -56.5t-114 -38t-143 -14zM414 1255l-142 336h140l108 -196l166 196h139l-237 -336h-174z" />
    <glyph glyph-name="uni0162" unicode="&#x162;" horiz-adv-x="1204" 
d="M555 -92q85 0 134.5 -40t49.5 -104q0 -82 -75 -145q-74 -65 -195 -65q-50 0 -96.5 13t-71.5 34q30 54 33 96q19 -11 57.5 -21t73.5 -10q56 0 93.5 22t37.5 72q0 70 -131 70q-18 0 -51.5 -4t-36.5 -4l-8 31l84 143l-105 -6q2 10 11 60.5t18.5 105t13.5 90.5l39 276l43 307
l35 248q14 98 14 111q-340 0 -424 -2q27 122 47 254q26 0 256 -1t299 -1q272 0 566 4q-17 -59 -35 -148q-8 -49 -14 -106h-418l-121 -860l-37 -328h-88l-43 -94q7 0 22.5 1t22.5 1z" />
    <glyph glyph-name="uni0163" unicode="&#x163;" horiz-adv-x="808" 
d="M446 -102q85 0 135 -40t50 -104q0 -81 -76 -145q-75 -66 -195 -66q-50 0 -96 13t-71 34q9 16 20 47t12 50q19 -11 57.5 -21t73.5 -10q56 0 93.5 22t37.5 72q0 70 -131 70q-18 0 -51.5 -4t-36.5 -4l-8 30l90 156q-99 21 -159 96t-60 199q0 99 78 608l-156 31q4 19 19 133
l172 33q9 65 41 229q27 0 59 5t85.5 16.5t86.5 17.5h39l-39 -262h275q-35 -134 -35 -209h-271l-75 -535q-2 -10 -2 -28q0 -60 38 -92.5t97 -32.5q69 0 149 39v-21q0 -63 25 -149q-137 -83 -273 -86l-43 -94q7 0 22.5 1t22.5 1z" />
    <glyph glyph-name="Tcaron" unicode="&#x164;" horiz-adv-x="1204" 
d="M389 240l133 948h-422q2 8 11 50t13.5 63.5t10.5 61.5t10 77q54 0 258.5 -1t296.5 -1q145 0 316.5 1t247.5 1q-45 -155 -50 -252h-415l-123 -873q-2 -10 -39 -315q-32 0 -287 -10q24 139 39 250zM618 1591l-141 336h139l109 -196l166 196h139l-237 -336h-175z" />
    <glyph glyph-name="tcaron" unicode="&#x165;" horiz-adv-x="808" 
d="M756 897h-271q-75 -488 -75 -537q0 -153 133 -153q69 0 149 39v-21q0 -63 25 -149q-141 -86 -287 -86q-131 0 -215 77.5t-84 225.5q0 99 78 608l-156 31q4 19 19 133l172 33q9 65 41 229q27 0 59 5t85.5 16.5t86.5 17.5h39l-39 -262h275q-35 -134 -35 -207zM723 1245
q-10 27 -53 70l2 12q55 12 98 51.5t49 81.5q-60 0 -92.5 25t-32.5 69q0 65 47 103.5t107 38.5q56 0 86.5 -33t30.5 -96q0 -71 -30.5 -133.5t-73.5 -101t-79.5 -60.5t-58.5 -27z" />
    <glyph glyph-name="Tbar" unicode="&#x166;" horiz-adv-x="1204" 
d="M678 328l-37 -328q-38 0 -293 -10q2 10 11 60.5t18.5 105t13.5 90.5l51 381h-309q0 3 5.5 33.5t12 70t9.5 60.5h307q15 93 28.5 191t20 151t6.5 57q-340 0 -424 -2q28 126 47 252q26 0 256 -1t299 -1q272 0 566 4q-17 -59 -35 -148q-8 -53 -14 -104h-418l-58 -399h322
l-25 -164h-319z" />
    <glyph glyph-name="tbar" unicode="&#x167;" horiz-adv-x="808" 
d="M160 567h-150l15 66q15 60 18 96h139l27 172l-156 31q4 19 19 133l172 33q9 65 41 229q27 0 59 5t85.5 16.5t86.5 17.5h39l-39 -262h275q-35 -134 -35 -207h-271l-24 -168h266q-17 -76 -20 -96q-8 -50 -13 -66h-258q-26 -187 -26 -207q0 -153 133 -153q69 0 149 39v-21
q0 -63 25 -149q-141 -86 -287 -86q-131 0 -215 77.5t-84 225.5q0 67 29 274z" />
    <glyph glyph-name="Utilde" unicode="&#x168;" horiz-adv-x="1394" 
d="M592 -10q-229 0 -354 103t-125 323q0 99 133 1022h37q131 0 239 12q-62 -419 -91 -630.5t-32.5 -250.5t-3.5 -77q0 -134 61.5 -200.5t176.5 -66.5q129 0 215 87t110 263l119 863q133 0 277 12l-123 -881q-42 -293 -208 -436t-431 -143zM473 1690q66 123 127 151
q62 33 117 33q45 0 84 -16.5t62.5 -36t54.5 -36t61 -16.5q33 0 64 16.5t69 63.5q48 -40 86 -51q-43 -74 -91 -116.5t-85 -55t-80 -12.5q-36 0 -67 10.5t-53.5 26t-43 31t-45.5 26t-51 10.5q-72 0 -127 -78q-6 4 -20 15.5t-20 15.5t-18 9.5t-24 9.5z" />
    <glyph glyph-name="utilde" unicode="&#x169;" horiz-adv-x="1196" 
d="M360 -10q-110 0 -192 68t-82 200q0 22 8 81t26.5 181t31.5 217q11 81 20.5 191.5t9.5 154.5q26 1 60 4t89.5 8t102.5 9h41l-53 -369q-49 -350 -49 -373q0 -71 39.5 -107t99.5 -36q67 0 139 43t129 105l51 362q12 82 22.5 196.5t10.5 157.5q33 1 117 9t137 12h39l-53 -377
l-62 -436q-16 -109 -16 -207q0 -34 4 -84q-153 0 -285 -10q0 69 13 211q-87 -96 -190 -153.5t-208 -57.5zM344 1331q67 124 127 152q62 33 117 33q45 0 84 -16.5t62.5 -36t54.5 -36t61 -16.5q33 0 64 16.5t69 63.5q48 -40 86 -51q-63 -107 -126 -146t-130 -39
q-43 0 -81.5 16.5t-61 36t-54 36t-63.5 16.5q-72 0 -127 -78q-5 4 -16.5 12.5t-16.5 12t-13.5 9t-17 9t-18.5 6.5z" />
    <glyph glyph-name="Umacron" unicode="&#x16a;" horiz-adv-x="1394" 
d="M592 -10q-229 0 -354 103t-125 323q0 99 133 1022h37q131 0 239 12q-62 -419 -91 -630.5t-32.5 -250.5t-3.5 -77q0 -134 61.5 -200.5t176.5 -66.5q129 0 215 87t110 263l119 863q133 0 277 12l-123 -881q-42 -293 -208 -436t-431 -143zM1047 1655h-502l12 63q9 57 12 94
h502q-3 -13 -16 -94q-6 -58 -8 -63z" />
    <glyph glyph-name="umacron" unicode="&#x16b;" horiz-adv-x="1196" 
d="M360 -10q-110 0 -192 68t-82 200q0 22 8 81t26.5 181t31.5 217q11 81 20.5 191.5t9.5 154.5q26 1 60 4t89.5 8t102.5 9h41l-53 -369q-49 -350 -49 -373q0 -71 39.5 -107t99.5 -36q67 0 139 43t129 105l51 362q12 82 22.5 196.5t10.5 157.5q33 1 117 9t137 12h39l-53 -377
l-62 -436q-16 -109 -16 -207q0 -34 4 -84q-153 0 -285 -10q0 69 13 211q-87 -96 -190 -153.5t-208 -57.5zM928 1319h-502l12 63q11 68 13 95h501q-2 -10 -16 -95q-6 -58 -8 -63z" />
    <glyph glyph-name="Ubreve" unicode="&#x16c;" horiz-adv-x="1394" 
d="M592 -10q-229 0 -354 103t-125 323q0 99 133 1022h37q131 0 239 12q-62 -419 -91 -630.5t-32.5 -250.5t-3.5 -77q0 -134 61.5 -200.5t176.5 -66.5q129 0 215 87t110 263l119 863q133 0 277 12l-123 -881q-42 -293 -208 -436t-431 -143zM551 1886q32 -4 61 -4q22 0 58 4
q0 -62 36 -100.5t113 -38.5q78 0 126.5 39t62.5 100q20 -4 55 -4q31 0 63 4q-19 -136 -105 -213.5t-222 -77.5q-121 0 -186.5 62.5t-65.5 173.5q0 19 4 55z" />
    <glyph glyph-name="ubreve" unicode="&#x16d;" horiz-adv-x="1196" 
d="M360 -10q-110 0 -192 68t-82 200q0 22 8 81t26.5 181t31.5 217q11 81 20.5 191.5t9.5 154.5q26 1 60 4t89.5 8t102.5 9h41l-53 -369q-49 -350 -49 -373q0 -71 39.5 -107t99.5 -36q67 0 139 43t129 105l51 362q12 82 22.5 196.5t10.5 157.5q33 1 117 9t137 12h39l-53 -377
l-62 -436q-16 -109 -16 -207q0 -34 4 -84q-153 0 -285 -10q0 69 13 211q-87 -96 -190 -153.5t-208 -57.5zM420 1536q32 -4 61 -4q22 0 58 4q0 -62 36 -100.5t113 -38.5q78 0 126.5 39t62.5 100q20 -4 55 -4q31 0 63 4q-19 -136 -105 -213.5t-222 -77.5q-121 0 -186.5 62.5
t-65.5 173.5q0 19 4 55z" />
    <glyph glyph-name="Uring" unicode="&#x16e;" horiz-adv-x="1394" 
d="M592 -10q-229 0 -354 103t-125 323q0 99 133 1022h37q131 0 239 12q-62 -419 -91 -630.5t-32.5 -250.5t-3.5 -77q0 -134 61.5 -200.5t176.5 -66.5q129 0 215 87t110 263l119 863q133 0 277 12l-123 -881q-42 -293 -208 -436t-431 -143zM852 1898q69 0 111.5 -39.5
t42.5 -101.5q0 -79 -59.5 -134.5t-141.5 -55.5q-68 0 -109 38t-41 99q0 82 55.5 138t141.5 56zM819 1661q31 0 53.5 25t22.5 57q0 26 -14.5 43.5t-42.5 17.5q-35 0 -55.5 -26.5t-20.5 -59.5q0 -25 14.5 -41t42.5 -16z" />
    <glyph glyph-name="uring" unicode="&#x16f;" horiz-adv-x="1196" 
d="M360 -10q-110 0 -192 68t-82 200q0 22 8 81t26.5 181t31.5 217q11 81 20.5 191.5t9.5 154.5q26 1 60 4t89.5 8t102.5 9h41l-53 -369q-49 -350 -49 -373q0 -71 39.5 -107t99.5 -36q67 0 139 43t129 105l51 362q12 82 22.5 196.5t10.5 157.5q33 1 117 9t137 12h39l-53 -377
l-62 -436q-16 -109 -16 -207q0 -34 4 -84q-153 0 -285 -10q0 69 13 211q-87 -96 -190 -153.5t-208 -57.5zM741 1563q68 0 111 -40t43 -102q0 -79 -59.5 -134.5t-141.5 -55.5q-68 0 -108.5 38t-40.5 99q0 83 55.5 139t140.5 56zM709 1325q31 0 53 25t22 57q0 26 -14.5 43.5
t-42.5 17.5q-35 0 -55.5 -26.5t-20.5 -59.5q0 -25 15 -41t43 -16z" />
    <glyph glyph-name="Uhungarumlaut" unicode="&#x170;" horiz-adv-x="1394" 
d="M592 -10q-229 0 -354 103t-125 323q0 99 133 1022h37q131 0 239 12q-62 -419 -91 -630.5t-32.5 -250.5t-3.5 -77q0 -134 61.5 -200.5t176.5 -66.5q129 0 215 87t110 263l119 863q133 0 277 12l-123 -881q-42 -293 -208 -436t-431 -143zM1194 1903l-166 -314h-129l57 336
h238v-22zM899 1903l-166 -314h-129l78 336h217v-22z" />
    <glyph glyph-name="uhungarumlaut" unicode="&#x171;" horiz-adv-x="1196" 
d="M369 -10q-51 0 -98.5 15.5t-88 46.5t-64.5 84.5t-24 121.5q0 22 8 81t26.5 181t31.5 217q11 81 20.5 191.5t9.5 154.5q26 1 60 4t89.5 8t102.5 9h41l-53 -369q-49 -350 -49 -373q0 -71 39.5 -107t99.5 -36q67 0 139 43t129 105l52 362q12 81 22 195.5t10 158.5
q33 1 117 9t137 12h39l-53 -377l-61 -436q-17 -116 -17 -207q0 -34 4 -84q-152 0 -284 -10q0 80 12 211q-87 -96 -189.5 -153.5t-207.5 -57.5zM1069 1569l-166 -314h-129l57 336h238v-22zM774 1569l-166 -314h-129l78 336h217v-22z" />
    <glyph glyph-name="Uogonek" unicode="&#x172;" horiz-adv-x="1394" 
d="M696 -4q-161 -108 -161 -215q0 -44 28 -69t76 -25q34 0 88 20l14 -84q-85 -55 -188 -55q-86 0 -143.5 44.5t-57.5 123.5q0 70 60 138t172 116q-471 3 -471 426q0 99 133 1022h37q131 0 239 12q-62 -419 -91 -630.5t-32.5 -250.5t-3.5 -77q0 -134 61.5 -200.5t176.5 -66.5
q129 0 215 87t110 263l119 863q133 0 277 12l-123 -881q-37 -262 -176 -405t-359 -168z" />
    <glyph glyph-name="uogonek" unicode="&#x173;" horiz-adv-x="1196" 
d="M360 -10q-110 0 -192 68t-82 200q0 22 8 81t26.5 181t31.5 217q11 81 20.5 191.5t9.5 154.5q26 1 60 4t89.5 8t102.5 9h41l-53 -369q-49 -350 -49 -373q0 -71 39.5 -107t99.5 -36q67 0 139 43t129 105l51 362q12 82 22.5 196.5t10.5 157.5q33 1 117 9t137 12h39l-53 -377
l-62 -436q-16 -109 -16 -207q0 -34 4 -84q-60 0 -196 -4q-158 -111 -158 -213q0 -44 28 -69t76 -25q34 0 88 20l15 -84q-85 -55 -189 -55q-86 0 -143 44.5t-57 123.5q0 72 65.5 143t185.5 119q0 71 13 201q-87 -96 -190 -153.5t-208 -57.5z" />
    <glyph glyph-name="Wcircumflex" unicode="&#x174;" horiz-adv-x="2158" 
d="M113 1427v11q70 -4 174 -4q69 0 139 4q27 -196 133 -1114l6 -56l19 56q13 42 178 444l131 315l121 285h321l58 -604q10 -90 20 -187t16.5 -169.5t8.5 -88.5q4 -50 4 -51l18 54l74 188l145 375l148 372l69 181q70 -4 132 -4q100 0 170 4v-11q-26 -46 -127 -266
q-140 -310 -195 -436l-195 -442q-108 -255 -120 -285q-94 4 -175 4q-27 0 -141 -4l-117 1051l-428 -1051q-114 4 -149 4q-167 0 -197 -4q-10 87 -43 285q-6 35 -30.5 193.5t-40.5 248.5q-68 392 -76 436q-31 183 -51 266zM1057 1591h-142l238 336h174l143 -336h-139
l-110 193z" />
    <glyph glyph-name="wcircumflex" unicode="&#x175;" horiz-adv-x="1658" 
d="M285 -10l-203 1114h260l16 -113q17 -113 41 -287.5t39 -300.5l17 -143l51 148l278 696h238l102 -694l13 -150l49 152q39 124 105 296t112.5 284t48.5 112h272q-26 -57 -79 -172l-172 -375l-175 -379q-79 -171 -79 -176q-100 0 -250 -10l-82 567q-23 195 -23 227
q-55 -175 -82 -235l-233 -551q-154 0 -264 -10zM776 1255h-141l237 336h175l143 -336h-139l-111 193z" />
    <glyph glyph-name="Ycircumflex" unicode="&#x176;" horiz-adv-x="1302" 
d="M471 -4l68 483l-398 948v11q166 0 314 8l235 -633q23 -57 27 -94q5 12 47 94l340 625q27 -2 84 -2q102 0 229 10v-8l-596 -961l-59 -477q-173 0 -291 -4zM643 1626h-141l237 336h174l144 -336h-139l-111 193z" />
    <glyph glyph-name="ycircumflex" unicode="&#x177;" horiz-adv-x="1118" 
d="M387 4l-291 1100h291q0 -3 23 -137.5t59.5 -330.5t62.5 -317l13 -73l28 73l64 142l117 266q38 83 112 258q52 116 52 119h274l-109 -219q-5 -11 -180 -369l-178 -362q-90 -184 -98 -205q-90 -196 -206 -289.5t-265 -93.5q-108 0 -222 72q63 83 105 184q71 -39 135 -39
q68 0 124 59.5t89 161.5zM526 1255h-141l238 336h174l143 -336h-139l-111 193z" />
    <glyph glyph-name="Ydieresis" unicode="&#x178;" horiz-adv-x="1302" 
d="M471 -4l68 483l-398 948v11q166 0 314 8l235 -633q23 -57 27 -94q5 12 47 94l340 625q27 -2 84 -2q102 0 229 10v-8l-596 -961l-59 -477q-173 0 -291 -4zM944 1622q-47 0 -77.5 29.5t-30.5 74.5q0 57 43 98.5t100 41.5q49 0 80 -31t31 -76q0 -56 -44.5 -96.5
t-101.5 -40.5zM584 1622q-47 0 -78 30t-31 74q0 57 43 98.5t100 41.5q49 0 80 -31t31 -76q0 -56 -44 -96.5t-101 -40.5z" />
    <glyph glyph-name="Zacute" unicode="&#x179;" horiz-adv-x="1226" 
d="M1059 0h-1088q25 102 25 176l858 1036h-159.5t-178.5 -0.5t-161 -1t-123 -0.5h-48q34 101 31 228h1022q-27 -127 -27 -203l-845 -1016q66 0 164.5 1.5t192.5 3.5t177.5 4t137.5 3.5t55 1.5q-35 -116 -35 -204q0 -5 1 -15t1 -14zM958 1905l-186 -314h-129l78 336h237v-22z
" />
    <glyph glyph-name="zacute" unicode="&#x17a;" horiz-adv-x="970" 
d="M-4 0l24 184l138 156l198 227l193 215l115 125q-28 0 -164 1t-164 1q-73 0 -191 -4q26 171 27 199h819l-26 -193l-158 -178l-209 -233q-180 -200 -186 -207l-86 -94q18 0 146.5 1t148.5 1q145 0 241 8q-23 -112 -31 -209h-835zM819 1569l-186 -314h-129l78 336h237v-22z
" />
    <glyph glyph-name="Zdotaccent" unicode="&#x17b;" horiz-adv-x="1226" 
d="M1059 0h-1088q25 102 25 176l858 1036h-159.5t-178.5 -0.5t-161 -1t-123 -0.5h-48q34 101 31 228h1022q-27 -127 -27 -203l-845 -1016q66 0 164.5 1.5t192.5 3.5t177.5 4t137.5 3.5t55 1.5q-35 -116 -35 -204q0 -5 1 -15t1 -14zM748 1616q-51 0 -83 29t-32 73
q0 61 43.5 100.5t105.5 39.5q48 0 80.5 -30t32.5 -77q0 -58 -45 -96.5t-102 -38.5z" />
    <glyph glyph-name="zdotaccent" unicode="&#x17c;" horiz-adv-x="970" 
d="M-4 0l24 184l138 156l198 227l193 215l115 125q-28 0 -164 1t-164 1q-73 0 -191 -4q26 171 27 199h819l-26 -193l-158 -178l-209 -233q-180 -200 -186 -207l-86 -94q18 0 146.5 1t148.5 1q145 0 241 8q-23 -112 -31 -209h-835zM627 1274q-51 0 -83 29t-32 73
q0 61 43.5 100.5t106.5 39.5q48 0 80 -30t32 -77q0 -58 -45 -96.5t-102 -38.5z" />
    <glyph glyph-name="Zcaron" unicode="&#x17d;" horiz-adv-x="1226" 
d="M1059 0h-1088q25 102 25 176l858 1036h-159.5t-178.5 -0.5t-161 -1t-123 -0.5h-48q34 101 31 228h1022q-27 -127 -27 -203l-845 -1016q66 0 164.5 1.5t192.5 3.5t177.5 4t137.5 3.5t55 1.5q-35 -116 -35 -204q0 -5 1 -15t1 -14zM616 1591l-141 336h139l109 -196l166 196
h139l-237 -336h-175z" />
    <glyph glyph-name="zcaron" unicode="&#x17e;" horiz-adv-x="970" 
d="M-4 0l24 184l138 156l198 227l193 215l115 125q-28 0 -164 1t-164 1q-73 0 -191 -4q26 171 27 199h819l-26 -193l-158 -178l-209 -233q-180 -200 -186 -207l-86 -94q18 0 146.5 1t148.5 1q145 0 241 8q-23 -112 -31 -209h-835zM512 1255l-141 336h139l108 -196l166 196
h140l-238 -336h-174z" />
    <glyph glyph-name="longs" unicode="&#x17f;" horiz-adv-x="757" 
d="M324 0q-186 -4 -281 -10l41 248l92 667l-125 27l12 63l9 80l131 17l14 102q14 105 57 181.5t105.5 118.5t131 61.5t146.5 19.5q144 0 224 -62q-59 -133 -72 -180q-48 39 -119 39q-75 0 -135.5 -49.5t-71.5 -138.5l-135 -955q-10 -73 -24 -229z" />
    <glyph glyph-name="Schwa" unicode="&#x18f;" horiz-adv-x="1396" 
d="M547 -12q-232 0 -367 126t-135 345q0 36 10 141q9 92 45 182h942q2 23 2 68q0 186 -96.5 281.5t-261.5 95.5q-227 0 -442 -168q-6 28 -39 100q-27 58 -47 84q120 104 277.5 159.5t305.5 55.5q270 0 430 -150.5t160 -433.5q0 -138 -36.5 -270t-106.5 -243t-164.5 -195
t-217.5 -131t-259 -47zM1004 573h-682q0 -6 -3.5 -32.5t-3.5 -42.5q0 -56 13 -105t42 -94t86 -71.5t136 -26.5q155 0 259 102t153 270z" />
    <glyph glyph-name="florin" unicode="&#x192;" horiz-adv-x="923" 
d="M-84 -434q-13 34 -92 121q29 17 74.5 62.5t99.5 130t76 171.5l221 840l-123 27q26 71 43 157l131 17l29 98q30 105 82 182t118 120t136.5 63t148.5 20q145 0 217 -62q-80 -144 -104 -206q-51 51 -123 51q-157 0 -205 -178l-22 -80h272q-37 -103 -61 -219h-269l-205 -772
q-48 -181 -173.5 -329t-270.5 -214z" />
    <glyph glyph-name="Nhookleft" unicode="&#x19d;" horiz-adv-x="1531" 
d="M477 1001l-127 -882q-41 -290 -190 -435t-396 -145q-195 0 -323 96q4 9 20 38.5t21 39.5t16.5 34t17 38.5t12.5 36t11 41.5l12 4q96 -78 218 -78q118 0 201 83t108 257l139 987q29 232 29 322q64 0 176 4t127 4l512 -1067l65 565q52 419 52 496q66 0 180.5 4t118.5 4
l-43 -285l-119 -841q-3 -23 -13 -102t-16 -136t-6 -84l-328 -8q-19 56 -90 211q-64 144 -141 297q-91 194 -143 295q-74 149 -101 206z" />
    <glyph glyph-name="Gcaron" unicode="&#x1e6;" horiz-adv-x="1308" 
d="M664 -10q-292 0 -442 171t-150 468q0 99 23 196.5t67 189.5t114 170.5t158 137t204.5 92t248.5 33.5q133 0 234 -46.5t159 -121.5q-13 -22 -34.5 -55t-32.5 -51.5t-26.5 -48.5t-29.5 -62l-10 -2q-86 143 -283 143q-121 0 -218.5 -48t-157 -127t-90.5 -174t-31 -196
q0 -93 24 -173.5t70.5 -143t120.5 -98t168 -35.5q92 0 141 22q11 73 28 239.5t17 193.5q48 0 119.5 2t123 4t52.5 2q-25 -113 -43 -260q-36 -281 -37 -318q-222 -104 -487 -104zM784 1591l-141 336h139l109 -196l166 196h139l-238 -336h-174z" />
    <glyph glyph-name="gcaron" unicode="&#x1e7;" horiz-adv-x="1171" 
d="M748 315q9 62 28.5 204t33.5 245t17 117q-67 47 -149 47q-79 0 -144 -44.5t-104.5 -114t-60.5 -148t-21 -152.5q0 -120 53 -196t140 -76q115 0 207 118zM424 -440q-111 0 -225 32t-193 78q30 53 44 89.5t28 97.5q63 -37 143.5 -58.5t155.5 -21.5q302 0 338 274l10 80
q-60 -71 -137 -106t-154 -35q-168 0 -273.5 126.5t-105.5 321.5q0 92 24.5 185.5t75.5 181.5t122.5 156.5t174.5 109.5t222 41q110 0 194 -61l15 51h47q39 0 110.5 3.5t92.5 4.5q-20 -137 -74 -535.5t-68 -488.5q-45 -266 -180.5 -396t-386.5 -130zM516 1255l-141 336h139
l109 -196l165 196h140l-238 -336h-174z" />
    <glyph glyph-name="Oogonek" unicode="&#x1ea;" horiz-adv-x="1443" 
d="M74 584q0 96 19 194.5t56.5 196t100 182.5t143 150.5t192.5 103t242 37.5q250 0 398 -160q149 -155 149 -434q0 -109 -23 -218.5t-73.5 -216.5t-123.5 -193t-181.5 -147.5t-239.5 -80.5q-158 -111 -158 -213q0 -44 28.5 -69t76.5 -25q34 0 88 20l14 -84q-85 -55 -188 -55
q-86 0 -143.5 44.5t-57.5 123.5q0 68 57 135t164 115q-247 3 -395 160q-145 160 -145 434zM365 627q0 -116 29.5 -207.5t96 -150t162.5 -58.5q88 0 162.5 38.5t124.5 100.5t85 141t51 158.5t16 155.5q0 118 -31.5 211t-99.5 151t-164 58q-88 0 -161.5 -38.5t-122.5 -100.5
t-83.5 -141.5t-49.5 -160t-15 -157.5z" />
    <glyph glyph-name="oogonek" unicode="&#x1eb;" horiz-adv-x="1146" 
d="M55 451q0 183 79 334.5t216.5 239t302.5 87.5q189 0 310.5 -119.5t121.5 -343.5q0 -243 -135 -423t-344 -226q-162 -109 -162 -215q0 -44 28.5 -69t76.5 -25q34 0 88 20l14 -84q-85 -55 -188 -55q-86 0 -143.5 44.5t-57.5 123.5q0 66 56 133t161 115q-91 2 -167 32.5
t-134 86.5t-90.5 144.5t-32.5 199.5zM815 668q0 119 -53 185.5t-141 66.5q-65 0 -117.5 -35.5t-84 -88.5t-53 -119.5t-30 -123.5t-8.5 -104q0 -121 51.5 -187.5t140.5 -66.5q79 0 140 53t92.5 132t47 153.5t15.5 134.5z" />
    <glyph glyph-name="Aringacute" unicode="&#x1fa;" horiz-adv-x="1372" 
d="M-74 -10q159 317 372.5 761t326.5 689q102 -4 163 -4q58 0 168 4q93 -539 289 -1440q-47 -1 -155.5 -5t-159.5 -5l-21 129q-2 20 -39 227q-110 4 -270 4q-129 0 -215 -4q-25 -54 -64 -141.5t-64 -146t-26 -58.5q-47 -1 -151 -5t-154 -5zM745 1206l-272 -641h369z
M1135 2150v-18l-215 -248q81 -37 81 -127q0 -79 -59 -134.5t-141 -55.5q-68 0 -109 38t-41 99q0 59 30.5 105.5t82.5 70.5l137 270h234zM815 1661q31 0 53.5 25t22.5 57q0 26 -14.5 43.5t-42.5 17.5q-35 0 -55.5 -26.5t-20.5 -59.5q0 -25 14.5 -41t42.5 -16z" />
    <glyph glyph-name="aringacute" unicode="&#x1fb;" horiz-adv-x="1163" 
d="M1137 1110q-40 -238 -72.5 -458.5t-46.5 -338t-14 -143.5q-2 -80 2 -170q-154 0 -287 -10q1 8 1.5 34.5t2.5 61.5t6 72q-126 -168 -299 -168q-161 0 -268 125t-107 323q0 92 24.5 185.5t75.5 181.5t122.5 156.5t174.5 109.5t222 41q110 0 192 -59l11 51h45q11 0 215 6z
M748 319l81 562q-67 47 -151 47q-79 0 -144 -44.5t-104.5 -114t-60.5 -148t-21 -152.5q0 -120 53 -196t140 -76q117 0 207 122zM1004 1815v-19l-216 -248q38 -17 60 -50.5t22 -76.5q0 -79 -59 -134.5t-141 -55.5q-68 0 -109 38t-41 99q0 59 30.5 105.5t82.5 70.5l137 271
h234zM684 1325q31 0 53.5 25t22.5 57q0 26 -15 43.5t-43 17.5q-35 0 -55 -26t-20 -60q0 -25 14.5 -41t42.5 -16z" />
    <glyph glyph-name="AEacute" unicode="&#x1fc;" horiz-adv-x="1972" 
d="M1081 1198l-413 -590h329zM1978 1309l-20 -117q-75 7 -301 8t-301 -4l-49 -354q440 0 505 4q-20 -115 -20 -117q-6 -34 -12 -117q-50 3 -144.5 3.5t-220 -0.5t-141.5 -1l-51 -366q26 0 128 -1t136 -1q230 0 358 8q-43 -144 -53 -256q-76 0 -218.5 0.5t-230 0.5t-211 -1
t-229.5 -4l58 397h-435q-44 -52 -116.5 -147.5t-121.5 -163.5t-59 -82q-44 0 -95.5 -1t-115.5 -2.5t-100 -2.5q139 171 297 389q237 322 342 471l283 403q117 171 129 183h1040q-25 -99 -31 -129zM1573 1905l-187 -314h-129l78 336h238v-22z" />
    <glyph glyph-name="aeacute" unicode="&#x1fd;" horiz-adv-x="1753" 
d="M451 -10q-127 0 -218 60t-134.5 158t-43.5 222q0 92 23.5 186t74.5 183.5t122 158.5t174.5 111.5t224.5 42.5q174 0 307 -133q150 133 358 133q185 0 291.5 -98.5t106.5 -270.5q0 -34 -13 -114q-12 -75 -30 -121h-656q-6 -30 -6 -66q0 -122 63 -184.5t181 -62.5
q134 0 293 86q5 -12 17.5 -43.5t24 -57.5t19.5 -37q-89 -74 -204 -113.5t-230 -39.5q-124 0 -220.5 41.5t-152.5 122.5q-155 -164 -372 -164zM563 195q102 0 211 71q-26 68 -26 166q0 101 34 217t99 209q-91 70 -191 70q-67 0 -124.5 -29t-97 -76t-67.5 -107t-41.5 -121.5
t-13.5 -119.5q0 -133 58 -206.5t159 -73.5zM1059 664h436q4 36 4 63q0 66 -35 131q-34 64 -137 64q-116 0 -178 -80q-64 -80 -90 -178zM1247 1569l-186 -314h-129l78 336h237v-22z" />
    <glyph glyph-name="Oslashacute" unicode="&#x1fe;" horiz-adv-x="1443" 
d="M987 1907l-186 -314h-129l78 336h237v-22zM1337 1454h211l-252 -264q78 -143 78 -336q0 -97 -19.5 -195.5t-57.5 -196.5t-100.5 -182.5t-143.5 -149.5t-192 -102.5t-240 -37.5q-215 0 -347 119l-104 -109h-213l209 219q-92 150 -92 365q0 96 19 194.5t57 196t100.5 182.5
t143 150.5t192.5 103t241 37.5q226 0 367 -141zM389 455l619 653q-70 117 -211 117q-88 0 -161.5 -38.5t-122.5 -100.5t-83.5 -141.5t-49.5 -160t-15 -157.5q0 -104 24 -172zM655 211q88 0 162.5 38.5t124 100t84.5 141t50.5 159t15.5 155.5q0 74 -17 147l-616 -645
q70 -96 196 -96z" />
    <glyph glyph-name="oslashacute" unicode="&#x1ff;" horiz-adv-x="1146" 
d="M850 1569l-186 -314h-129l77 336h238v-22zM55 451q0 183 79 334.5t216.5 239t302.5 87.5q125 0 217 -51l80 98q105 -9 211 0l-168 -203q92 -119 92 -307q0 -182 -78.5 -334t-215.5 -239.5t-302 -87.5q-142 0 -245 65l-43 -53q-96 3 -209 0l137 166q-74 117 -74 285z
M621 920q-65 0 -117.5 -35.5t-84 -88.5t-53 -119.5t-30 -123.5t-8.5 -104v-41l397 479q-39 33 -104 33zM815 668q0 13 -6 67l-412 -495q48 -45 123 -45q79 0 140 53t92.5 132t47 153.5t15.5 134.5z" />
    <glyph glyph-name="Scommaaccent" unicode="&#x218;" horiz-adv-x="1101" 
d="M1008 467q0 -60 -17 -122t-59.5 -127t-105.5 -114.5t-164.5 -81.5t-227.5 -32q-141 0 -260 43q-125 45 -182 80q54 80 98 225q49 -31 152 -72q110 -43 227 -43q127 0 199.5 56t72.5 149q0 71 -55.5 113.5t-165.5 70.5q-194 48 -296.5 129.5t-102.5 221.5q0 73 21.5 142
t68 131.5t113 109.5t163.5 74.5t213 27.5q118 0 224 -30.5t184 -80.5q-46 -65 -78 -178l-14 -6q-39 28 -126.5 49t-182.5 21q-131 0 -214 -55.5t-83 -143.5q0 -67 58.5 -104t174.5 -68q179 -50 272 -147.5t93 -237.5zM375 -545q-10 27 -53 70l2 12q55 12 98 51.5t49 81.5
q-60 0 -92.5 25t-32.5 69q0 65 47 103.5t107 38.5q56 0 86 -33t30 -96q0 -71 -30.5 -133.5t-73 -101t-79 -60.5t-58.5 -27z" />
    <glyph glyph-name="scommaaccent" unicode="&#x219;" horiz-adv-x="921" 
d="M369 -10q-101 0 -209 30q-104 34 -156 80q49 72 78 164q14 -14 104 -49q91 -31 193 -31q96 0 153.5 44t57.5 114q0 43 -40 70t-130 51q-161 40 -238.5 102.5t-77.5 179.5q0 166 124.5 266.5t334.5 100.5q90 0 175.5 -23t144.5 -65q-51 -84 -74 -150l-23 -12
q-96 60 -223 60q-88 0 -144.5 -41.5t-56.5 -104.5q0 -39 37 -64t121 -50q166 -38 246 -108.5t80 -176.5q0 -31 -6.5 -65t-23 -72.5t-41 -73.5t-63 -67.5t-86.5 -56.5t-114 -38t-143 -14zM168 -545q-10 27 -53 70l2 12q55 12 98 51.5t49 81.5q-60 0 -92.5 25t-32.5 69
q0 65 47 103.5t107 38.5q56 0 86.5 -33t30.5 -96q0 -71 -30.5 -133.5t-73.5 -101t-79.5 -60.5t-58.5 -27z" />
    <glyph glyph-name="uni021A" unicode="&#x21a;" horiz-adv-x="1204" 
d="M389 240l133 948h-422q2 8 11 50t13.5 63.5t10.5 61.5t10 77q54 0 258.5 -1t296.5 -1q145 0 316.5 1t247.5 1q-45 -155 -50 -252h-415l-123 -873q-2 -10 -39 -315q-32 0 -287 -10q24 139 39 250zM387 -539q-10 27 -53 70l2 12q55 12 98 51.5t49 81.5q-60 0 -92.5 25.5
t-32.5 69.5q0 65 47 103t107 38q56 0 86.5 -33t30.5 -96q0 -71 -30.5 -133.5t-73.5 -101t-79.5 -60.5t-58.5 -27z" />
    <glyph glyph-name="uni021B" unicode="&#x21b;" horiz-adv-x="808" 
d="M756 897h-271q-75 -488 -75 -537q0 -153 133 -153q69 0 149 39v-21q0 -63 25 -149q-141 -86 -287 -86q-131 0 -215 77.5t-84 225.5q0 99 78 608l-156 31q4 19 19 133l172 33q9 65 41 229q27 0 59 5t85.5 16.5t86.5 17.5h39l-39 -262h275q-35 -134 -35 -207zM326 -539
q-9 25 -54 70l2 12q55 12 98.5 51.5t49.5 81.5q-60 0 -92.5 25.5t-32.5 69.5q0 65 47 103t107 38q56 0 86 -33t30 -96q0 -71 -30.5 -133.5t-73 -101t-79 -60.5t-58.5 -27z" />
    <glyph glyph-name="Ymacron" unicode="&#x232;" horiz-adv-x="1302" 
d="M471 -4l68 483l-398 948v11q166 0 314 8l235 -633q23 -57 27 -94q5 12 47 94l340 625q27 -2 84 -2q102 0 229 10v-8l-596 -961l-59 -477q-173 0 -291 -4zM1063 1655h-502l12 63q11 69 13 94h501q-3 -13 -16 -94q-6 -58 -8 -63z" />
    <glyph glyph-name="ymacron" unicode="&#x233;" horiz-adv-x="1118" 
d="M387 4l-291 1100h291q0 -3 23 -137.5t59.5 -330.5t62.5 -317l13 -73l28 73l64 142l117 266q38 83 112 258q52 116 52 119h274l-109 -219q-5 -11 -180 -369l-178 -362q-90 -184 -98 -205q-90 -196 -206 -289.5t-265 -93.5q-108 0 -222 72q63 83 105 184q71 -39 135 -39
q68 0 124 59.5t89 161.5zM915 1319h-501l12 63q9 56 12 95h502q-2 -10 -16 -95q-6 -53 -9 -63z" />
    <glyph glyph-name="dotlessj" unicode="&#x237;" horiz-adv-x="514" 
d="M-43 -434q-29 49 -107 121q50 33 118.5 135t86.5 229l92 662q26 181 31 348q51 3 125 12q75 12 131 31h41l-139 -995q-24 -178 -133.5 -327t-245.5 -216z" />
    <glyph glyph-name="schwa" unicode="&#x259;" horiz-adv-x="1110" 
d="M592 1112q207 0 332 -120.5t125 -336.5q0 -94 -24 -187t-73.5 -179.5t-119 -153t-168.5 -106t-213 -39.5q-185 0 -290.5 98t-105.5 270q0 35 13 115q16 76 30 121h656q6 48 6 65q0 122 -64 185t-184 63q-132 0 -287 -86q-49 118 -63 140q86 72 202 111.5t228 39.5z
M733 438h-434q-6 -54 -6 -63q0 -66 35 -131q34 -64 139 -64q115 0 178 78q61 79 88 180z" />
    <glyph glyph-name="nhookleft" unicode="&#x272;" horiz-adv-x="1216" 
d="M-37 -434q-23 45 -106 121q50 32 118 134.5t86 229.5l97 674q19 138 22 225q6 99 6 105q26 0 66.5 8t97 21t92.5 20h41l-30 -209q87 99 192 158t215 59q53 0 101.5 -14t90 -42t66.5 -79.5t25 -118.5q0 -71 -92 -670q-13 -109 -13 -188q-168 0 -288 -10q0 2 8 52.5
t17.5 112t12.5 85.5q68 509 68 512q0 70 -41.5 101.5t-105.5 31.5q-69 0 -144 -42t-133 -100l-90 -634q-24 -178 -133.5 -327t-245.5 -216z" />
    <glyph glyph-name="circumflex" unicode="&#x2c6;" 
d="M387 1255h-141l237 336h174l144 -336h-139l-111 193z" />
    <glyph glyph-name="caron" unicode="&#x2c7;" 
d="M453 1255l-142 336h140l108 -196l166 196h139l-237 -336h-174z" />
    <glyph glyph-name="uni02C9" unicode="&#x2c9;" 
d="M803 1319h-502l12 63q11 68 13 95h501q-2 -10 -16 -95q-6 -58 -8 -63z" />
    <glyph glyph-name="breve" unicode="&#x2d8;" 
d="M303 1534q32 -4 62 -4q21 0 57 4q0 -62 36 -100.5t113 -38.5q78 0 126.5 39t62.5 100q20 -4 55 -4q32 0 64 4q-19 -136 -105.5 -213.5t-222.5 -77.5q-121 0 -186.5 62.5t-65.5 173.5q0 19 4 55z" />
    <glyph glyph-name="dotaccent" unicode="&#x2d9;" 
d="M555 1274q-51 0 -83 29t-32 73q0 61 43.5 100.5t106.5 39.5q48 0 80 -30t32 -77q0 -58 -45 -96.5t-102 -38.5z" />
    <glyph glyph-name="ring" unicode="&#x2da;" 
d="M588 1563q68 0 110.5 -40t42.5 -102q0 -79 -59 -134.5t-141 -55.5q-68 0 -109 38t-41 99q0 83 56 139t141 56zM555 1325q31 0 53.5 25t22.5 57q0 26 -15 43.5t-43 17.5q-35 0 -55 -26t-20 -60q0 -25 14.5 -41t42.5 -16z" />
    <glyph glyph-name="ogonek" unicode="&#x2db;" 
d="M684 29l53 -2q-202 -128 -202 -242q0 -44 28 -69t76 -25q34 0 88 20l14 -84q-85 -55 -188 -55q-86 0 -143.5 44.5t-57.5 123.5q0 85 87 166t245 123z" />
    <glyph glyph-name="tilde" unicode="&#x2dc;" 
d="M209 1331q67 124 127 152q62 33 117 33q45 0 84 -16.5t62.5 -36t54.5 -36t61 -16.5q33 0 64 16.5t69 63.5q48 -40 86 -51q-63 -107 -126 -146t-130 -39q-43 0 -81.5 16.5t-61 36t-54 36t-63.5 16.5q-72 0 -127 -78q-5 4 -16.5 12.5t-16.5 12t-13.5 9t-17 9t-18.5 6.5z
" />
    <glyph glyph-name="hungarumlaut" unicode="&#x2dd;" 
d="M913 1569l-165 -314h-130l58 336h237v-22zM618 1569l-165 -314h-129l77 336h217v-22z" />
    <glyph glyph-name="dotbelowcomb" unicode="&#x323;" horiz-adv-x="0" 
d="M129 -195q0 -56 -44.5 -95.5t-102.5 -39.5q-47 0 -79 29.5t-32 73.5q0 56 43 94.5t104 38.5q48 0 79.5 -28.5t31.5 -72.5z" />
    <glyph glyph-name="Deltagreek" unicode="&#x394;" horiz-adv-x="1511" 
d="M1315 0h-1319l754 1438h217zM807 1083l-428 -864h616z" />
    <glyph glyph-name="Omegagreek" unicode="&#x3a9;" horiz-adv-x="1611" 
d="M676 340l-49 -340h-625q29 116 29 217h403l8 25q-97 49 -163 126t-96.5 165.5t-30.5 185.5q0 56 12.5 119.5t41.5 134.5t70 138t103.5 128t137.5 107t175.5 73t214.5 27q140 0 252 -44.5t182 -120.5t107 -173.5t37 -206.5q0 -81 -23 -168t-72.5 -179.5t-141 -176
t-214.5 -135.5l-4 -25h408q-31 -132 -33 -217h-625l49 340q96 31 169.5 97.5t113 146t59 155t19.5 142.5q0 168 -92 260t-224 92q-85 0 -158.5 -33.5t-122.5 -87.5t-84 -122.5t-51 -136.5t-16 -132q0 -131 61 -237.5t173 -143.5z" />
    <glyph glyph-name="mugreek" unicode="&#x3bc;" horiz-adv-x="1189" 
d="M1137 1104h43l-115 -801q-14 -104 -14 -215q0 -38 4 -88q-153 0 -285 -10q0 95 12 215q-196 -217 -387 -217q-15 0 -47 4l-29 -203q-24 -163 -24 -229q-168 0 -285 -9q-1 1 16.5 115.5t51 342.5t61.5 435l43 306q33 250 33 337q42 0 248 17h43l-100 -707q-3 -15 -3 -32
q0 -70 41 -108t99 -38q111 0 258 139l53 373q9 79 22.5 213.5t14.5 142.5q34 0 246 17z" />
    <glyph glyph-name="pi" unicode="&#x3c0;" horiz-adv-x="1335" 
d="M410 0h-228q0 1 6.5 43t13.5 91.5t9 62.5l96 686h-205l33 221h1200l-35 -221h-210q-46 -302 -58 -403t-12 -163q0 -81 31.5 -128.5t93.5 -79.5q-88 -38 -164 -127q-102 38 -148.5 100t-46.5 170q0 56 80 631h-336l-96 -686q0 -5 -12 -95.5t-12 -101.5z" />
    <glyph glyph-name="Wgrave" unicode="&#x1e80;" horiz-adv-x="2158" 
d="M113 1427v11q70 -4 174 -4q69 0 139 4q27 -196 133 -1114l6 -56l19 56q13 42 178 444l131 315l121 285h321l58 -604q10 -90 20 -187t16.5 -169.5t8.5 -88.5q4 -50 4 -51l18 54l74 188l145 375l148 372l69 181q70 -4 132 -4q100 0 170 4v-11q-26 -46 -127 -266
q-140 -310 -195 -436l-195 -442q-108 -255 -120 -285q-94 4 -175 4q-27 0 -141 -4l-117 1051l-428 -1051q-114 4 -149 4q-167 0 -197 -4q-10 87 -43 285q-6 35 -30.5 193.5t-40.5 248.5q-68 392 -76 436q-31 183 -51 266zM1249 1589h-129l-186 314v22h237z" />
    <glyph glyph-name="wgrave" unicode="&#x1e81;" horiz-adv-x="1658" 
d="M285 -10l-203 1114h260l16 -113q17 -113 41 -287.5t39 -300.5l17 -143l51 148l278 696h238l102 -694l13 -150l49 152q39 124 105 296t112.5 284t48.5 112h272q-26 -57 -79 -172l-172 -375l-175 -379q-79 -171 -79 -176q-100 0 -250 -10l-82 567q-23 195 -23 227
q-55 -175 -82 -235l-233 -551q-154 0 -264 -10zM973 1255h-129l-187 314v22h238z" />
    <glyph glyph-name="Wacute" unicode="&#x1e82;" horiz-adv-x="2158" 
d="M113 1427v11q70 -4 174 -4q69 0 139 4q27 -196 133 -1114l6 -56l19 56q13 42 178 444l131 315l121 285h321l58 -604q10 -90 20 -187t16.5 -169.5t8.5 -88.5q4 -50 4 -51l18 54l74 188l145 375l148 372l69 181q70 -4 132 -4q100 0 170 4v-11q-26 -46 -127 -266
q-140 -310 -195 -436l-195 -442q-108 -255 -120 -285q-94 4 -175 4q-27 0 -141 -4l-117 1051l-428 -1051q-114 4 -149 4q-167 0 -197 -4q-10 87 -43 285q-6 35 -30.5 193.5t-40.5 248.5q-68 392 -76 436q-31 183 -51 266zM1444 1905l-187 -314h-129l78 336h238v-22z" />
    <glyph glyph-name="wacute" unicode="&#x1e83;" horiz-adv-x="1658" 
d="M285 -10l-203 1114h260l16 -113q17 -113 41 -287.5t39 -300.5l17 -143l51 148l278 696h238l102 -694l13 -150l49 152q39 124 105 296t112.5 284t48.5 112h272q-26 -57 -79 -172l-172 -375l-175 -379q-79 -171 -79 -176q-100 0 -250 -10l-82 567q-23 195 -23 227
q-55 -175 -82 -235l-233 -551q-154 0 -264 -10zM1157 1569l-186 -314h-129l78 336h237v-22z" />
    <glyph glyph-name="Wdieresis" unicode="&#x1e84;" horiz-adv-x="2158" 
d="M113 1427v11q70 -4 174 -4q69 0 139 4q27 -196 133 -1114l6 -56l19 56q13 42 178 444l131 315l121 285h321l58 -604q10 -90 20 -187t16.5 -169.5t8.5 -88.5q4 -50 4 -51l18 54l74 188l145 375l148 372l69 181q70 -4 132 -4q100 0 170 4v-11q-26 -46 -127 -266
q-140 -310 -195 -436l-195 -442q-108 -255 -120 -285q-94 4 -175 4q-27 0 -141 -4l-117 1051l-428 -1051q-114 4 -149 4q-167 0 -197 -4q-10 87 -43 285q-6 35 -30.5 193.5t-40.5 248.5q-68 392 -76 436q-31 183 -51 266zM1370 1624q-47 0 -77.5 30t-30.5 75q0 57 43 98
t100 41q49 0 80 -31t31 -76q0 -56 -44.5 -96.5t-101.5 -40.5zM1010 1624q-47 0 -78 30t-31 75q0 57 43 98t100 41q49 0 80 -31t31 -76q0 -56 -44 -96.5t-101 -40.5z" />
    <glyph glyph-name="wdieresis" unicode="&#x1e85;" horiz-adv-x="1658" 
d="M285 -10l-203 1114h260l16 -113q17 -113 41 -287.5t39 -300.5l17 -143l51 148l278 696h238l102 -694l13 -150l49 152q39 124 105 296t112.5 284t48.5 112h272q-26 -57 -79 -172l-172 -375l-175 -379q-79 -171 -79 -176q-100 0 -250 -10l-82 567q-23 195 -23 227
q-55 -175 -82 -235l-233 -551q-154 0 -264 -10zM1083 1270q-47 0 -77.5 29.5t-30.5 74.5q0 57 43 98t100 41q49 0 80 -30.5t31 -75.5q0 -56 -44.5 -96.5t-101.5 -40.5zM723 1270q-47 0 -78 30t-31 74q0 57 43.5 98t100.5 41q49 0 79.5 -30.5t30.5 -75.5q0 -56 -44 -96.5
t-101 -40.5z" />
    <glyph glyph-name="uni1E9E" unicode="&#x1e9e;" horiz-adv-x="1296" 
d="M1202 379q0 -46 -12 -95t-44 -102.5t-80 -95.5t-127.5 -69t-178.5 -27q-97 0 -185 29.5t-149 80.5q48 71 80 164q14 -20 94 -51q82 -31 172 -31q92 0 147 43t60 111q1 49 -34 75.5t-122 61.5q-164 64 -234.5 119t-70.5 123q0 67 40.5 121.5t135.5 124.5q129 99 172 145
t43 111q0 69 -49 110t-131 41q-120 0 -199 -85t-98 -224l-117 -828q-22 -183 -24 -231q-168 0 -291 -10q2 13 43 250l121 862q12 90 52 168t96.5 133t126 94.5t143.5 58.5t147 19q213 0 324.5 -83.5t111.5 -223.5q0 -76 -29 -140.5t-72 -106t-94 -79t-95 -63.5t-74 -55.5
t-31 -57.5q-2 -32 36 -57.5t128 -51.5q268 -70 268 -278z" />
    <glyph glyph-name="Adotbelow" unicode="&#x1ea0;" horiz-adv-x="1372" 
d="M-74 -10q159 317 372.5 761t326.5 689q102 -4 163 -4q58 0 168 4q93 -539 289 -1440q-47 -1 -155.5 -5t-159.5 -5l-21 129q-2 20 -39 227q-110 4 -270 4q-129 0 -215 -4q-25 -54 -64 -141.5t-64 -146t-26 -58.5q-47 -1 -151 -5t-154 -5zM745 1206l-272 -641h369z
M678 -195q0 -56 -45 -95.5t-103 -39.5q-47 0 -78.5 29.5t-31.5 73.5q0 56 43 94.5t104 38.5q48 0 79.5 -28.5t31.5 -72.5z" />
    <glyph glyph-name="adotbelow" unicode="&#x1ea1;" horiz-adv-x="1163" 
d="M1137 1110q-40 -238 -72.5 -458.5t-46.5 -338t-14 -143.5q-2 -80 2 -170q-154 0 -287 -10q1 8 1.5 34.5t2.5 61.5t6 72q-126 -168 -299 -168q-161 0 -268 125t-107 323q0 92 24.5 185.5t75.5 181.5t122.5 156.5t174.5 109.5t222 41q110 0 192 -59l11 51h45q11 0 215 6z
M748 319l81 562q-67 47 -151 47q-79 0 -144 -44.5t-104.5 -114t-60.5 -148t-21 -152.5q0 -120 53 -196t140 -76q117 0 207 122zM614 -195q0 -56 -44.5 -95.5t-102.5 -39.5q-47 0 -79 29.5t-32 73.5q0 56 43.5 94.5t104.5 38.5q47 0 78.5 -28.5t31.5 -72.5z" />
    <glyph glyph-name="Edotbelow" unicode="&#x1eb8;" horiz-adv-x="1122" 
d="M98 248l121 860l33 330h911q-29 -114 -47 -230q-72 6 -368 6q-26 0 -122 -1t-116 -1l-53 -366q29 0 89 -1t89 -1q61 0 183.5 3t144.5 3q-5 -13 -21 -90q-11 -63 -14 -148q-264 6 -269 6q-81 0 -233 -4l-55 -393q66 -2 235 -2q268 0 385 6q-24 -82 -28 -100
q-8 -34 -17 -127q-52 4 -368 4q-344 0 -521 -8q2 11 10.5 60.5t17.5 103t13 90.5zM614 -195q0 -56 -44.5 -95.5t-102.5 -39.5q-47 0 -79 29.5t-32 73.5q0 56 43.5 94.5t104.5 38.5q47 0 78.5 -28.5t31.5 -72.5z" />
    <glyph glyph-name="edotbelow" unicode="&#x1eb9;" horiz-adv-x="1110" 
d="M512 -10q-207 0 -332 120t-125 336q0 94 24 187.5t73.5 179.5t119 152.5t168.5 106.5t213 40q184 0 290 -98.5t106 -270.5q0 -41 -15 -114q-11 -69 -28 -121h-656q-6 -48 -6 -66q0 -122 64 -184.5t184 -62.5q132 0 287 86q49 -118 63 -140q-86 -72 -202 -111.5
t-228 -39.5zM371 664h434q6 54 6 63q0 66 -35 131q-34 64 -139 64q-116 0 -178 -80q-61 -76 -88 -178zM614 -195q0 -56 -44.5 -95.5t-102.5 -39.5q-47 0 -79 29.5t-32 73.5q0 56 43.5 94.5t104.5 38.5q47 0 78.5 -28.5t31.5 -72.5z" />
    <glyph glyph-name="Etilde" unicode="&#x1ebc;" horiz-adv-x="1122" 
d="M98 248l121 860l33 330h911q-29 -114 -47 -230q-72 6 -368 6q-26 0 -122 -1t-116 -1l-53 -366q29 0 89 -1t89 -1q61 0 183.5 3t144.5 3q-5 -13 -21 -90q-11 -63 -14 -148q-264 6 -269 6q-81 0 -233 -4l-55 -393q66 -2 235 -2q268 0 385 6q-24 -82 -28 -100
q-8 -34 -17 -127q-52 4 -368 4q-344 0 -521 -8q2 11 10.5 60.5t17.5 103t13 90.5zM373 1692q66 123 127 151q62 33 116 33q45 0 84 -16t63 -36t55 -36t61 -16q34 0 64.5 16t68.5 63q48 -40 86 -51q-43 -74 -91 -116.5t-85 -55t-80 -12.5q-36 0 -67 10.5t-53.5 26t-43 31
t-45.5 26t-51 10.5q-72 0 -127 -78q-6 4 -20 15.5t-20 15.5t-18 9.5t-24 9.5z" />
    <glyph glyph-name="etilde" unicode="&#x1ebd;" horiz-adv-x="1110" 
d="M512 -10q-207 0 -332 120t-125 336q0 94 24 187.5t73.5 179.5t119 152.5t168.5 106.5t213 40q184 0 290 -98.5t106 -270.5q0 -41 -15 -114q-11 -69 -28 -121h-656q-6 -48 -6 -66q0 -122 64 -184.5t184 -62.5q132 0 287 86q49 -118 63 -140q-86 -72 -202 -111.5
t-228 -39.5zM371 664h434q6 54 6 63q0 66 -35 131q-34 64 -139 64q-116 0 -178 -80q-61 -76 -88 -178zM297 1331q67 124 127 152q62 33 117 33q45 0 84 -16.5t62.5 -36t54.5 -36t61 -16.5q33 0 64 16.5t69 63.5q48 -40 86 -51q-63 -107 -126 -146t-130 -39q-43 0 -81.5 16.5
t-61 36t-54 36t-63.5 16.5q-72 0 -127 -78q-5 4 -16.5 12.5t-16.5 12t-13.5 9t-17 9t-18.5 6.5z" />
    <glyph glyph-name="Idotbelow" unicode="&#x1eca;" horiz-adv-x="602" 
d="M504 1198l-123 -883q-11 -71 -20 -175.5t-9 -139.5q-55 0 -159.5 -3.5t-135.5 -4.5q2 11 10 61t16.5 101.5t12.5 85.5l123 876q29 267 29 322q167 0 297 10q-2 -9 -10.5 -61.5t-17.5 -105t-13 -83.5zM311 -195q0 -56 -44.5 -95.5t-102.5 -39.5q-47 0 -79 29.5t-32 73.5
q0 56 43.5 94.5t104.5 38.5q47 0 78.5 -28.5t31.5 -72.5z" />
    <glyph glyph-name="idotbelow" unicode="&#x1ecb;" horiz-adv-x="516" 
d="M301 -195q0 -56 -44.5 -95.5t-102.5 -39.5q-47 0 -79 29.5t-32 73.5q0 56 43 94.5t104 38.5q48 0 79.5 -28.5t31.5 -72.5zM332 1249q-58 0 -97.5 35.5t-39.5 91.5q0 68 53 115t123 47q58 0 96.5 -34.5t38.5 -90.5q0 -67 -54.5 -115.5t-119.5 -48.5zM86 240l68 485
q25 199 30 334q45 0 121.5 13.5t132.5 31.5h41l-121 -868q-24 -192 -24 -236q-153 0 -289 -10q34 201 41 250z" />
    <glyph glyph-name="Odotbelow" unicode="&#x1ecc;" horiz-adv-x="1443" 
d="M74 584q0 96 19 194.5t56.5 196t100 182.5t143 150.5t192.5 103t242 37.5q250 0 398 -160q149 -155 149 -434q0 -97 -19.5 -195.5t-57.5 -196.5t-100.5 -182.5t-143.5 -149.5t-192 -102.5t-240 -37.5q-249 0 -400 157q-147 159 -147 437zM365 627q0 -116 29.5 -207.5
t96 -150t162.5 -58.5q88 0 162.5 38.5t124.5 100.5t85 141t51 158.5t16 155.5q0 118 -31.5 211t-99.5 151t-164 58q-88 0 -161.5 -38.5t-122.5 -100.5t-83.5 -141.5t-49.5 -160t-15 -157.5zM694 -195q0 -56 -44.5 -95.5t-102.5 -39.5q-47 0 -79 29.5t-32 73.5
q0 56 43.5 94.5t104.5 38.5q47 0 78.5 -28.5t31.5 -72.5z" />
    <glyph glyph-name="odotbelow" unicode="&#x1ecd;" horiz-adv-x="1146" 
d="M55 451q0 183 79 334.5t216.5 239t302.5 87.5q189 0 310.5 -119.5t121.5 -343.5q0 -182 -78.5 -334t-215.5 -239.5t-302 -87.5q-91 0 -169 29.5t-137.5 85.5t-93.5 145.5t-34 202.5zM815 668q0 119 -53 185.5t-141 66.5q-65 0 -117.5 -35.5t-84 -88.5t-53 -119.5
t-30 -123.5t-8.5 -104q0 -121 51.5 -187.5t140.5 -66.5q79 0 140 53t92.5 132t47 153.5t15.5 134.5zM549 -195q0 -56 -45 -95.5t-103 -39.5q-47 0 -78.5 29.5t-31.5 73.5q0 56 43 94.5t104 38.5q48 0 79.5 -28.5t31.5 -72.5z" />
    <glyph glyph-name="Udotbelow" unicode="&#x1ee4;" horiz-adv-x="1394" 
d="M592 -10q-229 0 -354 103t-125 323q0 99 133 1022h37q131 0 239 12q-62 -419 -91 -630.5t-32.5 -250.5t-3.5 -77q0 -134 61.5 -200.5t176.5 -66.5q129 0 215 87t110 263l119 863q133 0 277 12l-123 -881q-42 -293 -208 -436t-431 -143zM696 -195q0 -56 -44.5 -95.5
t-102.5 -39.5q-47 0 -79 29.5t-32 73.5q0 56 43.5 94.5t104.5 38.5q47 0 78.5 -28.5t31.5 -72.5z" />
    <glyph glyph-name="udotbelow" unicode="&#x1ee5;" horiz-adv-x="1196" 
d="M360 -10q-110 0 -192 68t-82 200q0 22 8 81t26.5 181t31.5 217q11 81 20.5 191.5t9.5 154.5q26 1 60 4t89.5 8t102.5 9h41l-53 -369q-49 -350 -49 -373q0 -71 39.5 -107t99.5 -36q67 0 139 43t129 105l51 362q12 82 22.5 196.5t10.5 157.5q33 1 117 9t137 12h39l-53 -377
l-62 -436q-16 -109 -16 -207q0 -34 4 -84q-153 0 -285 -10q0 69 13 211q-87 -96 -190 -153.5t-208 -57.5zM614 -195q0 -56 -44.5 -95.5t-102.5 -39.5q-47 0 -79 29.5t-32 73.5q0 56 43.5 94.5t104.5 38.5q47 0 78.5 -28.5t31.5 -72.5z" />
    <glyph glyph-name="Ygrave" unicode="&#x1ef2;" horiz-adv-x="1302" 
d="M471 -4l68 483l-398 948v11q166 0 314 8l235 -633q23 -57 27 -94q5 12 47 94l340 625q27 -2 84 -2q102 0 229 10v-8l-596 -961l-59 -477q-173 0 -291 -4zM860 1591h-129l-186 314v22h237z" />
    <glyph glyph-name="ygrave" unicode="&#x1ef3;" horiz-adv-x="1118" 
d="M387 4l-291 1100h291q0 -3 23 -137.5t59.5 -330.5t62.5 -317l13 -73l28 73l64 142l117 266q38 83 112 258q52 116 52 119h274l-109 -219q-5 -11 -180 -369l-178 -362q-90 -184 -98 -205q-90 -196 -206 -289.5t-265 -93.5q-108 0 -222 72q63 83 105 184q71 -39 135 -39
q68 0 124 59.5t89 161.5zM745 1255h-129l-186 314v22h238z" />
    <glyph glyph-name="Ytilde" unicode="&#x1ef8;" horiz-adv-x="1302" 
d="M471 -4l68 483l-398 948v11q166 0 314 8l235 -633q23 -57 27 -94q5 12 47 94l340 625q27 -2 84 -2q102 0 229 10v-8l-596 -961l-59 -477q-173 0 -291 -4zM434 1690q66 123 127 151q62 33 117 33q45 0 84 -16.5t62.5 -36t54.5 -36t61 -16.5q33 0 64 16.5t69 63.5
q48 -40 86 -51q-43 -74 -91 -116.5t-85 -55t-80 -12.5q-36 0 -67 10.5t-53.5 26t-43 31t-45.5 26t-51 10.5q-72 0 -127 -78q-6 4 -20 15.5t-20 15.5t-18 9.5t-24 9.5z" />
    <glyph glyph-name="ytilde" unicode="&#x1ef9;" horiz-adv-x="1118" 
d="M387 4l-291 1100h291q0 -3 23 -137.5t59.5 -330.5t62.5 -317l13 -73l28 73l64 142l117 266q38 83 112 258q52 116 52 119h274l-109 -219q-5 -11 -180 -369l-178 -362q-90 -184 -98 -205q-90 -196 -206 -289.5t-265 -93.5q-108 0 -222 72q63 83 105 184q71 -39 135 -39
q68 0 124 59.5t89 161.5zM309 1333q67 124 127 152q62 33 117 33q45 0 84 -16.5t62.5 -36t54.5 -36t61 -16.5q33 0 64 16.5t69 63.5q48 -40 86 -51q-63 -107 -126 -146t-130 -39q-43 0 -81.5 16.5t-61 36t-54 36t-63.5 16.5q-72 0 -127 -78q-5 4 -16.5 12.5t-16.5 12
t-13.5 9t-17 9t-18.5 6.5z" />
    <glyph glyph-name="endash" unicode="&#x2013;" horiz-adv-x="1095" 
d="M973 791l-31 -191h-819l31 191h819z" />
    <glyph glyph-name="emdash" unicode="&#x2014;" horiz-adv-x="1841" 
d="M1718 791l-30 -191h-1565l31 191h1564z" />
    <glyph glyph-name="horizontalbar" unicode="&#x2015;" horiz-adv-x="1990" 
d="M-14 600l26 191h1991l-27 -191h-1990z" />
    <glyph glyph-name="quoteleft" unicode="&#x2018;" horiz-adv-x="417" 
d="M430 1368v-16q-62 -12 -115 -59t-59 -95q70 0 105.5 -35t35.5 -98q0 -62 -52 -111t-128 -49q-67 0 -105 42.5t-38 123.5q0 71 28 136.5t72.5 112.5t93.5 80t97 50q23 -45 65 -82z" />
    <glyph glyph-name="quoteright" unicode="&#x2019;" horiz-adv-x="409" 
d="M100 995v17q63 12 115.5 58.5t58.5 94.5q-70 0 -105.5 35t-35.5 98q0 62 52 111t128 49q67 0 105.5 -43t38.5 -123q0 -71 -28 -136.5t-72.5 -112.5t-93.5 -80t-97 -50q-22 43 -66 82z" />
    <glyph glyph-name="quotesinglbase" unicode="&#x201a;" horiz-adv-x="532" 
d="M51 -190v16q62 12 115 59t59 95q-70 0 -105.5 35t-35.5 98q0 62 52 110.5t128 48.5q67 0 105.5 -43t38.5 -123q0 -71 -28 -136t-72.5 -112t-93.5 -80t-97 -50q-22 43 -66 82z" />
    <glyph glyph-name="quotedblleft" unicode="&#x201c;" horiz-adv-x="817" 
d="M430 1370v-16q-62 -12 -115 -59t-59 -95q70 0 105.5 -35t35.5 -98q0 -62 -52 -111t-128 -49q-67 0 -105 42.5t-38 123.5q0 71 28 136.5t72.5 112.5t93.5 80t97 50q23 -45 65 -82zM829 1370v-16q-62 -12 -115 -59t-59 -95q70 0 106 -35t36 -98q0 -62 -52.5 -111
t-128.5 -49q-67 0 -105 42.5t-38 123.5q0 71 28 136.5t72.5 112.5t93.5 80t97 50q23 -45 65 -82z" />
    <glyph glyph-name="quotedblright" unicode="&#x201d;" horiz-adv-x="802" 
d="M494 995v17q63 12 115.5 58.5t58.5 94.5q-70 0 -106 35t-36 98q0 62 52.5 111t128.5 49q67 0 105 -42.5t38 -123.5q0 -71 -28 -136.5t-72.5 -112.5t-93.5 -80t-97 -50q-23 45 -65 82zM100 995v17q63 12 115.5 58.5t58.5 94.5q-70 0 -105.5 35t-35.5 98q0 62 52 111
t128 49q67 0 105.5 -43t38.5 -123q0 -71 -28 -136.5t-72.5 -112.5t-93.5 -80t-97 -50q-22 43 -66 82z" />
    <glyph glyph-name="quotedblbase" unicode="&#x201e;" horiz-adv-x="917" 
d="M436 -188v16q62 12 115 59t59 95q-70 0 -105.5 35t-35.5 98q0 62 52 110.5t128 48.5q67 0 105.5 -42.5t38.5 -122.5q0 -71 -28 -136.5t-72.5 -112.5t-93.5 -80t-97 -50q-22 43 -66 82zM51 -188v16q62 12 115 59t59 95q-70 0 -105.5 35t-35.5 98q0 62 52 110.5t128 48.5
q67 0 105.5 -42.5t38.5 -122.5q0 -71 -28 -136.5t-72.5 -112.5t-93.5 -80t-97 -50q-22 43 -66 82z" />
    <glyph glyph-name="dagger" unicode="&#x2020;" horiz-adv-x="927" 
d="M635 913l-170 -1202h-229l170 1202h-306l47 191h285l64 455h229l-63 -455h294l-47 -191h-274z" />
    <glyph glyph-name="daggerdbl" unicode="&#x2021;" horiz-adv-x="927" 
d="M567 444l-102 -733h-229l102 733h-322l43 187h306l41 282h-306l47 191h285l64 455h229l-63 -455h294l-47 -191h-274l-41 -282h307l-43 -187h-291z" />
    <glyph glyph-name="bullet" unicode="&#x2022;" horiz-adv-x="802" 
d="M344 375q-133 0 -197 76q-63 75 -63 170q0 61 22.5 120t64 107.5t107.5 78t146 29.5q132 0 197 -77q63 -75 63 -172q0 -80 -39 -155t-119 -126t-182 -51z" />
    <glyph glyph-name="ellipsis" unicode="&#x2026;" horiz-adv-x="1372" 
d="M254 264q55 0 92 -32t37 -82q0 -66 -51.5 -113t-116.5 -47q-56 0 -92.5 33.5t-36.5 87.5q0 66 50 109.5t118 43.5zM694 264q55 0 91 -32t36 -82q0 -66 -51.5 -113t-116.5 -47q-56 0 -92.5 33.5t-36.5 87.5q0 66 51 109.5t119 43.5zM1137 264q55 0 92 -32t37 -82
q0 -66 -51.5 -114t-116.5 -48q-55 0 -92 35t-37 86q0 65 51.5 110t116.5 45z" />
    <glyph glyph-name="perthousand" unicode="&#x2030;" horiz-adv-x="2494" 
d="M985 340q0 92 30.5 184t83.5 166t132 120t168 46q143 0 215 -100q74 -103 74 -244q0 -126 -52 -245.5t-149 -198t-213 -78.5q-142 0 -215 102q-74 103 -74 248zM1294 131q60 0 110.5 60t76.5 145.5t26 169.5q0 91 -33.5 151t-97.5 60q-61 0 -111 -59.5t-75 -142.5
t-25 -165q0 -95 32.5 -157t96.5 -62zM55 932q0 92 30.5 184t83.5 166t132 120t168 46q143 0 215 -100q74 -103 74 -244q0 -126 -52 -245.5t-149 -198t-213 -78.5q-142 0 -215 102q-74 103 -74 248zM365 723q60 0 110.5 60t76.5 145.5t26 169.5q0 91 -34 151t-98 60
q-61 0 -110.5 -59.5t-74.5 -142.5t-25 -165q0 -95 32.5 -157t96.5 -62zM1778 340q0 92 30.5 184t83 166t131.5 120t168 46q143 0 215 -100q74 -103 74 -244q0 -126 -52 -245.5t-149 -198t-213 -78.5q-142 0 -215 102q-73 101 -73 248zM2087 131q60 0 110.5 60t76.5 145.5
t26 169.5q0 91 -33.5 151t-97.5 60q-61 0 -111 -59.5t-75 -142.5t-25 -165q0 -95 32.5 -157t96.5 -62z" />
    <glyph glyph-name="minute" unicode="&#x2032;" horiz-adv-x="399" 
d="M66 913q8 112 10 203t1 141.5t-1 57.5q10 58 64.5 96.5t119.5 38.5q54 0 84.5 -31t24.5 -82q-6 -39 -62 -129q-40 -68 -153 -295q-42 3 -88 0z" />
    <glyph glyph-name="second" unicode="&#x2033;" horiz-adv-x="749" 
d="M66 913q8 112 10 203t1 141.5t-1 57.5q10 58 64.5 96.5t119.5 38.5q54 0 84.5 -31t24.5 -82q-6 -39 -62 -129q-40 -68 -153 -295q-42 3 -88 0zM416 913q8 112 10 203t1 141.5t-1 57.5q10 58 64.5 96.5t119.5 38.5q54 0 84.5 -31t24.5 -82q-6 -39 -62 -129
q-40 -68 -153 -295q-42 3 -88 0z" />
    <glyph glyph-name="guilsinglleft" unicode="&#x2039;" horiz-adv-x="612" 
d="M508 184h-217l-242 402v22l359 404h215l-326 -406v-18z" />
    <glyph glyph-name="guilsinglright" unicode="&#x203a;" horiz-adv-x="612" 
d="M205 184h-217l323 404v18l-211 406h217l242 -404v-22z" />
    <glyph glyph-name="fraction" unicode="&#x2044;" horiz-adv-x="196" 
d="M791 1456l-1176 -1462h-188l1175 1462h189z" />
    <glyph glyph-name="uni2070" unicode="&#x2070;" horiz-adv-x="772" 
d="M55 932q0 92 30.5 184t83.5 166t132 120t168 46q143 0 215 -100q74 -103 74 -244q0 -126 -52 -245.5t-149 -198t-213 -78.5q-142 0 -215 102q-74 103 -74 248zM365 723q60 0 110.5 60t76.5 145.5t26 169.5q0 91 -34 151t-98 60q-61 0 -110.5 -59.5t-74.5 -142.5t-25 -165
q0 -95 32.5 -157t96.5 -62z" />
    <glyph glyph-name="uni2074" unicode="&#x2074;" horiz-adv-x="743" 
d="M549 608q-121 0 -187 -6q3 21 17.5 107.5t17.5 111.5h-364l12 86q14 15 76 88l137 160q73 85 143 170l97 113h161l-69 -490h123q-10 -36 -21 -127h-121q-20 -159 -22 -213zM229 948h189l39 271q-17 -26 -108 -134t-120 -137z" />
    <glyph glyph-name="uni2075" unicode="&#x2075;" horiz-adv-x="638" 
d="M598 901q0 -125 -92.5 -222t-241.5 -97q-72 0 -141.5 22t-112.5 55q34 47 51 132q86 -68 185 -68q71 0 114 48t43 114q0 51 -36.5 78.5t-104.5 27.5q-65 0 -151 -28l-17 14q39 187 88 461h469q-17 -73 -20 -144q-6 0 -153.5 1t-166.5 1q-2 -10 -10.5 -53.5t-16 -83
t-10.5 -49.5q36 8 88 8q113 0 174.5 -62t61.5 -155z" />
    <glyph glyph-name="uni2076" unicode="&#x2076;" horiz-adv-x="716" 
d="M47 877q0 97 39 199t103 184t156 135t190 53q99 0 155 -29q-46 -112 -51 -145l-8 -4q-56 26 -121 26q-85 0 -155 -71t-103 -185q96 80 213 80q98 0 155.5 -55.5t57.5 -149.5q0 -129 -103.5 -231t-248.5 -102q-126 0 -202.5 76t-76.5 219zM387 985q-74 0 -154 -72
q-2 -8 -2 -26q0 -164 117 -164q58 0 102 47t44 115q0 47 -28 73.5t-79 26.5z" />
    <glyph glyph-name="uni2077" unicode="&#x2077;" horiz-adv-x="655" 
d="M324 741l-84 -139h-207q32 42 82 121q98 150 202 328t132 243q-46 0 -129 -0.5t-149 -1t-71 -0.5q2 7 21 146q6 0 109.5 -1t177.5 -1t177 1t109 1q-4 -10 -6 -23.5t-4 -37.5t-4 -40l-80 -133l-137 -229z" />
    <glyph glyph-name="uni2078" unicode="&#x2078;" horiz-adv-x="716" 
d="M707 1245q0 -84 -64 -145t-127 -90q31 -15 52.5 -29t47 -35.5t39 -49t13.5 -60.5q0 -110 -110.5 -182t-248.5 -72q-125 0 -203.5 51.5t-78.5 142.5q0 83 63 143t148 89q-60 26 -97 73t-37 107q0 105 95 182q96 78 239 78q121 0 195 -57t74 -146zM297 1204q0 -62 90 -110
q129 59 129 133q0 34 -25.5 58t-70.5 24q-53 0 -88 -32.5t-35 -72.5zM461 827q0 62 -92 111q-131 -60 -131 -135q0 -36 26 -58.5t74 -23.5q55 0 89 31.5t34 74.5z" />
    <glyph glyph-name="uni2079" unicode="&#x2079;" horiz-adv-x="716" 
d="M371 1044q70 0 153 72v27q0 164 -114 164q-58 0 -103 -47t-45 -115q0 -47 29 -74t80 -27zM709 1153q0 -97 -39 -199t-103 -184t-156 -135t-190 -53q-101 0 -155 28q43 93 51 146l8 4q59 -27 121 -27q85 0 155 71t103 185q-93 -80 -213 -80q-97 0 -155 55.5t-58 149.5
q0 129 104 231.5t248 102.5q126 0 202.5 -76t76.5 -219z" />
    <glyph glyph-name="uni2080" unicode="&#x2080;" horiz-adv-x="772" 
d="M55 23q0 92 30.5 184t83.5 166t132 120t168 46q142 0 215 -101q74 -103 74 -243q0 -126 -52 -245.5t-149 -198.5t-213 -79q-141 0 -215 103t-74 248zM365 -186q60 0 110.5 60t76.5 145t26 169q0 91 -34 151t-98 60q-61 0 -110.5 -59.5t-74.5 -142t-25 -164.5
q0 -95 32.5 -157t96.5 -62z" />
    <glyph glyph-name="uni2081" unicode="&#x2081;" horiz-adv-x="550" 
d="M473 -303h-461l17 123l151 6l76 526l-160 -20q10 40 10 104q48 7 123 33q77 22 158 59h76l-101 -702l127 -4z" />
    <glyph glyph-name="uni2082" unicode="&#x2082;" horiz-adv-x="702" 
d="M623 -301h-592l14 106q53 35 102 71t112.5 90t109 104t77 107.5t31.5 105.5q0 54 -35.5 81t-89.5 27q-50 0 -100.5 -25t-85.5 -69h-8q-2 12 -7 25.5t-12.5 25.5t-14 21t-14 18.5t-8.5 11.5q59 65 149.5 102.5t180.5 37.5q105 0 174.5 -57t69.5 -163q0 -222 -357 -487
q2 0 138.5 2t185.5 2q-17 -68 -20 -137z" />
    <glyph glyph-name="uni2083" unicode="&#x2083;" horiz-adv-x="661" 
d="M104 412q51 55 135 91t183 36q103 0 162 -48t59 -124q0 -70 -42.5 -133.5t-121.5 -100.5q67 -13 103 -56.5t36 -109.5q0 -115 -101 -205t-230 -90q-81 0 -156 23t-117 55q36 55 52 135q75 -71 202 -71q69 0 113.5 44t44.5 95q0 49 -42.5 74.5t-107.5 25.5h-34q1 9 2.5 26
t2.5 30.5t1 23.5q0 5 -1 14t-1 11q71 0 133 45q63 45 63 108q0 41 -27.5 62.5t-72.5 21.5q-44 0 -92.5 -24t-79.5 -64h-10q-5 34 -56 105z" />
    <glyph glyph-name="uni2084" unicode="&#x2084;" horiz-adv-x="743" 
d="M549 -301q-121 0 -187 -6q3 21 17.5 107.5t17.5 111.5h-364l12 86q14 14 76 88l137 160q73 85 143 170l97 112h161l-69 -489h123q-10 -36 -21 -127h-121q-20 -159 -22 -213zM229 39h189l39 270q-17 -26 -107.5 -133t-120.5 -137z" />
    <glyph glyph-name="uni2085" unicode="&#x2085;" horiz-adv-x="638" 
d="M598 -8q0 -125 -92.5 -222.5t-241.5 -97.5q-71 0 -141 22.5t-113 55.5q34 48 51 131q84 -67 185 -67q71 0 114 47.5t43 113.5q0 51 -37 79t-104 28q-62 0 -151 -29l-17 15q40 193 88 460h469q-17 -73 -20 -143q-6 0 -153.5 1t-166.5 1q-2 -10 -10.5 -53.5t-16 -83
t-10.5 -49.5q36 8 88 8q113 0 174.5 -62t61.5 -155z" />
    <glyph glyph-name="uni2086" unicode="&#x2086;" horiz-adv-x="716" 
d="M47 -33q0 97 39 199t103 184.5t156 135.5t190 53q99 0 155 -29q-46 -112 -51 -145l-8 -5q-58 27 -121 27q-85 0 -155 -71t-103 -185q96 80 213 80q98 0 155.5 -55.5t57.5 -149.5q0 -129 -104 -231.5t-248 -102.5q-126 0 -202.5 76t-76.5 219zM387 76q-74 0 -154 -72
q-2 -8 -2 -27q0 -163 117 -163q58 0 102 46.5t44 114.5q0 47 -28 74t-79 27z" />
    <glyph glyph-name="uni2087" unicode="&#x2087;" horiz-adv-x="655" 
d="M324 -166l-84 -141h-207q32 42 82 121q98 150 202 328t132 243q-46 0 -129 -0.5t-149 -1t-71 -0.5q2 8 21 145q6 0 109.5 -1t177.5 -1t177 1t109 1q-4 -10 -6 -23.5t-4 -37t-4 -39.5l-80 -133l-137 -229z" />
    <glyph glyph-name="uni2088" unicode="&#x2088;" horiz-adv-x="716" 
d="M707 336q0 -85 -64 -146t-127 -90q31 -15 52.5 -29t47 -35.5t39 -49t13.5 -60.5q0 -110 -110.5 -182t-248.5 -72q-125 0 -203.5 52t-78.5 143q0 83 63 142.5t148 88.5q-60 26 -97 73.5t-37 107.5q0 105 95 182q96 78 239 78q121 0 195 -57t74 -146zM297 295
q0 -63 90 -111q129 59 129 133q0 34 -25.5 58t-70.5 24q-53 0 -88 -32t-35 -72zM461 -82q0 62 -92 111q-131 -60 -131 -135q0 -36 26 -58.5t74 -23.5q55 0 89 31.5t34 74.5z" />
    <glyph glyph-name="uni2089" unicode="&#x2089;" horiz-adv-x="716" 
d="M371 135q70 0 153 72v26q0 164 -114 164q-58 0 -103 -47t-45 -114q0 -47 29 -74t80 -27zM709 244q0 -97 -39 -199t-103 -184.5t-156 -135.5t-190 -53q-99 0 -155 29q43 93 51 145l8 4q56 -26 121 -26q85 0 155 71t103 185q-93 -80 -213 -80q-97 0 -155 55.5t-58 149.5
q0 129 104 231.5t248 102.5q126 0 202.5 -76t76.5 -219z" />
    <glyph glyph-name="Euro" unicode="&#x20ac;" horiz-adv-x="1271" 
d="M41 524l27 135h155v7q0 46 13 90h-162l24 135h172q83 257 262 405q182 150 422 150q124 0 216 -40.5t145 -111.5l-121 -207q-100 117 -258 117q-123 0 -224.5 -83t-156.5 -230h489l-59 -135h-471l-12 -97h461l-62 -135h-393q14 -141 96 -220t215 -79q148 0 303 90v-22
q0 -36 4 -68.5t8.5 -52.5t16.5 -63q-77 -56 -185 -88.5t-214 -32.5q-249 0 -391 138t-148 398h-172z" />
    <glyph glyph-name="uni2113" unicode="&#x2113;" horiz-adv-x="784" 
d="M41 502l8 51q66 12 101 22l104 740q14 114 91 175.5t216 61.5q182 0 182 -211q0 -17 -3.5 -53t-4.5 -49q-48 -358 -297 -559l-63 -459q-4 -32 -4 -45q0 -54 22.5 -83.5t65.5 -29.5q68 0 139 84.5t94 235.5l33 -21v-10q0 -107 -53 -191t-136.5 -127.5t-179.5 -43.5
q-122 0 -190 51t-68 154q0 13 4 49l39 280q-31 -10 -100 -22zM524 1294l-75 -544q182 177 225 475q8 57 8 114q0 136 -59 136q-39 0 -62.5 -41.5t-36.5 -139.5z" />
    <glyph glyph-name="uni2116" unicode="&#x2116;" horiz-adv-x="2199" 
d="M1759 301q-135 0 -205.5 81t-70.5 210q0 79 25.5 157t71.5 143t120.5 105.5t163.5 40.5q135 0 204.5 -80t69.5 -210q0 -85 -25.5 -164.5t-72 -143t-120 -101.5t-161.5 -38zM53 -10l45 262l119 852q10 61 21 198l12 136q27 0 299 8l512 -1061l65 563q5 55 28 255t26 237
q66 0 177 3t118 3l-21 -123l-20 -143l-115 -813q-27 -183 -41 -367l-324 -8q-44 108 -124 278t-196 406t-157 321l-74 -524q-8 -53 -30.5 -251.5t-22.5 -221.5q-51 0 -109 -2t-114 -4.5t-74 -3.5zM1782 463q75 0 121.5 83.5t46.5 172.5q0 69 -27 116.5t-80 47.5
q-55 0 -96 -45.5t-58.5 -103t-17.5 -111.5q0 -68 28.5 -114t82.5 -46zM1450 0l27 190h528l-27 -190h-528z" />
    <glyph glyph-name="copyrightsound" unicode="&#x2117;" horiz-adv-x="1630" 
d="M1569 801q0 -78 -16.5 -160t-51.5 -165t-86 -159.5t-123.5 -143.5t-159.5 -116t-199.5 -77.5t-238.5 -28.5q-144 0 -264 50t-200.5 137t-124.5 204.5t-44 253.5q0 111 33.5 227t104.5 228t170.5 199t244 140.5t312.5 53.5q145 0 266.5 -50.5t203.5 -137.5t127.5 -204.5
t45.5 -250.5zM215 604q0 -226 143 -370t379 -144q135 0 250 45.5t191.5 118.5t130.5 165.5t78 185t24 179.5q0 227 -141.5 373t-380.5 146q-135 0 -250 -46t-191.5 -119t-130.5 -166.5t-78 -187t-24 -180.5zM518 268l25 154l69 500q19 121 19 186h274q127 0 193.5 -57.5
t66.5 -157.5q0 -136 -90.5 -231t-245.5 -95h-106l-16 -118q-17 -127 -17 -175q-69 0 -108 -2q-62 -3 -64 -4zM786 987l-43 -293l95 -2h4q79 0 123.5 52.5t44.5 121.5q0 52 -34.5 85t-96.5 34z" />
    <glyph glyph-name="trademark" unicode="&#x2122;" horiz-adv-x="1306" 
d="M1106 1257l-193 -380h-98l-80 378l-73 -387q-56 0 -134 -4q2 11 35 164.5t54 256.5t28 153h166l86 -389l190 389h156q-11 -102 -41 -570q-47 0 -133 -4zM371 1317q-50 -327 -60 -449q-81 0 -135 -4l64 453q-49 0 -88 -2h-74q1 15 9.5 61.5t10.5 61.5h457
q-19 -83 -23 -125q-12 2 -73 2q-37 2 -88 2z" />
    <glyph glyph-name="Omega" unicode="&#x2126;" horiz-adv-x="1611" 
d="M676 340l-49 -340h-625q29 116 29 217h403l8 25q-97 49 -163 126t-96.5 165.5t-30.5 185.5q0 56 12.5 119.5t41.5 134.5t70 138t103.5 128t137.5 107t175.5 73t214.5 27q140 0 252 -44.5t182 -120.5t107 -173.5t37 -206.5q0 -81 -23 -168t-72.5 -179.5t-141 -176
t-214.5 -135.5l-4 -25h408q-31 -132 -33 -217h-625l49 340q96 31 169.5 97.5t113 146t59 155t19.5 142.5q0 168 -92 260t-224 92q-85 0 -158.5 -33.5t-122.5 -87.5t-84 -122.5t-51 -136.5t-16 -132q0 -131 61 -237.5t173 -143.5z" />
    <glyph glyph-name="estimated" unicode="&#x212e;" horiz-adv-x="1267" 
d="M1028 285l72 -41q-97 -152 -205 -215.5t-262 -63.5q-232 0 -381.5 161.5t-149.5 403.5q0 253 150.5 409.5t380.5 156.5q112 2 211 -40.5t170 -117t111 -181t38 -227.5h-827v-356q50 -54 132.5 -88.5t164.5 -34.5q131 0 222.5 53.5t172.5 180.5zM336 895v-279h596v277
q-50 54 -131.5 86.5t-169.5 32.5q-169 0 -295 -117z" />
    <glyph glyph-name="partialdiff" unicode="&#x2202;" horiz-adv-x="1173" 
d="M397 -10q-189 0 -297 98t-108 260q0 68 20 142t64.5 148.5t106.5 133.5t155 96t201 37q104 0 190.5 -44.5t134.5 -119.5q23 71 23 142q0 50 -9.5 97t-32 93t-56 80t-86 55t-117.5 21q-67 0 -114.5 -10t-115.5 -37l-14 8q17 63 12 213q104 45 281 45q162 0 279.5 -72.5
t176 -197t58.5 -285.5q0 -139 -46 -297t-134 -287q-100 -146 -243.5 -232.5t-328.5 -86.5zM262 389q0 -81 53 -126.5t142 -45.5q117 0 208 85t152 247q-42 79 -105 119.5t-137 40.5q-80 0 -143 -32t-98.5 -82.5t-53.5 -103.5t-18 -102z" />
    <glyph glyph-name="increment" unicode="&#x2206;" horiz-adv-x="1511" 
d="M1315 0h-1319l754 1438h217zM807 1083l-428 -864h616z" />
    <glyph glyph-name="product" unicode="&#x220f;" horiz-adv-x="1411" 
d="M186 -8q5 14 25 121.5t27 167.5l124 919h-221q6 32 25 117t24 121h1250q-40 -162 -51 -238h-195l-129 -919q-8 -53 -19.5 -157t-11.5 -124q-42 0 -104 -2t-109 -4t-51 -2q0 6 10 59t22.5 122.5t16.5 107.5l125 919h-334l-127 -919q-30 -216 -30 -281q-43 0 -106 -2
t-110 -4t-51 -2z" />
    <glyph glyph-name="summation" unicode="&#x2211;" horiz-adv-x="1413" 
d="M100 188l480 521l-320 530l27 199h1013q-26 -124 -28 -215h-721l309 -514l-463 -500h740q-23 -111 -27 -209h-1036z" />
    <glyph glyph-name="minus" unicode="&#x2212;" horiz-adv-x="1255" 
d="M1110 791l-27 -191h-936l27 191h936z" />
    <glyph glyph-name="uni2215" unicode="&#x2215;" horiz-adv-x="987" 
d="M-47 -100l897 1616h248l-897 -1616h-248z" />
    <glyph glyph-name="uni2219" unicode="&#x2219;" horiz-adv-x="802" 
d="M344 375q-133 0 -197 76q-63 75 -63 170q0 61 22.5 120t64 107.5t107.5 78t146 29.5q132 0 197 -77q63 -75 63 -172q0 -80 -39 -155t-119 -126t-182 -51z" />
    <glyph glyph-name="radical" unicode="&#x221a;" horiz-adv-x="1320" 
d="M565 -127h-149l-178 737l-144 -92l-45 148l328 229l158 -700l659 1366h192z" />
    <glyph glyph-name="infinity" unicode="&#x221e;" horiz-adv-x="1701" 
d="M446 311q-147 0 -236 93.5t-89 242.5q0 52 14.5 114.5t48.5 130.5t82 122.5t124 90.5t167 36q116 0 197 -76.5t114 -212.5q73 136 175.5 212.5t218.5 76.5q155 0 236 -97.5t81 -246.5q0 -60 -16 -125t-51 -130t-84 -116.5t-121.5 -84t-157.5 -32.5q-116 0 -197.5 76.5
t-120.5 214.5q-70 -137 -169.5 -213t-215.5 -76zM1165 502q93 0 154 82t61 182q0 76 -42 125t-113 49q-79 0 -142 -58t-127 -165q36 -103 83 -159t126 -56zM475 502q79 0 141 56t127 159q-17 52 -33.5 87.5t-40.5 69t-57 50t-75 16.5q-94 0 -154.5 -79.5t-60.5 -180.5
q0 -79 42 -128.5t111 -49.5z" />
    <glyph glyph-name="integral" unicode="&#x222b;" horiz-adv-x="1079" 
d="M795 1176l-58 -211q-5 -18 -94 -355q-84 -318 -94 -354l-55 -213q-28 -106 -80.5 -183t-120 -120t-138.5 -62.5t-149 -19.5q-149 0 -217 61q74 128 107 205q51 -51 120 -51q73 0 127.5 44t79.5 136l301 1133q23 85 62 151.5t86.5 110t105 71.5t114.5 40t118 12
q145 0 217 -62q-83 -149 -105 -206q-51 51 -123 51q-158 0 -204 -178z" />
    <glyph glyph-name="approxequal" unicode="&#x2248;" horiz-adv-x="1189" 
d="M334 639q-51 33 -80 45q58 116 125 147q62 33 117 33q54 0 103.5 -25t94 -50t84.5 -25q32 0 61 15t64 61q45 -37 84 -49q-71 -120 -135 -150q-67 -31 -117 -31q-43 0 -84 16t-68 34.5t-63 34.5t-69 16q-63 0 -117 -72zM285 285q-47 31 -82 45q61 116 127 147
q62 33 116 33q53 0 102.5 -25t94.5 -50t86 -25q32 0 60 14.5t63 60.5q50 -38 84 -49q-70 -119 -135 -149q-67 -31 -115 -31q-54 0 -104 25t-95 50t-86 25q-65 0 -116 -71z" />
    <glyph glyph-name="notequal" unicode="&#x2260;" horiz-adv-x="1257" 
d="M498 383l-176 -231h-216l177 231h-164l26 192h283l193 250h-441l27 193h557l182 235h213l-180 -235h164l-27 -193h-282l-193 -250h440l-26 -192h-557z" />
    <glyph glyph-name="lessequal" unicode="&#x2264;" horiz-adv-x="1257" 
d="M1022 524l-31 -207l-760 416l19 129l878 416l-30 -207l-600 -272zM975 197l-27 -187h-821l29 187h819z" />
    <glyph glyph-name="greaterequal" unicode="&#x2265;" horiz-adv-x="1257" 
d="M1069 862l-18 -131l-879 -414l31 205l598 275l-522 272l30 207zM975 190l-27 -192h-821l29 192h819z" />
    <glyph glyph-name="lozenge" unicode="&#x25ca;" horiz-adv-x="1138" 
d="M565 1438h211l232 -709l-435 -729h-213l-225 729zM791 729l-148 518l-293 -520l146 -537z" />
    <glyph glyph-name="checkmark" unicode="&#x2713;" horiz-adv-x="1273" 
d="M594 -2h-150l-350 772l174 92l256 -573l463 1270h193z" />
    <glyph glyph-name="commaaccent" unicode="&#xf6c3;" horiz-adv-x="571" 
d="M195 -545q-9 25 -54 70l2 12q55 12 98.5 51.5t49.5 81.5q-60 0 -92.5 25t-32.5 69q0 65 46.5 103.5t106.5 38.5q56 0 86.5 -33t30.5 -96q0 -71 -30.5 -133.5t-73 -101t-79 -60.5t-58.5 -27z" />
    <glyph glyph-name="uniF8FF" unicode="&#xf8ff;" horiz-adv-x="1628" 
d="M559 1110l86 -18l6 71q4 5 13.5 15.5t14.5 17t9.5 17t5.5 22.5q-8 8 -41 8q-5 0 -14 -1t-12 -1q-6 -2 -13 -2l-61 -8l-6 -10l39 -56q-27 -44 -27 -55zM766 1217v20q-48 -4 -55 -8q4 -4 4 -17q0 -14 -16 -33t-19 -34q1 -3 3.5 -14.5t3.5 -16t4.5 -13.5t8 -16t11.5 -14
q3 -1 12 -3.5t14 -2.5q3 0 9.5 2t9.5 2q0 1 -5.5 8t-5.5 15q0 9 15 49q-25 0 -25 10q0 12 12 15q1 0 1.5 0.5t1.5 0.5q16 13 16 50zM1169 1141l19 12q0 9 -10.5 20t-16.5 13q-2 2 -10 21.5t-8 23.5h-13q-47 -4 -61 -10q-8 -13 -8 -27v-14q0 -19 -2 -21q23 -23 35 -59
q16 -3 47 -16t39 -13q6 0 6 2q2 2 2 10l-6 23l2 14q-2 0 -8.5 8.5t-6.5 12.5zM422 1151q18 0 18 16q0 17 -18 17q-16 0 -16 -17q0 -16 16 -16zM467 1229h-51q0 -35 4 -35q26 0 26 -27q0 -26 -26 -26q-27 0 -27 33l-8 -5q2 -13 4.5 -38.5t5 -39.5t6.5 -18q31 -14 35 -14t8 4
q3 3 7 29q0 14 2 22h-11q-8 0 -8 6q0 8 11.5 16t11.5 15q1 10 5 37t5 41zM946 1092q21 0 66 -5l28 -4q17 17 17 25l-37 80q2 5 9 14t7 17t-2 10q-15 4 -59 4h-39q-37 0 -53 2q4 -28 16 -47q-7 -17 -12.5 -53.5t-12.5 -53.5q32 11 72 11zM813 821l6 107l-84 -17q2 2 2 7
q0 4 -1 6q-1 1 -1 2q3 3 11.5 7t17 11t12.5 17l6 14l-41 -17q-44 -19 -71 -40q0 -7 2 -9q1 -3 3.5 -10t2.5 -10q0 -10 -9 -16t-23 -10t-19 -7q4 -4 11.5 -19t16.5 -24.5t23 -9.5q25 18 51 18h84zM471 776q5 0 29 -18l-37 12q6 6 8 6zM1309 721q17 0 26 31t29 34
q-3 11 -21.5 26t-21.5 28v10q0 7 4 27l-22 2q-6 -4 -8.5 -12.5t-2.5 -19.5v-13q-38 30 -92 30q-31 0 -45 -6v-18q2 -2 10 -2l27 2q15 0 18 -9l-2 -8q-7 4 -34 4q-36 0 -64 -28l2 -13l6 2q34 15 56 15q8 0 14 -6h-8q-12 0 -22.5 -9t-16 -17.5t-15.5 -25.5q2 -1 6 -3.5t7 -2.5
q10 14 19.5 20.5t24 10.5t19.5 6q8 0 8 -14q-9 -5 -13.5 -9t-8.5 -13.5t-4 -24.5q3 -8 14 -8q1 0 2 0.5t3.5 1.5t4.5 2q0 11 5.5 18.5t11 9.5t18.5 6t17 5q8 0 15.5 -6.5t12.5 -8.5q14 -14 21 -14zM535 756l-27 22q-8 6 -25.5 21t-26 21t-23.5 13.5t-32 10.5
q-16 -6 -52.5 -28.5t-57.5 -29.5l20 -32q14 1 66 22q3 -12 11 -34.5t11 -39.5l-18 -36l45 30l-6 37q6 6 8 6l14 -16q1 -2 2.5 -6t3 -6.5t1.5 -3.5q0 -21 -15 -41q4 -4 10 -4q5 0 11 6l20 37q-3 3 -10 40q3 -1 8.5 -3.5t9 -4t8 -4t8 -5.5t5.5 -7q-4 -8 -12 -19.5t-9 -13.5
l15 -10l32 53q-6 6 -6 8q0 6 11 17zM254 41v12q-64 -9 -117 -39q-57 -29 -121 -32q3 13 30 28t69.5 33.5t62.5 30.5q3 29 10 55q11 37 25.5 75t36 90.5t31.5 76.5q-30 4 -61 10t-73.5 15.5t-62.5 13.5q5 28 11.5 73t13 81.5t14.5 70.5q0 11 4 31t4 32v9q-6 6 -23.5 7
t-23.5 3q0 35 19 93.5t22 82.5q11 31 27 88t28 88q11 3 57 14t76.5 16.5t63.5 8.5q0 30 -21 68q33 33 33 45q0 4 -4 8q-38 14 -72 14v8h76v146q180 5 203 8q-5 -21 -29 -76l-16 -80q19 3 41.5 4t51 1t44.5 1l2 19q8 41 33 80l4 10q19 -3 64.5 -4.5t74.5 -9.5q10 -38 10 -64
q0 -23 -2 -29l97 -14l67 8v17q0 8 -4 90q-3 72 -10 100q6 -2 45 -2q68 0 80 4l35 4q54 6 55 6q-1 -12 -12 -82.5t-11 -113.5v-17q12 -4 48 -6t49 -6q-7 -2 -39 -4t-45 -10l41 -72q-9 -22 -21 -86q148 31 160 33q2 -2 2 -10t-5 -29.5t-5 -34.5q39 -65 49 -86l27 -53l57 -270
q3 -3 6 -45t6.5 -109.5t5.5 -95.5l2 -19h-98q10 -18 29.5 -54t35.5 -64.5t31 -51.5l37 -53l-31 -22l58 -43q-12 -3 -23 -3q-17 0 -46 10.5t-42 12.5q-1 -8 -3 -12t-5.5 -5t-8.5 -1h-11q-8 3 -12.5 8t-8.5 17t-4 13q-8 8 -10 23q-12 22 -38 66.5t-45 80.5t-34 72q-18 6 -23 6
l-38 -2q-21 -61 -56 -127q-3 -15 -4 -31t-1 -35.5t-1 -29.5q0 -33 -12 -61l-49 -13v11q0 4 -4 8q-7 -3 -31.5 -22t-42.5 -19l24 96q5 14 19 52t21 58.5t14.5 53t9.5 61.5q-2 0 -43.5 -10t-67.5 -10h-26q-13 -67 -13 -117q0 -18 3.5 -51.5t3.5 -36.5q4 -29 24 -133
q1 -2 1.5 -9t2 -12t4.5 -8q-40 7 -96 53q-3 5 -4.5 7t-2.5 2.5t-3.5 1t-5.5 2.5l-13 -8l-24 4q1 20 6 51.5t6 48.5q18 131 25 215q-3 0 -18 3t-21 3l-47 -2l-9 -14v-76q0 -11 -2 -31t-2 -47v-51q1 -6 1 -25t3 -32l-6 -37l-37 -8q0 14 -8 14q-3 0 -9 -3t-9 -3
q-9 -2 -39.5 -11.5t-48.5 -9.5q1 13 15 28t18 24v63q-13 137 -13 182v25l-2 10q-18 -6 -20 -6l-23 4h-69q-23 0 -33 -6q3 -14 14 -62.5t16.5 -81.5t8.5 -65q2 -14 2 -37q5 -21 27.5 -71t23.5 -82q-18 8 -48 33t-40 32l-29 19l-8 -19l-45 25q-3 59 -10 100q-16 151 -41 223
q-4 4 -21 4h-12q-19 0 -23 4q-40 -88 -51 -231q-4 -20 -4 -27l2 -32l-2 -35l-39 -2q-14 0 -16 2q4 0 4 6z" />
    <glyph glyph-name="fi" unicode="&#xfb01;" horiz-adv-x="1251" 
d="M57 -10l41 248l92 669l-124 27q19 109 20 145l131 17l14 98q14 105 57 181.5t106 118.5t131.5 61.5t146.5 19.5q143 0 223 -62q-59 -133 -72 -180q-48 39 -118 39q-74 0 -134 -49.5t-73 -138.5l-13 -80h277q-21 -104 -23 -115q-7 -41 -10 -92h-272l-95 -668
q-10 -73 -24 -229q-186 -4 -281 -10zM1061 1249q-58 0 -97.5 35.5t-39.5 91.5q0 68 53 115t123 47q58 0 96.5 -34.5t38.5 -90.5q0 -67 -54.5 -115.5t-119.5 -48.5zM815 240l68 485q25 199 30 334q45 0 121.5 13.5t132.5 31.5h41l-121 -868q-24 -192 -24 -236
q-153 0 -289 -10q34 201 41 250z" />
    <glyph glyph-name="fl" unicode="&#xfb02;" horiz-adv-x="1290" 
d="M57 -10l41 248l92 669l-124 27q19 109 20 145l131 17l14 98q14 105 57 181.5t106 118.5t131.5 61.5t146.5 19.5q143 0 223 -62q-59 -133 -72 -180q-48 39 -118 39q-74 0 -134 -49.5t-73 -138.5l-13 -80h277q-21 -104 -23 -115q-7 -41 -10 -92h-272l-95 -668
q-10 -73 -24 -229q-186 -4 -281 -10zM831 238l136 956q26 192 26 324q80 3 256 43h41l-186 -1325q-2 -18 -7.5 -62.5t-8.5 -68.5t-5.5 -55t-1.5 -50q-166 0 -288 -10q38 245 38 248z" />
    <glyph glyph-name="NULL" horiz-adv-x="0" 
 />
    <glyph glyph-name="CR" horiz-adv-x="358" 
 />
    <glyph glyph-name="ae.alt" horiz-adv-x="1738" 
d="M346 475q0 -134 57 -207t158 -73q104 0 213 71q-29 76 -29 162q0 112 34 227t98 205q-89 68 -185 68q-82 0 -150.5 -44t-109.5 -112.5t-63.5 -146t-22.5 -150.5zM1176 584q76 0 143.5 20.5t117.5 71t50 123.5q0 53 -40.5 88t-115.5 35q-57 0 -105 -26.5t-81.5 -72.5
t-56 -102t-35.5 -123q61 -14 123 -14zM827 170q-45 -56 -89.5 -92.5t-118.5 -62t-168 -25.5q-127 0 -218 60t-134.5 158t-43.5 222q0 92 23.5 186t74.5 183.5t122 158.5t174.5 111.5t224.5 42.5q180 0 305 -135q161 135 379 135q115 0 197 -41t119.5 -103.5t37.5 -138.5
q0 -87 -30.5 -154.5t-79 -109t-116 -68t-134.5 -36.5t-142 -10q-94 0 -168 12q-2 -123 58.5 -195.5t189.5 -72.5q141 0 287 86q13 -44 65 -140q-89 -72 -205 -112.5t-227 -40.5q-123 0 -223.5 44.5t-159.5 137.5z" />
    <glyph glyph-name="aeacute.alt" horiz-adv-x="1738" 
d="M346 475q0 -134 57 -207t158 -73q104 0 213 71q-29 76 -29 162q0 112 34 227t98 205q-89 68 -185 68q-82 0 -150.5 -44t-109.5 -112.5t-63.5 -146t-22.5 -150.5zM1176 584q76 0 143.5 20.5t117.5 71t50 123.5q0 53 -40.5 88t-115.5 35q-57 0 -105 -26.5t-81.5 -72.5
t-56 -102t-35.5 -123q61 -14 123 -14zM827 170q-45 -56 -89.5 -92.5t-118.5 -62t-168 -25.5q-127 0 -218 60t-134.5 158t-43.5 222q0 92 23.5 186t74.5 183.5t122 158.5t174.5 111.5t224.5 42.5q180 0 305 -135q161 135 379 135q115 0 197 -41t119.5 -103.5t37.5 -138.5
q0 -87 -30.5 -154.5t-79 -109t-116 -68t-134.5 -36.5t-142 -10q-94 0 -168 12q-2 -123 58.5 -195.5t189.5 -72.5q141 0 287 86q13 -44 65 -140q-89 -72 -205 -112.5t-227 -40.5q-123 0 -223.5 44.5t-159.5 137.5zM1247 1569l-186 -314h-129l78 336h237v-22z" />
    <glyph glyph-name="e.alt" horiz-adv-x="1042" 
d="M358 600q53 -16 121 -16q78 0 146 20.5t117 71t49 123.5q0 52 -41 87.5t-113 35.5q-111 0 -181.5 -91t-97.5 -231zM346 463q-2 -119 58.5 -193.5t189.5 -74.5q143 0 289 86q15 -51 63 -140q-89 -72 -205 -112.5t-227 -40.5q-94 0 -175 27.5t-145.5 82t-101.5 147
t-37 212.5q0 98 27 193.5t80 178.5t125 146.5t169 100t206 36.5q115 0 197 -41t119.5 -103.5t37.5 -138.5q0 -87 -30.5 -154.5t-79 -109t-116 -68t-134.5 -36.5t-142 -10q-70 0 -168 12z" />
    <glyph glyph-name="egrave.alt" horiz-adv-x="1042" 
d="M358 600q53 -16 121 -16q78 0 146 20.5t117 71t49 123.5q0 52 -41 87.5t-113 35.5q-111 0 -181.5 -91t-97.5 -231zM346 463q-2 -119 58.5 -193.5t189.5 -74.5q143 0 289 86q15 -51 63 -140q-89 -72 -205 -112.5t-227 -40.5q-94 0 -175 27.5t-145.5 82t-101.5 147
t-37 212.5q0 98 27 193.5t80 178.5t125 146.5t169 100t206 36.5q115 0 197 -41t119.5 -103.5t37.5 -138.5q0 -87 -30.5 -154.5t-79 -109t-116 -68t-134.5 -36.5t-142 -10q-70 0 -168 12zM729 1255h-129l-186 314v22h237z" />
    <glyph glyph-name="eacute.alt" horiz-adv-x="1042" 
d="M358 600q53 -16 121 -16q78 0 146 20.5t117 71t49 123.5q0 52 -41 87.5t-113 35.5q-111 0 -181.5 -91t-97.5 -231zM346 463q-2 -119 58.5 -193.5t189.5 -74.5q143 0 289 86q15 -51 63 -140q-89 -72 -205 -112.5t-227 -40.5q-94 0 -175 27.5t-145.5 82t-101.5 147
t-37 212.5q0 98 27 193.5t80 178.5t125 146.5t169 100t206 36.5q115 0 197 -41t119.5 -103.5t37.5 -138.5q0 -87 -30.5 -154.5t-79 -109t-116 -68t-134.5 -36.5t-142 -10q-70 0 -168 12zM815 1569l-186 -314h-129l78 336h237v-22z" />
    <glyph glyph-name="ecircumflex.alt" horiz-adv-x="1042" 
d="M358 600q53 -16 121 -16q78 0 146 20.5t117 71t49 123.5q0 52 -41 87.5t-113 35.5q-111 0 -181.5 -91t-97.5 -231zM346 463q-2 -119 58.5 -193.5t189.5 -74.5q143 0 289 86q15 -51 63 -140q-89 -72 -205 -112.5t-227 -40.5q-94 0 -175 27.5t-145.5 82t-101.5 147
t-37 212.5q0 98 27 193.5t80 178.5t125 146.5t169 100t206 36.5q115 0 197 -41t119.5 -103.5t37.5 -138.5q0 -87 -30.5 -154.5t-79 -109t-116 -68t-134.5 -36.5t-142 -10q-70 0 -168 12zM508 1255h-141l237 336h174l144 -336h-140l-110 193z" />
    <glyph glyph-name="etilde.alt" horiz-adv-x="1042" 
d="M358 600q53 -16 121 -16q78 0 146 20.5t117 71t49 123.5q0 52 -41 87.5t-113 35.5q-111 0 -181.5 -91t-97.5 -231zM346 463q-2 -119 58.5 -193.5t189.5 -74.5q143 0 289 86q15 -51 63 -140q-89 -72 -205 -112.5t-227 -40.5q-94 0 -175 27.5t-145.5 82t-101.5 147
t-37 212.5q0 98 27 193.5t80 178.5t125 146.5t169 100t206 36.5q115 0 197 -41t119.5 -103.5t37.5 -138.5q0 -87 -30.5 -154.5t-79 -109t-116 -68t-134.5 -36.5t-142 -10q-70 0 -168 12zM297 1341q67 124 127 152q62 33 117 33q45 0 84 -16.5t62.5 -36t54.5 -36t61 -16.5
q33 0 64 16.5t69 63.5q48 -40 86 -51q-43 -74 -91 -116.5t-85 -55t-80 -12.5q-36 0 -67 10.5t-53.5 26t-43 31t-45.5 26t-51 10.5q-72 0 -127 -78q-5 4 -16.5 12.5t-16.5 12t-13.5 9t-17 9t-18.5 6.5z" />
    <glyph glyph-name="ecaron.alt" horiz-adv-x="1042" 
d="M358 600q53 -16 121 -16q78 0 146 20.5t117 71t49 123.5q0 52 -41 87.5t-113 35.5q-111 0 -181.5 -91t-97.5 -231zM346 463q-2 -119 58.5 -193.5t189.5 -74.5q143 0 289 86q15 -51 63 -140q-89 -72 -205 -112.5t-227 -40.5q-94 0 -175 27.5t-145.5 82t-101.5 147
t-37 212.5q0 98 27 193.5t80 178.5t125 146.5t169 100t206 36.5q115 0 197 -41t119.5 -103.5t37.5 -138.5q0 -87 -30.5 -154.5t-79 -109t-116 -68t-134.5 -36.5t-142 -10q-70 0 -168 12zM530 1255l-141 336h139l109 -196l166 196h139l-237 -336h-175z" />
    </font>
</defs>
</svg>
