<?xml version="1.0" standalone="no"?>
<!DOCTYPE svg PUBLIC "-//W3C//DTD SVG 1.1//EN" "http://www.w3.org/Graphics/SVG/1.1/DTD/svg11.dtd" >
<svg xmlns="http://www.w3.org/2000/svg" xmlns:xlink="http://www.w3.org/1999/xlink" version="1.1">
<metadata>
Created by FontForge 20170731 at Sun Jun 11 13:21:28 2023
 By Aleksey,,,
Copyright (c) 2015 by Type-O-Tones. All rights reserved. |DCNT
</metadata>
<defs>
<font id="MultiDisplay-Bold" horiz-adv-x="1191" >
  <font-face 
    font-family="Multi Display"
    font-weight="700"
    font-stretch="normal"
    units-per-em="2048"
    panose-1="2 0 5 3 4 0 0 2 0 4"
    ascent="1522"
    descent="-526"
    x-height="1106"
    cap-height="1450"
    bbox="-430 -596 2544 2150"
    underline-thickness="135"
    underline-position="-548"
    unicode-range="U+000D-FB04"
  />
<missing-glyph horiz-adv-x="1024" 
d="M1024 0h-1024v1438h1024v-1438zM881 1294h-738v-1151h738v1151z" />
    <glyph glyph-name="IJ" unicode="IJ" horiz-adv-x="1476" 
d="M524 1184v-279q0 -70 8.5 -194t14.5 -174q-109 0 -397 -13q0 3 2 112.5t2 154.5v278q0 71 -8 197t-13 172q199 0 399 12q0 -3 -4 -112t-4 -154zM946 1438q44 0 100 1t106 3t93 4t70 3t28 1q0 -1 -1 -52t-2 -115.5t-1 -98.5v-568q0 -319 -145.5 -473.5t-415.5 -154.5
q-202 0 -360 104q29 73 41 106t26 88.5t19 108.5l14 6q106 -73 215 -73q102 0 169 76t67 227v438q0 70 -8.5 194.5t-14.5 174.5z" />
    <glyph glyph-name="f_f" unicode="ff" horiz-adv-x="1605" 
d="M139 254v594l-139 37q4 70 4 84q0 38 -4 108l139 19v67q0 95 25.5 169t67.5 120t101.5 76t122 41.5t134.5 11.5q159 0 264 -55q-47 -159 -53 -246q-60 31 -123 31q-72 0 -125 -45t-53 -119v-41h391v57q0 95 25.5 169t67.5 120t101 76t121.5 41.5t134.5 11.5
q160 0 265 -55q-47 -144 -54 -246q-60 31 -122 31q-72 0 -125.5 -45t-53.5 -119v-41h275q-8 -68 -8 -154q0 -25 2.5 -66t3.5 -55h-273v-591q0 -56 4 -158q1 -22 2 -42t2 -29.5t1 -10.5q-191 -3 -375 -12q6 151 6 266v577h-391v-591q0 -56 4 -158q1 -22 2 -42t1.5 -29.5
t0.5 -10.5q-191 -3 -375 -12l1 20q0 20 1 51t2 66t1.5 70.5t0.5 58.5z" />
    <glyph glyph-name="f_f_i" unicode="ffi" horiz-adv-x="2205" 
d="M1718 1405q0 78 57.5 127t141.5 49q78 0 136 -49.5t58 -126.5t-58.5 -129.5t-135.5 -52.5q-83 0 -141 52t-58 130zM1720 254v414q0 171 -20 381q61 0 160.5 16.5t175.5 40.5h55v-860q0 -164 10 -246q-218 0 -387 -12q0 22 3 126.5t3 139.5zM139 254v594l-139 37
q4 70 4 84q0 38 -4 108l139 19v67q0 95 25.5 169t67.5 120t101.5 76t122 41.5t134.5 11.5q159 0 264 -55q-47 -159 -53 -246q-60 31 -123 31q-72 0 -125 -45t-53 -119v-41h391v57q0 95 25.5 169t67.5 120t101 76t121.5 41.5t134.5 11.5q160 0 265 -55q-47 -144 -54 -246
q-60 31 -122 31q-72 0 -125.5 -45t-53.5 -119v-41h275q-8 -68 -8 -154q0 -25 2.5 -66t3.5 -55h-273v-591q0 -56 4 -158q1 -22 2 -42t2 -29.5t1 -10.5q-191 -3 -375 -12q6 151 6 266v577h-391v-591q0 -56 4 -158q1 -22 2 -42t1.5 -29.5t0.5 -10.5q-191 -3 -375 -12l1 20
q0 20 1 51t2 66t1.5 70.5t0.5 58.5z" />
    <glyph glyph-name="f_f_l" unicode="ffl" horiz-adv-x="2207" 
d="M1729 254v881q0 98 -23 374q80 0 336 52h53v-1315q0 -172 12 -246q-230 0 -385 -12q0 25 3.5 125t3.5 141zM139 254v594l-139 37q4 70 4 84q0 38 -4 108l139 19v67q0 95 25.5 169t67.5 120t101.5 76t122 41.5t134.5 11.5q159 0 264 -55q-47 -159 -53 -246q-60 31 -123 31
q-72 0 -125 -45t-53 -119v-41h391v57q0 95 25.5 169t67.5 120t101 76t121.5 41.5t134.5 11.5q160 0 265 -55q-47 -144 -54 -246q-60 31 -122 31q-72 0 -125.5 -45t-53.5 -119v-41h275q-8 -68 -8 -154q0 -25 2.5 -66t3.5 -55h-273v-591q0 -56 4 -158q1 -22 2 -42t2 -29.5
t1 -10.5q-191 -3 -375 -12q6 151 6 266v577h-391v-591q0 -56 4 -158q1 -22 2 -42t1.5 -29.5t0.5 -10.5q-191 -3 -375 -12l1 20q0 20 1 51t2 66t1.5 70.5t0.5 58.5z" />
    <glyph glyph-name="LdotL.CAT" unicode="L&#xb7;L" horiz-adv-x="2275" 
d="M154 254v815q0 71 -8 197t-13 172l397 12q-6 -264 -6 -266v-891q74 -2 215 -2q189 0 334 8l-16 -115q-6 -40 -6 -116q0 -49 2 -74q-80 3 -170.5 4t-153.5 1t-165.5 -0.5t-157.5 -0.5l-175 -6q-23 -1 -44 -2t-31 -2h-9q0 1 1.5 52t3.5 115.5t2 98.5zM905 590
q-76 0 -132 51t-56 125q0 73 55.5 121.5t132.5 48.5q76 0 131.5 -48.5t55.5 -121.5q0 -74 -56 -125t-131 -51zM1284 254v815q0 71 -7.5 197.5t-12.5 171.5l397 12q-6 -264 -6 -266v-891q74 -2 215 -2q189 0 334 8l-17 -115q-6 -41 -6 -116q0 -49 2 -74q-80 3 -170.5 4
t-153.5 1t-165.5 -0.5t-157.5 -0.5l-174 -6q-23 -1 -44 -2t-30 -2h-10q0 1 1.5 52t3 115.5t1.5 98.5z" />
    <glyph glyph-name="IJacute" unicode="&#xcd;J" horiz-adv-x="1476" 
d="M1225 1591h-170l104 332h314v-22zM381 1591h-170l104 332h314v-22zM524 1184v-279q0 -70 8.5 -194t14.5 -174q-109 0 -397 -13q0 3 2 112.5t2 154.5v278q0 71 -8 197t-13 172q199 0 399 12q0 -3 -4 -112t-4 -154zM946 1438q44 0 100 1t106 3t93 4t70 3t28 1q0 -1 -1 -52
t-2 -115.5t-1 -98.5v-568q0 -319 -145.5 -473.5t-415.5 -154.5q-202 0 -360 104q29 73 41 106t26 88.5t19 108.5l14 6q106 -73 215 -73q102 0 169 76t67 227v438q0 70 -8.5 194.5t-14.5 174.5z" />
    <glyph glyph-name="ldotl.CAT" unicode="l&#xb7;l" horiz-adv-x="1521" 
d="M123 254v881q0 98 -23 374q80 0 336 52h53v-1315q0 -166 13 -246q-230 0 -385 -12q0 25 3 125t3 141zM768 590q-76 0 -132 51t-56 125q0 73 55.5 121.5t132.5 48.5q76 0 131 -48.5t55 -121.5q0 -74 -55.5 -125t-130.5 -51zM1042 254v881q0 110 -22 374q80 0 336 52h53
v-1315q0 -172 12 -246q-230 0 -385 -12q0 25 3 125t3 141z" />
    <glyph glyph-name="ijacute" unicode="&#xed;j" horiz-adv-x="1204" 
d="M946 1255h-170l105 336h313v-22zM342 1255h-170l104 336h314v-22zM723 78v571q0 61 -4 133.5t-11.5 169.5t-7.5 101q68 0 169.5 15t166.5 38h56v-950q0 -192 -103.5 -362.5t-240.5 -237.5q-50 70 -166 159q4 4 17 21.5t35 54.5t41 78.5t33.5 98.5t14.5 110zM121 254v414
q0 160 -21 381q60 0 159 16.5t175 40.5h55v-860q0 -156 11 -246q-216 0 -385 -12q0 22 3 126.5t3 139.5z" />
    <glyph glyph-name="f_i" unicode="fi" horiz-adv-x="1454" 
d="M139 254v594l-139 37q4 70 4 84q0 38 -4 108l139 19v67q0 95 25.5 169t67.5 120t101.5 76t122 41.5t134.5 11.5q159 0 264 -55q-3 -10 -12.5 -45.5t-12 -45.5t-9.5 -37t-9 -41.5t-5.5 -35.5t-4.5 -41q-60 31 -123 31q-72 0 -125 -45t-53 -119v-41h274q-8 -68 -8 -154
q0 -25 2.5 -66t3.5 -55h-272v-591q0 -56 4 -158q1 -22 2 -42t1.5 -29.5t0.5 -10.5q-191 -3 -375 -12zM967 1405q0 78 57 127t141 49q78 0 136.5 -49.5t58.5 -126.5t-59 -129.5t-136 -52.5q-83 0 -140.5 52t-57.5 130zM969 254v414q0 160 -21 381q61 0 160.5 16.5t175.5 40.5
h55v-860q0 -156 11 -246q-218 0 -387 -12q0 22 3 126.5t3 139.5z" />
    <glyph glyph-name="f_l" unicode="fl" horiz-adv-x="1456" 
d="M139 254v594l-139 37q4 70 4 84q0 38 -4 108l139 19v67q0 95 25.5 169t67.5 120t101.5 76t122 41.5t134.5 11.5q159 0 264 -55q-3 -10 -12.5 -45.5t-12 -45.5t-9.5 -37t-9 -41.5t-5.5 -35.5t-4.5 -41q-60 31 -123 31q-72 0 -125 -45t-53 -119v-41h274q-8 -68 -8 -154
q0 -25 2.5 -66t3.5 -55h-272v-591q0 -56 4 -158q1 -22 2 -42t1.5 -29.5t0.5 -10.5q-191 -3 -375 -12zM977 254v881q0 98 -23 374q80 0 336 52h53v-1315q0 -166 13 -246q-230 0 -385 -12q0 25 3 125t3 141z" />
    <glyph glyph-name=".notdef" horiz-adv-x="1024" 
d="M1024 0h-1024v1438h1024v-1438zM881 1294h-738v-1151h738v1151z" />
    <glyph glyph-name=".null" horiz-adv-x="0" 
 />
    <glyph glyph-name="nonmarkingreturn" horiz-adv-x="682" 
 />
    <glyph glyph-name="NULL" horiz-adv-x="0" 
 />
    <glyph glyph-name="NULL" horiz-adv-x="0" 
 />
    <glyph glyph-name="CR" unicode="&#xd;" horiz-adv-x="378" 
 />
    <glyph glyph-name="space" unicode=" " horiz-adv-x="389" 
 />
    <glyph glyph-name="exclam" unicode="!" horiz-adv-x="579" 
d="M92 1389q91 3 154 14q40 9 180 35h55l-45 -1006q-78 10 -137 10q-65 0 -137 -10q-45 709 -70 957zM301 -12q-76 0 -132 51t-56 125q0 73 55.5 121.5t132.5 48.5q76 0 131 -48.5t55 -121.5q0 -74 -55.5 -125t-130.5 -51z" />
    <glyph glyph-name="quotedbl" unicode="&#x22;" horiz-adv-x="917" 
d="M492 1282q0 73 55.5 121.5t132.5 48.5q76 0 131 -48.5t55 -121.5q0 -18 -16 -60t-49 -145.5t-64 -238.5q-57 9 -114 0q-31 136 -64.5 239.5t-50 145.5t-16.5 59zM51 1282q0 73 56 121.5t133 48.5q76 0 131 -48.5t55 -121.5q0 -18 -16 -60t-49 -145.5t-64 -238.5
q-57 9 -115 0q-31 136 -64.5 239.5t-50 145.5t-16.5 59z" />
    <glyph glyph-name="numbersign" unicode="#" horiz-adv-x="1243" 
d="M549 586h143l37 215h-145zM1008 1366l-68 -403h242l-41 -162h-228l-34 -215h229l-41 -162h-215l-70 -424h-190l72 424h-142l-69 -424h-191l72 424h-273l41 162h260l37 215h-264l41 162h250l70 403h182l-68 -403h146l69 403h183z" />
    <glyph glyph-name="dollar" unicode="$" horiz-adv-x="1163" 
d="M592 -252h-264l24 258q-172 28 -295 98q63 123 84 304q64 -34 187 -68.5t219 -34.5q84 0 143.5 28t59.5 85q0 58 -46.5 94.5t-152.5 56.5q-235 46 -363 133q-125 85 -125 275q0 103 33.5 185.5t93.5 137.5t136 89t168 49l22 215h264l-22 -215q177 -24 319 -109
q-9 -17 -16.5 -35t-13 -32t-10.5 -34l-7.5 -30t-6 -31l-4.5 -27t-4 -27.5t-3 -22.5l-15 -9q-156 64 -299 64q-96 0 -176 -27q-78 -28 -78 -100q0 -26 15 -45.5t48.5 -34t70 -24.5t94.5 -21q227 -49 330.5 -168t103.5 -291q0 -73 -28.5 -144.5t-84.5 -135.5t-154 -108
t-223 -54z" />
    <glyph glyph-name="percent" unicode="%" horiz-adv-x="1781" 
d="M31 1020q0 112 38 207.5t121 159t197 63.5q84 0 152.5 -36.5t111.5 -97.5t65.5 -137t22.5 -159q0 -80 -23 -154t-66 -133t-111 -94t-152 -35q-113 0 -196 61t-121.5 153.5t-38.5 201.5zM500 1030q0 43 -5.5 83t-17.5 79t-35.5 62.5t-56.5 23.5t-56.5 -23.5t-35.5 -62.5
t-17.5 -79t-5.5 -83t5.5 -83t17 -79t35 -62.5t55.5 -23.5q33 0 57 23.5t36.5 62t18 79t5.5 83.5zM1516 1456l-998 -1462h-235l997 1462h236zM1042 393q0 83 23 159t66 137t112.5 97.5t155.5 36.5q84 0 152.5 -36.5t111.5 -97.5t65.5 -137t22.5 -159q0 -80 -23 -154t-66 -133
t-111 -94t-152 -35q-85 0 -154.5 35t-113 94t-66.5 132.5t-23 154.5zM1511 403q0 43 -5 83t-17 79t-35.5 62.5t-56.5 23.5t-56.5 -23.5t-35.5 -62.5t-17.5 -79t-5.5 -83t5.5 -83t17 -78.5t35 -62t55.5 -23.5q33 0 57 23.5t36 62t17.5 78.5t5.5 83z" />
    <glyph glyph-name="ampersand" unicode="&#x26;" horiz-adv-x="1533" 
d="M651 907q142 101 142 180q0 52 -36 89.5t-89 37.5q-66 0 -102 -36.5t-36 -90.5q0 -30 25.5 -68.5t95.5 -111.5zM807 309l-209 217q-115 -86 -115 -149q0 -54 37 -88.5t107 -34.5q100 0 180 55zM1100 0l-105 109q-169 -121 -393 -121q-238 0 -369 105t-131 257
q0 230 281 406q-90 102 -130 174t-40 137q0 89 38.5 163t102 121t142.5 73t163 26q94 0 176 -23.5t145 -68t99.5 -114.5t36.5 -157q0 -126 -80 -221q-79 -94 -182 -168q64 -71 147 -153q27 49 111 231q153 -6 162 -6q29 0 88 3t68 3q-105 -274 -224 -446l297 -312v-18
q-15 0 -103 4t-120 4q-31 0 -109 -4q-16 -1 -32.5 -2t-25.5 -1.5t-13 -0.5z" />
    <glyph glyph-name="quotesingle" unicode="'" horiz-adv-x="477" 
d="M51 1282q0 73 56 121.5t133 48.5q76 0 131 -48.5t55 -121.5q0 -18 -16 -60t-49 -145.5t-64 -238.5q-57 9 -115 0q-31 136 -64.5 239.5t-50 145.5t-16.5 59z" />
    <glyph glyph-name="parenleft" unicode="(" horiz-adv-x="770" 
d="M483 1559h287q-159 -197 -234 -433t-75 -483q0 -235 69 -479q72 -252 238 -453h-287q-171 156 -269.5 406t-98.5 522q0 267 98 512.5t272 407.5z" />
    <glyph glyph-name="parenright" unicode=")" horiz-adv-x="770" 
d="M289 -289h-287q166 201 238 453q69 244 69 479q0 247 -75 483t-234 433h287q174 -162 272 -407.5t98 -512.5q0 -272 -98.5 -522t-269.5 -406z" />
    <glyph glyph-name="asterisk" unicode="*" horiz-adv-x="854" 
d="M477 1288l207 94l49 -145l-227 -45l156 -168l-123 -90l-113 201l-111 -201l-127 90l158 170l-225 43l49 147l207 -96l-27 228h156z" />
    <glyph glyph-name="plus" unicode="+" horiz-adv-x="1304" 
d="M803 584v-359h-283v359h-336v250h336v348h283v-348h317v-250h-317z" />
    <glyph glyph-name="comma" unicode="," horiz-adv-x="548" 
d="M188 -297q-18 35 -47.5 63.5t-54.5 43.5v22q66 12 119 62q55 49 55 94q-93 0 -140.5 45.5t-47.5 116.5q0 92 55.5 138t142.5 46q94 0 150.5 -63.5t56.5 -176.5q0 -77 -28 -145t-66 -110t-82.5 -74.5t-72.5 -45.5t-40 -16z" />
    <glyph glyph-name="hyphen" unicode="-" horiz-adv-x="899" 
d="M745 831v-249h-591v249h591z" />
    <glyph glyph-name="period" unicode="." horiz-adv-x="518" 
d="M260 -12q-76 0 -132 51t-56 125q0 73 55.5 121.5t132.5 48.5q76 0 131 -48.5t55 -121.5q0 -74 -55.5 -125t-130.5 -51z" />
    <glyph glyph-name="slash" unicode="/" horiz-adv-x="1130" 
d="M1069 1516l-674 -1616h-334l674 1616h334z" />
    <glyph glyph-name="zero" unicode="0" horiz-adv-x="1320" 
d="M57 702q0 171 49 314t133 237t195.5 145.5t237.5 51.5q123 0 229.5 -45.5t188 -131.5t128 -222t46.5 -306q0 -172 -50 -316t-135 -239.5t-198 -148.5t-238 -53q-258 0 -422 194t-164 520zM877 719q0 241 -60 338q-59 96 -164 96q-95 0 -153 -101t-58 -315
q0 -238 58.5 -345t167.5 -107q209 0 209 434z" />
    <glyph glyph-name="one" unicode="1" horiz-adv-x="993" 
d="M928 262v-274q-195 10 -416 10q-243 0 -438 -10v274q145 8 268 14v799h-279q1 8 5 48.5t4 60.5q0 83 -9 119q271 23 531 135h113v-1162z" />
    <glyph glyph-name="two" unicode="2" 
d="M82 0v223q200 127 358 285q246 250 246 438q0 97 -62 147t-151 50q-80 0 -154 -44t-112 -118h-14q-22 67 -74 131q-48 62 -78 88q34 45 78.5 85.5t107.5 79.5t147 62t177 23q255 0 387.5 -126t132.5 -335q0 -82 -25.5 -162.5t-67 -149t-106 -141.5t-130 -132.5
t-152.5 -129.5q191 13 377 13q28 0 78.5 -1t64.5 -1q-8 -96 -4 -285q-2 0 -89.5 1.5t-204.5 3t-191 1.5q-95 0 -315 -3t-224 -3z" />
    <glyph glyph-name="three" unicode="3" horiz-adv-x="1083" 
d="M449 285q93 0 143.5 52t50.5 130q0 33 -11 58t-33 40t-45 24.5t-57.5 14t-59 5.5t-60.5 1h-43q4 36 4 56q0 65 -25 170q114 3 195 43q86 41 86 145q0 58 -47.5 88.5t-108.5 30.5q-68 0 -132 -35t-99 -100h-19q-19 59 -70 123.5t-87 93.5q70 93 199.5 159t308.5 66
q205 0 317 -100q117 -99 117 -250q0 -99 -55.5 -189.5t-165.5 -138.5q138 -39 206 -123.5t68 -222.5q0 -98 -41 -181t-111.5 -139t-164.5 -87t-199 -31q-131 0 -261 39t-208 96q52 119 61 278q49 -35 84 -55t107.5 -40.5t155.5 -20.5z" />
    <glyph glyph-name="four" unicode="4" horiz-adv-x="1253" 
d="M627 -12q0 43 5 171t5 152v49q-75 1 -286 3t-310 2v180q39 47 131 178q14 20 81.5 117.5t104.5 152.5l185 269q89 131 123 176h317v-805q31 0 121 1t98 1q-1 -17 -2.5 -46t-2.5 -50.5t-1 -36.5q0 -60 4 -146h-217v-110q0 -148 12 -246q-34 0 -178 -4q-41 -1 -106.5 -4
t-83.5 -4zM401 633h240l4 354q-46 -77 -110 -172q-57 -82 -134 -182z" />
    <glyph glyph-name="five" unicode="5" horiz-adv-x="1077" 
d="M512 -12q-131 0 -260.5 38.5t-210.5 96.5q50 108 63 278q155 -116 324 -116q103 0 157 53.5t54 146.5q0 89 -63 141t-183 52q-26 0 -52 -2.5t-58 -8.5t-47.5 -9.5t-54 -13.5t-44.5 -11l-28 16q20 332 38 789h836q-6 -43 -6 -125q0 -23 6 -164q-24 0 -247.5 4t-291.5 4
q-12 -171 -14 -239q61 12 131 12q93 0 170.5 -25t131 -68t91 -101t55 -123t17.5 -134q0 -94 -32.5 -180t-94 -156.5t-162 -112.5t-225.5 -42z" />
    <glyph glyph-name="six" unicode="6" horiz-adv-x="1239" 
d="M61 633q0 224 95 411t265 296.5t378 109.5q189 0 282 -45q-29 -95 -41 -143q-20 -81 -20 -144l-16 -8q-59 23 -102 33t-111 10q-126 0 -225.5 -93t-129.5 -249q129 117 326 117q194 0 309 -121q117 -120 117 -311q0 -218 -153.5 -363t-393.5 -145q-94 0 -178 22.5
t-158.5 72.5t-128 123.5t-84.5 182.5t-31 244zM430 563q13 -148 66 -213t145 -65q80 0 131 47.5t51 142.5q0 90 -47 140.5t-139 50.5q-104 0 -207 -103z" />
    <glyph glyph-name="seven" unicode="7" horiz-adv-x="1120" 
d="M510 0h-414q43 76 125 240q131 260 247 528t153 385q-186 -2 -408 -2q-141 0 -172 -2q8 57 8 131q0 2 -8 158h1028q-4 -62 -4 -97q0 -32 4 -98z" />
    <glyph glyph-name="eight" unicode="8" horiz-adv-x="1241" 
d="M893 725q44 -20 78.5 -38.5t77.5 -49.5t72 -63.5t49 -78.5t20 -96q0 -97 -50 -176.5t-132.5 -130t-185.5 -77.5t-212 -27q-154 0 -278.5 44t-202.5 134.5t-78 214.5q0 62 26 118t71 98t95 73t107 53q-119 44 -193.5 129t-74.5 197q0 170 149.5 285.5t389.5 115.5
q237 0 387.5 -116t150.5 -285q0 -106 -79 -193t-187 -131zM618 864q162 79 162 187q0 54 -42 92.5t-113 38.5t-116.5 -39t-45.5 -92q0 -59 40.5 -103.5t114.5 -83.5zM625 584q-162 -79 -162 -187q0 -53 45.5 -92.5t116.5 -40.5q70 0 112.5 39.5t42.5 93.5q0 59 -40.5 103.5
t-114.5 83.5z" />
    <glyph glyph-name="nine" unicode="9" horiz-adv-x="1228" 
d="M809 874q-13 148 -66 213.5t-145 65.5q-80 0 -131 -47.5t-51 -142.5q0 -90 47 -140.5t139 -50.5q105 0 207 102zM1178 805q0 -224 -95 -411t-265 -296.5t-378 -109.5q-189 0 -282 45q19 62 39 143q22 90 22 143l17 9q59 -23 102 -33t111 -10q126 0 225 92.5t129 249.5
q-129 -117 -326 -117q-195 0 -311 119q-115 121 -115 313q0 218 153.5 363t393.5 145q94 0 178 -22.5t158.5 -72.5t128 -123.5t84.5 -182.5t31 -244z" />
    <glyph glyph-name="colon" unicode=":" horiz-adv-x="518" 
d="M72 776q0 73 55.5 121.5t132.5 48.5q76 0 131 -48.5t55 -121.5q0 -74 -55.5 -125t-130.5 -51q-76 0 -132 51t-56 125zM260 -12q-76 0 -132 51t-56 125q0 73 55.5 121.5t132.5 48.5q76 0 131 -48.5t55 -121.5q0 -74 -55.5 -125t-130.5 -51z" />
    <glyph glyph-name="semicolon" unicode=";" horiz-adv-x="548" 
d="M72 776q0 73 55.5 121.5t132.5 48.5q76 0 131 -48.5t55 -121.5q0 -74 -55.5 -125t-130.5 -51q-76 0 -132 51t-56 125zM188 -297q-18 35 -47.5 63.5t-54.5 43.5v22q66 12 119 62q55 49 55 94q-93 0 -140.5 45.5t-47.5 116.5q0 92 55.5 138t142.5 46q94 0 150.5 -63.5
t56.5 -176.5q0 -77 -28 -145t-66 -110t-82.5 -74.5t-72.5 -45.5t-40 -16z" />
    <glyph glyph-name="less" unicode="&#x3c;" horiz-adv-x="1304" 
d="M266 625v168l770 401v-274l-422 -211l422 -211v-275z" />
    <glyph glyph-name="equal" unicode="=" horiz-adv-x="1304" 
d="M184 821v250h936v-250h-936zM184 362v250h936v-250h-936z" />
    <glyph glyph-name="greater" unicode="&#x3e;" horiz-adv-x="1304" 
d="M268 223v275l422 211l-422 211v274l770 -401v-168z" />
    <glyph glyph-name="question" unicode="?" horiz-adv-x="915" 
d="M244 651q0 41 23 82.5t58 75t75.5 70t75.5 67t58 66.5t23 69q0 57 -37 88t-86 31q-46 0 -80.5 -26t-34.5 -68q0 -32 3 -47q-45 5 -142.5 4t-148.5 -8v63q0 109 63.5 192.5t159 124t203.5 40.5q215 0 331.5 -88.5t116.5 -268.5q0 -101 -67 -188.5t-258 -251.5
q-52 -45 -52 -98q0 -34 21 -84l-199 2q-106 44 -106 153zM252 164q0 73 55.5 121.5t132.5 48.5q76 0 131.5 -48.5t55.5 -121.5q0 -74 -56 -125t-131 -51q-76 0 -132 51t-56 125z" />
    <glyph glyph-name="at" unicode="@" horiz-adv-x="2166" 
d="M1450 539q0 -125 102 -125q33 0 69 10.5t77 38t73.5 69t54 111t21.5 156.5q0 135 -50.5 243.5t-139.5 178.5t-206.5 107.5t-254.5 37.5q-174 0 -333.5 -63t-274.5 -168t-183.5 -250t-68.5 -303q0 -294 206.5 -467.5t557.5 -173.5q137 0 285 35.5t262 97.5q4 -95 34 -170
q-268 -180 -641 -180q-198 0 -375 63t-305 172.5t-203 266t-75 335.5q0 201 91.5 389.5t243.5 326.5t361 221t434 83q253 0 449.5 -91.5t310 -270t113.5 -420.5q0 -119 -40.5 -221t-106.5 -171t-150 -118.5t-170 -72.5t-168 -23q-152 0 -225 86q-27 27 -45 75
q-159 -145 -342 -145q-117 0 -192 81t-75 226q0 141 45 256t123.5 190t185 115.5t230.5 40.5q153 0 385 -96q-63 -297 -76.5 -370.5t-13.5 -112.5zM1157 465q-3 63 22 228t25 181q0 60 -88 60q-80 0 -154.5 -100t-74.5 -230q0 -80 36 -126t97 -46q57 0 137 33z" />
    <glyph glyph-name="A" unicode="A" horiz-adv-x="1462" 
d="M1442 0q-216 -3 -422 -12q-51 174 -82 284q-84 2 -244 2q-143 0 -192 -2l-76 -272q-192 -3 -406 -12q102 282 249.5 725.5t236.5 726.5q152 -4 225 -4q75 0 227 4q49 -161 102 -326t90.5 -278.5t90.5 -267t74.5 -214.5t72 -201.5t54.5 -152.5zM860 561l-141 563
l-141 -563q35 2 106 2q37 0 98 -1t78 -1z" />
    <glyph glyph-name="B" unicode="B" horiz-adv-x="1284" 
d="M154 244v815q0 71 -8 202.5t-13 176.5h578q112 0 204 -30.5t151 -82t91.5 -117t32.5 -137.5q0 -111 -45 -184.5t-144 -124.5v-4q114 -49 173 -137t59 -191q0 -87 -34 -165t-96 -137t-155.5 -93.5t-204.5 -34.5h-596q0 1 1.5 46.5t3.5 104.5t2 93zM522 874h172
q71 0 110.5 40t39.5 94q0 69 -43.5 106t-128.5 37h-150q2 -51 2 -117q0 -117 -2 -160zM522 287h168q81 0 124.5 49.5t43.5 112.5q0 66 -52.5 112.5t-139.5 46.5h-144q2 -68 2 -186v-57q0 -37 -2 -78z" />
    <glyph glyph-name="C" unicode="C" horiz-adv-x="1304" 
d="M72 694q0 349 196.5 552.5t530.5 203.5q228 0 424 -94q-36 -78 -64 -154q-30 -79 -47 -158l-12 -4q-107 84 -273 84t-268 -105.5t-102 -297.5q0 -196 101 -305t280 -109q145 0 290 74q16 -93 35 -141q26 -64 60 -129q-81 -65 -205 -95q-131 -28 -236 -28
q-216 0 -373.5 76.5t-247 236.5t-89.5 393z" />
    <glyph glyph-name="D" unicode="D" horiz-adv-x="1464" 
d="M133 1438h572q201 0 359 -91t243.5 -246.5t85.5 -346.5q0 -159 -51 -298t-142 -239.5t-222.5 -158.5t-285.5 -58h-545q1 47 4 131t3 113v815q0 71 -8 202.5t-13 176.5zM524 1124v-817h183q145 0 223 106.5t78 317.5q0 200 -93.5 296.5t-261.5 96.5h-129z" />
    <glyph glyph-name="E" unicode="E" 
d="M154 244v815q0 71 -8 202.5t-13 176.5h1000q-20 -132 -23 -310q-162 14 -381 11l-205 -4v-265q284 0 486 9q-9 -45 -9 -160q0 -67 9 -156q-29 1 -79.5 2.5t-91.5 2.5t-77 1q-86 0 -238 -4v-270q196 -4 289 -4q174 0 313 8q-13 -103 -14 -115q-4 -54 -4 -116q0 -45 2 -70
q-40 1 -114 2.5t-134 2.5t-114 1q-427 0 -603 -12q9 64 9 252z" />
    <glyph glyph-name="F" unicode="F" horiz-adv-x="1173" 
d="M133 1438l1000 4q-23 -158 -23 -314q-124 11 -295 11q-123 0 -291 -4v-265q302 0 486 9l-1 -9q-1 -10 -2 -26.5t-2.5 -36t-2.5 -43.5t-1 -45q0 -111 9 -156q-218 4 -291 4q-136 0 -195 -2v-217q0 -68 8.5 -183t14.5 -165q-44 0 -101 -1t-107 -3t-93.5 -4t-70.5 -3t-28 -1
q0 1 1.5 49t3.5 110t2 97v815q0 71 -8 202.5t-13 176.5z" />
    <glyph glyph-name="G" unicode="G" horiz-adv-x="1402" 
d="M459 700q0 -116 31 -199t89.5 -129.5t132 -67.5t167.5 -21h47q0 103 -6.5 219.5t-12.5 156.5q110 0 249 5t147 8q-1 -13 -5 -115q-2 -55 -2 -172q0 -232 7 -289q-225 -108 -504 -108q-118 0 -223.5 25t-198.5 79.5t-160 135.5t-106 200t-39 266q0 230 94 402t263 263
t390 91q249 0 445 -94q-32 -69 -64 -152q-29 -73 -47 -160l-12 -4q-74 48 -145.5 65t-161.5 17q-159 0 -267 -114.5t-108 -307.5z" />
    <glyph glyph-name="H" unicode="H" horiz-adv-x="1492" 
d="M758 559q-82 0 -234 -4v-186q0 -70 8.5 -194.5t14.5 -174.5q-131 0 -397 -12q0 3 2 112t2 154v815q0 71 -8 197t-13 172q199 0 399 12q0 -3 -4 -112t-4 -154v-275q76 -2 221 -2q150 0 224 2v160q0 70 -8.5 194.5t-14.5 174.5q136 0 402 12l-4 -110q-5 -109 -5 -156v-815
q0 -71 8 -197t13 -172q-131 0 -397 -12q6 240 6 266v301q-144 4 -211 4z" />
    <glyph glyph-name="I" unicode="I" horiz-adv-x="679" 
d="M524 1184v-815q0 -70 8.5 -194.5t14.5 -174.5q-131 0 -397 -12q0 3 2 112t2 154v815q0 71 -8 197t-13 172q199 0 399 12q0 -3 -4 -112t-4 -154z" />
    <glyph glyph-name="J" unicode="J" horiz-adv-x="1087" 
d="M557 1438q44 0 100 1t106 3t93 4t70 3t28 1q0 -1 -1 -52t-2 -115.5t-1 -98.5v-568q0 -319 -145.5 -473.5t-415.5 -154.5q-202 0 -360 104q29 73 41 106t26 88.5t19 108.5l14 6q106 -73 215 -73q102 0 169 76t67 227v438q0 70 -8.5 194.5t-14.5 174.5z" />
    <glyph glyph-name="K" unicode="K" horiz-adv-x="1429" 
d="M154 254v815q0 71 -8 197t-13 172q88 0 241.5 6t155.5 6q0 -23 -3 -123.5t-3 -142.5v-400q6 8 74.5 110.5t107.5 161.5t98 149t94.5 148.5t47.5 84.5q319 0 432 8v-14l-483 -676q346 -500 514 -727v-29q-192 0 -430 -12q-54 80 -224 338t-231 348v-305q0 -72 7 -199
t12 -170q-45 0 -101.5 -1t-106 -3t-92 -4t-69 -3t-27.5 -1q0 1 0.5 21.5t1.5 52t2.5 66t2 69.5t0.5 57z" />
    <glyph glyph-name="L" unicode="L" horiz-adv-x="1144" 
d="M154 254v815q0 71 -8 197t-13 172l397 12q-6 -264 -6 -266v-891q74 -2 215 -2q189 0 334 8l-16 -115q-6 -40 -6 -116q0 -49 2 -74q-80 3 -170.5 4t-153.5 1t-165.5 -0.5t-157.5 -0.5l-175 -6q-23 -1 -44 -2t-31 -2h-9q0 1 1.5 52t3.5 115.5t2 98.5z" />
    <glyph glyph-name="M" unicode="M" horiz-adv-x="1914" 
d="M102 -12l76 1450h86q245 0 432 12l273 -913l227 901h119q217 0 405 12l92 -1450q-79 0 -395 -12l-24 987q-5 -28 -27 -103l-219 -714h-373l-229 714q-29 88 -31 103l-16 -975q-70 0 -169 -3t-163 -6z" />
    <glyph glyph-name="N" unicode="N" horiz-adv-x="1607" 
d="M154 254v815q0 71 -8 197t-13 172q88 0 231 6t166 6l578 -934l-18 555q-2 34 -6.5 124t-8 156t-6.5 89q91 0 242.5 5t156.5 5q0 -15 -3 -118t-3 -146v-815q0 -80 4.5 -208t8.5 -163l-437 -12q-59 118 -145.5 263.5t-208 337t-160.5 255.5v-475q0 -70 8.5 -194.5
t14.5 -174.5q-80 0 -232 -4l-168 -8q7 252 7 266z" />
    <glyph glyph-name="O" unicode="O" horiz-adv-x="1509" 
d="M1438 723q0 -172 -53 -312t-145.5 -232t-217.5 -141.5t-270 -49.5q-147 0 -269 44t-215 130.5t-144.5 227t-51.5 323.5q0 172 53 312.5t145.5 232.5t217.5 142t270 50q117 0 218.5 -27t187 -84.5t146 -142t94.5 -205.5t34 -268zM1061 713q0 191 -84 314.5t-221 123.5
t-216 -120.5t-79 -307.5q0 -192 80 -315t217 -123t220 121.5t83 306.5z" />
    <glyph glyph-name="P" unicode="P" horiz-adv-x="1241" 
d="M154 254v815q0 71 -8 197t-13 172h576q246 0 372 -129q129 -129 129 -334q0 -218 -134 -354t-367 -136h-187v-116q0 -63 9 -196t14 -173q-44 0 -100.5 -1t-106 -3t-92.5 -4t-70.5 -3t-28.5 -1q1 30 4 126t3 140zM522 1151v-379h166q88 0 129 62q43 64 43 129
q0 78 -51.5 133t-136.5 55h-150z" />
    <glyph glyph-name="Q" unicode="Q" horiz-adv-x="1509" 
d="M1143 -369q-172 0 -305.5 99t-145.5 260q-135 9 -246.5 56.5t-196 134.5t-131 222.5t-46.5 309.5q0 172 53 312.5t145.5 232.5t217.5 142t270 50q117 0 218.5 -27t187 -84.5t146 -142t94.5 -205.5t34 -268q0 -253 -111.5 -430.5t-300.5 -253.5q91 -178 301 -178h76
q-3 -79 0 -158q-123 -72 -260 -72zM1061 713q0 178 -86 293q-82 116 -223 116q-137 0 -214 -111t-77 -288q0 -176 78 -295q79 -117 219 -117q138 0 221 115q82 113 82 287z" />
    <glyph glyph-name="R" unicode="R" horiz-adv-x="1310" 
d="M147 -12q0 25 3.5 125t3.5 141v815q0 71 -8 197t-13 172h576q240 0 370.5 -120.5t130.5 -322.5q0 -165 -79 -280.5t-224 -159.5q60 -81 151 -207t153 -213t79 -106v-29q-47 0 -225.5 -6t-224.5 -6l-310 538h-8v-157q0 -63 9 -196t14 -173q-242 0 -398 -12zM522 1151v-338
h166q83 0 127.5 49.5t44.5 120.5q0 70 -51.5 119t-136.5 49h-150z" />
    <glyph glyph-name="S" unicode="S" horiz-adv-x="1150" 
d="M57 104q63 123 84 304q64 -34 187 -68.5t219 -34.5q84 0 143.5 28t59.5 85q0 58 -46.5 94.5t-152.5 56.5q-235 46 -363 133q-125 85 -125 275q0 96 31 175.5t84 134t125 92t153.5 54.5t170.5 17q118 0 237 -32t213 -89q-44 -82 -65 -239l-15 -9q-161 66 -299 66
q-91 0 -176 -29q-78 -28 -78 -100q0 -26 15 -45.5t48.5 -34t70 -24.5t94.5 -21q227 -49 330.5 -168t103.5 -291q0 -78 -32 -153.5t-96 -142.5t-176 -108.5t-255 -41.5q-120 0 -257.5 33t-232.5 83z" />
    <glyph glyph-name="T" unicode="T" horiz-adv-x="1275" 
d="M446 254v850h-405q14 118 14 336l267 -4q111 -2 337 -2q228 0 332 2q42 1 127 2t117 2q-18 -141 -18 -336q-41 1 -102 1t-151 -0.5t-145 -0.5v-735q0 -47 4 -195.5t4 -173.5q-69 0 -147.5 -2.5t-150.5 -5.5t-89 -4q0 22 3 123.5t3 142.5z" />
    <glyph glyph-name="U" unicode="U" horiz-adv-x="1456" 
d="M133 565v873q161 -2 371 12v-832q0 -156 60 -233.5t167 -77.5q102 0 161.5 76.5t59.5 224.5v830q176 -3 371 12v-850q0 -162 -44.5 -281.5t-126.5 -191t-189.5 -105.5t-241.5 -34q-588 0 -588 577z" />
    <glyph glyph-name="V" unicode="V" horiz-adv-x="1458" 
d="M432 1438q12 -50 39 -150l92 -338l103 -364q60 -200 71 -228q22 62 71 240.5t122 453t104 386.5q18 0 88 -1.5t107 -2t100.5 0t120.5 3.5v-15q-87 -245 -205.5 -573.5t-195 -540.5t-107.5 -311q-152 4 -215 4q-59 0 -227 -4q-115 386 -412 1214l-80 213v13q216 -15 424 0
z" />
    <glyph glyph-name="W" unicode="W" horiz-adv-x="2242" 
d="M1130 883l-198 -885q-31 1 -85.5 2.5t-99 2.5t-81.5 1q-33 0 -86.5 -2.5t-77.5 -3.5q-39 130 -101 315q-56 175 -139 418q-89 261 -143 408q-82 225 -109 286l-2 13q153 -6 238 -6q15 0 186 6q10 -37 55.5 -215.5t90.5 -345t133 -478.5q25 107 88.5 359.5t128.5 521.5
h424l207 -881q142 532 177.5 680t71.5 359q171 -6 189 -6q82 0 235 6l2 -13q-29 -66 -106 -286q-15 -46 -62.5 -186.5t-74.5 -221.5q-21 -63 -43.5 -134.5t-48.5 -154.5t-41 -129q-70 -219 -95 -315q-15 0 -84 3t-104 3q-49 0 -128.5 -2.5t-105.5 -3.5z" />
    <glyph glyph-name="X" unicode="X" horiz-adv-x="1474" 
d="M8 -12v12q37 49 73.5 98.5t63 85.5t64 88.5t55.5 78t59.5 86t54.5 79t62 91.5t62 91q-79 136 -235.5 387t-223.5 347v8q292 4 440 10q75 -164 254 -473q81 137 151 269.5t97 191.5q226 3 449 12v-8q-89 -129 -459 -744q250 -368 491 -686v-14q-91 0 -255.5 -3.5
t-206.5 -4.5l-265 454l-260 -444q-239 -3 -471 -12z" />
    <glyph glyph-name="Y" unicode="Y" horiz-adv-x="1421" 
d="M557 -4v453l-549 974v15q305 4 453 12l252 -541q32 -76 41 -116q10 40 17.5 67t10.5 36.5t4 12.5l195 529q223 -3 432 12v-12l-465 -992v-448q-128 2 -391 -2z" />
    <glyph glyph-name="Z" unicode="Z" horiz-adv-x="1302" 
d="M72 129q0 29 -4 107l647 897h-602q0 20 2 55q4 70 4 98q0 84 -6 152h1079q-6 -41 -6 -131q0 -95 6 -142l-635 -870l680 18q-12 -85 -12 -155q0 -88 12 -158h-1171q6 41 6 129z" />
    <glyph glyph-name="bracketleft" unicode="[" horiz-adv-x="735" 
d="M664 -45v-244h-510v1848h510v-244h-203v-1360h203z" />
    <glyph glyph-name="backslash" unicode="\" horiz-adv-x="1130" 
d="M395 1516l674 -1616h-334l-674 1616h334z" />
    <glyph glyph-name="bracketright" unicode="]" horiz-adv-x="735" 
d="M274 -45v1360h-202v244h510v-1848h-510v244h202z" />
    <glyph glyph-name="asciicircum" unicode="^" horiz-adv-x="1046" 
d="M401 1438h242l377 -701h-277l-221 414l-221 -414h-274z" />
    <glyph glyph-name="underscore" unicode="_" horiz-adv-x="1224" 
d="M102 -444v249h1020v-249h-1020z" />
    <glyph glyph-name="grave" unicode="`" 
d="M387 1569v22h313l105 -336h-170z" />
    <glyph glyph-name="a" unicode="a" horiz-adv-x="1120" 
d="M61 270q0 42 13.5 83t52.5 89.5t100 88t166.5 73t241.5 49.5v47q0 57 -17 113q-15 51 -94 51q-57 0 -84 -43.5t-14 -97.5q-11 -1 -82 -5t-134.5 -11.5t-103.5 -20.5q-4 46 -4 66q0 72 17 129.5t43 95t66 65t77 41.5t85 22.5t82 10.5t75 2q62 0 120 -10t119.5 -37.5
t106 -70.5t73.5 -116t29 -167v-328q0 -80 20 -115.5t68 -35.5h17q-7 -60 8 -150q-34 -48 -92.5 -74t-122.5 -26q-69 0 -137 24q-67 27 -101 121q-49 -63 -126 -104t-171 -41q-137 0 -217 74.5t-80 207.5zM635 276v205q-51 -6 -99.5 -20.5t-89 -46t-40.5 -72.5
q0 -48 31.5 -70t80.5 -22q60 0 117 26z" />
    <glyph glyph-name="b" unicode="b" horiz-adv-x="1236" 
d="M229 0h-116v1303q0 106 -13 208q90 0 336 50h49q-8 -208 -8 -529q117 86 262 86q189 0 316 -141t127 -387q0 -142 -41 -257t-113 -190t-168 -115t-207 -40q-105 0 -239 43l-84 -13q-33 -3 -101 -18zM477 776v-524q53 -21 101 -21q66 0 115.5 49.5t72 122t22.5 154.5
q0 75 -19 138t-60.5 104t-98.5 41q-72 0 -133 -64z" />
    <glyph glyph-name="c" unicode="c" horiz-adv-x="1105" 
d="M55 555q0 111 35.5 211t102 179t171 126t232.5 47q50 0 98 -6.5t98.5 -21.5t92.5 -42t75.5 -64t52.5 -92t19 -122q0 -14 -4 -68q-208 0 -315 -28q4 28 4 59q0 47 -21 88q-18 43 -106 43q-60 0 -100 -40.5t-56 -100.5t-16 -135q0 -40 1 -66.5t6.5 -64t15 -62.5t27.5 -52
t43.5 -43.5t64.5 -27t88 -10.5q149 0 292 86q6 -15 52 -92q32 -54 57 -90q-91 -88 -211.5 -134t-245.5 -46q-119 0 -219.5 36t-175 105.5t-116.5 179t-42 248.5z" />
    <glyph glyph-name="d" unicode="d" horiz-adv-x="1259" 
d="M496 -12q-91 0 -171 36t-140 103t-95 169t-35 226q0 142 41 256t112.5 187.5t167 113t206.5 39.5q82 0 176 -16q0 188 -21 409q148 4 334 50h55v-1282q0 -147 33 -279q-214 0 -383 -12q0 4 -4.5 36t-5.5 62q-118 -98 -270 -98zM762 330v524q-50 20 -100 20
q-66 0 -115.5 -49t-72.5 -121.5t-23 -154.5q0 -75 19 -138t60.5 -104t98.5 -41q72 0 133 64z" />
    <glyph glyph-name="e" unicode="e" horiz-adv-x="1142" 
d="M55 555q0 110 37 211t104 179.5t171 125.5t229 47q219 0 354 -123q137 -119 137 -331q0 -96 -18 -195h-643q0 -3 1 -9t1 -9q27 -189 236 -189q133 0 292 86l54 -98q38 -65 55 -84q-91 -88 -211 -133t-246 -45q-122 0 -222.5 35.5t-174.5 104.5t-115 178t-41 249zM422 672
h348q0 19 -2.5 39t-12 49t-25 51t-45.5 37.5t-69 15.5q-99 0 -143 -59q-42 -61 -51 -133z" />
    <glyph glyph-name="f" unicode="f" horiz-adv-x="854" 
d="M139 254v594l-139 37q4 70 4 84q0 38 -4 108l139 19v67q0 95 25.5 169t67.5 120t101.5 76t122 41.5t134.5 11.5q159 0 264 -55q-3 -10 -12.5 -45.5t-12 -45.5t-9.5 -37t-9 -41.5t-5.5 -35.5t-4.5 -41q-60 31 -123 31q-72 0 -125 -45t-53 -119v-41h274q-8 -68 -8 -154
q0 -25 2.5 -66t3.5 -55h-272v-591q0 -56 4 -158q1 -22 2 -42t1.5 -29.5t0.5 -10.5q-191 -3 -375 -12z" />
    <glyph glyph-name="g" unicode="g" horiz-adv-x="1171" 
d="M668 725q0 50 -11 93t-43 77.5t-82 34.5q-38 0 -65.5 -19t-41.5 -51t-20 -65.5t-6 -69.5q0 -35 6 -67.5t20 -64t41.5 -50.5t65.5 -19q49 0 81.5 34t43.5 76.5t11 90.5zM53 -188q0 53 39 106q42 54 164 66q-85 20 -127.5 68t-42.5 116q0 70 46.5 124t133.5 83
q-105 53 -161 141.5t-56 181.5q0 88 29 162.5t86 133t152 91.5t219 33q111 0 200 -28l424 26q-4 -82 -4 -125t4 -121l-24 -16l-152 16q33 -94 33 -170q0 -66 -30.5 -131t-88.5 -121t-154.5 -91t-216.5 -35q-34 0 -88 4q-18 -14 -31.5 -32.5t-13.5 -31.5q0 -29 35.5 -38
t116.5 -9h127q100 0 177 -13t142 -43.5t100 -88t35 -140.5q0 -120 -73 -205t-196.5 -126t-285.5 -41q-240 0 -379 67t-139 187zM825 -111q0 53 -55 69.5t-186 16.5h-176q-2 -4 -13.5 -17.5t-18.5 -28.5t-7 -33q0 -42 53.5 -75.5t155.5 -33.5q112 0 179.5 26t67.5 76z" />
    <glyph glyph-name="h" unicode="h" horiz-adv-x="1288" 
d="M123 254v881q0 112 -8.5 224t-14.5 150q90 0 336 50h53v-619q74 84 167.5 131t195.5 47q59 0 114 -16.5t104.5 -51t79.5 -97.5t30 -146v-627q0 -45 6 -111.5t6 -68.5q-235 0 -385 -12q4 73 4 266v444q-3 113 -127 113q-48 0 -102.5 -16.5t-92.5 -42.5v-506
q0 -166 13 -246q-230 0 -385 -12q0 35 3 136.5t3 129.5z" />
    <glyph glyph-name="i" unicode="i" horiz-adv-x="600" 
d="M113 1405q0 78 57 127t141 49q78 0 136.5 -49.5t58.5 -126.5t-59 -129.5t-136 -52.5q-83 0 -140.5 52t-57.5 130zM115 254v414q0 160 -21 381q61 0 160.5 16.5t175.5 40.5h55v-860q0 -156 11 -246q-218 0 -387 -12q0 22 3 126.5t3 139.5z" />
    <glyph glyph-name="j" unicode="j" horiz-adv-x="604" 
d="M92 1405q0 77 57.5 126.5t137.5 49.5q81 0 138.5 -49.5t57.5 -126.5q0 -78 -58 -130t-138 -52t-137.5 52t-57.5 130zM123 78v571q0 61 -4 133.5t-11.5 169.5t-7.5 101q68 0 169.5 15t166.5 38h56v-950q0 -192 -104 -362.5t-241 -237.5q-51 71 -165 159q4 4 17 21.5
t35 54.5t41 78.5t33.5 98.5t14.5 110z" />
    <glyph glyph-name="k" unicode="k" horiz-adv-x="1208" 
d="M866 586l342 -580v-6q-46 1 -143.5 -1.5t-174 -6t-75.5 -4.5l-326 565v-307q0 -166 13 -246q-192 3 -385 -12q6 228 6 266v881q0 112 -8 208l-15 166q80 0 336 52h53v-947l310 488q72 -2 211 -2q43 0 196 8v-18z" />
    <glyph glyph-name="l" unicode="l" horiz-adv-x="602" 
d="M123 254v881q0 98 -23 374q80 0 336 52h53v-1315q0 -166 13 -246q-230 0 -385 -12q0 25 3 125t3 141z" />
    <glyph glyph-name="m" unicode="m" horiz-adv-x="1970" 
d="M121 254v414q0 81 -7 206.5t-14 174.5q108 0 334 57h55v-168q74 87 167.5 133.5t197.5 46.5q63 0 121 -17.5t111 -62t77 -110.5q75 89 172 139.5t201 50.5q59 0 114 -16.5t104.5 -51t79.5 -97.5t30 -146v-627q0 -102 12 -180q-216 0 -385 -12q4 168 4 266v444
q-3 113 -127 113q-44 0 -97 -15t-91 -38v-578q0 -45 7 -109.5t7 -70.5q-230 0 -385 -12q0 1 1 52t2 115.5t1 98.5v444q-3 113 -127 113q-49 0 -104 -16.5t-93 -42.5v-506q0 -156 11 -246q-216 0 -385 -12q0 42 3 144t3 122z" />
    <glyph glyph-name="n" unicode="n" horiz-adv-x="1288" 
d="M121 254v414q0 57 -2 116.5t-5.5 104.5t-6.5 81t-5 57t-2 22q108 0 334 57h55v-168q74 87 167.5 133.5t197.5 46.5q47 0 91.5 -9.5t88 -33t75.5 -58t51.5 -89t19.5 -121.5v-627q0 -45 7 -109.5t7 -70.5q-230 0 -385 -12q0 1 1 52t2 115.5t1 98.5v444q-3 113 -127 113
q-49 0 -104 -16.5t-93 -42.5v-506q0 -156 11 -246q-216 0 -385 -12q0 1 0.5 21.5t1.5 52t2 66t1.5 69.5t0.5 57z" />
    <glyph glyph-name="o" unicode="o" 
d="M1137 557q0 -110 -37 -212t-104 -181.5t-171 -127.5t-229 -48q-115 0 -207.5 31.5t-154 84.5t-102.5 126.5t-59 154t-18 170.5q0 110 37 211t104 179.5t171 125.5t229 47q115 0 207.5 -31t154 -83t102.5 -124.5t59 -152.5t18 -170zM770 563q0 61 -7 108.5t-24.5 93.5
t-54 71.5t-90.5 25.5t-90.5 -25.5t-54 -71.5t-24.5 -93.5t-7 -108.5q0 -299 174 -299q81 0 129.5 71t48.5 228z" />
    <glyph glyph-name="p" unicode="p" horiz-adv-x="1247" 
d="M487 776v-524q53 -21 101 -21q66 0 115.5 49.5t72.5 122t23 154.5q0 75 -19 138t-60.5 104t-98.5 41q-73 0 -134 -64zM123 -193v861q0 137 -7.5 242t-15.5 139q123 0 336 57h51v-74q117 86 265 86q91 0 170.5 -35t139.5 -100.5t95 -167t35 -225.5q0 -142 -41 -257
t-113 -190t-167 -115t-205 -40q-85 0 -179 16v-205q0 -153 13 -233q-216 0 -383 -12q6 240 6 253z" />
    <glyph glyph-name="q" unicode="q" horiz-adv-x="1239" 
d="M760 -195v275q-117 -92 -262 -92q-91 0 -171.5 36t-141 103t-95.5 169t-35 226q0 142 41 256t113 187.5t168 113t207 39.5q142 0 235 -59q23 4 82.5 21t102.5 26h124v-1309q0 -141 11 -231q-218 0 -385 -12q6 189 6 251zM764 330v524q-50 20 -100 20q-66 0 -115.5 -49
t-72.5 -121.5t-23 -154.5q0 -75 19 -138t60.5 -104t98.5 -41q72 0 133 64z" />
    <glyph glyph-name="r" unicode="r" horiz-adv-x="862" 
d="M121 254v414q0 59 -1 105.5t-4 90t-4 62.5t-6 66.5t-6 56.5q111 0 334 57h55v-213q45 109 105 167t151 58q90 0 148 -37q-14 -34 -25 -66t-17.5 -60t-11 -48.5t-7 -44t-3.5 -34t-1.5 -30t-0.5 -20.5q-19 1 -61.5 4.5t-56.5 3.5q-80 0 -132.5 -31t-87.5 -112v-397
q0 -156 11 -246q-216 0 -385 -12q0 39 3 139.5t3 126.5z" />
    <glyph glyph-name="s" unicode="s" horiz-adv-x="968" 
d="M135 328q28 -24 132.5 -52t197.5 -28q156 0 156 96q0 34 -30 52.5t-118 35.5q-206 40 -302.5 122t-96.5 237q0 151 116.5 239t337.5 88q98 0 197 -26t166 -74q-51 -107 -66 -197l-26 -16q-90 59 -232 59q-149 0 -149 -84q0 -26 34.5 -44.5t120.5 -37.5
q188 -41 266.5 -131t78.5 -233q0 -56 -22.5 -113t-69.5 -111t-133 -88t-199 -34t-234 32t-194 93q53 102 69 215z" />
    <glyph glyph-name="t" unicode="t" horiz-adv-x="890" 
d="M166 424v410l-166 47q4 50 4 75q0 35 -4 97l168 47l39 241q117 0 285 50h53l-19 -285h279q-14 -110 -14 -162q0 -5 6 -110h-260v-336q0 -217 149 -217q50 0 115 24q4 -57 17 -103.5t42 -123.5q-142 -90 -293 -90q-81 0 -152 27t-127.5 79.5t-89 137.5t-32.5 192z" />
    <glyph glyph-name="u" unicode="u" horiz-adv-x="1284" 
d="M115 322q0 87 1 205t1 151q0 159 -23 420q123 0 336 20h55v-688q0 -63 35.5 -98t89.5 -35q42 0 93 20t92 48v303q0 192 -21 430q116 0 334 20h55v-796q0 -200 33 -322q-214 0 -383 -12q-8 74 -16 190q-76 -87 -168 -138.5t-187 -51.5q-57 0 -113.5 20t-105 59
t-78.5 105.5t-30 149.5z" />
    <glyph glyph-name="v" unicode="v" horiz-adv-x="1183" 
d="M0 1106q207 -9 391 0l211 -807l215 807q93 -4 367 0q-206 -553 -408 -1106h-108q-116 0 -252 -12q-73 202 -226 609.5t-190 508.5z" />
    <glyph glyph-name="w" unicode="w" horiz-adv-x="1683" 
d="M0 1106q136 -4 201 -4q72 0 190 4l146 -819l161 819h303l175 -819l141 819q126 -4 184 -4h105l77 4l-335 -1104q-178 0 -353 -14q-22 86 -41.5 168.5t-34 152t-25.5 126t-19.5 110t-13 83t-10 66t-5.5 39.5q-40 -285 -141 -731q-178 0 -353 -14q-65 202 -192.5 609.5
t-159.5 508.5z" />
    <glyph glyph-name="x" unicode="x" horiz-adv-x="1161" 
d="M365 575q-36 47 -72 99t-76 113.5t-66 102t-72.5 114.5t-64.5 102q208 -9 392 0q90 -175 180 -320q101 160 184 320q93 -4 367 0l-179 -277q-78 -121 -172 -254q8 -12 150 -230.5t225 -344.5q-260 0 -373 -14q-122 217 -202 350q-94 -155 -193 -336q-267 0 -393 -12
q91 135 199 317q80 134 166 270z" />
    <glyph glyph-name="y" unicode="y" horiz-adv-x="1183" 
d="M391 1106l223 -787h9l194 787q21 -1 60 -2.5t70 -2.5t57 -1q3 0 180 6l-78 -232q-82 -241 -115 -344q-32 -99 -112 -337q-42 -124 -66 -209q-127 -426 -481 -426q-144 0 -281 88q75 116 107 248q81 -48 155 -48q58 0 94 32.5t48 121.5l-455 1106q23 -1 64.5 -2.5
t75.5 -2.5t63 -1q11 0 188 6z" />
    <glyph glyph-name="z" unicode="z" horiz-adv-x="1021" 
d="M952 0h-878v248q118 161 483 596q-152 4 -227 4q-80 0 -232 -4q4 86 4 137q0 59 -4 125h863v-258q-74 -101 -190 -240.5t-201 -237t-89 -102.5h166q181 0 307 11q-8 -51 -8 -162q0 -78 6 -117z" />
    <glyph glyph-name="braceleft" unicode="{" horiz-adv-x="776" 
d="M154 55v267q0 88 -26 129t-95 81q14 46 14 103t-14 100q46 27 69.5 49.5t37.5 61.5t14 100v266q0 174 90.5 270.5t234.5 96.5q111 0 226 -35q-11 -75 -11 -86q0 -50 11 -100q-63 0 -107 -9t-68.5 -23t-38 -37.5t-17 -44.5t-3.5 -52v-246q0 -121 -28 -188t-95 -119
q68 -58 95.5 -127.5t27.5 -189.5v-246q0 -33 3 -54t16.5 -44.5t37.5 -36.5t68.5 -22t108.5 -9q-11 -50 -11 -100q0 -11 11 -86q-121 -37 -226 -37q-144 0 -234.5 97t-90.5 271z" />
    <glyph glyph-name="bar" unicode="|" horiz-adv-x="530" 
d="M418 -289h-305v1848h305v-1848z" />
    <glyph glyph-name="braceright" unicode="}" horiz-adv-x="776" 
d="M72 -276q10 68 10 86q0 55 -10 100q64 0 108.5 9t68.5 22t37 36.5t16 44.5t3 54v246q0 120 27.5 189.5t95.5 127.5q-67 52 -95 119t-28 188v246q0 40 -6.5 65t-28.5 50.5t-71.5 38t-126.5 12.5q10 45 10 100q0 18 -10 86q115 35 225 35q144 0 235 -97t91 -270v-266
q0 -61 13.5 -100t37 -61.5t69.5 -49.5q-14 -43 -14 -100t14 -103q-46 -27 -69.5 -49t-37 -61t-13.5 -100v-267q0 -174 -91 -271t-235 -97q-104 0 -225 37z" />
    <glyph glyph-name="asciitilde" unicode="~" horiz-adv-x="1167" 
d="M319 446q-60 39 -114 58q74 223 250 223q44 0 84.5 -16.5t66 -36.5t57.5 -36.5t62 -16.5q32 0 59 16t60 68q58 -41 119 -64q-29 -71 -63.5 -118t-70.5 -67.5t-63.5 -27t-60.5 -6.5q-44 0 -85.5 16.5t-68 36.5t-59.5 36.5t-62 16.5q-65 0 -111 -82z" />
    <glyph glyph-name="uni00A0" unicode="&#xa0;" horiz-adv-x="378" 
 />
    <glyph glyph-name="exclamdown" unicode="&#xa1;" horiz-adv-x="579" 
d="M92 1026q0 74 56 125t131 51q76 0 132 -51t56 -125q0 -73 -55.5 -121.5t-132.5 -48.5q-76 0 -131.5 48.5t-55.5 121.5zM154 -256h-56l45 1006q86 -11 138 -11q58 0 137 11q27 -413 69 -957q-92 0 -333 -49z" />
    <glyph glyph-name="cent" unicode="&#xa2;" horiz-adv-x="1110" 
d="M666 -211h-265l23 225q-164 53 -266.5 186.5t-102.5 334.5q0 104 30.5 202t87.5 180t149 136.5t206 66.5l25 242h264l-26 -270q97 -36 158.5 -116t62.5 -206q0 -14 -4 -68q-38 0 -156 -4q-67 -2 -160 -24q4 28 4 59q0 45 -16 88q-15 43 -90 43q-59 0 -99 -46.5
t-55.5 -107t-15.5 -126.5q0 -60 13.5 -114t42.5 -101.5t81 -75t121 -27.5q118 0 258 84q13 -41 43 -90t57 -74q-140 -169 -350 -192z" />
    <glyph glyph-name="sterling" unicode="&#xa3;" horiz-adv-x="1214" 
d="M1151 1350q-69 -135 -86 -277l-55 -29q-54 23 -79.5 33t-66 19.5t-78.5 9.5q-151 0 -202 -125q-30 -80 -19 -170h324q-25 -116 0 -242h-256q12 -49 12 -96q0 -100 -72 -178q152 -4 236 -4q170 0 309 8q-19 -130 -2 -305q-496 15 -1018 -6v282q36 14 77 57t65 105
q24 67 24 137h-114q12 112 0 242h67q-35 132 -35 209q0 198 144.5 314t408.5 116q242 0 416 -100z" />
    <glyph glyph-name="currency" unicode="&#xa4;" horiz-adv-x="1202" 
d="M1069 344l-137 -137l-168 166q-77 -41 -164 -41q-88 0 -162 41l-168 -166l-135 139l164 166q-43 75 -43 162q0 90 41 164l-164 168l137 137l166 -166q76 42 164 45q84 0 166 -45l166 166l137 -137l-166 -166q43 -78 43 -164q0 -85 -43 -166zM602 848q-69 0 -120.5 -52.5
t-51.5 -121.5q0 -70 49 -122t121 -52q76 0 126 53.5t50 120.5q0 73 -52.5 123.5t-121.5 50.5z" />
    <glyph glyph-name="yen" unicode="&#xa5;" horiz-adv-x="1421" 
d="M1257 569l-22 -145h-287v-82h309l-20 -145h-289v-199q-128 2 -391 -2v201h-326l21 145h305v82h-326l21 145h237l-481 854v15q305 4 453 12l252 -541q28 -56 41 -116q13 53 32 116l195 529q223 -3 432 12v-12l-407 -869h251z" />
    <glyph glyph-name="brokenbar" unicode="&#xa6;" horiz-adv-x="530" 
d="M418 774h-305v785h305v-785zM418 -289h-305v813h305v-813z" />
    <glyph glyph-name="section" unicode="&#xa7;" horiz-adv-x="1181" 
d="M444 635q-32 -48 -32 -88q0 -53 43.5 -81.5t144.5 -53.5q28 -6 76 -20.5t65 -18.5q29 45 29 86q0 44 -41 75.5t-135 57.5q-82 21 -150 43zM145 -33q36 -28 142 -71q107 -43 227 -43q87 0 145 39.5t58 101.5q0 56 -55 86t-177 61q-218 53 -327 133t-109 248q0 141 90 269
q-67 79 -67 210q0 92 35 172t101.5 142t172 97.5t237.5 35.5q133 0 260 -32.5t216 -80.5q-57 -117 -72 -243l-43 -23q-47 30 -129.5 57t-177.5 27q-91 0 -149 -38t-58 -99q0 -27 13.5 -48.5t31 -35t55 -28t64 -22t80.5 -20.5q246 -64 335 -147t89 -223q0 -137 -95 -279
q74 -83 74 -209q0 -89 -34 -167.5t-100.5 -141t-175 -99t-245.5 -36.5q-135 0 -265.5 34.5t-223.5 88.5q51 99 77 284z" />
    <glyph glyph-name="dieresis" unicode="&#xa8;" 
d="M643 1399q0 62 45 104.5t111 42.5t111.5 -42.5t45.5 -104.5q0 -63 -45.5 -107.5t-111.5 -44.5t-111 44.5t-45 107.5zM233 1399q0 61 46 104t112 43t111 -42.5t45 -104.5q0 -63 -45 -107.5t-111 -44.5t-112 44.5t-46 107.5z" />
    <glyph glyph-name="copyright" unicode="&#xa9;" horiz-adv-x="1632" 
d="M61 702q0 161 62.5 300.5t167 235t244 150t290.5 54.5q208 0 379.5 -100t269 -273t97.5 -381q0 -218 -102 -391t-278.5 -268t-393.5 -95q-208 0 -376.5 100t-264 276t-95.5 392zM1366 688q0 166 -73.5 297t-201.5 203t-288 72q-158 0 -281 -77t-189.5 -209.5
t-66.5 -295.5q0 -166 74 -295.5t201.5 -198.5t285.5 -69q234 0 386.5 164t152.5 409zM444 668q0 80 25 154.5t72.5 135.5t123.5 97.5t169 36.5q41 0 81.5 -8.5t80.5 -29.5t70 -51t48.5 -77.5t18.5 -106.5q0 -22 -3 -49q-105 6 -108 6q-70 0 -119 -10q2 10 2 45
q0 26 -4.5 44.5t-22 34t-49.5 15.5q-43 0 -72 -33.5t-39.5 -77t-10.5 -92.5q0 -44 9.5 -82.5t30 -72.5t58 -54t88.5 -20q106 0 188 49q7 -29 29 -64t43 -55q-54 -64 -140 -95.5t-175 -31.5q-179 0 -286.5 104.5t-107.5 287.5z" />
    <glyph glyph-name="ordfeminine" unicode="&#xaa;" horiz-adv-x="698" 
d="M41 942q0 25 8 49t30.5 53t58.5 52.5t98 43.5t143 29v27q0 19 -1 30t-4.5 25.5t-10 22t-19.5 13t-31 5.5q-34 0 -49.5 -25.5t-7.5 -56.5q-144 -8 -188 -22q-2 10 -2 39q0 59 18.5 101.5t44 64.5t64.5 34.5t68.5 15.5t68.5 3q262 0 262 -240v-182q0 -47 11.5 -69.5
t39.5 -22.5h10q-1 -18 4 -96q-20 -28 -54.5 -44t-72.5 -16q-50 0 -85.5 17t-53.5 67q-68 -84 -176 -84q-80 0 -127 43.5t-47 122.5zM379 946v121q-32 -5 -88 -25q-47 -15 -47 -55q0 -57 65 -57q41 0 70 16z" />
    <glyph glyph-name="guillemotleft" unicode="&#xab;" 
d="M563 612l301 400h287l-258 -402v-24l258 -402h-287l-301 400v28zM49 584v28l301 400h287l-258 -402v-24l258 -402h-287z" />
    <glyph glyph-name="logicalnot" unicode="&#xac;" horiz-adv-x="1304" 
d="M184 915h936v-612h-286v363h-650v249z" />
    <glyph glyph-name="uni00AD" unicode="&#xad;" horiz-adv-x="899" 
d="M745 831v-249h-591v249h591z" />
    <glyph glyph-name="registered" unicode="&#xae;" horiz-adv-x="815" 
d="M412 1524q165 0 274 -111t109 -276q0 -170 -114.5 -278.5t-283.5 -108.5q-164 0 -270 112q-107 113 -107 283q0 108 54.5 196t144 135.5t193.5 47.5zM414 836q122 0 202 86q80 89 80 215q0 134 -83.5 216.5t-213.5 82.5q-126 0 -202 -88q-78 -90 -78 -218q0 -131 84 -215
q85 -79 211 -79zM279 961v372h145q62 0 94.5 -31t32.5 -83q0 -42 -20 -71.5t-58 -41.5q72 -94 98 -141q-10 0 -37.5 -1t-51.5 -2t-25 -1l-80 133h-2q0 -15 3 -70t3 -59q-11 0 -25.5 -0.5t-27 -1t-23.5 -1t-19 -0.5zM375 1260v-86h45q19 0 30 12.5t11 30.5t-12.5 30.5
t-34.5 12.5h-39z" />
    <glyph glyph-name="overscore" unicode="&#xaf;" 
d="M864 1503v-207h-538q0 1 1 27t1.5 54.5t0 65t-2.5 60.5h538z" />
    <glyph glyph-name="degree" unicode="&#xb0;" horiz-adv-x="643" 
d="M41 1171q0 121 80 199t203 78t200.5 -78.5t77.5 -198.5q0 -122 -84 -200t-203 -78q-123 0 -198.5 77.5t-75.5 200.5zM195 1171q0 -57 34.5 -93t89.5 -36q57 0 93.5 36t36.5 93t-36.5 92t-93.5 35q-56 0 -90 -35t-34 -92z" />
    <glyph glyph-name="plusminus" unicode="&#xb1;" horiz-adv-x="1304" 
d="M803 584v-238h-283v238h-336v250h336v348h283v-348h317v-250h-317zM184 0v250h936v-250h-936z" />
    <glyph glyph-name="twosuperior" unicode="&#xb2;" horiz-adv-x="733" 
d="M700 614h-645v131q144 91 242 189q115 124 115 219q0 57 -36.5 86t-90.5 29q-46 0 -89.5 -25.5t-66.5 -68.5h-8q-11 33 -40.5 72t-49.5 57q57 69 145.5 109t185.5 40q61 0 116.5 -16.5t101.5 -49t73 -86t27 -122.5q0 -122 -84 -215q-82 -91 -201 -187l307 6
q-4 -54 -4 -82q0 -59 2 -86z" />
    <glyph glyph-name="threesuperior" unicode="&#xb3;" horiz-adv-x="688" 
d="M350 1450q126 0 201.5 -59.5t75.5 -149.5q0 -116 -131 -174q82 -23 121.5 -72.5t39.5 -130.5q0 -116 -96 -188q-97 -72 -227 -72q-83 0 -165.5 23t-131.5 57q32 77 35 166q29 -21 49 -32.5t62 -23.5t93 -12q55 0 85 30t30 75q0 62 -53 74q-52 12 -105 12h-24
q0 63 -12 112q73 0 119 26.5t46 84.5q0 34 -28 52t-64 18q-39 0 -77 -20.5t-60 -59.5h-10q-10 33 -40.5 71.5t-51.5 57.5q45 56 126 95.5t193 39.5z" />
    <glyph glyph-name="acute" unicode="&#xb4;" horiz-adv-x="1699" 
d="M557 1255h-170l105 336h313v-22z" />
    <glyph glyph-name="mu" unicode="&#xb5;" horiz-adv-x="1284" 
d="M1108 1118h55v-796q0 -200 33 -322q-214 0 -383 -12q-8 74 -16 190q-66 -77 -147.5 -127.5t-166.5 -60.5v-185q0 -155 11 -245q-202 0 -385 -13v8q0 8 0.5 25.5t1 44t1 67t1 91t1 121t1 151t0.5 186v222.5l2 215q0 159 -23 420q123 0 336 20h55v-688q0 -63 35.5 -98
t89.5 -35q42 0 93 20t92 48v303q0 192 -21 430q116 0 334 20z" />
    <glyph glyph-name="paragraph" unicode="&#xb6;" horiz-adv-x="1652" 
d="M1530 1184v-1237q0 -64 8.5 -197.5t13.5 -171.5q-77 0 -335 -12q6 222 6 266v1237q0 71 -8 197t-13 172h334q0 -31 -3 -128t-3 -126zM750 -53v538h-187q-233 0 -367.5 136t-134.5 354q0 204 127 334q129 129 375 129h529q-5 -39 -10 -165.5t-5 -203.5v-1237q0 -36 2 -135
t2 -119q-218 0 -356 -12q5 41 15 179.5t10 201.5z" />
    <glyph glyph-name="middot" unicode="&#xb7;" horiz-adv-x="518" 
d="M260 528q-76 0 -132 51.5t-56 125.5q0 73 55.5 121t132.5 48q76 0 131 -48t55 -121q0 -74 -55.5 -125.5t-130.5 -51.5z" />
    <glyph glyph-name="cedilla" unicode="&#xb8;" 
d="M569 -471q-60 0 -119 17.5t-92 43.5q25 49 29 123q19 -13 65.5 -25t86.5 -12q49 0 79.5 19t30.5 61q0 62 -139 62q-20 0 -55.5 -4t-36.5 -4l-10 28l63 174h125l-14 -100q5 0 18 1t18 1q100 0 156.5 -52t56.5 -124q0 -77 -67 -141q-65 -68 -195 -68z" />
    <glyph glyph-name="onesuperior" unicode="&#xb9;" horiz-adv-x="589" 
d="M33 612v154l162 10v451h-164q0 2 1 17t2 31.5t0.5 40.5t-3.5 44q167 16 311 78h88v-662l129 -10v-154h-526z" />
    <glyph glyph-name="ordmasculine" unicode="&#xba;" horiz-adv-x="706" 
d="M51 1110q0 67 17 125.5t51.5 106.5t94.5 76t140 28t140.5 -28t94.5 -76t50 -106t16 -126q0 -67 -16.5 -124.5t-50.5 -105.5t-94 -76t-140 -28t-140 28t-94.5 76t-51.5 105.5t-17 124.5zM457 1116q0 29 -5.5 59t-17 58.5t-32.5 46.5t-48 18q-38 0 -63 -32.5t-33 -70.5
t-8 -79q0 -42 8 -80t32.5 -70t61.5 -32t62 31.5t34 70.5t9 80z" />
    <glyph glyph-name="guillemotright" unicode="&#xbb;" 
d="M563 184l258 402v24l-258 402h287l301 -400v-28l-301 -400h-287zM336 184h-287l258 402v24l-258 402h287l301 -400v-28z" />
    <glyph glyph-name="onequarter" unicode="&#xbc;" horiz-adv-x="1705" 
d="M33 612v154l162 10v451h-164q0 2 1 17t2 31.5t0.5 40.5t-3.5 44q167 16 311 78h88v-662l129 -10v-154h-526zM1536 1456l-997 -1462h-236l997 1462h236zM1315 -8l8 203h-354v106q22 26 86.5 118.5t168.5 244t113 163.5h207v-479h131q-6 -37 -2 -153h-129q0 -127 8 -195
q-155 0 -237 -8zM1182 348h143v213q-93 -152 -143 -213z" />
    <glyph glyph-name="onehalf" unicode="&#xbd;" horiz-adv-x="1849" 
d="M33 612v154l162 10v451h-164q0 2 1 17t2 31.5t0.5 40.5t-3.5 44q167 16 311 78h88v-662l129 -10v-154h-526zM1817 -2h-646v131q147 93 242 188q115 124 115 220q0 56 -36.5 85t-90.5 29q-46 0 -89.5 -25.5t-66.5 -68.5h-8q-11 33 -40.5 72t-49.5 57q57 69 146 109.5
t186 40.5q83 0 152.5 -28t117 -92t47.5 -155q0 -122 -84 -215q-78 -87 -201 -186l308 6q-4 -54 -4 -82q0 -59 2 -86zM1536 1456l-997 -1462h-236l997 1462h236z" />
    <glyph glyph-name="threequarters" unicode="&#xbe;" horiz-adv-x="1685" 
d="M1511 1456l-997 -1462h-235l997 1462h235zM1294 -8l9 203h-355v106q14 17 47.5 63.5t79.5 112.5t87 125t89 129t66 96h207v-479h131q-6 -37 -2 -153h-129q0 -127 8 -195q-156 0 -238 -8zM1161 348h144v213q-90 -148 -144 -213zM350 1450q126 0 201.5 -59.5t75.5 -149.5
q0 -116 -131 -174q82 -23 121.5 -72.5t39.5 -130.5q0 -116 -96 -188q-97 -72 -227 -72q-83 0 -165.5 23t-131.5 57q32 77 35 166q29 -21 49 -32.5t62 -23.5t93 -12q55 0 85 30t30 75q0 62 -53 74q-52 12 -105 12h-24q0 63 -12 112q73 0 119 26.5t46 84.5q0 34 -28 52t-64 18
q-39 0 -77 -20.5t-60 -59.5h-10q-10 33 -40.5 71.5t-51.5 57.5q45 56 126 95.5t193 39.5z" />
    <glyph glyph-name="questiondown" unicode="&#xbf;" horiz-adv-x="917" 
d="M475 1223q76 0 132.5 -51t56.5 -125q0 -73 -56 -121.5t-133 -48.5q-76 0 -131 48.5t-55 121.5q0 74 55.5 125t130.5 51zM672 559q0 -48 -32.5 -97t-78.5 -90t-92 -80t-78.5 -81.5t-32.5 -81.5q0 -57 37 -88t86 -31q46 0 80.5 26t34.5 68q0 38 -2 48q45 -5 142.5 -4
t148.5 8v-64q0 -83 -37 -152t-98 -112.5t-136 -67.5t-155 -24q-215 0 -332 88t-117 268q0 70 34 133.5t97.5 128.5t194.5 178q51 44 51 99q0 37 -20 84l198 -2q107 -45 107 -154z" />
    <glyph glyph-name="Agrave" unicode="&#xc0;" horiz-adv-x="1462" 
d="M1442 0q-216 -3 -422 -12q-51 174 -82 284q-84 2 -244 2q-143 0 -192 -2l-76 -272q-192 -3 -406 -12q102 282 249.5 725.5t236.5 726.5q152 -4 225 -4q75 0 227 4q49 -161 102 -326t90.5 -278.5t90.5 -267t74.5 -214.5t72 -201.5t54.5 -152.5zM860 561l-141 563
l-141 -563q35 2 106 2q37 0 98 -1t78 -1zM406 1905v22h313l104 -336h-170z" />
    <glyph glyph-name="Aacute" unicode="&#xc1;" horiz-adv-x="1462" 
d="M1442 0q-216 -3 -422 -12q-51 174 -82 284q-84 2 -244 2q-143 0 -192 -2l-76 -272q-192 -3 -406 -12q102 282 249.5 725.5t236.5 726.5q152 -4 225 -4q75 0 227 4q49 -161 102 -326t90.5 -278.5t90.5 -267t74.5 -214.5t72 -201.5t54.5 -152.5zM860 561l-141 563
l-141 -563q35 2 106 2q37 0 98 -1t78 -1zM780 1591h-170l105 336h313v-22z" />
    <glyph glyph-name="Acircumflex" unicode="&#xc2;" horiz-adv-x="1462" 
d="M1442 0q-216 -3 -422 -12q-51 174 -82 284q-84 2 -244 2q-143 0 -192 -2l-76 -272q-192 -3 -406 -12q102 282 249.5 725.5t236.5 726.5q152 -4 225 -4q75 0 227 4q49 -161 102 -326t90.5 -278.5t90.5 -267t74.5 -214.5t72 -201.5t54.5 -152.5zM860 561l-141 563
l-141 -563q35 2 106 2q37 0 98 -1t78 -1zM416 1591l202 336h232l203 -336h-183l-137 152l-135 -152h-182z" />
    <glyph glyph-name="Atilde" unicode="&#xc3;" horiz-adv-x="1462" 
d="M1442 0q-216 -3 -422 -12q-51 174 -82 284q-84 2 -244 2q-143 0 -192 -2l-76 -272q-192 -3 -406 -12q102 282 249.5 725.5t236.5 726.5q152 -4 225 -4q75 0 227 4q49 -161 102 -326t90.5 -278.5t90.5 -267t74.5 -214.5t72 -201.5t54.5 -152.5zM860 561l-141 563
l-141 -563q35 2 106 2q37 0 98 -1t78 -1zM342 1694q74 223 248 223q44 0 84.5 -16.5t66 -37t57.5 -37t62 -16.5q32 0 59 16t60 68q55 -39 119 -63q-29 -71 -63.5 -118t-70.5 -67.5t-63.5 -27t-60.5 -6.5q-44 0 -85.5 16.5t-68 36.5t-59.5 36.5t-62 16.5q-62 0 -108 -82
q-39 25 -58 35t-57 23z" />
    <glyph glyph-name="Adieresis" unicode="&#xc4;" horiz-adv-x="1462" 
d="M1442 0q-216 -3 -422 -12q-51 174 -82 284q-84 2 -244 2q-143 0 -192 -2l-76 -272q-192 -3 -406 -12q102 282 249.5 725.5t236.5 726.5q152 -4 225 -4q75 0 227 4q49 -161 102 -326t90.5 -278.5t90.5 -267t74.5 -214.5t72 -201.5t54.5 -152.5zM860 561l-141 563
l-141 -563q35 2 106 2q37 0 98 -1t78 -1zM770 1755q0 62 45 105t111 43t111.5 -43t45.5 -105q0 -63 -45.5 -107t-111.5 -44t-111 44t-45 107zM360 1755q0 62 46 105t112 43t111 -43t45 -105q0 -63 -45 -107t-111 -44t-112 44t-46 107z" />
    <glyph glyph-name="Aring" unicode="&#xc5;" horiz-adv-x="1462" 
d="M1442 0q-216 -3 -422 -12q-51 174 -82 284q-84 2 -244 2q-143 0 -192 -2l-76 -272q-192 -3 -406 -12q102 282 249.5 725.5t236.5 726.5q152 -4 225 -4q75 0 227 4q49 -161 102 -326t90.5 -278.5t90.5 -267t74.5 -214.5t72 -201.5t54.5 -152.5zM860 561l-141 563
l-141 -563q35 2 106 2q37 0 98 -1t78 -1zM733 1919q87 0 141 -52.5t54 -133.5t-54 -134t-141 -53q-86 0 -139 53t-53 134t53 133.5t139 52.5zM733 1659q30 0 48 22.5t18 51.5t-18 51t-48 22t-47.5 -22t-17.5 -51t17.5 -51.5t47.5 -22.5z" />
    <glyph glyph-name="AE" unicode="&#xc6;" horiz-adv-x="2029" 
d="M991 627v497l-254 -497h254zM1649 1116h-283v-246h115q183 0 368 9q-6 -153 -6 -160q0 -33 6 -156q-29 1 -78.5 2.5t-90.5 2.5t-76 1q-86 0 -238 -4v-225h412q30 0 93 2.5t99 3.5q-30 -209 -20 -348q-37 0 -133 1t-152 1q-390 0 -674 -8v348h-399l-172 -340
q-183 -3 -400 -12l775 1452h1175q-20 -184 -20 -334q-110 10 -301 10z" />
    <glyph glyph-name="Ccedilla" unicode="&#xc7;" horiz-adv-x="1304" 
d="M780 -12l-12 -88q5 0 18.5 1t18.5 1q100 0 156.5 -52t56.5 -124q0 -77 -68 -142q-64 -67 -194 -67q-60 0 -119 17.5t-92 43.5q24 46 28 123q19 -13 65.5 -25t86.5 -12q49 0 80 19.5t31 60.5q0 61 -140 61q-20 0 -55.5 -4t-36.5 -4l-10 29l61 170q-272 32 -427.5 210
t-155.5 488q0 349 196.5 552.5t530.5 203.5q228 0 424 -94q-36 -78 -64 -154q-30 -79 -47 -158l-12 -4q-107 84 -273 84t-268 -105.5t-102 -297.5q0 -196 101 -305t280 -109q145 0 290 74q16 -93 35 -141q26 -64 60 -129q-81 -65 -205 -95q-131 -28 -238 -28z" />
    <glyph glyph-name="Egrave" unicode="&#xc8;" 
d="M154 244v815q0 71 -8 202.5t-13 176.5h1000q-20 -132 -23 -310q-162 14 -381 11l-205 -4v-265q284 0 486 9q-9 -45 -9 -160q0 -67 9 -156q-29 1 -79.5 2.5t-91.5 2.5t-77 1q-86 0 -238 -4v-270q196 -4 289 -4q174 0 313 8q-13 -103 -14 -115q-4 -54 -4 -116q0 -45 2 -70
q-40 1 -114 2.5t-134 2.5t-114 1q-427 0 -603 -12q9 64 9 252zM360 1905v22h314l104 -336h-170z" />
    <glyph glyph-name="Eacute" unicode="&#xc9;" 
d="M154 244v815q0 71 -8 202.5t-13 176.5h1000q-20 -132 -23 -310q-162 14 -381 11l-205 -4v-265q284 0 486 9q-9 -45 -9 -160q0 -67 9 -156q-29 1 -79.5 2.5t-91.5 2.5t-77 1q-86 0 -238 -4v-270q196 -4 289 -4q174 0 313 8q-13 -103 -14 -115q-4 -54 -4 -116q0 -45 2 -70
q-40 1 -114 2.5t-134 2.5t-114 1q-427 0 -603 -12q9 64 9 252zM678 1591h-170l104 336h314v-22z" />
    <glyph glyph-name="Ecircumflex" unicode="&#xca;" 
d="M154 244v815q0 71 -8 202.5t-13 176.5h1000q-20 -132 -23 -310q-162 14 -381 11l-205 -4v-265q284 0 486 9q-9 -45 -9 -160q0 -67 9 -156q-29 1 -79.5 2.5t-91.5 2.5t-77 1q-86 0 -238 -4v-270q196 -4 289 -4q174 0 313 8q-13 -103 -14 -115q-4 -54 -4 -116q0 -45 2 -70
q-40 1 -114 2.5t-134 2.5t-114 1q-427 0 -603 -12q9 64 9 252zM313 1591l203 336h232l202 -336h-182l-137 152l-135 -152h-183z" />
    <glyph glyph-name="Edieresis" unicode="&#xcb;" 
d="M154 244v815q0 71 -8 202.5t-13 176.5h1000q-20 -132 -23 -310q-162 14 -381 11l-205 -4v-265q284 0 486 9q-9 -45 -9 -160q0 -67 9 -156q-29 1 -79.5 2.5t-91.5 2.5t-77 1q-86 0 -238 -4v-270q196 -4 289 -4q174 0 313 8q-13 -103 -14 -115q-4 -54 -4 -116q0 -45 2 -70
q-40 1 -114 2.5t-134 2.5t-114 1q-427 0 -603 -12q9 64 9 252zM705 1755q0 62 44.5 105t110.5 43t112 -43t46 -105q0 -63 -46 -107t-112 -44t-110.5 44t-44.5 107zM295 1755q0 62 46 105t112 43t110.5 -43t44.5 -105q0 -63 -44.5 -107t-110.5 -44t-112 44t-46 107z" />
    <glyph glyph-name="Igrave" unicode="&#xcc;" horiz-adv-x="679" 
d="M524 1184v-815q0 -70 8.5 -194.5t14.5 -174.5q-131 0 -397 -12q0 3 2 112t2 154v815q0 71 -8 197t-13 172q199 0 399 12q0 -3 -4 -112t-4 -154zM14 1905v22h314l104 -336h-170z" />
    <glyph glyph-name="Iacute" unicode="&#xcd;" horiz-adv-x="679" 
d="M524 1184v-815q0 -70 8.5 -194.5t14.5 -174.5q-131 0 -397 -12q0 3 2 112t2 154v815q0 71 -8 197t-13 172q199 0 399 12q0 -3 -4 -112t-4 -154zM403 1591h-170l105 336h313v-22z" />
    <glyph glyph-name="Icircumflex" unicode="&#xce;" horiz-adv-x="679" 
d="M524 1184v-815q0 -70 8.5 -194.5t14.5 -174.5q-131 0 -397 -12q0 3 2 112t2 154v815q0 71 -8 197t-13 172q199 0 399 12q0 -3 -4 -112t-4 -154zM23 1591l202 336h232l202 -336h-182l-137 152l-135 -152h-182z" />
    <glyph glyph-name="Idieresis" unicode="&#xcf;" horiz-adv-x="679" 
d="M524 1184v-815q0 -70 8.5 -194.5t14.5 -174.5q-131 0 -397 -12q0 3 2 112t2 154v815q0 71 -8 197t-13 172q199 0 399 12q0 -3 -4 -112t-4 -154zM393 1755q0 62 45 105t111 43t112 -43t46 -105q0 -63 -46 -107t-112 -44t-111 44t-45 107zM-16 1755q0 62 45.5 105t111.5 43
t111 -43t45 -105q0 -63 -45 -107t-111 -44t-111.5 44t-45.5 107z" />
    <glyph glyph-name="Eth" unicode="&#xd0;" horiz-adv-x="1464" 
d="M27 807q20 0 62.5 -1t64.5 -1v254q0 71 -8 202.5t-13 176.5h572q201 0 359 -91t243.5 -246.5t85.5 -346.5q0 -159 -51 -298t-142 -239.5t-222.5 -158.5t-285.5 -58h-545q1 47 4 131t3 113v346q-41 -2 -125 -2q4 158 -2 219zM524 594v-287h183q145 0 223 106.5t78 317.5
q0 200 -93.5 296.5t-261.5 96.5h-129v-319q166 0 248 2q0 -7 -3 -65.5t-2.5 -73.5t3.5 -76q-84 2 -246 2z" />
    <glyph glyph-name="Ntilde" unicode="&#xd1;" horiz-adv-x="1607" 
d="M154 254v815q0 71 -8 197t-13 172q88 0 231 6t166 6l578 -934l-18 555q-2 34 -6.5 124t-8 156t-6.5 89q91 0 242.5 5t156.5 5q0 -15 -3 -118t-3 -146v-815q0 -80 4.5 -208t8.5 -163l-437 -12q-59 118 -145.5 263.5t-208 337t-160.5 255.5v-475q0 -70 8.5 -194.5
t14.5 -174.5q-80 0 -232 -4l-168 -8q7 252 7 266zM428 1694q74 223 248 223q44 0 84.5 -16.5t66 -37t57.5 -37t62 -16.5q32 0 59 16t60 68q55 -39 119 -63q-29 -71 -63.5 -118t-70.5 -67.5t-63.5 -27t-60.5 -6.5q-44 0 -85.5 16.5t-68 36.5t-59.5 36.5t-62 16.5
q-62 0 -108 -82q-39 25 -58 35t-57 23z" />
    <glyph glyph-name="Ograve" unicode="&#xd2;" horiz-adv-x="1509" 
d="M1438 723q0 -172 -53 -312t-145.5 -232t-217.5 -141.5t-270 -49.5q-147 0 -269 44t-215 130.5t-144.5 227t-51.5 323.5q0 172 53 312.5t145.5 232.5t217.5 142t270 50q117 0 218.5 -27t187 -84.5t146 -142t94.5 -205.5t34 -268zM1061 713q0 191 -84 314.5t-221 123.5
t-216 -120.5t-79 -307.5q0 -192 80 -315t217 -123t220 121.5t83 306.5zM401 1905v22h314l104 -336h-170z" />
    <glyph glyph-name="Oacute" unicode="&#xd3;" horiz-adv-x="1509" 
d="M1438 725q0 -172 -53 -312t-145.5 -232t-217.5 -141.5t-270 -49.5q-147 0 -269 44t-215 130.5t-144.5 227t-51.5 323.5q0 172 53 312.5t145.5 232.5t217.5 142t270 50q117 0 218.5 -27t187 -84.5t146 -142t94.5 -205.5t34 -268zM1061 715q0 191 -84 314.5t-221 123.5
t-216 -120.5t-79 -307.5q0 -192 80 -315t217 -123t220 121.5t83 306.5zM780 1591h-170l105 336h313v-22z" />
    <glyph glyph-name="Ocircumflex" unicode="&#xd4;" horiz-adv-x="1509" 
d="M1438 723q0 -172 -53 -312t-145.5 -232t-217.5 -141.5t-270 -49.5q-147 0 -269 44t-215 130.5t-144.5 227t-51.5 323.5q0 172 53 312.5t145.5 232.5t217.5 142t270 50q117 0 218.5 -27t187 -84.5t146 -142t94.5 -205.5t34 -268zM1061 713q0 191 -84 314.5t-221 123.5
t-216 -120.5t-79 -307.5q0 -192 80 -315t217 -123t220 121.5t83 306.5zM416 1591l202 336h232l203 -336h-183l-137 152l-135 -152h-182z" />
    <glyph glyph-name="Otilde" unicode="&#xd5;" horiz-adv-x="1509" 
d="M1438 723q0 -172 -53 -312t-145.5 -232t-217.5 -141.5t-270 -49.5q-147 0 -269 44t-215 130.5t-144.5 227t-51.5 323.5q0 172 53 312.5t145.5 232.5t217.5 142t270 50q117 0 218.5 -27t187 -84.5t146 -142t94.5 -205.5t34 -268zM1061 713q0 191 -84 314.5t-221 123.5
t-216 -120.5t-79 -307.5q0 -192 80 -315t217 -123t220 121.5t83 306.5zM342 1694q74 223 248 223q44 0 84.5 -16.5t66 -37t57.5 -37t62 -16.5q32 0 59 16t60 68q55 -39 119 -63q-29 -71 -63.5 -118t-70.5 -67.5t-63.5 -27t-60.5 -6.5q-44 0 -85.5 16.5t-68 36.5t-59.5 36.5
t-62 16.5q-62 0 -108 -82q-39 25 -58 35t-57 23z" />
    <glyph glyph-name="Odieresis" unicode="&#xd6;" horiz-adv-x="1509" 
d="M1438 723q0 -172 -53 -312t-145.5 -232t-217.5 -141.5t-270 -49.5q-147 0 -269 44t-215 130.5t-144.5 227t-51.5 323.5q0 172 53 312.5t145.5 232.5t217.5 142t270 50q117 0 218.5 -27t187 -84.5t146 -142t94.5 -205.5t34 -268zM1061 713q0 191 -84 314.5t-221 123.5
t-216 -120.5t-79 -307.5q0 -192 80 -315t217 -123t220 121.5t83 306.5zM811 1755q0 62 45 105t111 43t111.5 -43t45.5 -105q0 -63 -45.5 -107t-111.5 -44t-111 44t-45 107zM401 1755q0 62 46 105t112 43t111 -43t45 -105q0 -63 -45 -107t-111 -44t-112 44t-46 107z" />
    <glyph glyph-name="multiply" unicode="&#xd7;" horiz-adv-x="1245" 
d="M805 725l256 -254l-201 -199l-254 254l-237 -237l-176 176l237 237l-246 246l199 201l246 -248l225 225l176 -176z" />
    <glyph glyph-name="Oslash" unicode="&#xd8;" horiz-adv-x="1509" 
d="M336 0h-277l166 207q-153 186 -153 506q0 172 53 312.5t145.5 232.5t217.5 142t270 50q221 0 383 -98l88 110h274l-203 -254q138 -192 138 -485q0 -172 -53 -312t-145.5 -232t-217.5 -141.5t-270 -49.5q-212 0 -359 84zM485 532l441 553q-76 66 -170 66
q-137 0 -216 -120.5t-79 -307.5q0 -105 24 -191zM758 285q137 0 220 121.5t83 306.5q0 63 -21 170l-436 -547q66 -51 154 -51z" />
    <glyph glyph-name="Ugrave" unicode="&#xd9;" horiz-adv-x="1456" 
d="M133 565v873q161 -2 371 12v-832q0 -156 60 -233.5t167 -77.5q102 0 161.5 76.5t59.5 224.5v830q176 -3 371 12v-850q0 -162 -44.5 -281.5t-126.5 -191t-189.5 -105.5t-241.5 -34q-588 0 -588 577zM401 1905v22h314l104 -336h-170z" />
    <glyph glyph-name="Uacute" unicode="&#xda;" horiz-adv-x="1456" 
d="M133 565v873q161 -2 371 12v-832q0 -156 60 -233.5t167 -77.5q102 0 161.5 76.5t59.5 224.5v830q176 -3 371 12v-850q0 -162 -44.5 -281.5t-126.5 -191t-189.5 -105.5t-241.5 -34q-588 0 -588 577zM782 1591h-170l105 336h313v-22z" />
    <glyph glyph-name="Ucircumflex" unicode="&#xdb;" horiz-adv-x="1456" 
d="M133 565v873q161 -2 371 12v-832q0 -156 60 -233.5t167 -77.5q102 0 161.5 76.5t59.5 224.5v830q176 -3 371 12v-850q0 -162 -44.5 -281.5t-126.5 -191t-189.5 -105.5t-241.5 -34q-588 0 -588 577zM416 1591l202 336h232l203 -336h-183l-137 152l-135 -152h-182z" />
    <glyph glyph-name="Udieresis" unicode="&#xdc;" horiz-adv-x="1456" 
d="M133 565v873q161 -2 371 12v-832q0 -156 60 -233.5t167 -77.5q102 0 161.5 76.5t59.5 224.5v830q176 -3 371 12v-850q0 -162 -44.5 -281.5t-126.5 -191t-189.5 -105.5t-241.5 -34q-588 0 -588 577zM770 1755q0 62 45 105t111 43t111.5 -43t45.5 -105q0 -63 -45.5 -107
t-111.5 -44t-111 44t-45 107zM360 1755q0 62 46 105t112 43t111 -43t45 -105q0 -63 -45 -107t-111 -44t-112 44t-46 107z" />
    <glyph glyph-name="Yacute" unicode="&#xdd;" horiz-adv-x="1421" 
d="M557 -4v453l-549 974v15q305 4 453 12l252 -541q32 -76 41 -116q10 40 17.5 67t10.5 36.5t4 12.5l195 529q223 -3 432 12v-12l-465 -992v-448q-128 2 -391 -2zM780 1591h-170l105 336h313v-22z" />
    <glyph glyph-name="Thorn" unicode="&#xde;" horiz-adv-x="1343" 
d="M772 301h-225q14 -278 18 -301q-77 0 -237 -4l-181 -8q0 16 3.5 118.5t3.5 147.5v815q0 71 -8 197t-13 172q90 0 244.5 5t171.5 5q-6 -177 -6 -250q43 0 100 0.5t97 1t42 0.5q118 0 211.5 -25t167 -79t113 -146.5t39.5 -218.5q0 -85 -26 -154.5t-70.5 -115t-98.5 -78
t-117.5 -50t-119 -25t-109.5 -7.5zM543 877v-289h207q82 0 126 32.5t44 112.5q0 69 -49.5 106.5t-137.5 37.5h-190z" />
    <glyph glyph-name="germandbls" unicode="&#xdf;" horiz-adv-x="1415" 
d="M557 113q54 105 70 215q31 -27 120.5 -54.5t170.5 -27.5q149 0 149 98q0 31 -28 51.5t-97 44.5q-205 72 -289 136.5t-84 150.5q0 65 28.5 112t86.5 105q87 83 133 137q35 44 35 82q0 66 -46.5 104t-113.5 38q-111 0 -163 -72t-52 -193v-800q0 -36 8 -240q-230 0 -385 -12
q1 17 2 61t2 66q2 55 2 139v848q0 109 47 201t124 152t174 93t198 33q257 0 400 -100.5t143 -274.5q0 -55 -16 -105t-42 -86.5t-57 -68.5t-62.5 -56.5t-57.5 -45t-42 -40t-16 -36.5q0 -26 35 -44.5t121 -37.5q309 -64 309 -352q0 -56 -22.5 -113t-69.5 -111t-133 -88
t-199 -34q-104 0 -205.5 32t-177.5 93z" />
    <glyph glyph-name="agrave" unicode="&#xe0;" horiz-adv-x="1120" 
d="M236 1569v22h313l104 -336h-170zM61 270q0 42 13.5 83t52.5 89.5t100 88t166.5 73t241.5 49.5v47q0 57 -17 113q-15 51 -94 51q-57 0 -84 -43.5t-14 -97.5q-11 -1 -82 -5t-134.5 -11.5t-103.5 -20.5q-4 46 -4 66q0 72 17 129.5t43 95t66 65t77 41.5t85 22.5t82 10.5t75 2
q62 0 120 -10t119.5 -37.5t106 -70.5t73.5 -116t29 -167v-328q0 -80 20 -115.5t68 -35.5h17q-7 -60 8 -150q-34 -48 -92.5 -74t-122.5 -26q-69 0 -137 24q-67 27 -101 121q-49 -63 -126 -104t-171 -41q-137 0 -217 74.5t-80 207.5zM635 276v205q-51 -6 -99.5 -20.5t-89 -46
t-40.5 -72.5q0 -48 31.5 -70t80.5 -22q60 0 117 26z" />
    <glyph glyph-name="aacute" unicode="&#xe1;" horiz-adv-x="1120" 
d="M61 270q0 42 13.5 83t52.5 89.5t100 88t166.5 73t241.5 49.5v47q0 57 -17 113q-15 51 -94 51q-57 0 -84 -43.5t-14 -97.5q-11 -1 -82 -5t-134.5 -11.5t-103.5 -20.5q-4 46 -4 66q0 72 17 129.5t43 95t66 65t77 41.5t85 22.5t82 10.5t75 2q62 0 120 -10t119.5 -37.5
t106 -70.5t73.5 -116t29 -167v-328q0 -80 20 -115.5t68 -35.5h17q-7 -60 8 -150q-34 -48 -92.5 -74t-122.5 -26q-69 0 -137 24q-67 27 -101 121q-49 -63 -126 -104t-171 -41q-137 0 -217 74.5t-80 207.5zM635 276v205q-51 -6 -99.5 -20.5t-89 -46t-40.5 -72.5
q0 -48 31.5 -70t80.5 -22q60 0 117 26zM598 1255h-170l104 336h314v-22z" />
    <glyph glyph-name="acircumflex" unicode="&#xe2;" horiz-adv-x="1120" 
d="M61 270q0 42 13.5 83t52.5 89.5t100 88t166.5 73t241.5 49.5v47q0 57 -17 113q-15 51 -94 51q-57 0 -84 -43.5t-14 -97.5q-11 -1 -82 -5t-134.5 -11.5t-103.5 -20.5q-4 46 -4 66q0 72 17 129.5t43 95t66 65t77 41.5t85 22.5t82 10.5t75 2q62 0 120 -10t119.5 -37.5
t106 -70.5t73.5 -116t29 -167v-328q0 -80 20 -115.5t68 -35.5h17q-7 -60 8 -150q-34 -48 -92.5 -74t-122.5 -26q-69 0 -137 24q-67 27 -101 121q-49 -63 -126 -104t-171 -41q-137 0 -217 74.5t-80 207.5zM635 276v205q-51 -6 -99.5 -20.5t-89 -46t-40.5 -72.5
q0 -48 31.5 -70t80.5 -22q60 0 117 26zM236 1255l202 336h232l202 -336h-182l-137 152l-135 -152h-182z" />
    <glyph glyph-name="atilde" unicode="&#xe3;" horiz-adv-x="1120" 
d="M61 270q0 42 13.5 83t52.5 89.5t100 88t166.5 73t241.5 49.5v47q0 57 -17 113q-15 51 -94 51q-57 0 -84 -43.5t-14 -97.5q-11 -1 -82 -5t-134.5 -11.5t-103.5 -20.5q-4 46 -4 66q0 72 17 129.5t43 95t66 65t77 41.5t85 22.5t82 10.5t75 2q62 0 120 -10t119.5 -37.5
t106 -70.5t73.5 -116t29 -167v-328q0 -80 20 -115.5t68 -35.5h17q-7 -60 8 -150q-34 -48 -92.5 -74t-122.5 -26q-69 0 -137 24q-67 27 -101 121q-49 -63 -126 -104t-171 -41q-137 0 -217 74.5t-80 207.5zM635 276v205q-51 -6 -99.5 -20.5t-89 -46t-40.5 -72.5
q0 -48 31.5 -70t80.5 -22q60 0 117 26zM156 1337q74 224 247 224q44 0 85 -16.5t66.5 -37t57.5 -37t62 -16.5q32 0 59 16t60 68q56 -40 118 -63q-29 -71 -63.5 -118.5t-70.5 -67.5t-63.5 -27t-60.5 -7q-44 0 -85.5 16.5t-68 37t-59 37t-61.5 16.5q-63 0 -109 -82
q-57 37 -114 57z" />
    <glyph glyph-name="adieresis" unicode="&#xe4;" horiz-adv-x="1120" 
d="M61 270q0 42 13.5 83t52.5 89.5t100 88t166.5 73t241.5 49.5v47q0 57 -17 113q-15 51 -94 51q-57 0 -84 -43.5t-14 -97.5q-11 -1 -82 -5t-134.5 -11.5t-103.5 -20.5q-4 46 -4 66q0 72 17 129.5t43 95t66 65t77 41.5t85 22.5t82 10.5t75 2q62 0 120 -10t119.5 -37.5
t106 -70.5t73.5 -116t29 -167v-328q0 -80 20 -115.5t68 -35.5h17q-7 -60 8 -150q-34 -48 -92.5 -74t-122.5 -26q-69 0 -137 24q-67 27 -101 121q-49 -63 -126 -104t-171 -41q-137 0 -217 74.5t-80 207.5zM635 276v205q-51 -6 -99.5 -20.5t-89 -46t-40.5 -72.5
q0 -48 31.5 -70t80.5 -22q60 0 117 26zM602 1399q0 62 45 104.5t111 42.5t111.5 -42.5t45.5 -104.5q0 -63 -45.5 -107.5t-111.5 -44.5t-111 44.5t-45 107.5zM193 1399q0 62 45.5 104.5t111.5 42.5t111 -42.5t45 -104.5q0 -63 -45 -107.5t-111 -44.5t-111.5 44.5t-45.5 107.5
z" />
    <glyph glyph-name="aring" unicode="&#xe5;" horiz-adv-x="1120" 
d="M61 270q0 42 13.5 83t52.5 89.5t100 88t166.5 73t241.5 49.5v47q0 57 -17 113q-15 51 -94 51q-57 0 -84 -43.5t-14 -97.5q-11 -1 -82 -5t-134.5 -11.5t-103.5 -20.5q-4 46 -4 66q0 72 17 129.5t43 95t66 65t77 41.5t85 22.5t82 10.5t75 2q62 0 120 -10t119.5 -37.5
t106 -70.5t73.5 -116t29 -167v-328q0 -80 20 -115.5t68 -35.5h17q-7 -60 8 -150q-34 -48 -92.5 -74t-122.5 -26q-69 0 -137 24q-67 27 -101 121q-49 -63 -126 -104t-171 -41q-137 0 -217 74.5t-80 207.5zM635 276v205q-51 -6 -99.5 -20.5t-89 -46t-40.5 -72.5
q0 -48 31.5 -70t80.5 -22q60 0 117 26zM532 1583q87 0 141 -52.5t54 -133.5t-54 -134t-141 -53q-86 0 -139 53t-53 134t53 133.5t139 52.5zM532 1323q30 0 48 22.5t18 51.5t-18 51t-48 22t-47.5 -22t-17.5 -51t17.5 -51.5t47.5 -22.5z" />
    <glyph glyph-name="ae" unicode="&#xe6;" horiz-adv-x="1718" 
d="M61 270q0 42 13.5 83t52.5 89.5t100 88t166.5 73t241.5 49.5v47q0 57 -17 113q-15 51 -94 51q-57 0 -84 -43.5t-14 -97.5q-11 -1 -82 -5t-134.5 -11.5t-103.5 -20.5q-4 46 -4 66q0 368 465 368q190 0 301 -90q129 90 303 90q220 0 355 -123q137 -122 137 -333
q0 -96 -18 -195h-644q1 -10 5.5 -26.5t5.5 -22.5q23 -86 77 -122t150 -36q134 0 293 86l53 -98q38 -65 55 -84q-91 -88 -210.5 -133t-245.5 -45q-151 0 -258.5 48.5t-194.5 153.5q-55 -92 -158 -147t-215 -55q-137 0 -217 74.5t-80 207.5zM997 672h349q0 19 -2.5 39t-12 49
t-25 51t-45.5 37.5t-69 15.5q-99 0 -143 -59q-43 -63 -52 -133zM674 301q-27 69 -35 135l-6 45q-38 -4 -73.5 -13t-72 -24t-59 -40.5t-22.5 -57.5q0 -96 112 -96q89 0 156 51z" />
    <glyph glyph-name="ccedilla" unicode="&#xe7;" horiz-adv-x="1105" 
d="M631 -100q100 0 156.5 -52t56.5 -124q0 -77 -68 -142q-64 -67 -194 -67q-60 0 -119 17.5t-92 43.5q24 46 28 123q19 -13 65.5 -25t86.5 -12q49 0 80 19.5t31 60.5q0 61 -140 61q-20 0 -55.5 -4t-36.5 -4l-10 29l63 172q-196 33 -312 177.5t-116 381.5q0 111 35.5 211
t102 179t171 126t232.5 47q50 0 98 -6.5t98.5 -21.5t92.5 -42t75.5 -64t52.5 -92t19 -122q0 -14 -4 -68q-208 0 -315 -28q4 28 4 59q0 47 -21 88q-18 43 -106 43q-60 0 -100 -40.5t-56 -100.5t-16 -135q0 -40 1 -66.5t6.5 -64t15 -62.5t27.5 -52t43.5 -43.5t64.5 -27
t88 -10.5q149 0 292 86q6 -15 52 -92q32 -54 57 -90q-91 -88 -211.5 -134t-247.5 -46l-12 -88q5 0 18.5 1t18.5 1z" />
    <glyph glyph-name="egrave" unicode="&#xe8;" horiz-adv-x="1142" 
d="M55 555q0 110 37 211t104 179.5t171 125.5t229 47q219 0 354 -123q137 -119 137 -331q0 -96 -18 -195h-643q0 -3 1 -9t1 -9q27 -189 236 -189q133 0 292 86l54 -98q38 -65 55 -84q-91 -88 -211 -133t-246 -45q-122 0 -222.5 35.5t-174.5 104.5t-115 178t-41 249zM422 672
h348q0 19 -2.5 39t-12 49t-25 51t-45.5 37.5t-69 15.5q-99 0 -143 -59q-42 -61 -51 -133zM264 1569v22h314l104 -336h-170z" />
    <glyph glyph-name="eacute" unicode="&#xe9;" horiz-adv-x="1142" 
d="M55 555q0 110 37 211t104 179.5t171 125.5t229 47q219 0 354 -123q137 -119 137 -331q0 -96 -18 -195h-643q0 -3 1 -9t1 -9q27 -189 236 -189q133 0 292 86l54 -98q38 -65 55 -84q-91 -88 -211 -133t-246 -45q-122 0 -222.5 35.5t-174.5 104.5t-115 178t-41 249zM422 672
h348q0 19 -2.5 39t-12 49t-25 51t-45.5 37.5t-69 15.5q-99 0 -143 -59q-42 -61 -51 -133zM639 1255h-170l104 336h314v-22z" />
    <glyph glyph-name="ecircumflex" unicode="&#xea;" horiz-adv-x="1142" 
d="M55 555q0 110 37 211t104 179.5t171 125.5t229 47q219 0 354 -123q137 -119 137 -331q0 -96 -18 -195h-643q0 -3 1 -9t1 -9q27 -189 236 -189q133 0 292 86l54 -98q38 -65 55 -84q-91 -88 -211 -133t-246 -45q-122 0 -222.5 35.5t-174.5 104.5t-115 178t-41 249zM422 672
h348q0 19 -2.5 39t-12 49t-25 51t-45.5 37.5t-69 15.5q-99 0 -143 -59q-42 -61 -51 -133zM276 1255l203 336h232l202 -336h-182l-137 152l-135 -152h-183z" />
    <glyph glyph-name="edieresis" unicode="&#xeb;" horiz-adv-x="1142" 
d="M55 555q0 110 37 211t104 179.5t171 125.5t229 47q219 0 354 -123q137 -119 137 -331q0 -96 -18 -195h-643q0 -3 1 -9t1 -9q27 -189 236 -189q133 0 292 86l54 -98q38 -65 55 -84q-91 -88 -211 -133t-246 -45q-122 0 -222.5 35.5t-174.5 104.5t-115 178t-41 249zM422 672
h348q0 19 -2.5 39t-12 49t-25 51t-45.5 37.5t-69 15.5q-99 0 -143 -59q-42 -61 -51 -133zM643 1399q0 62 45 104.5t111 42.5t111.5 -42.5t45.5 -104.5q0 -63 -45.5 -107.5t-111.5 -44.5t-111 44.5t-45 107.5zM233 1399q0 61 46 104t112 43t111 -42.5t45 -104.5
q0 -63 -45 -107.5t-111 -44.5t-112 44.5t-46 107.5z" />
    <glyph glyph-name="igrave" unicode="&#xec;" horiz-adv-x="600" 
d="M-8 1569v22h313l105 -336h-170zM115 254v414q0 160 -21 381q61 0 160.5 16.5t175.5 40.5h55v-860q0 -156 11 -246q-218 0 -387 -12q0 22 3 126.5t3 139.5z" />
    <glyph glyph-name="iacute" unicode="&#xed;" horiz-adv-x="600" 
d="M340 1255h-170l104 336h314v-22zM115 254v414q0 160 -21 381q61 0 160.5 16.5t175.5 40.5h55v-860q0 -156 11 -246q-218 0 -387 -12q0 22 3 126.5t3 139.5z" />
    <glyph glyph-name="icircumflex" unicode="&#xee;" horiz-adv-x="600" 
d="M115 254v414q0 160 -21 381q61 0 160.5 16.5t175.5 40.5h55v-860q0 -156 11 -246q-218 0 -387 -12q0 22 3 126.5t3 139.5zM-18 1255l202 336h232l202 -336h-182l-137 152l-135 -152h-182z" />
    <glyph glyph-name="idieresis" unicode="&#xef;" horiz-adv-x="600" 
d="M348 1399q0 62 45 104.5t111 42.5t112 -43t46 -104q0 -63 -46 -107.5t-112 -44.5t-111 44.5t-45 107.5zM-61 1399q0 62 45.5 104.5t111.5 42.5t111 -42.5t45 -104.5q0 -63 -45 -107.5t-111 -44.5t-111.5 44.5t-45.5 107.5zM115 254v414q0 160 -21 381q61 0 160.5 16.5
t175.5 40.5h55v-860q0 -156 11 -246q-218 0 -387 -12q0 22 3 126.5t3 139.5z" />
    <glyph glyph-name="eth" unicode="&#xf0;" horiz-adv-x="1193" 
d="M291 1110l-101 121l134 104q-73 8 -162 8q-35 0 -62 -2q19 153 0 248q10 0 52.5 3t60.5 3q193 0 371 -57l139 109l96 -123l-76 -60q192 -118 291 -339t99 -527q0 -121 -35 -229.5t-100 -194t-169 -136t-233 -50.5q-103 0 -191.5 31t-152 85t-108.5 126.5t-67 155
t-22 169.5q0 88 21.5 170t66 154.5t107.5 126.5t152 85t194 31q115 0 164 -24q-64 131 -238 192zM770 563q0 51 -8 98.5t-26 95t-54.5 76.5t-87.5 29t-87.5 -29t-54.5 -76.5t-26 -95t-8 -98.5t8 -98.5t26 -94.5t54 -75.5t86 -28.5t87 28.5t55.5 75.5t27 95t8.5 98z" />
    <glyph glyph-name="ntilde" unicode="&#xf1;" horiz-adv-x="1288" 
d="M121 254v414q0 57 -2 116.5t-5.5 104.5t-6.5 81t-5 57t-2 22q108 0 334 57h55v-168q74 87 167.5 133.5t197.5 46.5q47 0 91.5 -9.5t88 -33t75.5 -58t51.5 -89t19.5 -121.5v-627q0 -45 7 -109.5t7 -70.5q-230 0 -385 -12q0 1 1 52t2 115.5t1 98.5v444q-3 113 -127 113
q-49 0 -104 -16.5t-93 -42.5v-506q0 -156 11 -246q-216 0 -385 -12q0 1 0.5 21.5t1.5 52t2 66t1.5 69.5t0.5 57zM240 1337q74 224 247 224q44 0 85 -16.5t66.5 -37t57.5 -37t62 -16.5q32 0 59 16t60 68q56 -40 118 -63q-29 -71 -63.5 -118.5t-70.5 -67.5t-63.5 -27t-60.5 -7
q-44 0 -85.5 16.5t-68 37t-59 37t-61.5 16.5q-63 0 -109 -82q-57 37 -114 57z" />
    <glyph glyph-name="ograve" unicode="&#xf2;" 
d="M1137 557q0 -110 -37 -212t-104 -181.5t-171 -127.5t-229 -48q-115 0 -207.5 31.5t-154 84.5t-102.5 126.5t-59 154t-18 170.5q0 110 37 211t104 179.5t171 125.5t229 47q115 0 207.5 -31t154 -83t102.5 -124.5t59 -152.5t18 -170zM770 563q0 61 -7 108.5t-24.5 93.5
t-54 71.5t-90.5 25.5t-90.5 -25.5t-54 -71.5t-24.5 -93.5t-7 -108.5q0 -299 174 -299q81 0 129.5 71t48.5 228zM287 1569v22h313l105 -336h-170z" />
    <glyph glyph-name="oacute" unicode="&#xf3;" 
d="M639 1255h-170l104 336h314v-22zM1137 557q0 -110 -37 -212t-104 -181.5t-171 -127.5t-229 -48q-115 0 -207.5 31.5t-154 84.5t-102.5 126.5t-59 154t-18 170.5q0 110 37 211t104 179.5t171 125.5t229 47q115 0 207.5 -31t154 -83t102.5 -124.5t59 -152.5t18 -170z
M770 563q0 61 -7 108.5t-24.5 93.5t-54 71.5t-90.5 25.5t-90.5 -25.5t-54 -71.5t-24.5 -93.5t-7 -108.5q0 -299 174 -299q81 0 129.5 71t48.5 228z" />
    <glyph glyph-name="ocircumflex" unicode="&#xf4;" 
d="M1137 557q0 -110 -37 -212t-104 -181.5t-171 -127.5t-229 -48q-115 0 -207.5 31.5t-154 84.5t-102.5 126.5t-59 154t-18 170.5q0 110 37 211t104 179.5t171 125.5t229 47q115 0 207.5 -31t154 -83t102.5 -124.5t59 -152.5t18 -170zM770 563q0 61 -7 108.5t-24.5 93.5
t-54 71.5t-90.5 25.5t-90.5 -25.5t-54 -71.5t-24.5 -93.5t-7 -108.5q0 -299 174 -299q81 0 129.5 71t48.5 228zM276 1255l203 336h232l202 -336h-182l-137 152l-135 -152h-183z" />
    <glyph glyph-name="otilde" unicode="&#xf5;" 
d="M1137 557q0 -110 -37 -212t-104 -181.5t-171 -127.5t-229 -48q-115 0 -207.5 31.5t-154 84.5t-102.5 126.5t-59 154t-18 170.5q0 110 37 211t104 179.5t171 125.5t229 47q115 0 207.5 -31t154 -83t102.5 -124.5t59 -152.5t18 -170zM770 563q0 61 -7 108.5t-24.5 93.5
t-54 71.5t-90.5 25.5t-90.5 -25.5t-54 -71.5t-24.5 -93.5t-7 -108.5q0 -299 174 -299q81 0 129.5 71t48.5 228zM219 1337q74 224 248 224q44 0 84.5 -16.5t66 -37t57.5 -37t62 -16.5q32 0 59 16t60 68q55 -39 119 -63q-29 -71 -63.5 -118.5t-70.5 -67.5t-63.5 -27t-60.5 -7
q-44 0 -85.5 16.5t-68 37t-59.5 37t-62 16.5q-62 0 -108 -82q-38 24 -57 33.5t-58 23.5z" />
    <glyph glyph-name="odieresis" unicode="&#xf6;" 
d="M1137 557q0 -110 -37 -212t-104 -181.5t-171 -127.5t-229 -48q-115 0 -207.5 31.5t-154 84.5t-102.5 126.5t-59 154t-18 170.5q0 110 37 211t104 179.5t171 125.5t229 47q115 0 207.5 -31t154 -83t102.5 -124.5t59 -152.5t18 -170zM770 563q0 61 -7 108.5t-24.5 93.5
t-54 71.5t-90.5 25.5t-90.5 -25.5t-54 -71.5t-24.5 -93.5t-7 -108.5q0 -299 174 -299q81 0 129.5 71t48.5 228zM643 1399q0 62 45 104.5t111 42.5t111.5 -42.5t45.5 -104.5q0 -63 -45.5 -107.5t-111.5 -44.5t-111 44.5t-45 107.5zM233 1399q0 61 46 104t112 43t111 -42.5
t45 -104.5q0 -63 -45 -107.5t-111 -44.5t-112 44.5t-46 107.5z" />
    <glyph glyph-name="divide" unicode="&#xf7;" horiz-adv-x="1304" 
d="M461 1135q0 78 57 127t139 49q78 0 136.5 -49.5t58.5 -126.5t-59 -130t-136 -53q-81 0 -138.5 52.5t-57.5 130.5zM184 584v250h936v-250h-936zM657 113q-81 0 -138.5 52t-57.5 130t57 127t139 49q78 0 136.5 -49.5t58.5 -126.5t-59 -129.5t-136 -52.5z" />
    <glyph glyph-name="oslash" unicode="&#xf8;" 
d="M1137 557q0 -110 -37 -212t-104 -181.5t-171 -127.5t-229 -48q-204 0 -340 98l-74 -86q-124 8 -264 0l205 248q-68 130 -68 307q0 110 37 211t104 179.5t171 125.5t229 47q121 0 217 -35l84 105q132 -11 264 0l-174 -213q75 -77 112.5 -186.5t37.5 -231.5zM770 563
q0 61 -7 108.5t-24.5 93.5t-54 71.5t-90.5 25.5t-90.5 -25.5t-54 -71.5t-24.5 -93.5t-7 -108.5q0 -299 174 -299q81 0 129.5 71t48.5 228z" />
    <glyph glyph-name="ugrave" unicode="&#xf9;" horiz-adv-x="1284" 
d="M115 322q0 87 1 205t1 151q0 159 -23 420q123 0 336 20h55v-688q0 -63 35.5 -98t89.5 -35q42 0 93 20t92 48v303q0 192 -21 430q116 0 334 20h55v-796q0 -200 33 -322q-214 0 -383 -12q-8 74 -16 190q-76 -87 -168 -138.5t-187 -51.5q-57 0 -113.5 20t-105 59
t-78.5 105.5t-30 149.5zM326 1569v22h313l104 -336h-170z" />
    <glyph glyph-name="uacute" unicode="&#xfa;" horiz-adv-x="1284" 
d="M115 322q0 87 1 205t1 151q0 159 -23 420q123 0 336 20h55v-688q0 -63 35.5 -98t89.5 -35q42 0 93 20t92 48v303q0 192 -21 430q116 0 334 20h55v-796q0 -200 33 -322q-214 0 -383 -12q-8 74 -16 190q-76 -87 -168 -138.5t-187 -51.5q-57 0 -113.5 20t-105 59
t-78.5 105.5t-30 149.5zM700 1255h-170l105 336h313v-22z" />
    <glyph glyph-name="ucircumflex" unicode="&#xfb;" horiz-adv-x="1284" 
d="M115 322q0 87 1 205t1 151q0 159 -23 420q123 0 336 20h55v-688q0 -63 35.5 -98t89.5 -35q42 0 93 20t92 48v303q0 192 -21 430q116 0 334 20h55v-796q0 -200 33 -322q-214 0 -383 -12q-8 74 -16 190q-76 -87 -168 -138.5t-187 -51.5q-57 0 -113.5 20t-105 59
t-78.5 105.5t-30 149.5zM313 1255l203 336h232l202 -336h-182l-137 152l-135 -152h-183z" />
    <glyph glyph-name="udieresis" unicode="&#xfc;" horiz-adv-x="1284" 
d="M115 322q0 87 1 205t1 151q0 159 -23 420q123 0 336 20h55v-688q0 -63 35.5 -98t89.5 -35q42 0 93 20t92 48v303q0 192 -21 430q116 0 334 20h55v-796q0 -200 33 -322q-214 0 -383 -12q-8 74 -16 190q-76 -87 -168 -138.5t-187 -51.5q-57 0 -113.5 20t-105 59
t-78.5 105.5t-30 149.5zM664 1399q0 62 44.5 104.5t110.5 42.5t112 -43t46 -104q0 -63 -46 -107.5t-112 -44.5t-110.5 44.5t-44.5 107.5zM254 1399q0 61 46 104t112 43t110.5 -42.5t44.5 -104.5q0 -63 -44.5 -107.5t-110.5 -44.5t-112 44.5t-46 107.5z" />
    <glyph glyph-name="yacute" unicode="&#xfd;" horiz-adv-x="1183" 
d="M391 1106l223 -787h9l194 787q21 -1 60 -2.5t70 -2.5t57 -1q3 0 180 6l-78 -232q-82 -241 -115 -344q-32 -99 -112 -337q-42 -124 -66 -209q-127 -426 -481 -426q-144 0 -281 88q75 116 107 248q81 -48 155 -48q58 0 94 32.5t48 121.5l-455 1106q23 -1 64.5 -2.5
t75.5 -2.5t63 -1q11 0 188 6zM659 1255h-170l105 336h313v-22z" />
    <glyph glyph-name="thorn" unicode="&#xfe;" horiz-adv-x="1269" 
d="M598 215q90 0 162 90q69 90 69 230q0 142 -50 225.5t-150 83.5q-67 0 -144 -35v-496q0 -31 13.5 -52t34.5 -30t36.5 -12.5t28.5 -3.5zM109 -182q0 37 2 516t2 969q0 106 -13 208q90 0 336 50h49v-529q119 88 263 88q96 0 179.5 -35.5t146.5 -101.5t99.5 -167.5
t36.5 -225.5q0 -142 -42.5 -257t-117 -190t-174 -115t-214.5 -40q-92 0 -175 14q0 -153 2 -229q0 -103 3 -217q-205 0 -386 -13v76q3 53 3 199z" />
    <glyph glyph-name="ydieresis" unicode="&#xff;" horiz-adv-x="1183" 
d="M391 1106l223 -787h9l194 787q21 -1 60 -2.5t70 -2.5t57 -1q3 0 180 6l-78 -232q-82 -241 -115 -344q-32 -99 -112 -337q-42 -124 -66 -209q-127 -426 -481 -426q-144 0 -281 88q75 116 107 248q81 -48 155 -48q58 0 94 32.5t48 121.5l-455 1106q23 -1 64.5 -2.5
t75.5 -2.5t63 -1q11 0 188 6zM643 1399q0 62 45 104.5t111 42.5t111.5 -42.5t45.5 -104.5q0 -63 -45.5 -107.5t-111.5 -44.5t-111 44.5t-45 107.5zM233 1399q0 61 46 104t112 43t111 -42.5t45 -104.5q0 -63 -45 -107.5t-111 -44.5t-112 44.5t-46 107.5z" />
    <glyph glyph-name="Amacron" unicode="&#x100;" horiz-adv-x="1462" 
d="M1442 0q-216 -3 -422 -12q-51 174 -82 284q-84 2 -244 2q-143 0 -192 -2l-76 -272q-192 -3 -406 -12q102 282 249.5 725.5t236.5 726.5q152 -4 225 -4q75 0 227 4q49 -161 102 -326t90.5 -278.5t90.5 -267t74.5 -214.5t72 -201.5t54.5 -152.5zM860 561l-141 563
l-141 -563q35 2 106 2q37 0 98 -1t78 -1zM987 1860v-207h-538q0 1 1 27t1.5 54.5t0 65t-2.5 60.5h538z" />
    <glyph glyph-name="amacron" unicode="&#x101;" horiz-adv-x="1120" 
d="M61 270q0 42 13.5 83t52.5 89.5t100 88t166.5 73t241.5 49.5v47q0 57 -17 113q-15 51 -94 51q-57 0 -84 -43.5t-14 -97.5q-11 -1 -82 -5t-134.5 -11.5t-103.5 -20.5q-4 46 -4 66q0 72 17 129.5t43 95t66 65t77 41.5t85 22.5t82 10.5t75 2q62 0 120 -10t119.5 -37.5
t106 -70.5t73.5 -116t29 -167v-328q0 -80 20 -115.5t68 -35.5h17q-7 -60 8 -150q-34 -48 -92.5 -74t-122.5 -26q-69 0 -137 24q-67 27 -101 121q-49 -63 -126 -104t-171 -41q-137 0 -217 74.5t-80 207.5zM635 276v205q-51 -6 -99.5 -20.5t-89 -46t-40.5 -72.5
q0 -48 31.5 -70t80.5 -22q60 0 117 26zM803 1503v-207h-539q0 1 1 27t1.5 54.5t0 65t-2.5 60.5h539z" />
    <glyph glyph-name="Abreve" unicode="&#x102;" horiz-adv-x="1462" 
d="M1442 0q-216 -3 -422 -12q-51 174 -82 284q-84 2 -244 2q-143 0 -192 -2l-76 -272q-192 -3 -406 -12q102 282 249.5 725.5t236.5 726.5q152 -4 225 -4q75 0 227 4q49 -161 102 -326t90.5 -278.5t90.5 -267t74.5 -214.5t72 -201.5t54.5 -152.5zM860 561l-141 563
l-141 -563q35 2 106 2q37 0 98 -1t78 -1zM416 1915q75 -14 147 0q7 -67 44.5 -97t111.5 -30q75 0 113 30t45 97q18 -6 67 -6q53 0 80 6q0 -156 -79 -240t-226 -84t-225 84t-78 240z" />
    <glyph glyph-name="abreve" unicode="&#x103;" horiz-adv-x="1120" 
d="M61 270q0 42 13.5 83t52.5 89.5t100 88t166.5 73t241.5 49.5v47q0 57 -17 113q-15 51 -94 51q-57 0 -84 -43.5t-14 -97.5q-11 -1 -82 -5t-134.5 -11.5t-103.5 -20.5q-4 46 -4 66q0 72 17 129.5t43 95t66 65t77 41.5t85 22.5t82 10.5t75 2q62 0 120 -10t119.5 -37.5
t106 -70.5t73.5 -116t29 -167v-328q0 -80 20 -115.5t68 -35.5h17q-7 -60 8 -150q-34 -48 -92.5 -74t-122.5 -26q-69 0 -137 24q-67 27 -101 121q-49 -63 -126 -104t-171 -41q-137 0 -217 74.5t-80 207.5zM635 276v205q-51 -6 -99.5 -20.5t-89 -46t-40.5 -72.5
q0 -48 31.5 -70t80.5 -22q60 0 117 26zM248 1559q75 -14 147 0q7 -67 44.5 -97t111.5 -30q75 0 113 30t45 97q21 -7 67 -7q48 0 80 7q0 -156 -79 -240t-226 -84t-225 84t-78 240z" />
    <glyph glyph-name="Aogonek" unicode="&#x104;" horiz-adv-x="1462" 
d="M1116 -311q34 0 78 20l39 -106q-96 -66 -213 -66q-96 0 -172 55q-78 54 -78 158q0 68 71 136.5t177 105.5q-27 100 -80 280q-275 3 -436 0l-76 -272q-192 -3 -406 -12q102 282 249.5 725.5t236.5 726.5q226 -3 452 0q49 -161 102 -326t90.5 -278.5t90.5 -267t74.5 -214.5
t72 -201.5t54.5 -152.5l-330 -8q-49 -44 -77.5 -97.5t-28.5 -101.5q0 -49 32 -76.5t78 -27.5zM860 561l-141 563l-141 -563h282z" />
    <glyph glyph-name="aogonek" unicode="&#x105;" horiz-adv-x="1120" 
d="M897 -442q-96 0 -172 55q-78 54 -78 158q0 60 54.5 120t140.5 99q-142 15 -187 143q-49 -63 -126 -104t-171 -41q-137 0 -217 74.5t-80 207.5q0 42 13.5 83t52.5 89.5t100 88t166.5 73t241.5 49.5v47q0 57 -17 113q-15 51 -94 51q-57 0 -84 -43.5t-14 -97.5
q-11 -1 -82 -5t-134.5 -11.5t-103.5 -20.5q-4 46 -4 66q0 72 17 129.5t43 95t66 65t77 41.5t85 22.5t82 10.5t75 2q62 0 120 -10t119.5 -37.5t106 -70.5t73.5 -116t29 -167v-328q0 -80 20 -115.5t68 -35.5h17q-7 -60 8 -150q-225 -135 -225 -274q0 -49 32.5 -77t77.5 -28
q31 0 78 21l39 -107q-95 -65 -213 -65zM635 276v205q-51 -6 -99.5 -20.5t-89 -46t-40.5 -72.5q0 -48 31.5 -70t80.5 -22q60 0 117 26z" />
    <glyph glyph-name="Cacute" unicode="&#x106;" horiz-adv-x="1304" 
d="M72 694q0 349 196.5 552.5t530.5 203.5q228 0 424 -94q-36 -78 -64 -154q-30 -79 -47 -158l-12 -4q-107 84 -273 84t-268 -105.5t-102 -297.5q0 -196 101 -305t280 -109q145 0 290 74q16 -93 35 -141q26 -64 60 -129q-81 -65 -205 -95q-131 -28 -236 -28
q-216 0 -373.5 76.5t-247 236.5t-89.5 393zM780 1591h-170l105 336h313v-22z" />
    <glyph glyph-name="cacute" unicode="&#x107;" horiz-adv-x="1105" 
d="M55 555q0 111 35.5 211t102 179t171 126t232.5 47q50 0 98 -6.5t98.5 -21.5t92.5 -42t75.5 -64t52.5 -92t19 -122q0 -14 -4 -68q-208 0 -315 -28q4 28 4 59q0 47 -21 88q-18 43 -106 43q-60 0 -100 -40.5t-56 -100.5t-16 -135q0 -40 1 -66.5t6.5 -64t15 -62.5t27.5 -52
t43.5 -43.5t64.5 -27t88 -10.5q149 0 292 86q6 -15 52 -92q32 -54 57 -90q-91 -88 -211.5 -134t-245.5 -46q-119 0 -219.5 36t-175 105.5t-116.5 179t-42 248.5zM639 1255h-170l104 336h314v-22z" />
    <glyph glyph-name="Ccircumflex" unicode="&#x108;" horiz-adv-x="1304" 
d="M72 694q0 349 196.5 552.5t530.5 203.5q228 0 424 -94q-36 -78 -64 -154q-30 -79 -47 -158l-12 -4q-107 84 -273 84t-268 -105.5t-102 -297.5q0 -196 101 -305t280 -109q145 0 290 74q16 -93 35 -141q26 -64 60 -129q-81 -65 -205 -95q-131 -28 -236 -28
q-216 0 -373.5 76.5t-247 236.5t-89.5 393zM373 1591l202 336h232l203 -336h-183l-137 152l-135 -152h-182z" />
    <glyph glyph-name="ccircumflex" unicode="&#x109;" horiz-adv-x="1105" 
d="M55 555q0 111 35.5 211t102 179t171 126t232.5 47q50 0 98 -6.5t98.5 -21.5t92.5 -42t75.5 -64t52.5 -92t19 -122q0 -14 -4 -68q-208 0 -315 -28q4 28 4 59q0 47 -21 88q-18 43 -106 43q-60 0 -100 -40.5t-56 -100.5t-16 -135q0 -40 1 -66.5t6.5 -64t15 -62.5t27.5 -52
t43.5 -43.5t64.5 -27t88 -10.5q149 0 292 86q6 -15 52 -92q32 -54 57 -90q-91 -88 -211.5 -134t-245.5 -46q-119 0 -219.5 36t-175 105.5t-116.5 179t-42 248.5zM276 1255l203 336h232l202 -336h-182l-137 152l-135 -152h-183z" />
    <glyph glyph-name="Cdotaccent" unicode="&#x10a;" horiz-adv-x="1304" 
d="M72 694q0 349 196.5 552.5t530.5 203.5q228 0 424 -94q-36 -78 -64 -154q-30 -79 -47 -158l-12 -4q-107 84 -273 84t-268 -105.5t-102 -297.5q0 -196 101 -305t280 -109q145 0 290 74q16 -93 35 -141q26 -64 60 -129q-81 -65 -205 -95q-131 -28 -236 -28
q-216 0 -373.5 76.5t-247 236.5t-89.5 393zM602 1753q0 62 45.5 102.5t112.5 40.5q64 0 109.5 -40.5t45.5 -102.5t-45.5 -102.5t-109.5 -40.5q-67 0 -112.5 40.5t-45.5 102.5z" />
    <glyph glyph-name="cdotaccent" unicode="&#x10b;" horiz-adv-x="1105" 
d="M55 555q0 111 35.5 211t102 179t171 126t232.5 47q50 0 98 -6.5t98.5 -21.5t92.5 -42t75.5 -64t52.5 -92t19 -122q0 -14 -4 -68q-208 0 -315 -28q4 28 4 59q0 47 -21 88q-18 43 -106 43q-60 0 -100 -40.5t-56 -100.5t-16 -135q0 -40 1 -66.5t6.5 -64t15 -62.5t27.5 -52
t43.5 -43.5t64.5 -27t88 -10.5q149 0 292 86q6 -15 52 -92q32 -54 57 -90q-91 -88 -211.5 -134t-245.5 -46q-119 0 -219.5 36t-175 105.5t-116.5 179t-42 248.5zM438 1397q0 62 45.5 102.5t112.5 40.5q64 0 110 -40.5t46 -102.5t-46 -103t-110 -41q-67 0 -112.5 41
t-45.5 103z" />
    <glyph glyph-name="Ccaron" unicode="&#x10c;" horiz-adv-x="1304" 
d="M72 694q0 349 196.5 552.5t530.5 203.5q228 0 424 -94q-36 -78 -64 -154q-30 -79 -47 -158l-12 -4q-107 84 -273 84t-268 -105.5t-102 -297.5q0 -196 101 -305t280 -109q145 0 290 74q16 -93 35 -141q26 -64 60 -129q-81 -65 -205 -95q-131 -28 -236 -28
q-216 0 -373.5 76.5t-247 236.5t-89.5 393zM440 1927h183l137 -162l135 162h182l-203 -336h-231z" />
    <glyph glyph-name="ccaron" unicode="&#x10d;" horiz-adv-x="1105" 
d="M55 555q0 111 35.5 211t102 179t171 126t232.5 47q50 0 98 -6.5t98.5 -21.5t92.5 -42t75.5 -64t52.5 -92t19 -122q0 -14 -4 -68q-208 0 -315 -28q4 28 4 59q0 47 -21 88q-18 43 -106 43q-60 0 -100 -40.5t-56 -100.5t-16 -135q0 -40 1 -66.5t6.5 -64t15 -62.5t27.5 -52
t43.5 -43.5t64.5 -27t88 -10.5q149 0 292 86q6 -15 52 -92q32 -54 57 -90q-91 -88 -211.5 -134t-245.5 -46q-119 0 -219.5 36t-175 105.5t-116.5 179t-42 248.5zM276 1591h183l137 -161l135 161h182l-202 -336h-232z" />
    <glyph glyph-name="Dcaron" unicode="&#x10e;" horiz-adv-x="1464" 
d="M133 1438h572q201 0 359 -91t243.5 -246.5t85.5 -346.5q0 -159 -51 -298t-142 -239.5t-222.5 -158.5t-285.5 -58h-545q1 47 4 131t3 113v815q0 71 -8 202.5t-13 176.5zM524 1124v-817h183q145 0 223 106.5t78 317.5q0 200 -93.5 296.5t-261.5 96.5h-129zM399 1927h183
l137 -162l135 162h182l-202 -336h-232z" />
    <glyph glyph-name="dcaron" unicode="&#x10f;" horiz-adv-x="1581" 
d="M1352 967q-28 40 -82 86v16q51 10 95 50t44 75q-75 0 -113.5 37t-38.5 92q0 74 44.5 110.5t115.5 36.5q75 0 119.5 -49.5t44.5 -140.5q0 -61 -23 -115.5t-52.5 -87.5t-67 -60t-56 -36t-30.5 -14zM496 -12q-91 0 -171 36t-140 103t-95 169t-35 226q0 142 41 256
t112.5 187.5t167 113t206.5 39.5q82 0 176 -16q0 188 -21 409q148 4 334 50h55v-1282q0 -147 33 -279q-214 0 -383 -12q0 4 -4.5 36t-5.5 62q-118 -98 -270 -98zM762 330v524q-50 20 -100 20q-66 0 -115.5 -49t-72.5 -121.5t-23 -154.5q0 -75 19 -138t60.5 -104t98.5 -41
q72 0 133 64z" />
    <glyph glyph-name="Dcroat" unicode="&#x110;" horiz-adv-x="1464" 
d="M27 807q20 0 62.5 -1t64.5 -1v254q0 71 -8 202.5t-13 176.5h572q201 0 359 -91t243.5 -246.5t85.5 -346.5q0 -159 -51 -298t-142 -239.5t-222.5 -158.5t-285.5 -58h-545q1 47 4 131t3 113v346q-41 -2 -125 -2q4 158 -2 219zM524 594v-287h183q145 0 223 106.5t78 317.5
q0 200 -93.5 296.5t-261.5 96.5h-129v-319q166 0 248 2q0 -7 -3 -65.5t-2.5 -73.5t3.5 -76q-84 2 -246 2z" />
    <glyph glyph-name="dslash" unicode="&#x111;" horiz-adv-x="1259" 
d="M496 -12q-91 0 -171 36t-140 103t-95 169t-35 226q0 142 41 256t112.5 187.5t167 113t206.5 39.5q82 0 176 -16q0 71 -2 106h-320q0 1 1 27t1.5 55.5t0 67.5t-2.5 63h309l-8 90q148 4 334 50h55v-140h125v-213h-125v-929q0 -147 33 -279q-214 0 -383 -12q0 4 -4.5 36
t-5.5 62q-118 -98 -270 -98zM762 330v524q-50 20 -100 20q-66 0 -115.5 -49t-72.5 -121.5t-23 -154.5q0 -75 19 -138t60.5 -104t98.5 -41q72 0 133 64z" />
    <glyph glyph-name="Emacron" unicode="&#x112;" 
d="M154 244v815q0 71 -8 202.5t-13 176.5h1000q-20 -132 -23 -310q-162 14 -381 11l-205 -4v-265q284 0 486 9q-9 -45 -9 -160q0 -67 9 -156q-29 1 -79.5 2.5t-91.5 2.5t-77 1q-86 0 -238 -4v-270q196 -4 289 -4q174 0 313 8q-13 -103 -14 -115q-4 -54 -4 -116q0 -45 2 -70
q-40 1 -114 2.5t-134 2.5t-114 1q-427 0 -603 -12q9 64 9 252zM885 1860v-207h-539q0 1 1 27t1.5 54.5t0 65t-2.5 60.5h539z" />
    <glyph glyph-name="emacron" unicode="&#x113;" horiz-adv-x="1142" 
d="M55 555q0 110 37 211t104 179.5t171 125.5t229 47q219 0 354 -123q137 -119 137 -331q0 -96 -18 -195h-643q0 -3 1 -9t1 -9q27 -189 236 -189q133 0 292 86l54 -98q38 -65 55 -84q-91 -88 -211 -133t-246 -45q-122 0 -222.5 35.5t-174.5 104.5t-115 178t-41 249zM422 672
h348q0 19 -2.5 39t-12 49t-25 51t-45.5 37.5t-69 15.5q-99 0 -143 -59q-42 -61 -51 -133zM844 1503v-207h-539q0 1 1 27t1.5 54.5t0 65t-2.5 60.5h539z" />
    <glyph glyph-name="Ebreve" unicode="&#x114;" 
d="M154 244v815q0 71 -8 202.5t-13 176.5h1000q-20 -132 -23 -310q-162 14 -381 11l-205 -4v-265q284 0 486 9q-9 -45 -9 -160q0 -67 9 -156q-29 1 -79.5 2.5t-91.5 2.5t-77 1q-86 0 -238 -4v-270q196 -4 289 -4q174 0 313 8q-13 -103 -14 -115q-4 -54 -4 -116q0 -45 2 -70
q-40 1 -114 2.5t-134 2.5t-114 1q-427 0 -603 -12q9 64 9 252zM309 1915q76 -14 148 0q7 -67 44 -97t111 -30q75 0 113 30t45 97q18 -6 68 -6q53 0 80 6q0 -156 -79.5 -240t-226.5 -84t-225 84t-78 240z" />
    <glyph glyph-name="ebreve" unicode="&#x115;" horiz-adv-x="1142" 
d="M55 555q0 110 37 211t104 179.5t171 125.5t229 47q219 0 354 -123q137 -119 137 -331q0 -96 -18 -195h-643q0 -3 1 -9t1 -9q27 -189 236 -189q133 0 292 86l54 -98q38 -65 55 -84q-91 -88 -211 -133t-246 -45q-122 0 -222.5 35.5t-174.5 104.5t-115 178t-41 249zM422 672
h348q0 19 -2.5 39t-12 49t-25 51t-45.5 37.5t-69 15.5q-99 0 -143 -59q-42 -61 -51 -133zM291 1559q75 -14 147 0q7 -67 44.5 -97t111.5 -30q75 0 113 30t45 97q21 -7 67 -7q49 0 80 7q0 -156 -79 -240t-226 -84t-225 84t-78 240z" />
    <glyph glyph-name="Edotaccent" unicode="&#x116;" 
d="M154 244v815q0 71 -8 202.5t-13 176.5h1000q-20 -132 -23 -310q-162 14 -381 11l-205 -4v-265q284 0 486 9q-9 -45 -9 -160q0 -67 9 -156q-29 1 -79.5 2.5t-91.5 2.5t-77 1q-86 0 -238 -4v-270q196 -4 289 -4q174 0 313 8q-13 -103 -14 -115q-4 -54 -4 -116q0 -45 2 -70
q-40 1 -114 2.5t-134 2.5t-114 1q-427 0 -603 -12q9 64 9 252zM479 1753q0 62 45.5 102.5t112.5 40.5q64 0 110 -40.5t46 -102.5t-46 -102.5t-110 -40.5q-67 0 -112.5 40.5t-45.5 102.5z" />
    <glyph glyph-name="edotaccent" unicode="&#x117;" horiz-adv-x="1142" 
d="M55 555q0 110 37 211t104 179.5t171 125.5t229 47q219 0 354 -123q137 -119 137 -331q0 -96 -18 -195h-643q0 -3 1 -9t1 -9q27 -189 236 -189q133 0 292 86l54 -98q38 -65 55 -84q-91 -88 -211 -133t-246 -45q-122 0 -222.5 35.5t-174.5 104.5t-115 178t-41 249zM422 672
h348q0 19 -2.5 39t-12 49t-25 51t-45.5 37.5t-69 15.5q-99 0 -143 -59q-42 -61 -51 -133zM438 1397q0 62 45.5 102.5t112.5 40.5q64 0 110 -40.5t46 -102.5t-46 -103t-110 -41q-67 0 -112.5 41t-45.5 103z" />
    <glyph glyph-name="Eogonek" unicode="&#x118;" 
d="M154 244v815q0 71 -8 202.5t-13 176.5h1000q-20 -132 -23 -310q-162 14 -381 11l-205 -4v-265q284 0 486 9q-9 -45 -9 -160q0 -67 9 -156q-29 1 -79.5 2.5t-91.5 2.5t-77 1q-86 0 -238 -4v-270q196 -4 289 -4q174 0 313 8q-13 -103 -14 -115q-4 -54 -4 -116q0 -45 2 -70
l-139 4q-97 -97 -97 -188q0 -49 32.5 -77t78.5 -28q31 0 78 21l39 -107q-95 -65 -213 -65q-96 0 -172 55q-78 54 -78 158q0 65 63.5 129.5t159.5 103.5h-114q-427 0 -603 -12q9 64 9 252z" />
    <glyph glyph-name="eogonek" unicode="&#x119;" horiz-adv-x="1142" 
d="M1087 664q0 -96 -18 -195h-643q0 -99 67 -153t171 -54q133 0 292 86l54 -98q38 -65 55 -84q-29 -26 -119 -88q-71 -53 -110 -132t-39 -151q0 -49 32 -76.5t78 -27.5q34 0 78 20l39 -106q-96 -66 -213 -66q-96 0 -172 55q-78 54 -78 158q0 62 41.5 127t110.5 117
q-47 -8 -105 -8q-122 0 -222.5 35.5t-174.5 104.5t-115 178t-41 249q0 110 37 211t104 179.5t171 125.5t229 47q219 0 354 -123q137 -119 137 -331zM422 672h348q0 19 -2.5 39t-12 49t-25 51t-45.5 37.5t-69 15.5q-99 0 -143 -59q-42 -61 -51 -133z" />
    <glyph glyph-name="Ecaron" unicode="&#x11a;" 
d="M154 244v815q0 71 -8 202.5t-13 176.5h1000q-20 -132 -23 -310q-162 14 -381 11l-205 -4v-265q284 0 486 9q-9 -45 -9 -160q0 -67 9 -156q-29 1 -79.5 2.5t-91.5 2.5t-77 1q-86 0 -238 -4v-270q196 -4 289 -4q174 0 313 8q-13 -103 -14 -115q-4 -54 -4 -116q0 -45 2 -70
q-40 1 -114 2.5t-134 2.5t-114 1q-427 0 -603 -12q9 64 9 252zM317 1927h183l137 -162l135 162h182l-202 -336h-232z" />
    <glyph glyph-name="ecaron" unicode="&#x11b;" horiz-adv-x="1142" 
d="M55 555q0 110 37 211t104 179.5t171 125.5t229 47q219 0 354 -123q137 -119 137 -331q0 -96 -18 -195h-643q0 -3 1 -9t1 -9q27 -189 236 -189q133 0 292 86l54 -98q38 -65 55 -84q-91 -88 -211 -133t-246 -45q-122 0 -222.5 35.5t-174.5 104.5t-115 178t-41 249zM422 672
h348q0 19 -2.5 39t-12 49t-25 51t-45.5 37.5t-69 15.5q-99 0 -143 -59q-42 -61 -51 -133zM276 1591h183l137 -161l135 161h182l-202 -336h-232z" />
    <glyph glyph-name="Gcircumflex" unicode="&#x11c;" horiz-adv-x="1402" 
d="M459 700q0 -116 31 -199t89.5 -129.5t132 -67.5t167.5 -21h47q0 103 -6.5 219.5t-12.5 156.5q110 0 249 5t147 8q-1 -13 -5 -115q-2 -55 -2 -172q0 -232 7 -289q-225 -108 -504 -108q-118 0 -223.5 25t-198.5 79.5t-160 135.5t-106 200t-39 266q0 230 94 402t263 263
t390 91q249 0 445 -94q-32 -69 -64 -152q-29 -73 -47 -160l-12 -4q-74 48 -145.5 65t-161.5 17q-159 0 -267 -114.5t-108 -307.5zM416 1591l202 336h232l203 -336h-183l-137 152l-135 -152h-182z" />
    <glyph glyph-name="gcircumflex" unicode="&#x11d;" horiz-adv-x="1171" 
d="M668 725q0 50 -11 93t-43 77.5t-82 34.5q-38 0 -65.5 -19t-41.5 -51t-20 -65.5t-6 -69.5q0 -35 6 -67.5t20 -64t41.5 -50.5t65.5 -19q49 0 81.5 34t43.5 76.5t11 90.5zM53 -188q0 53 39 106q42 54 164 66q-85 20 -127.5 68t-42.5 116q0 70 46.5 124t133.5 83
q-105 53 -161 141.5t-56 181.5q0 88 29 162.5t86 133t152 91.5t219 33q111 0 200 -28l424 26q-4 -82 -4 -125t4 -121l-24 -16l-152 16q33 -94 33 -170q0 -66 -30.5 -131t-88.5 -121t-154.5 -91t-216.5 -35q-34 0 -88 4q-18 -14 -31.5 -32.5t-13.5 -31.5q0 -29 35.5 -38
t116.5 -9h127q100 0 177 -13t142 -43.5t100 -88t35 -140.5q0 -120 -73 -205t-196.5 -126t-285.5 -41q-240 0 -379 67t-139 187zM825 -111q0 53 -55 69.5t-186 16.5h-176q-2 -4 -13.5 -17.5t-18.5 -28.5t-7 -33q0 -42 53.5 -75.5t155.5 -33.5q112 0 179.5 26t67.5 76z
M276 1255l203 336h232l202 -336h-182l-137 152l-135 -152h-183z" />
    <glyph glyph-name="Gbreve" unicode="&#x11e;" horiz-adv-x="1402" 
d="M459 700q0 -116 31 -199t89.5 -129.5t132 -67.5t167.5 -21h47q0 103 -6.5 219.5t-12.5 156.5q110 0 249 5t147 8q-1 -13 -5 -115q-2 -55 -2 -172q0 -232 7 -289q-225 -108 -504 -108q-118 0 -223.5 25t-198.5 79.5t-160 135.5t-106 200t-39 266q0 230 94 402t263 263
t390 91q249 0 445 -94q-32 -69 -64 -152q-29 -73 -47 -160l-12 -4q-74 48 -145.5 65t-161.5 17q-159 0 -267 -114.5t-108 -307.5zM416 1915q75 -14 147 0q7 -67 44.5 -97t111.5 -30q75 0 113 30t45 97q18 -6 67 -6q53 0 80 6q0 -156 -79 -240t-226 -84t-225 84t-78 240z" />
    <glyph glyph-name="gbreve" unicode="&#x11f;" horiz-adv-x="1171" 
d="M668 725q0 50 -11 93t-43 77.5t-82 34.5q-38 0 -65.5 -19t-41.5 -51t-20 -65.5t-6 -69.5q0 -35 6 -67.5t20 -64t41.5 -50.5t65.5 -19q49 0 81.5 34t43.5 76.5t11 90.5zM53 -188q0 53 39 106q42 54 164 66q-85 20 -127.5 68t-42.5 116q0 70 46.5 124t133.5 83
q-105 53 -161 141.5t-56 181.5q0 88 29 162.5t86 133t152 91.5t219 33q111 0 200 -28l424 26q-4 -82 -4 -125t4 -121l-24 -16l-152 16q33 -94 33 -170q0 -66 -30.5 -131t-88.5 -121t-154.5 -91t-216.5 -35q-34 0 -88 4q-18 -14 -31.5 -32.5t-13.5 -31.5q0 -29 35.5 -38
t116.5 -9h127q100 0 177 -13t142 -43.5t100 -88t35 -140.5q0 -120 -73 -205t-196.5 -126t-285.5 -41q-240 0 -379 67t-139 187zM825 -111q0 53 -55 69.5t-186 16.5h-176q-2 -4 -13.5 -17.5t-18.5 -28.5t-7 -33q0 -42 53.5 -75.5t155.5 -33.5q112 0 179.5 26t67.5 76z
M291 1559q75 -14 147 0q7 -67 44.5 -97t111.5 -30q75 0 113 30t45 97q21 -7 67 -7q49 0 80 7q0 -156 -79 -240t-226 -84t-225 84t-78 240z" />
    <glyph glyph-name="Gdotaccent" unicode="&#x120;" horiz-adv-x="1402" 
d="M459 700q0 -116 31 -199t89.5 -129.5t132 -67.5t167.5 -21h47q0 103 -6.5 219.5t-12.5 156.5q110 0 249 5t147 8q-1 -13 -5 -115q-2 -55 -2 -172q0 -232 7 -289q-225 -108 -504 -108q-118 0 -223.5 25t-198.5 79.5t-160 135.5t-106 200t-39 266q0 230 94 402t263 263
t390 91q249 0 445 -94q-32 -69 -64 -152q-29 -73 -47 -160l-12 -4q-74 48 -145.5 65t-161.5 17q-159 0 -267 -114.5t-108 -307.5zM602 1753q0 62 45.5 102.5t112.5 40.5q64 0 109.5 -40.5t45.5 -102.5t-45.5 -102.5t-109.5 -40.5q-67 0 -112.5 40.5t-45.5 102.5z" />
    <glyph glyph-name="gdotaccent" unicode="&#x121;" horiz-adv-x="1171" 
d="M668 725q0 50 -11 93t-43 77.5t-82 34.5q-38 0 -65.5 -19t-41.5 -51t-20 -65.5t-6 -69.5q0 -35 6 -67.5t20 -64t41.5 -50.5t65.5 -19q49 0 81.5 34t43.5 76.5t11 90.5zM53 -188q0 53 39 106q42 54 164 66q-85 20 -127.5 68t-42.5 116q0 70 46.5 124t133.5 83
q-105 53 -161 141.5t-56 181.5q0 88 29 162.5t86 133t152 91.5t219 33q111 0 200 -28l424 26q-4 -82 -4 -125t4 -121l-24 -16l-152 16q33 -94 33 -170q0 -66 -30.5 -131t-88.5 -121t-154.5 -91t-216.5 -35q-34 0 -88 4q-18 -14 -31.5 -32.5t-13.5 -31.5q0 -29 35.5 -38
t116.5 -9h127q100 0 177 -13t142 -43.5t100 -88t35 -140.5q0 -120 -73 -205t-196.5 -126t-285.5 -41q-240 0 -379 67t-139 187zM825 -111q0 53 -55 69.5t-186 16.5h-176q-2 -4 -13.5 -17.5t-18.5 -28.5t-7 -33q0 -42 53.5 -75.5t155.5 -33.5q112 0 179.5 26t67.5 76z
M438 1397q0 62 45.5 102.5t112.5 40.5q64 0 110 -40.5t46 -102.5t-46 -103t-110 -41q-67 0 -112.5 41t-45.5 103z" />
    <glyph glyph-name="Gcommaaccent" unicode="&#x122;" horiz-adv-x="1402" 
d="M459 700q0 -116 31 -199t89.5 -129.5t132 -67.5t167.5 -21h47q0 103 -6.5 219.5t-12.5 156.5q110 0 249 5t147 8q-1 -13 -5 -115q-2 -55 -2 -172q0 -232 7 -289q-225 -108 -504 -108q-118 0 -223.5 25t-198.5 79.5t-160 135.5t-106 200t-39 266q0 230 94 402t263 263
t390 91q249 0 445 -94q-32 -69 -64 -152q-29 -73 -47 -160l-12 -4q-74 48 -145.5 65t-161.5 17q-159 0 -267 -114.5t-108 -307.5zM715 -596q-28 40 -82 86v16q51 10 95 50t44 75q-75 0 -113 37t-38 92q0 74 44 111t115 37q75 0 119.5 -50t44.5 -141q0 -61 -23 -115.5
t-52.5 -87.5t-67 -60t-56 -36t-30.5 -14z" />
    <glyph glyph-name="gcommaaccent" unicode="&#x123;" horiz-adv-x="1171" 
d="M657 1720q20 -28 82 -86v-16q-51 -10 -95 -50t-44 -75q75 0 113.5 -37t38.5 -92q0 -74 -44.5 -110.5t-115.5 -36.5q-75 0 -119.5 49.5t-44.5 140.5q0 61 23 115t53.5 88t66 60.5t57 37t29.5 12.5zM668 725q0 50 -11 93t-43 77.5t-82 34.5q-38 0 -65.5 -19t-41.5 -51
t-20 -65.5t-6 -69.5q0 -35 6 -67.5t20 -64t41.5 -50.5t65.5 -19q49 0 81.5 34t43.5 76.5t11 90.5zM53 -188q0 53 39 106q42 54 164 66q-85 20 -127.5 68t-42.5 116q0 70 46.5 124t133.5 83q-105 53 -161 141.5t-56 181.5q0 88 29 162.5t86 133t152 91.5t219 33
q111 0 200 -28l424 26q-4 -82 -4 -125t4 -121l-24 -16l-152 16q33 -94 33 -170q0 -66 -30.5 -131t-88.5 -121t-154.5 -91t-216.5 -35q-34 0 -88 4q-18 -14 -31.5 -32.5t-13.5 -31.5q0 -29 35.5 -38t116.5 -9h127q100 0 177 -13t142 -43.5t100 -88t35 -140.5q0 -120 -73 -205
t-196.5 -126t-285.5 -41q-240 0 -379 67t-139 187zM825 -111q0 53 -55 69.5t-186 16.5h-176q-2 -4 -13.5 -17.5t-18.5 -28.5t-7 -33q0 -42 53.5 -75.5t155.5 -33.5q112 0 179.5 26t67.5 76z" />
    <glyph glyph-name="Hcircumflex" unicode="&#x124;" horiz-adv-x="1492" 
d="M758 559q-82 0 -234 -4v-186q0 -70 8.5 -194.5t14.5 -174.5q-131 0 -397 -12q0 3 2 112t2 154v815q0 71 -8 197t-13 172q199 0 399 12q0 -3 -4 -112t-4 -154v-275q76 -2 221 -2q150 0 224 2v160q0 70 -8.5 194.5t-14.5 174.5q136 0 402 12l-4 -110q-5 -109 -5 -156v-815
q0 -71 8 -197t13 -172q-131 0 -397 -12q6 240 6 266v301q-144 4 -211 4zM416 1591l202 336h232l203 -336h-183l-137 152l-135 -152h-182z" />
    <glyph glyph-name="hcircumflex" unicode="&#x125;" horiz-adv-x="1288" 
d="M123 254v881q0 112 -8.5 224t-14.5 150q90 0 336 50h53v-619q74 84 167.5 131t195.5 47q59 0 114 -16.5t104.5 -51t79.5 -97.5t30 -146v-627q0 -45 6 -111.5t6 -68.5q-235 0 -385 -12q4 73 4 266v444q-3 113 -127 113q-48 0 -102.5 -16.5t-92.5 -42.5v-506
q0 -166 13 -246q-230 0 -385 -12q0 35 3 136.5t3 129.5zM-18 1636l202 336h232l202 -336h-182l-137 152l-135 -152h-182z" />
    <glyph glyph-name="Hbar" unicode="&#x126;" horiz-adv-x="1492" 
d="M1462 1036h-123v-667q0 -71 8 -197t13 -172q-131 0 -397 -12q6 240 6 266v301q-144 4 -211 4q-82 0 -234 -4v-186q0 -70 8.5 -194.5t14.5 -174.5q-131 0 -397 -12q0 3 2 112t2 154v782h-119q0 1 1.5 28.5t2.5 57.5t0 68.5t-4 64.5h112l-14 183q199 0 399 12l-6 -195h435
q-1 35 -4 73.5t-7 70.5t-4 39q136 0 402 12l-7 -195h121q-2 -26 -2.5 -65t0 -69t1.5 -57t1 -28zM969 909v127h-445v-127q76 -2 221 -2q150 0 224 2z" />
    <glyph glyph-name="hbar" unicode="&#x127;" horiz-adv-x="1288" 
d="M1192 0q-235 0 -385 -12q4 94 4 266v444q0 113 -127 113q-48 0 -102.5 -16.5t-92.5 -42.5v-506q0 -166 13 -246q-230 0 -385 -12q0 35 3 136.5t3 129.5v920h-84q0 2 0.5 21.5t1 49t0.5 55.5q0 61 -2 86h74l-13 123q90 0 336 50h53v-173h365q0 -12 -1 -41t-1 -45
q0 -26 0.5 -56t1 -49.5t0.5 -20.5h-365v-234q74 84 167.5 131t195.5 47q59 0 114 -16.5t104.5 -51t79.5 -97.5t30 -146v-627q0 -45 6 -111.5t6 -68.5z" />
    <glyph glyph-name="Itilde" unicode="&#x128;" horiz-adv-x="679" 
d="M524 1184v-815q0 -70 8.5 -194.5t14.5 -174.5q-131 0 -397 -12q0 3 2 112t2 154v815q0 71 -8 197t-13 172q199 0 399 12q0 -3 -4 -112t-4 -154zM-47 1694q74 223 248 223q44 0 84.5 -16.5t66 -37t57.5 -37t62 -16.5q32 0 59 16t60 68q55 -39 119 -63q-29 -71 -63.5 -118
t-70.5 -67.5t-63.5 -27t-60.5 -6.5q-44 0 -85.5 16.5t-68 36.5t-59.5 36.5t-62 16.5q-62 0 -108 -82q-39 25 -58 35t-57 23z" />
    <glyph glyph-name="itilde" unicode="&#x129;" horiz-adv-x="600" 
d="M115 254v414q0 160 -21 381q61 0 160.5 16.5t175.5 40.5h55v-860q0 -156 11 -246q-218 0 -387 -12q0 22 3 126.5t3 139.5zM-78 1337q74 224 248 224q44 0 84.5 -16.5t66 -37t57.5 -37t62 -16.5q32 0 59 16t60 68q55 -39 119 -63q-29 -71 -63.5 -118.5t-70.5 -67.5
t-63.5 -27t-60.5 -7q-44 0 -85.5 16.5t-68 37t-59.5 37t-62 16.5q-62 0 -108 -82q-38 24 -57 33.5t-58 23.5z" />
    <glyph glyph-name="Imacron" unicode="&#x12a;" horiz-adv-x="679" 
d="M524 1184v-815q0 -70 8.5 -194.5t14.5 -174.5q-131 0 -397 -12q0 3 2 112t2 154v815q0 71 -8 197t-13 172q199 0 399 12q0 -3 -4 -112t-4 -154zM614 1860v-207h-538q0 1 1 27t1.5 54.5t0 65t-2.5 60.5h538z" />
    <glyph glyph-name="imacron" unicode="&#x12b;" horiz-adv-x="600" 
d="M115 254v414q0 160 -21 381q61 0 160.5 16.5t175.5 40.5h55v-860q0 -156 11 -246q-218 0 -387 -12q0 22 3 126.5t3 139.5zM569 1503v-207h-538q0 1 1 27t1.5 54.5t0 65t-2.5 60.5h538z" />
    <glyph glyph-name="Ibreve" unicode="&#x12c;" horiz-adv-x="679" 
d="M524 1184v-815q0 -70 8.5 -194.5t14.5 -174.5q-131 0 -397 -12q0 3 2 112t2 154v815q0 71 -8 197t-13 172q199 0 399 12q0 -3 -4 -112t-4 -154zM35 1915q75 -14 147 0q7 -67 44.5 -97t111.5 -30q75 0 113 30t45 97q18 -6 67 -6q53 0 80 6q0 -156 -79 -240t-226 -84
t-225 84t-78 240z" />
    <glyph glyph-name="ibreve" unicode="&#x12d;" horiz-adv-x="600" 
d="M115 254v414q0 160 -21 381q61 0 160.5 16.5t175.5 40.5h55v-860q0 -156 11 -246q-218 0 -387 -12q0 22 3 126.5t3 139.5zM-4 1559q75 -14 147 0q7 -67 44.5 -97t111.5 -30q75 0 113 30t45 97q21 -7 67 -7q49 0 80 7q0 -156 -79 -240t-226 -84t-225 84t-78 240z" />
    <glyph glyph-name="Iogonek" unicode="&#x12e;" horiz-adv-x="679" 
d="M539 -270l39 -107q-95 -65 -213 -65q-96 0 -172 55q-78 54 -78 158q0 62 57.5 124t146.5 101l-169 -8q0 3 2 112t2 154v815q0 71 -8 197t-13 172q199 0 399 12q0 -3 -4 -112t-4 -154v-815q0 -70 8.5 -194.5t14.5 -174.5l-103 -2q-94 -94 -94 -184q0 -49 32.5 -77
t78.5 -28q31 0 78 21z" />
    <glyph glyph-name="iogonek" unicode="&#x12f;" horiz-adv-x="600" 
d="M311 1223q-81 0 -138.5 52t-57.5 130t57 127t139 49q78 0 136.5 -49.5t58.5 -126.5t-59 -129.5t-136 -52.5zM498 -270l39 -107q-95 -65 -213 -65q-96 0 -172 55q-78 54 -78 158q0 63 59 126.5t150 102.5q-91 0 -170 -8q0 22 3 124t3 138v414q0 160 -21 381q50 0 156 16
q88 13 176 41h55v-860q0 -156 11 -246h-93q-94 -97 -94 -186q0 -49 32.5 -77t78.5 -28q32 0 78 21z" />
    <glyph glyph-name="Idot" unicode="&#x130;" horiz-adv-x="679" 
d="M524 1184v-815q0 -70 8.5 -194.5t14.5 -174.5q-131 0 -397 -12q0 3 2 112t2 154v815q0 71 -8 197t-13 172q199 0 399 12q0 -3 -4 -112t-4 -154zM184 1753q0 62 45.5 102.5t112.5 40.5q64 0 110 -40.5t46 -102.5t-46 -102.5t-110 -40.5q-67 0 -112.5 40.5t-45.5 102.5z
" />
    <glyph glyph-name="dotlessi" unicode="&#x131;" horiz-adv-x="600" 
d="M115 254v414q0 160 -21 381q61 0 160.5 16.5t175.5 40.5h55v-860q0 -156 11 -246q-218 0 -387 -12q0 22 3 126.5t3 139.5z" />
    <glyph glyph-name="ij" unicode="&#x133;" horiz-adv-x="1204" 
d="M692 1405q0 77 57.5 126.5t137.5 49.5q81 0 138.5 -49.5t57.5 -126.5q0 -78 -58 -130t-138 -52t-137.5 52t-57.5 130zM90 1405q0 78 57.5 127t139.5 49q78 0 136 -49.5t58 -126.5t-58.5 -129.5t-135.5 -52.5q-81 0 -139 52t-58 130zM723 78v571q0 61 -4 133.5
t-11.5 169.5t-7.5 101q68 0 169.5 15t166.5 38h56v-950q0 -192 -103.5 -362.5t-240.5 -237.5q-50 70 -166 159q4 4 17 21.5t35 54.5t41 78.5t33.5 98.5t14.5 110zM121 254v414q0 160 -21 381q60 0 159 16.5t175 40.5h55v-860q0 -156 11 -246q-216 0 -385 -12q0 22 3 126.5
t3 139.5z" />
    <glyph glyph-name="Jcircumflex" unicode="&#x134;" horiz-adv-x="1087" 
d="M557 1438q44 0 100 1t106 3t93 4t70 3t28 1q0 -1 -1 -52t-2 -115.5t-1 -98.5v-568q0 -319 -145.5 -473.5t-415.5 -154.5q-202 0 -360 104q29 73 41 106t26 88.5t19 108.5l14 6q106 -73 215 -73q102 0 169 76t67 227v438q0 70 -8.5 194.5t-14.5 174.5zM436 1591l203 336
h231l203 -336h-182l-137 152l-136 -152h-182z" />
    <glyph glyph-name="jcircumflex" unicode="&#x135;" horiz-adv-x="604" 
d="M-14 1255l202 336h232l203 -336h-183l-137 152l-135 -152h-182zM123 78v571q0 61 -4 133.5t-11.5 169.5t-7.5 101q68 0 169.5 15t166.5 38h56v-950q0 -192 -104 -362.5t-241 -237.5q-51 71 -165 159q4 4 17 21.5t35 54.5t41 78.5t33.5 98.5t14.5 110z" />
    <glyph glyph-name="Kcommaaccent" unicode="&#x136;" horiz-adv-x="1429" 
d="M154 254v815q0 71 -8 197t-13 172q88 0 241.5 6t155.5 6q0 -23 -3 -123.5t-3 -142.5v-400q6 8 74.5 110.5t107.5 161.5t98 149t94.5 148.5t47.5 84.5q319 0 432 8v-14l-483 -676q346 -500 514 -727v-29q-192 0 -430 -12q-54 80 -224 338t-231 348v-305q0 -72 7 -199
t12 -170q-45 0 -101.5 -1t-106 -3t-92 -4t-69 -3t-27.5 -1q0 1 0.5 21.5t1.5 52t2.5 66t2 69.5t0.5 57zM645 -596q-28 40 -82 86v16q51 10 95 50t44 75q-75 0 -113 37t-38 92q0 74 44.5 111t115.5 37q75 0 119 -50t44 -141q0 -61 -23 -115.5t-52.5 -87.5t-67 -60t-56 -36
t-30.5 -14z" />
    <glyph glyph-name="kcommaaccent" unicode="&#x137;" horiz-adv-x="1208" 
d="M578 -596q-28 40 -82 86v16q51 10 95 50t44 75q-75 0 -113.5 37t-38.5 92q0 74 44.5 111t115.5 37q75 0 119.5 -50t44.5 -141q0 -61 -23 -115.5t-52.5 -87.5t-67 -60t-56 -36t-30.5 -14zM866 586l342 -580v-6q-46 1 -143.5 -1.5t-174 -6t-75.5 -4.5l-326 565v-307
q0 -166 13 -246q-192 3 -385 -12q6 228 6 266v881q0 112 -8 208l-15 166q80 0 336 52h53v-947l310 488q72 -2 211 -2q43 0 196 8v-18z" />
    <glyph glyph-name="kgreenlandic" unicode="&#x138;" horiz-adv-x="1208" 
d="M866 586l342 -580v-6q-46 1 -143.5 -1.5t-174 -6t-75.5 -4.5l-326 565v-307q0 -166 13 -246q-192 3 -385 -12q6 228 6 266v420q0 113 -8 209l-15 166q85 0 336 51h53v-486l310 488q72 -2 211 -2q43 0 196 8v-18z" />
    <glyph glyph-name="Lacute" unicode="&#x139;" horiz-adv-x="1144" 
d="M154 254v815q0 71 -8 197t-13 172l397 12q-6 -264 -6 -266v-891q74 -2 215 -2q189 0 334 8l-16 -115q-6 -40 -6 -116q0 -49 2 -74q-80 3 -170.5 4t-153.5 1t-165.5 -0.5t-157.5 -0.5l-175 -6q-23 -1 -44 -2t-31 -2h-9q0 1 1.5 52t3.5 115.5t2 98.5zM416 1591h-170
l104 336h314v-22z" />
    <glyph glyph-name="lacute" unicode="&#x13a;" horiz-adv-x="602" 
d="M342 1636h-170l104 336h314v-22zM123 254v881q0 98 -23 374q80 0 336 52h53v-1315q0 -166 13 -246q-230 0 -385 -12q0 25 3 125t3 141z" />
    <glyph glyph-name="Lcommaaccent" unicode="&#x13b;" horiz-adv-x="1144" 
d="M154 254v815q0 71 -8 197t-13 172l397 12q-6 -264 -6 -266v-891q74 -2 215 -2q189 0 334 8l-16 -115q-6 -40 -6 -116q0 -49 2 -74q-80 3 -170.5 4t-153.5 1t-165.5 -0.5t-157.5 -0.5l-175 -6q-23 -1 -44 -2t-31 -2h-9q0 1 1.5 52t3.5 115.5t2 98.5zM506 -596
q-28 40 -82 86v16q51 10 95 50t44 75q-75 0 -113 37t-38 92q0 74 44 111t115 37q75 0 119.5 -50t44.5 -141q0 -61 -23 -115.5t-52.5 -87.5t-67 -60t-56 -36t-30.5 -14z" />
    <glyph glyph-name="lcommaaccent" unicode="&#x13c;" horiz-adv-x="602" 
d="M231 -596q-29 42 -81 86v16q51 10 95 50t44 75q-75 0 -113.5 37t-38.5 92q0 74 44.5 111t115.5 37q75 0 119.5 -50t44.5 -141q0 -61 -23 -115.5t-52.5 -87.5t-67.5 -60t-56.5 -36t-30.5 -14zM123 254v881q0 98 -23 374q80 0 336 52h53v-1315q0 -166 13 -246
q-230 0 -385 -12q0 25 3 125t3 141z" />
    <glyph glyph-name="Lcaron" unicode="&#x13d;" horiz-adv-x="1144" 
d="M154 254v815q0 71 -8 197t-13 172l397 12q-6 -264 -6 -266v-891q74 -2 215 -2q189 0 334 8l-16 -115q-6 -40 -6 -116q0 -49 2 -74q-80 3 -170.5 4t-153.5 1t-165.5 -0.5t-157.5 -0.5l-175 -6q-23 -1 -44 -2t-31 -2h-9q0 1 1.5 52t3.5 115.5t2 98.5zM922 967
q-28 40 -82 86v16q51 10 95 50t44 75q-75 0 -113.5 37t-38.5 92q0 74 44.5 110.5t115.5 36.5q75 0 119.5 -49.5t44.5 -140.5q0 -61 -23 -115.5t-52.5 -87.5t-67 -60t-56 -36t-30.5 -14z" />
    <glyph glyph-name="lcaron" unicode="&#x13e;" horiz-adv-x="933" 
d="M705 967q-28 40 -82 86v16q51 10 95 50t44 75q-75 0 -113.5 37t-38.5 92q0 74 44.5 110.5t115.5 36.5q75 0 119.5 -49.5t44.5 -140.5q0 -61 -23 -115.5t-52.5 -87.5t-67 -60t-56 -36t-30.5 -14zM123 254v881q0 98 -23 374q80 0 336 52h53v-1315q0 -166 13 -246
q-230 0 -385 -12q0 25 3 125t3 141z" />
    <glyph glyph-name="Ldot" unicode="&#x13f;" horiz-adv-x="1144" 
d="M154 254v815q0 71 -8 197t-13 172l397 12q-6 -264 -6 -266v-891q74 -2 215 -2q189 0 334 8l-16 -115q-6 -40 -6 -116q0 -49 2 -74q-80 3 -170.5 4t-153.5 1t-165.5 -0.5t-157.5 -0.5l-175 -6q-23 -1 -44 -2t-31 -2h-9q0 1 1.5 52t3.5 115.5t2 98.5zM905 590
q-76 0 -132 51t-56 125q0 73 55.5 121.5t132.5 48.5q76 0 131.5 -48.5t55.5 -121.5q0 -74 -56 -125t-131 -51z" />
    <glyph glyph-name="ldot" unicode="&#x140;" horiz-adv-x="917" 
d="M123 254v881q0 98 -23 374q80 0 336 52h53v-1315q0 -166 13 -246q-230 0 -385 -12q0 25 3 125t3 141zM768 590q-76 0 -132 51t-56 125q0 73 55.5 121.5t132.5 48.5q76 0 131 -48.5t55 -121.5q0 -74 -55.5 -125t-130.5 -51z" />
    <glyph glyph-name="Lslash" unicode="&#x141;" horiz-adv-x="1144" 
d="M154 254v219l-154 -61q0 10 1 48t1 62t-1 63t-1 50l154 61v373q0 71 -8 197t-13 172l397 12q-6 -264 -6 -266v-340l346 139q-4 -54 -4 -115q0 -60 4 -106l-346 -139v-330q74 -2 215 -2q189 0 334 8l-16 -115q-6 -40 -6 -116q0 -49 2 -74q-80 3 -170.5 4t-153.5 1
t-165.5 -0.5t-157.5 -0.5l-175 -6q-23 -1 -44 -2t-31 -2h-9q0 1 1.5 52t3.5 115.5t2 98.5z" />
    <glyph glyph-name="lslash" unicode="&#x142;" horiz-adv-x="602" 
d="M100 1509q90 0 336 50h53v-666l105 51v-164l-105 -51v-483q0 -166 13 -246q-230 0 -385 -12q6 216 6 266v297l-109 -51v168l109 51v416q0 113 -23 374z" />
    <glyph glyph-name="Nacute" unicode="&#x143;" horiz-adv-x="1607" 
d="M154 254v815q0 71 -8 197t-13 172q88 0 231 6t166 6l578 -934l-18 555q-2 34 -6.5 124t-8 156t-6.5 89q91 0 242.5 5t156.5 5q0 -15 -3 -118t-3 -146v-815q0 -80 4.5 -208t8.5 -163l-437 -12q-59 118 -145.5 263.5t-208 337t-160.5 255.5v-475q0 -70 8.5 -194.5
t14.5 -174.5q-80 0 -232 -4l-168 -8q7 252 7 266zM842 1591h-170l104 336h314v-22z" />
    <glyph glyph-name="nacute" unicode="&#x144;" horiz-adv-x="1288" 
d="M121 254v414q0 57 -2 116.5t-5.5 104.5t-6.5 81t-5 57t-2 22q108 0 334 57h55v-168q74 87 167.5 133.5t197.5 46.5q47 0 91.5 -9.5t88 -33t75.5 -58t51.5 -89t19.5 -121.5v-627q0 -45 7 -109.5t7 -70.5q-230 0 -385 -12q0 1 1 52t2 115.5t1 98.5v444q-3 113 -127 113
q-49 0 -104 -16.5t-93 -42.5v-506q0 -156 11 -246q-216 0 -385 -12q0 1 0.5 21.5t1.5 52t2 66t1.5 69.5t0.5 57zM686 1255h-170l105 336h313v-22z" />
    <glyph glyph-name="Ncommaaccent" unicode="&#x145;" horiz-adv-x="1607" 
d="M154 254v815q0 71 -8 197t-13 172q88 0 231 6t166 6l578 -934l-18 555q-2 34 -6.5 124t-8 156t-6.5 89q91 0 242.5 5t156.5 5q0 -15 -3 -118t-3 -146v-815q0 -80 4.5 -208t8.5 -163l-437 -12q-59 118 -145.5 263.5t-208 337t-160.5 255.5v-475q0 -70 8.5 -194.5
t14.5 -174.5q-80 0 -232 -4l-168 -8q7 252 7 266zM735 -596q-28 40 -82 86v16q51 11 95.5 50.5t44.5 74.5q-75 0 -113.5 37t-38.5 92q0 74 44.5 111t115.5 37q75 0 119.5 -50t44.5 -141q0 -61 -23 -115.5t-52.5 -87.5t-67.5 -60t-56.5 -36t-30.5 -14z" />
    <glyph glyph-name="ncommaaccent" unicode="&#x146;" horiz-adv-x="1288" 
d="M121 254v414q0 57 -2 116.5t-5.5 104.5t-6.5 81t-5 57t-2 22q108 0 334 57h55v-168q74 87 167.5 133.5t197.5 46.5q47 0 91.5 -9.5t88 -33t75.5 -58t51.5 -89t19.5 -121.5v-627q0 -45 7 -109.5t7 -70.5q-230 0 -385 -12q0 1 1 52t2 115.5t1 98.5v444q-3 113 -127 113
q-49 0 -104 -16.5t-93 -42.5v-506q0 -156 11 -246q-216 0 -385 -12q0 1 0.5 21.5t1.5 52t2 66t1.5 69.5t0.5 57zM578 -596q-28 40 -82 86v16q51 10 95 50t44 75q-75 0 -113.5 37t-38.5 92q0 74 44.5 111t115.5 37q75 0 119.5 -50t44.5 -141q0 -61 -23 -115.5t-52.5 -87.5
t-67 -60t-56 -36t-30.5 -14z" />
    <glyph glyph-name="Ncaron" unicode="&#x147;" horiz-adv-x="1607" 
d="M154 254v815q0 71 -8 197t-13 172q88 0 231 6t166 6l578 -934l-18 555q-2 34 -6.5 124t-8 156t-6.5 89q91 0 242.5 5t156.5 5q0 -15 -3 -118t-3 -146v-815q0 -80 4.5 -208t8.5 -163l-437 -12q-59 118 -145.5 263.5t-208 337t-160.5 255.5v-475q0 -70 8.5 -194.5
t14.5 -174.5q-80 0 -232 -4l-168 -8q7 252 7 266zM502 1927h182l137 -162l135 162h183l-203 -336h-231z" />
    <glyph glyph-name="ncaron" unicode="&#x148;" horiz-adv-x="1288" 
d="M121 254v414q0 57 -2 116.5t-5.5 104.5t-6.5 81t-5 57t-2 22q108 0 334 57h55v-168q74 87 167.5 133.5t197.5 46.5q47 0 91.5 -9.5t88 -33t75.5 -58t51.5 -89t19.5 -121.5v-627q0 -45 7 -109.5t7 -70.5q-230 0 -385 -12q0 1 1 52t2 115.5t1 98.5v444q-3 113 -127 113
q-49 0 -104 -16.5t-93 -42.5v-506q0 -156 11 -246q-216 0 -385 -12q0 1 0.5 21.5t1.5 52t2 66t1.5 69.5t0.5 57zM317 1591h183l137 -161l135 161h182l-202 -336h-232z" />
    <glyph glyph-name="napostrophe" unicode="&#x149;" horiz-adv-x="1675" 
d="M506 254v414q0 57 -2 116.5t-5 104.5t-6.5 81t-5.5 57t-2 22q108 0 334 57h55v-168q74 87 167.5 133.5t197.5 46.5q47 0 91.5 -9.5t88 -33t75.5 -58t51.5 -89t19.5 -121.5v-627q0 -45 7 -109.5t7 -70.5q-230 0 -385 -12q0 1 1 52t2 115.5t1 98.5v444q-3 113 -127 113
q-49 0 -104 -16.5t-93 -42.5v-506q0 -156 11 -246q-216 0 -385 -12q0 1 0.5 21.5t1.5 52t2 66t1.5 69.5t0.5 57zM268 1059q-28 40 -82 86v16q51 11 95.5 50.5t44.5 74.5q-75 0 -113.5 37t-38.5 92q0 74 44.5 111t115.5 37q75 0 119.5 -50t44.5 -141q0 -61 -23 -115.5
t-52.5 -87.5t-67.5 -60t-56.5 -36t-30.5 -14z" />
    <glyph glyph-name="Eng" unicode="&#x14a;" horiz-adv-x="1601" 
d="M541 -336q29 73 41 106t26 88.5t19 108.5l14 6q106 -73 215 -73q55 0 105.5 26.5t80.5 73.5q-95 186 -239 419t-279 425v-475q0 -70 8.5 -194.5t14.5 -174.5q-80 0 -232 -4l-168 -8q7 252 7 266v815q0 71 -8 197t-13 172q261 0 397 12l578 -934l-18 555q-2 34 -6.5 124
t-8 156t-6.5 89q91 0 239.5 5t159.5 5l-6 -1210q-1 -356 -136.5 -518t-424.5 -162q-202 0 -360 104z" />
    <glyph glyph-name="eng" unicode="&#x14b;" horiz-adv-x="1294" 
d="M115 -12q0 1 0.5 21.5t1.5 52t2 66t1.5 69.5t0.5 57v414q0 57 -2 116.5t-5.5 104.5t-6.5 81t-5 57t-2 22q119 0 334 57h55v-168q74 87 167.5 133.5t197.5 46.5q59 0 114 -16.5t104.5 -51t79.5 -97.5t30 -146v-627q0 -116 -39.5 -238.5t-119.5 -229t-183 -156.5
q-50 70 -166 159q36 30 88 105q49 67 49 190v688q0 113 -125 113q-49 0 -104 -16.5t-93 -42.5v-506q0 -156 11 -246q-216 0 -385 -12z" />
    <glyph glyph-name="Omacron" unicode="&#x14c;" horiz-adv-x="1509" 
d="M1438 723q0 -172 -53 -312t-145.5 -232t-217.5 -141.5t-270 -49.5q-147 0 -269 44t-215 130.5t-144.5 227t-51.5 323.5q0 172 53 312.5t145.5 232.5t217.5 142t270 50q117 0 218.5 -27t187 -84.5t146 -142t94.5 -205.5t34 -268zM1061 713q0 191 -84 314.5t-221 123.5
t-216 -120.5t-79 -307.5q0 -192 80 -315t217 -123t220 121.5t83 306.5zM1028 1860v-207h-539q0 1 1 27t1.5 54.5t0 65t-2.5 60.5h539z" />
    <glyph glyph-name="omacron" unicode="&#x14d;" 
d="M1137 557q0 -110 -37 -212t-104 -181.5t-171 -127.5t-229 -48q-115 0 -207.5 31.5t-154 84.5t-102.5 126.5t-59 154t-18 170.5q0 110 37 211t104 179.5t171 125.5t229 47q115 0 207.5 -31t154 -83t102.5 -124.5t59 -152.5t18 -170zM770 563q0 61 -7 108.5t-24.5 93.5
t-54 71.5t-90.5 25.5t-90.5 -25.5t-54 -71.5t-24.5 -93.5t-7 -108.5q0 -299 174 -299q81 0 129.5 71t48.5 228zM844 1503v-207h-539q0 1 1 27t1.5 54.5t0 65t-2.5 60.5h539z" />
    <glyph glyph-name="Obreve" unicode="&#x14e;" horiz-adv-x="1509" 
d="M1438 723q0 -172 -53 -312t-145.5 -232t-217.5 -141.5t-270 -49.5q-147 0 -269 44t-215 130.5t-144.5 227t-51.5 323.5q0 172 53 312.5t145.5 232.5t217.5 142t270 50q117 0 218.5 -27t187 -84.5t146 -142t94.5 -205.5t34 -268zM1061 713q0 191 -84 314.5t-221 123.5
t-216 -120.5t-79 -307.5q0 -192 80 -315t217 -123t220 121.5t83 306.5zM416 1915q75 -14 147 0q7 -67 44.5 -97t111.5 -30q75 0 113 30t45 97q18 -6 67 -6q53 0 80 6q0 -156 -79 -240t-226 -84t-225 84t-78 240z" />
    <glyph glyph-name="obreve" unicode="&#x14f;" 
d="M1137 557q0 -110 -37 -212t-104 -181.5t-171 -127.5t-229 -48q-115 0 -207.5 31.5t-154 84.5t-102.5 126.5t-59 154t-18 170.5q0 110 37 211t104 179.5t171 125.5t229 47q115 0 207.5 -31t154 -83t102.5 -124.5t59 -152.5t18 -170zM770 563q0 61 -7 108.5t-24.5 93.5
t-54 71.5t-90.5 25.5t-90.5 -25.5t-54 -71.5t-24.5 -93.5t-7 -108.5q0 -299 174 -299q81 0 129.5 71t48.5 228zM291 1559q75 -14 147 0q7 -67 44.5 -97t111.5 -30q75 0 113 30t45 97q21 -7 67 -7q49 0 80 7q0 -156 -79 -240t-226 -84t-225 84t-78 240z" />
    <glyph glyph-name="Ohungarumlaut" unicode="&#x150;" horiz-adv-x="1509" 
d="M1438 723q0 -172 -53 -312t-145.5 -232t-217.5 -141.5t-270 -49.5q-147 0 -269 44t-215 130.5t-144.5 227t-51.5 323.5q0 172 53 312.5t145.5 232.5t217.5 142t270 50q117 0 218.5 -27t187 -84.5t146 -142t94.5 -205.5t34 -268zM1061 713q0 191 -84 314.5t-221 123.5
t-216 -120.5t-79 -307.5q0 -192 80 -315t217 -123t220 121.5t83 306.5zM948 1591h-170l105 336h252v-22zM621 1591h-170l104 336h252v-22z" />
    <glyph glyph-name="ohungarumlaut" unicode="&#x151;" 
d="M1137 557q0 -110 -37 -212t-104 -181.5t-171 -127.5t-229 -48q-115 0 -207.5 31.5t-154 84.5t-102.5 126.5t-59 154t-18 170.5q0 110 37 211t104 179.5t171 125.5t229 47q115 0 207.5 -31t154 -83t102.5 -124.5t59 -152.5t18 -170zM770 563q0 61 -7 108.5t-24.5 93.5
t-54 71.5t-90.5 25.5t-90.5 -25.5t-54 -71.5t-24.5 -93.5t-7 -108.5q0 -299 174 -299q81 0 129.5 71t48.5 228zM825 1255h-170l105 336h252v-22zM498 1255h-170l104 336h252v-22z" />
    <glyph glyph-name="OE" unicode="&#x152;" horiz-adv-x="2101" 
d="M758 285q137 0 220 121.5t83 306.5q0 191 -84 314.5t-221 123.5t-216 -120.5t-79 -307.5q0 -192 80 -315t217 -123zM1055 -8q0 1 0.5 8.5l1.5 22.5l2 30q-139 -65 -307 -65q-147 0 -269 44t-215 130.5t-144.5 227t-51.5 323.5q0 172 53 312.5t145.5 232.5t217.5 142
t270 50q163 0 291 -51l-5 39h998q-20 -132 -23 -310q-82 7 -381 7h-204v-265q282 0 485 9q-8 -40 -8 -160q0 -77 8 -156q-29 1 -79.5 2.5t-91.5 2.5t-77 1h-237v-276h288q210 0 314 6q-21 -141 -19 -231l2 -70q-40 1 -114 2.5t-134 2.5t-114 1q-356 0 -602 -12z" />
    <glyph glyph-name="oe" unicode="&#x153;" horiz-adv-x="1865" 
d="M55 555q0 110 37 211t104 180.5t171 126.5t229 47q233 0 373 -127q147 127 350 127q219 0 354 -123q137 -122 137 -333q0 -96 -18 -195h-643q16 -117 73.5 -162t163.5 -45q134 0 293 86l54 -98q38 -65 55 -84q-91 -88 -211 -133t-246 -45q-238 0 -383 127
q-150 -127 -352 -127q-115 0 -207.5 31.5t-154 84.5t-102.5 126.5t-59 154t-18 170.5zM1145 672h348q0 19 -2.5 39t-12 49t-25 51t-45.5 37.5t-69 15.5q-99 0 -143 -59q-42 -61 -51 -133zM770 563q0 61 -7 108.5t-24.5 93.5t-54 71.5t-90.5 25.5t-90.5 -25.5t-54 -71.5
t-24.5 -93.5t-7 -108.5q0 -299 174 -299q81 0 129.5 71t48.5 228z" />
    <glyph glyph-name="Racute" unicode="&#x154;" horiz-adv-x="1310" 
d="M147 -12q0 25 3.5 125t3.5 141v815q0 71 -8 197t-13 172h576q240 0 370.5 -120.5t130.5 -322.5q0 -165 -79 -280.5t-224 -159.5q60 -81 151 -207t153 -213t79 -106v-29q-47 0 -225.5 -6t-224.5 -6l-310 538h-8v-157q0 -63 9 -196t14 -173q-242 0 -398 -12zM522 1151v-338
h166q83 0 127.5 49.5t44.5 120.5q0 70 -51.5 119t-136.5 49h-150zM678 1591h-170l104 336h314v-22z" />
    <glyph glyph-name="racute" unicode="&#x155;" horiz-adv-x="862" 
d="M121 254v414q0 59 -1 105.5t-4 90t-4 62.5t-6 66.5t-6 56.5q111 0 334 57h55v-213q45 109 105 167t151 58q90 0 148 -37q-14 -34 -25 -66t-17.5 -60t-11 -48.5t-7 -44t-3.5 -34t-1.5 -30t-0.5 -20.5q-19 1 -61.5 4.5t-56.5 3.5q-80 0 -132.5 -31t-87.5 -112v-397
q0 -156 11 -246q-216 0 -385 -12q0 39 3 139.5t3 126.5zM373 1255h-170l104 336h314v-22z" />
    <glyph glyph-name="Rcommaaccent" unicode="&#x156;" horiz-adv-x="1310" 
d="M147 -12q0 25 3.5 125t3.5 141v815q0 71 -8 197t-13 172h576q240 0 370.5 -120.5t130.5 -322.5q0 -165 -79 -280.5t-224 -159.5q60 -81 151 -207t153 -213t79 -106v-29q-47 0 -225.5 -6t-224.5 -6l-310 538h-8v-157q0 -63 9 -196t14 -173q-242 0 -398 -12zM522 1151v-338
h166q83 0 127.5 49.5t44.5 120.5q0 70 -51.5 119t-136.5 49h-150zM588 -596q-28 40 -82 86v16q51 10 95 50t44 75q-75 0 -113 37t-38 92q0 74 44 111t115 37q75 0 119.5 -50t44.5 -141q0 -61 -23 -115.5t-52.5 -87.5t-67 -60t-56 -36t-30.5 -14z" />
    <glyph glyph-name="rcommaaccent" unicode="&#x157;" horiz-adv-x="862" 
d="M231 -596q-29 42 -81 86v16q51 10 95 50t44 75q-75 0 -113.5 37t-38.5 92q0 74 44.5 111t115.5 37q75 0 119.5 -50t44.5 -141q0 -61 -23 -115.5t-52.5 -87.5t-67.5 -60t-56.5 -36t-30.5 -14zM121 254v414q0 59 -1 105.5t-4 90t-4 62.5t-6 66.5t-6 56.5q111 0 334 57h55
v-213q45 109 105 167t151 58q90 0 148 -37q-14 -34 -25 -66t-17.5 -60t-11 -48.5t-7 -44t-3.5 -34t-1.5 -30t-0.5 -20.5q-19 1 -61.5 4.5t-56.5 3.5q-80 0 -132.5 -31t-87.5 -112v-397q0 -156 11 -246q-216 0 -385 -12q0 39 3 139.5t3 126.5z" />
    <glyph glyph-name="Rcaron" unicode="&#x158;" horiz-adv-x="1310" 
d="M147 -12q0 25 3.5 125t3.5 141v815q0 71 -8 197t-13 172h576q240 0 370.5 -120.5t130.5 -322.5q0 -165 -79 -280.5t-224 -159.5q60 -81 151 -207t153 -213t79 -106v-29q-47 0 -225.5 -6t-224.5 -6l-310 538h-8v-157q0 -63 9 -196t14 -173q-242 0 -398 -12zM522 1151v-338
h166q83 0 127.5 49.5t44.5 120.5q0 70 -51.5 119t-136.5 49h-150zM297 1927h182l137 -162l136 162h182l-203 -336h-231z" />
    <glyph glyph-name="rcaron" unicode="&#x159;" horiz-adv-x="862" 
d="M121 254v414q0 59 -1 105.5t-4 90t-4 62.5t-6 66.5t-6 56.5q111 0 334 57h55v-213q45 109 105 167t151 58q90 0 148 -37q-14 -34 -25 -66t-17.5 -60t-11 -48.5t-7 -44t-3.5 -34t-1.5 -30t-0.5 -20.5q-19 1 -61.5 4.5t-56.5 3.5q-80 0 -132.5 -31t-87.5 -112v-397
q0 -156 11 -246q-216 0 -385 -12q0 39 3 139.5t3 126.5zM-6 1591h182l137 -161l136 161h182l-203 -336h-231z" />
    <glyph glyph-name="Sacute" unicode="&#x15a;" horiz-adv-x="1150" 
d="M57 104q63 123 84 304q64 -34 187 -68.5t219 -34.5q84 0 143.5 28t59.5 85q0 58 -46.5 94.5t-152.5 56.5q-235 46 -363 133q-125 85 -125 275q0 96 31 175.5t84 134t125 92t153.5 54.5t170.5 17q118 0 237 -32t213 -89q-44 -82 -65 -239l-15 -9q-161 66 -299 66
q-91 0 -176 -29q-78 -28 -78 -100q0 -26 15 -45.5t48.5 -34t70 -24.5t94.5 -21q227 -49 330.5 -168t103.5 -291q0 -78 -32 -153.5t-96 -142.5t-176 -108.5t-255 -41.5q-120 0 -257.5 33t-232.5 83zM616 1591h-170l105 336h313v-22z" />
    <glyph glyph-name="sacute" unicode="&#x15b;" horiz-adv-x="968" 
d="M557 1255h-170l105 336h313v-22zM135 328q28 -24 132.5 -52t197.5 -28q156 0 156 96q0 34 -30 52.5t-118 35.5q-206 40 -302.5 122t-96.5 237q0 151 116.5 239t337.5 88q98 0 197 -26t166 -74q-51 -107 -66 -197l-26 -16q-90 59 -232 59q-149 0 -149 -84
q0 -26 34.5 -44.5t120.5 -37.5q188 -41 266.5 -131t78.5 -233q0 -56 -22.5 -113t-69.5 -111t-133 -88t-199 -34t-234 32t-194 93q53 102 69 215z" />
    <glyph glyph-name="Scircumflex" unicode="&#x15c;" horiz-adv-x="1150" 
d="M57 104q63 123 84 304q64 -34 187 -68.5t219 -34.5q84 0 143.5 28t59.5 85q0 58 -46.5 94.5t-152.5 56.5q-235 46 -363 133q-125 85 -125 275q0 96 31 175.5t84 134t125 92t153.5 54.5t170.5 17q118 0 237 -32t213 -89q-44 -82 -65 -239l-15 -9q-161 66 -299 66
q-91 0 -176 -29q-78 -28 -78 -100q0 -26 15 -45.5t48.5 -34t70 -24.5t94.5 -21q227 -49 330.5 -168t103.5 -291q0 -78 -32 -153.5t-96 -142.5t-176 -108.5t-255 -41.5q-120 0 -257.5 33t-232.5 83zM272 1591l203 336h232l202 -336h-182l-137 152l-135 -152h-183z" />
    <glyph glyph-name="scircumflex" unicode="&#x15d;" horiz-adv-x="968" 
d="M135 328q28 -24 132.5 -52t197.5 -28q156 0 156 96q0 34 -30 52.5t-118 35.5q-206 40 -302.5 122t-96.5 237q0 151 116.5 239t337.5 88q98 0 197 -26t166 -74q-51 -107 -66 -197l-26 -16q-90 59 -232 59q-149 0 -149 -84q0 -26 34.5 -44.5t120.5 -37.5
q188 -41 266.5 -131t78.5 -233q0 -56 -22.5 -113t-69.5 -111t-133 -88t-199 -34t-234 32t-194 93q53 102 69 215zM174 1255l203 336h231l203 -336h-182l-137 152l-136 -152h-182z" />
    <glyph glyph-name="Scedilla" unicode="&#x15e;" horiz-adv-x="1150" 
d="M1106 434q0 -76 -31 -150.5t-92 -140.5t-168 -108.5t-244 -46.5l-10 -76q5 0 18.5 1t18.5 1q100 0 156.5 -52t56.5 -124q0 -76 -68 -141q-65 -68 -194 -68q-60 0 -119 17.5t-92 43.5q25 49 29 123q19 -13 65 -25t86 -12q49 0 80 19.5t31 60.5q0 62 -140 62
q-20 0 -55.5 -4t-36.5 -4l-10 28l57 156q-213 22 -387 110q63 123 84 304q64 -34 187 -68.5t219 -34.5q84 0 143.5 28t59.5 85t-45.5 91.5t-153.5 59.5q-239 44 -363 131q-125 88 -125 277q0 96 31 175.5t84 134t125 92t153.5 54.5t170.5 17q118 0 237 -32t213 -89
q-44 -82 -65 -239l-15 -9q-161 66 -299 66q-91 0 -176 -29q-78 -28 -78 -100q0 -26 15 -45.5t48.5 -34t70 -24.5t94.5 -21q227 -49 330.5 -168t103.5 -291z" />
    <glyph glyph-name="scedilla" unicode="&#x15f;" horiz-adv-x="968" 
d="M494 -12h-13l-10 -76q5 0 18.5 1t18.5 1q100 0 156.5 -52t56.5 -124q0 -76 -68 -141q-65 -68 -194 -68q-60 0 -119 17.5t-92 43.5q24 46 28 123q19 -13 65.5 -25t86.5 -12q49 0 80 19.5t31 60.5q0 62 -140 62q-20 0 -55.5 -4t-36.5 -4l-10 28l59 162q-186 28 -290 113
q53 102 69 215q28 -24 132.5 -52t197.5 -28q156 0 156 96q0 34 -30 52.5t-118 35.5q-206 40 -302.5 122t-96.5 237q0 151 116.5 239t337.5 88q98 0 197 -26t166 -74q-51 -107 -66 -197l-26 -16q-90 59 -232 59q-149 0 -149 -84q0 -26 34.5 -44.5t120.5 -37.5
q188 -41 266.5 -131t78.5 -233q0 -56 -22.5 -113t-69.5 -111t-133 -88t-199 -34z" />
    <glyph glyph-name="Scaron" unicode="&#x160;" horiz-adv-x="1150" 
d="M57 104q63 123 84 304q64 -34 187 -68.5t219 -34.5q84 0 143.5 28t59.5 85q0 58 -46.5 94.5t-152.5 56.5q-235 46 -363 133q-125 85 -125 275q0 96 31 175.5t84 134t125 92t153.5 54.5t170.5 17q118 0 237 -32t213 -89q-44 -82 -65 -239l-15 -9q-161 66 -299 66
q-91 0 -176 -29q-78 -28 -78 -100q0 -26 15 -45.5t48.5 -34t70 -24.5t94.5 -21q227 -49 330.5 -168t103.5 -291q0 -78 -32 -153.5t-96 -142.5t-176 -108.5t-255 -41.5q-120 0 -257.5 33t-232.5 83zM276 1927h183l137 -162l135 162h182l-202 -336h-232z" />
    <glyph glyph-name="scaron" unicode="&#x161;" horiz-adv-x="968" 
d="M135 328q28 -24 132.5 -52t197.5 -28q156 0 156 96q0 34 -30 52.5t-118 35.5q-206 40 -302.5 122t-96.5 237q0 151 116.5 239t337.5 88q98 0 197 -26t166 -74q-51 -107 -66 -197l-26 -16q-90 59 -232 59q-149 0 -149 -84q0 -26 34.5 -44.5t120.5 -37.5
q188 -41 266.5 -131t78.5 -233q0 -56 -22.5 -113t-69.5 -111t-133 -88t-199 -34t-234 32t-194 93q53 102 69 215zM154 1591h182l137 -161l135 161h183l-203 -336h-232z" />
    <glyph glyph-name="uni0162" unicode="&#x162;" horiz-adv-x="1275" 
d="M678 -471q-60 0 -119 17.5t-92 43.5q25 49 29 123q19 -13 65 -25t86 -12q49 0 80 19.5t31 60.5q0 62 -140 62q-20 0 -55.5 -4t-36.5 -4l-10 28l57 158q-48 -2 -133 -8q0 22 3 123.5t3 142.5v850h-405q14 123 14 336q41 0 264 -1t320 -1q179 0 351.5 1t244.5 1
q-18 -141 -18 -336h-398v-735q0 -47 4 -195.5t4 -173.5h-125l-12 -88q5 0 18.5 1t18.5 1q100 0 156.5 -52t56.5 -124q0 -76 -68 -141q-65 -68 -194 -68z" />
    <glyph glyph-name="uni0163" unicode="&#x163;" horiz-adv-x="890" 
d="M166 424v410l-166 47q4 62 4 90t-4 82l168 47l39 241q28 0 61.5 4.5t59.5 10t77 17t87 18.5h53l-19 -285h279q-14 -110 -14 -162q0 -5 6 -110h-260v-336q0 -217 149 -217q50 0 115 24q4 -57 17 -103.5t42 -123.5q-139 -87 -285 -90l-10 -76q20 4 39 4q76 0 144 -47
q67 -46 67 -131q0 -77 -67 -141q-65 -68 -195 -68q-60 0 -119 17.5t-92 43.5q25 49 29 123q19 -13 65 -25t86 -12q49 0 80 19.5t31 60.5q0 62 -139 62q-20 0 -56 -4l-37 -4l-10 28l60 164q-126 34 -205.5 143t-79.5 279z" />
    <glyph glyph-name="Tcaron" unicode="&#x164;" horiz-adv-x="1275" 
d="M446 254v850h-405q14 118 14 336l267 -4q111 -2 337 -2q228 0 332 2q42 1 127 2t117 2q-18 -141 -18 -336q-41 1 -102 1t-151 -0.5t-145 -0.5v-735q0 -47 4 -195.5t4 -173.5q-69 0 -147.5 -2.5t-150.5 -5.5t-89 -4q0 22 3 123.5t3 142.5zM317 1927h183l137 -162l135 162
h182l-202 -336h-232z" />
    <glyph glyph-name="tcaron" unicode="&#x165;" horiz-adv-x="890" 
d="M166 424v410l-166 47q4 50 4 75q0 35 -4 97l168 47l39 241q117 0 285 50h53l-19 -285h279q-14 -110 -14 -162q0 -5 6 -110h-260v-336q0 -217 149 -217q50 0 115 24q4 -57 17 -103.5t42 -123.5q-142 -90 -293 -90q-81 0 -152 27t-127.5 79.5t-89 137.5t-32.5 192z
M723 1198q-28 40 -82 86v16q51 10 95 50t44 75q-75 0 -113 37t-38 92q0 74 44 111t115 37q75 0 119.5 -50t44.5 -141q0 -61 -23 -115.5t-52.5 -87.5t-67 -60t-56 -36t-30.5 -14z" />
    <glyph glyph-name="Tbar" unicode="&#x166;" horiz-adv-x="1275" 
d="M55 1440h1180q-18 -141 -18 -336h-398v-318h279q-6 -105 -6 -108q0 -2 6 -107h-279v-202q0 -47 4 -195.5t4 -173.5q-69 0 -147.5 -2.5t-150.5 -5.5t-89 -4q0 22 3 123.5t3 142.5v317h-286q0 3 0.5 23t1 50t0.5 56q0 61 -2 86h286v318h-405q14 118 14 336z" />
    <glyph glyph-name="tbar" unicode="&#x167;" horiz-adv-x="890" 
d="M801 305q9 -119 59 -227q-142 -90 -293 -90q-81 0 -152 27t-127.5 79.5t-89 137.5t-32.5 192v45h-168q0 2 0.5 22t1 49.5t0.5 55.5q0 61 -2 86h168v152l-166 47q4 54 4 75q0 27 -4 97l168 45l39 243q28 0 61.5 4.5t59.5 10t77 17t87 18.5h53l-19 -285h279
q-14 -110 -14 -162q0 -5 6 -110h-265v-152h271q-4 -62 -4 -111q0 -90 4 -102h-271q12 -188 154 -188q50 0 115 24z" />
    <glyph glyph-name="Utilde" unicode="&#x168;" horiz-adv-x="1456" 
d="M133 565v873q161 -2 371 12v-832q0 -156 60 -233.5t167 -77.5q102 0 161.5 76.5t59.5 224.5v830q176 -3 371 12v-850q0 -162 -44.5 -281.5t-126.5 -191t-189.5 -105.5t-241.5 -34q-588 0 -588 577zM342 1694q74 223 248 223q44 0 84.5 -16.5t66 -37t57.5 -37t62 -16.5
q32 0 59 16t60 68q55 -39 119 -63q-29 -71 -63.5 -118t-70.5 -67.5t-63.5 -27t-60.5 -6.5q-44 0 -85.5 16.5t-68 36.5t-59.5 36.5t-62 16.5q-62 0 -108 -82q-39 25 -58 35t-57 23z" />
    <glyph glyph-name="utilde" unicode="&#x169;" horiz-adv-x="1284" 
d="M115 322q0 87 1 205t1 151q0 159 -23 420q123 0 336 20h55v-688q0 -63 35.5 -98t89.5 -35q42 0 93 20t92 48v303q0 192 -21 430q116 0 334 20h55v-796q0 -200 33 -322q-214 0 -383 -12q-8 74 -16 190q-76 -87 -168 -138.5t-187 -51.5q-57 0 -113.5 20t-105 59
t-78.5 105.5t-30 149.5zM260 1337q74 224 248 224q44 0 84.5 -16.5t66 -37t57.5 -37t62 -16.5q32 0 59 16t60 68q55 -39 119 -63q-29 -71 -63.5 -118.5t-70.5 -67.5t-63.5 -27t-60.5 -7q-44 0 -85.5 16.5t-68 37t-59.5 37t-62 16.5q-62 0 -108 -82q-38 24 -57 33.5t-58 23.5
z" />
    <glyph glyph-name="Umacron" unicode="&#x16a;" horiz-adv-x="1456" 
d="M133 565v873q161 -2 371 12v-832q0 -156 60 -233.5t167 -77.5q102 0 161.5 76.5t59.5 224.5v830q176 -3 371 12v-850q0 -162 -44.5 -281.5t-126.5 -191t-189.5 -105.5t-241.5 -34q-588 0 -588 577zM987 1860v-207h-538q0 1 1 27t1.5 54.5t0 65t-2.5 60.5h538z" />
    <glyph glyph-name="umacron" unicode="&#x16b;" horiz-adv-x="1284" 
d="M115 322q0 87 1 205t1 151q0 159 -23 420q123 0 336 20h55v-688q0 -63 35.5 -98t89.5 -35q42 0 93 20t92 48v303q0 192 -21 430q116 0 334 20h55v-796q0 -200 33 -322q-214 0 -383 -12q-8 74 -16 190q-76 -87 -168 -138.5t-187 -51.5q-57 0 -113.5 20t-105 59
t-78.5 105.5t-30 149.5zM905 1503v-207h-538q0 1 1 27t1.5 54.5t0 65t-2.5 60.5h538z" />
    <glyph glyph-name="Ubreve" unicode="&#x16c;" horiz-adv-x="1456" 
d="M133 565v873q161 -2 371 12v-832q0 -156 60 -233.5t167 -77.5q102 0 161.5 76.5t59.5 224.5v830q176 -3 371 12v-850q0 -162 -44.5 -281.5t-126.5 -191t-189.5 -105.5t-241.5 -34q-588 0 -588 577zM416 1915q75 -14 147 0q7 -67 44.5 -97t111.5 -30q75 0 113 30t45 97
q18 -6 67 -6q53 0 80 6q0 -156 -79 -240t-226 -84t-225 84t-78 240z" />
    <glyph glyph-name="ubreve" unicode="&#x16d;" horiz-adv-x="1284" 
d="M115 322q0 87 1 205t1 151q0 159 -23 420q123 0 336 20h55v-688q0 -63 35.5 -98t89.5 -35q42 0 93 20t92 48v303q0 192 -21 430q116 0 334 20h55v-796q0 -200 33 -322q-214 0 -383 -12q-8 74 -16 190q-76 -87 -168 -138.5t-187 -51.5q-57 0 -113.5 20t-105 59
t-78.5 105.5t-30 149.5zM332 1559q75 -14 147 0q7 -67 44.5 -97t111.5 -30q75 0 113 30t45 97q21 -7 67 -7q48 0 80 7q0 -156 -79 -240t-226 -84t-225 84t-78 240z" />
    <glyph glyph-name="Uring" unicode="&#x16e;" horiz-adv-x="1456" 
d="M133 565v873q161 -2 371 12v-832q0 -156 60 -233.5t167 -77.5q102 0 161.5 76.5t59.5 224.5v830q176 -3 371 12v-850q0 -162 -44.5 -281.5t-126.5 -191t-189.5 -105.5t-241.5 -34q-588 0 -588 577zM733 1919q87 0 141 -52.5t54 -133.5t-54 -134t-141 -53q-86 0 -139 53
t-53 134t53 133.5t139 52.5zM733 1659q30 0 48 22.5t18 51.5t-18 51t-48 22t-47.5 -22t-17.5 -51t17.5 -51.5t47.5 -22.5z" />
    <glyph glyph-name="uring" unicode="&#x16f;" horiz-adv-x="1284" 
d="M115 322q0 87 1 205t1 151q0 159 -23 420q123 0 336 20h55v-688q0 -63 35.5 -98t89.5 -35q42 0 93 20t92 48v303q0 192 -21 430q116 0 334 20h55v-796q0 -200 33 -322q-214 0 -383 -12q-8 74 -16 190q-76 -87 -168 -138.5t-187 -51.5q-57 0 -113.5 20t-105 59
t-78.5 105.5t-30 149.5zM635 1583q87 0 140.5 -52.5t53.5 -133.5t-53.5 -134t-140.5 -53q-86 0 -139.5 53t-53.5 134t53 133.5t140 52.5zM635 1323q30 0 47.5 22.5t17.5 51.5t-17.5 51t-47.5 22t-48 -22t-18 -51t18 -51.5t48 -22.5z" />
    <glyph glyph-name="Uhungarumlaut" unicode="&#x170;" horiz-adv-x="1456" 
d="M133 565v873q161 -2 371 12v-832q0 -156 60 -233.5t167 -77.5q102 0 161.5 76.5t59.5 224.5v830q176 -3 371 12v-850q0 -162 -44.5 -281.5t-126.5 -191t-189.5 -105.5t-241.5 -34q-588 0 -588 577zM948 1591h-170l105 336h252v-22zM621 1591h-170l104 336h252v-22z" />
    <glyph glyph-name="uhungarumlaut" unicode="&#x171;" horiz-adv-x="1284" 
d="M115 322q0 87 1 205t1 151q0 159 -23 420q123 0 336 20h55v-688q0 -63 35.5 -98t89.5 -35q42 0 93 20t92 48v303q0 192 -21 430q116 0 334 20h55v-796q0 -200 33 -322q-214 0 -383 -12q-8 74 -16 190q-76 -87 -168 -138.5t-187 -51.5q-57 0 -113.5 20t-105 59
t-78.5 105.5t-30 149.5zM866 1255h-170l105 336h252v-22zM539 1255h-170l104 336h252v-22z" />
    <glyph glyph-name="Uogonek" unicode="&#x172;" horiz-adv-x="1456" 
d="M952 608v830q176 -3 371 12v-850q0 -287 -131 -430q-130 -142 -336 -172q-96 -96 -96 -188q0 -49 32.5 -77t77.5 -28q32 0 78 21l39 -107q-95 -65 -213 -65q-96 0 -172 55q-78 54 -78 158q0 60 55.5 121t141.5 100q-588 0 -588 577v873q161 -2 371 12v-832
q0 -156 60 -233.5t167 -77.5q102 0 161.5 76.5t59.5 224.5z" />
    <glyph glyph-name="uogonek" unicode="&#x173;" horiz-adv-x="1284" 
d="M977 -291q31 0 78 21l39 -107q-95 -65 -213 -65q-96 0 -172 55q-78 54 -78 158q0 60 50 119.5t132 97.5q-8 74 -16 190q-76 -87 -168 -138.5t-187 -51.5q-57 0 -113.5 20t-105 59t-78.5 105.5t-30 149.5q0 87 1 205t1 151q0 159 -23 420q123 0 336 20h55v-688
q0 -63 35.5 -98t89.5 -35q42 0 93 20t92 48v303q0 192 -21 430q116 0 334 20h55v-796q0 -200 33 -322q-72 0 -240 -4q-90 -93 -90 -182q0 -49 32.5 -77t78.5 -28z" />
    <glyph glyph-name="Wcircumflex" unicode="&#x174;" horiz-adv-x="2242" 
d="M1130 883l-198 -885q-31 1 -85.5 2.5t-99 2.5t-81.5 1q-33 0 -86.5 -2.5t-77.5 -3.5q-39 130 -101 315q-56 175 -139 418q-89 261 -143 408q-82 225 -109 286l-2 13q153 -6 238 -6q15 0 186 6q10 -37 55.5 -215.5t90.5 -345t133 -478.5q25 107 88.5 359.5t128.5 521.5
h424l207 -881q142 532 177.5 680t71.5 359q171 -6 189 -6q82 0 235 6l2 -13q-29 -66 -106 -286q-15 -46 -62.5 -186.5t-74.5 -221.5q-21 -63 -43.5 -134.5t-48.5 -154.5t-41 -129q-70 -219 -95 -315q-15 0 -84 3t-104 3q-49 0 -128.5 -2.5t-105.5 -3.5zM823 1591l203 336
h231l203 -336h-182l-137 152l-135 -152h-183z" />
    <glyph glyph-name="wcircumflex" unicode="&#x175;" horiz-adv-x="1683" 
d="M0 1106q136 -4 201 -4q72 0 190 4l146 -819l161 819h303l175 -819l141 819q126 -4 184 -4h105l77 4l-335 -1104q-178 0 -353 -14q-22 86 -41.5 168.5t-34 152t-25.5 126t-19.5 110t-13 83t-10 66t-5.5 39.5q-40 -285 -141 -731q-178 0 -353 -14q-65 202 -192.5 609.5
t-159.5 508.5zM530 1255l203 336h232l202 -336h-182l-137 152l-135 -152h-183z" />
    <glyph glyph-name="Ycircumflex" unicode="&#x176;" horiz-adv-x="1421" 
d="M557 -4v453l-549 974v15q305 4 453 12l252 -541q32 -76 41 -116q10 40 17.5 67t10.5 36.5t4 12.5l195 529q223 -3 432 12v-12l-465 -992v-448q-128 2 -391 -2zM416 1591l202 336h232l203 -336h-183l-137 152l-135 -152h-182z" />
    <glyph glyph-name="ycircumflex" unicode="&#x177;" horiz-adv-x="1183" 
d="M391 1106l223 -787h9l194 787q21 -1 60 -2.5t70 -2.5t57 -1q3 0 180 6l-78 -232q-82 -241 -115 -344q-32 -99 -112 -337q-42 -124 -66 -209q-127 -426 -481 -426q-144 0 -281 88q75 116 107 248q81 -48 155 -48q58 0 94 32.5t48 121.5l-455 1106q23 -1 64.5 -2.5
t75.5 -2.5t63 -1q11 0 188 6zM301 1255l203 336h231l203 -336h-182l-138 152l-135 -152h-182z" />
    <glyph glyph-name="Ydieresis" unicode="&#x178;" horiz-adv-x="1421" 
d="M557 -4v453l-549 974v15q305 4 453 12l252 -541q32 -76 41 -116q10 40 17.5 67t10.5 36.5t4 12.5l195 529q223 -3 432 12v-12l-465 -992v-448q-128 2 -391 -2zM795 1755q0 62 44.5 105t110.5 43t112 -43t46 -105q0 -63 -46 -107t-112 -44t-110.5 44t-44.5 107zM385 1755
q0 62 46 105t112 43t110.5 -43t44.5 -105q0 -63 -44.5 -107t-110.5 -44t-112 44t-46 107z" />
    <glyph glyph-name="Zacute" unicode="&#x179;" horiz-adv-x="1302" 
d="M72 129q0 29 -4 107l647 897h-602q0 20 2 55q4 70 4 98q0 84 -6 152h1079q-6 -41 -6 -131q0 -95 6 -142l-635 -870l680 18q-12 -85 -12 -155q0 -88 12 -158h-1171q6 41 6 129zM698 1591h-170l105 336h313v-22z" />
    <glyph glyph-name="zacute" unicode="&#x17a;" horiz-adv-x="1021" 
d="M952 0h-878v248q118 161 483 596q-152 4 -227 4q-80 0 -232 -4q4 86 4 137q0 59 -4 125h863v-258q-74 -101 -190 -240.5t-201 -237t-89 -102.5h166q181 0 307 11q-8 -51 -8 -162q0 -78 6 -117zM598 1255h-170l104 336h314v-22z" />
    <glyph glyph-name="Zdotaccent" unicode="&#x17b;" horiz-adv-x="1302" 
d="M72 129q0 29 -4 107l647 897h-602q0 20 2 55q4 70 4 98q0 84 -6 152h1079q-6 -41 -6 -131q0 -95 6 -142l-635 -870l680 18q-12 -85 -12 -155q0 -88 12 -158h-1171q6 41 6 129zM541 1753q0 62 45 102.5t112 40.5q64 0 110 -40.5t46 -102.5t-46 -102.5t-110 -40.5
q-67 0 -112 40.5t-45 102.5z" />
    <glyph glyph-name="zdotaccent" unicode="&#x17c;" horiz-adv-x="1021" 
d="M952 0h-878v248q118 161 483 596q-152 4 -227 4q-80 0 -232 -4q4 86 4 137q0 59 -4 125h863v-258q-74 -101 -190 -240.5t-201 -237t-89 -102.5h166q181 0 307 11q-8 -51 -8 -162q0 -78 6 -117zM408 1397q0 62 45 102.5t112 40.5q64 0 110 -40.5t46 -102.5t-46 -103
t-110 -41q-67 0 -112 41t-45 103z" />
    <glyph glyph-name="Zcaron" unicode="&#x17d;" horiz-adv-x="1302" 
d="M72 129q0 29 -4 107l647 897h-602q0 20 2 55q4 70 4 98q0 84 -6 152h1079q-6 -41 -6 -131q0 -95 6 -142l-635 -870l680 18q-12 -85 -12 -155q0 -88 12 -158h-1171q6 41 6 129zM317 1927h183l137 -162l135 162h182l-202 -336h-232z" />
    <glyph glyph-name="zcaron" unicode="&#x17e;" horiz-adv-x="1021" 
d="M952 0h-878v248q118 161 483 596q-152 4 -227 4q-80 0 -232 -4q4 86 4 137q0 59 -4 125h863v-258q-74 -101 -190 -240.5t-201 -237t-89 -102.5h166q181 0 307 11q-8 -51 -8 -162q0 -78 6 -117zM240 1591h182l137 -161l135 161h183l-203 -336h-232z" />
    <glyph glyph-name="longs" unicode="&#x17f;" horiz-adv-x="854" 
d="M139 254v594l-139 37q4 70 4 84q0 38 -4 108l139 19v67q0 95 25.5 169t67.5 120t101.5 76t122 41.5t134.5 11.5q159 0 264 -55q-3 -10 -12.5 -45.5t-12 -45.5t-9.5 -37t-9 -41.5t-5.5 -35.5t-4.5 -41q-60 31 -123 31q-72 0 -125 -45t-53 -119v-907q0 -56 4 -158
q1 -22 2 -42t1.5 -29.5t0.5 -10.5q-191 -3 -375 -12z" />
    <glyph glyph-name="Schwa" unicode="&#x18f;" horiz-adv-x="1470" 
d="M1399 711q0 -112 -29.5 -218t-88 -197.5t-140.5 -160t-194.5 -108t-241.5 -39.5q-286 0 -459.5 157t-173.5 426q0 148 24 250h910q0 4 -2.5 12.5t-2.5 12.5q-41 282 -344 282q-102 0 -201 -35.5t-214 -115.5q-10 17 -42.5 75.5t-57.5 99.5t-42 60q119 113 274 171.5
t314 58.5q156 0 285 -45.5t224.5 -134.5t148.5 -229.5t53 -321.5zM1010 561h-570q0 -27 4.5 -56t21.5 -69t45.5 -70t82.5 -51.5t125 -21.5q246 0 291 268z" />
    <glyph glyph-name="florin" unicode="&#x192;" horiz-adv-x="1054" 
d="M160 78l92 749l-133 37q23 113 26 213l140 19l10 67q14 95 49.5 169t83 120t110 76t125.5 41.5t134 11.5q161 0 258 -55q-74 -180 -94 -283q-73 47 -136 47q-142 0 -163 -143l-7 -41h269q-36 -151 -39 -295h-267l-81 -655q-24 -194 -148.5 -364t-267.5 -236
q-29 57 -146 159q6 6 19.5 22t41 54t51.5 79t45.5 98t27.5 110z" />
    <glyph glyph-name="Nhookleft" unicode="&#x19d;" horiz-adv-x="1607" 
d="M-37 -440q-202 0 -360 104q29 73 41 106t26 88.5t19 108.5l14 6q106 -73 215 -73q102 0 169 76t67 227v866q0 71 -8 197t-13 172q88 0 231 6t166 6l578 -934l-18 555q-2 34 -6.5 124t-8 156t-6.5 89q91 0 242.5 5t156.5 5q0 -15 -3 -118t-3 -146v-815q0 -80 4.5 -208
t8.5 -163l-437 -12q-59 118 -145.5 263.5t-208 337t-160.5 255.5v-656q0 -319 -145.5 -473.5t-415.5 -154.5z" />
    <glyph glyph-name="Gcaron" unicode="&#x1e6;" horiz-adv-x="1402" 
d="M459 700q0 -116 31 -199t89.5 -129.5t132 -67.5t167.5 -21h47q0 103 -6.5 219.5t-12.5 156.5q110 0 249 5t147 8q-1 -13 -5 -115q-2 -55 -2 -172q0 -232 7 -289q-225 -108 -504 -108q-118 0 -223.5 25t-198.5 79.5t-160 135.5t-106 200t-39 266q0 230 94 402t263 263
t390 91q249 0 445 -94q-32 -69 -64 -152q-29 -73 -47 -160l-12 -4q-74 48 -145.5 65t-161.5 17q-159 0 -267 -114.5t-108 -307.5zM440 1927h183l137 -162l135 162h182l-203 -336h-231z" />
    <glyph glyph-name="gcaron" unicode="&#x1e7;" horiz-adv-x="1171" 
d="M668 725q0 50 -11 93t-43 77.5t-82 34.5q-38 0 -65.5 -19t-41.5 -51t-20 -65.5t-6 -69.5q0 -35 6 -67.5t20 -64t41.5 -50.5t65.5 -19q49 0 81.5 34t43.5 76.5t11 90.5zM53 -188q0 53 39 106q42 54 164 66q-85 20 -127.5 68t-42.5 116q0 70 46.5 124t133.5 83
q-105 53 -161 141.5t-56 181.5q0 88 29 162.5t86 133t152 91.5t219 33q111 0 200 -28l424 26q-4 -82 -4 -125t4 -121l-24 -16l-152 16q33 -94 33 -170q0 -66 -30.5 -131t-88.5 -121t-154.5 -91t-216.5 -35q-34 0 -88 4q-18 -14 -31.5 -32.5t-13.5 -31.5q0 -29 35.5 -38
t116.5 -9h127q100 0 177 -13t142 -43.5t100 -88t35 -140.5q0 -120 -73 -205t-196.5 -126t-285.5 -41q-240 0 -379 67t-139 187zM825 -111q0 53 -55 69.5t-186 16.5h-176q-2 -4 -13.5 -17.5t-18.5 -28.5t-7 -33q0 -42 53.5 -75.5t155.5 -33.5q112 0 179.5 26t67.5 76z
M268 1591h183l137 -161l135 161h182l-203 -336h-231z" />
    <glyph glyph-name="Oogonek" unicode="&#x1ea;" horiz-adv-x="1509" 
d="M1438 723q0 -156 -43.5 -285.5t-121.5 -220t-182.5 -146.5t-228.5 -75q-90 -93 -90 -182q0 -49 32.5 -77t78.5 -28q31 0 78 21l38 -107q-95 -65 -213 -65q-96 0 -172 55q-77 53 -77 158q0 60 52 119t136 98q-142 4 -259 50t-206 133t-138.5 225.5t-49.5 316.5
q0 172 53 312.5t145.5 232.5t217.5 142t270 50q117 0 218.5 -27t187 -84.5t146 -142t94.5 -205.5t34 -268zM1061 713q0 191 -84 314.5t-221 123.5t-216 -120.5t-79 -307.5q0 -192 80 -315t217 -123t220 121.5t83 306.5z" />
    <glyph glyph-name="oogonek" unicode="&#x1eb;" 
d="M1137 557q0 -201 -112.5 -359t-307.5 -198q-94 -94 -94 -186q0 -49 32.5 -77t77.5 -28q31 0 78 21l39 -107q-95 -65 -213 -65q-96 0 -172 55q-78 54 -78 158q0 60 52.5 120t135.5 99q-110 2 -199 34t-148 85.5t-98.5 126.5t-57 152t-17.5 167q0 110 37 211t104 179.5
t171 125.5t229 47q115 0 207.5 -31t154 -83t102.5 -124.5t59 -152.5t18 -170zM770 563q0 61 -7 108.5t-24.5 93.5t-54 71.5t-90.5 25.5t-90.5 -25.5t-54 -71.5t-24.5 -93.5t-7 -108.5q0 -299 174 -299q81 0 129.5 71t48.5 228z" />
    <glyph glyph-name="Aringacute" unicode="&#x1fa;" horiz-adv-x="1462" 
d="M1442 0q-216 -3 -422 -12q-51 174 -82 284q-84 2 -244 2q-143 0 -192 -2l-76 -272q-192 -3 -406 -12q102 282 249.5 725.5t236.5 726.5q152 -4 225 -4q75 0 227 4q49 -161 102 -326t90.5 -278.5t90.5 -267t74.5 -214.5t72 -201.5t54.5 -152.5zM860 561l-141 563
l-141 -563q35 2 106 2q37 0 98 -1t78 -1zM541 1733q0 63 33.5 110t93.5 66l75 241h273v-22l-185 -232q45 -24 71 -67t26 -96q0 -81 -54 -134t-141 -53q-86 0 -139 53t-53 134zM733 1659q30 0 48 22.5t18 51.5t-18 51t-48 22t-47.5 -22t-17.5 -51t17.5 -51.5t47.5 -22.5z" />
    <glyph glyph-name="aringacute" unicode="&#x1fb;" horiz-adv-x="1120" 
d="M340 1397q0 63 33.5 110t93.5 66l76 242h272v-23l-184 -231q45 -23 70.5 -66.5t25.5 -97.5q0 -81 -54 -134t-141 -53q-86 0 -139 53t-53 134zM532 1323q30 0 48 22.5t18 51.5t-18 51t-48 22t-47.5 -22t-17.5 -51t17.5 -51.5t47.5 -22.5zM61 270q0 42 13.5 83t52.5 89.5
t100 88t166.5 73t241.5 49.5v47q0 57 -17 113q-15 51 -94 51q-57 0 -84 -43.5t-14 -97.5q-11 -1 -82 -5t-134.5 -11.5t-103.5 -20.5q-4 46 -4 66q0 72 17 129.5t43 95t66 65t77 41.5t85 22.5t82 10.5t75 2q62 0 120 -10t119.5 -37.5t106 -70.5t73.5 -116t29 -167v-328
q0 -80 20 -115.5t68 -35.5h17q-7 -60 8 -150q-34 -48 -92.5 -74t-122.5 -26q-69 0 -137 24q-67 27 -101 121q-49 -63 -126 -104t-171 -41q-137 0 -217 74.5t-80 207.5zM635 276v205q-51 -6 -99.5 -20.5t-89 -46t-40.5 -72.5q0 -48 31.5 -70t80.5 -22q60 0 117 26z" />
    <glyph glyph-name="AEacute" unicode="&#x1fc;" horiz-adv-x="2029" 
d="M991 627v497l-254 -497h254zM1649 1116h-283v-246h115q183 0 368 9q-6 -153 -6 -160q0 -33 6 -156q-29 1 -78.5 2.5t-90.5 2.5t-76 1q-86 0 -238 -4v-225h412q30 0 93 2.5t99 3.5q-30 -209 -20 -348q-37 0 -133 1t-152 1q-390 0 -674 -8v348h-399l-172 -340
q-183 -3 -400 -12l775 1452h1175q-20 -184 -20 -334q-110 10 -301 10zM1245 1591h-170l105 336h313v-22z" />
    <glyph glyph-name="aeacute" unicode="&#x1fd;" horiz-adv-x="1718" 
d="M61 270q0 42 13.5 83t52.5 89.5t100 88t166.5 73t241.5 49.5v47q0 57 -17 113q-15 51 -94 51q-57 0 -84 -43.5t-14 -97.5q-11 -1 -82 -5t-134.5 -11.5t-103.5 -20.5q-4 46 -4 66q0 368 465 368q190 0 301 -90q129 90 303 90q220 0 355 -123q137 -122 137 -333
q0 -96 -18 -195h-644q1 -10 5.5 -26.5t5.5 -22.5q23 -86 77 -122t150 -36q134 0 293 86l53 -98q38 -65 55 -84q-91 -88 -210.5 -133t-245.5 -45q-151 0 -258.5 48.5t-194.5 153.5q-55 -92 -158 -147t-215 -55q-137 0 -217 74.5t-80 207.5zM997 672h349q0 19 -2.5 39t-12 49
t-25 51t-45.5 37.5t-69 15.5q-99 0 -143 -59q-43 -63 -52 -133zM674 301q-27 69 -35 135l-6 45q-38 -4 -73.5 -13t-72 -24t-59 -40.5t-22.5 -57.5q0 -96 112 -96q89 0 156 51zM899 1255h-170l105 336h313v-22z" />
    <glyph glyph-name="Oslashacute" unicode="&#x1fe;" horiz-adv-x="1509" 
d="M336 0h-277l166 207q-153 186 -153 506q0 172 53 312.5t145.5 232.5t217.5 142t270 50q221 0 383 -98l88 110h274l-203 -254q138 -192 138 -485q0 -172 -53 -312t-145.5 -232t-217.5 -141.5t-270 -49.5q-212 0 -359 84zM485 532l441 553q-76 66 -170 66
q-137 0 -216 -120.5t-79 -307.5q0 -105 24 -191zM758 285q137 0 220 121.5t83 306.5q0 63 -21 170l-436 -547q66 -51 154 -51zM780 1591h-170l105 336h313v-22z" />
    <glyph glyph-name="oslashacute" unicode="&#x1ff;" 
d="M1137 557q0 -110 -37 -212t-104 -181.5t-171 -127.5t-229 -48q-204 0 -340 98l-74 -86q-124 8 -264 0l205 248q-68 130 -68 307q0 110 37 211t104 179.5t171 125.5t229 47q121 0 217 -35l84 105q132 -11 264 0l-174 -213q75 -77 112.5 -186.5t37.5 -231.5zM770 563
q0 61 -7 108.5t-24.5 93.5t-54 71.5t-90.5 25.5t-90.5 -25.5t-54 -71.5t-24.5 -93.5t-7 -108.5q0 -299 174 -299q81 0 129.5 71t48.5 228zM639 1255h-170l104 336h314v-22z" />
    <glyph glyph-name="Scommaaccent" unicode="&#x218;" horiz-adv-x="1150" 
d="M57 104q63 123 84 304q64 -34 187 -68.5t219 -34.5q84 0 143.5 28t59.5 85q0 58 -46.5 94.5t-152.5 56.5q-235 46 -363 133q-125 85 -125 275q0 96 31 175.5t84 134t125 92t153.5 54.5t170.5 17q118 0 237 -32t213 -89q-44 -82 -65 -239l-15 -9q-161 66 -299 66
q-91 0 -176 -29q-78 -28 -78 -100q0 -26 15 -45.5t48.5 -34t70 -24.5t94.5 -21q227 -49 330.5 -168t103.5 -291q0 -78 -32 -153.5t-96 -142.5t-176 -108.5t-255 -41.5q-120 0 -257.5 33t-232.5 83zM506 -596q-28 40 -82 86v16q51 10 95 50t44 75q-75 0 -113 37t-38 92
q0 74 44 111t115 37q75 0 119.5 -50t44.5 -141q0 -61 -23 -115.5t-52.5 -87.5t-67 -60t-56 -36t-30.5 -14z" />
    <glyph glyph-name="scommaaccent" unicode="&#x219;" horiz-adv-x="968" 
d="M416 -596q-28 40 -82 86v16q51 10 95 50t44 75q-75 0 -113 37t-38 92q0 74 44 111t115 37q75 0 119.5 -50t44.5 -141q0 -61 -23 -115.5t-52.5 -87.5t-67 -60t-56 -36t-30.5 -14zM135 328q28 -24 132.5 -52t197.5 -28q156 0 156 96q0 34 -30 52.5t-118 35.5
q-206 40 -302.5 122t-96.5 237q0 151 116.5 239t337.5 88q98 0 197 -26t166 -74q-51 -107 -66 -197l-26 -16q-90 59 -232 59q-149 0 -149 -84q0 -26 34.5 -44.5t120.5 -37.5q188 -41 266.5 -131t78.5 -233q0 -56 -22.5 -113t-69.5 -111t-133 -88t-199 -34t-234 32t-194 93
q53 102 69 215z" />
    <glyph glyph-name="uni021A" unicode="&#x21a;" horiz-adv-x="1275" 
d="M446 254v850h-405q14 118 14 336l267 -4q111 -2 337 -2q228 0 332 2q42 1 127 2t117 2q-18 -141 -18 -336q-41 1 -102 1t-151 -0.5t-145 -0.5v-735q0 -47 4 -195.5t4 -173.5q-69 0 -147.5 -2.5t-150.5 -5.5t-89 -4q0 22 3 123.5t3 142.5zM575 -596q-29 42 -81 86v16
q51 10 95 50t44 75q-75 0 -113.5 37t-38.5 92q0 74 44.5 111t115.5 37q75 0 119.5 -50t44.5 -141q0 -61 -23 -115.5t-52.5 -87.5t-67.5 -60t-56.5 -36t-30.5 -14z" />
    <glyph glyph-name="uni021B" unicode="&#x21b;" horiz-adv-x="890" 
d="M166 424v410l-166 47q4 50 4 75q0 35 -4 97l168 47l39 241q117 0 285 50h53l-19 -285h279q-14 -110 -14 -162q0 -5 6 -110h-260v-336q0 -217 149 -217q50 0 115 24q4 -57 17 -103.5t42 -123.5q-142 -90 -293 -90q-81 0 -152 27t-127.5 79.5t-89 137.5t-32.5 192z
M436 -596q-28 40 -82 86v16q51 11 95.5 50.5t44.5 74.5q-75 0 -113.5 37t-38.5 92q0 74 44.5 111t115.5 37q75 0 119.5 -50t44.5 -141q0 -61 -23 -115.5t-52.5 -87.5t-67.5 -60t-56.5 -36t-30.5 -14z" />
    <glyph glyph-name="Ymacron" unicode="&#x232;" horiz-adv-x="1421" 
d="M557 -4v453l-549 974v15q305 4 453 12l252 -541q32 -76 41 -116q10 40 17.5 67t10.5 36.5t4 12.5l195 529q223 -3 432 12v-12l-465 -992v-448q-128 2 -391 -2zM1018 1860v-207h-539q0 1 1 27t1.5 54.5t0 65t-2.5 60.5h539z" />
    <glyph glyph-name="ymacron" unicode="&#x233;" horiz-adv-x="1183" 
d="M391 1106l223 -787h9l194 787q21 -1 60 -2.5t70 -2.5t57 -1q3 0 180 6l-78 -232q-82 -241 -115 -344q-32 -99 -112 -337q-42 -124 -66 -209q-127 -426 -481 -426q-144 0 -281 88q75 116 107 248q81 -48 155 -48q58 0 94 32.5t48 121.5l-455 1106q23 -1 64.5 -2.5
t75.5 -2.5t63 -1q11 0 188 6zM881 1503v-207h-539q0 1 1 27t1.5 54.5t0 65t-2.5 60.5h539z" />
    <glyph glyph-name="dotlessj" unicode="&#x237;" horiz-adv-x="604" 
d="M123 78v571q0 61 -4 133.5t-11.5 169.5t-7.5 101q68 0 169.5 15t166.5 38h56v-950q0 -192 -104 -362.5t-241 -237.5q-51 71 -165 159q4 4 17 21.5t35 54.5t41 78.5t33.5 98.5t14.5 110z" />
    <glyph glyph-name="schwa" unicode="&#x259;" horiz-adv-x="1142" 
d="M1087 551q0 -110 -36.5 -211t-103.5 -179.5t-171 -125.5t-229 -47q-218 0 -357 121q-135 123 -135 333q0 90 19 195h643q0 3 -1 9t-1 9q-27 189 -236 189q-134 0 -293 -86l-55 96q-40 71 -53 86q91 88 211 133t246 45q122 0 222.5 -35.5t174 -104.5t114.5 -178t41 -249z
M721 434h-348q0 -25 5 -51.5t19 -61.5t47 -57t82 -22q101 0 142 59q44 59 53 133z" />
    <glyph glyph-name="nhookleft" unicode="&#x272;" horiz-adv-x="1288" 
d="M145 -444q-51 71 -165 159q4 4 17 21.5t35 54.5t41 78.5t33.5 98.5t14.5 110v590q0 57 -2 116.5t-5.5 104.5t-6.5 81t-5 57t-2 22q108 0 334 57h55v-168q74 87 167.5 133.5t197.5 46.5q47 0 91.5 -9.5t88 -33t75.5 -58t51.5 -89t19.5 -121.5v-627q0 -45 7 -109.5t7 -70.5
q-230 0 -385 -12q0 1 1 52t2 115.5t1 98.5v444q0 113 -127 113q-49 0 -104 -16.5t-93 -42.5v-596q0 -192 -103.5 -362.5t-240.5 -237.5z" />
    <glyph glyph-name="circumflex" unicode="&#x2c6;" 
d="M276 1255l203 336h232l202 -336h-182l-137 152l-135 -152h-183z" />
    <glyph glyph-name="caron" unicode="&#x2c7;" 
d="M276 1591h183l137 -161l135 161h182l-202 -336h-232z" />
    <glyph glyph-name="uni02C9" unicode="&#x2c9;" 
d="M864 1503v-207h-538q0 1 1 27t1.5 54.5t0 65t-2.5 60.5h538z" />
    <glyph glyph-name="breve" unicode="&#x2d8;" 
d="M291 1559q75 -14 147 0q7 -67 44.5 -97t111.5 -30q75 0 113 30t45 97q21 -7 67 -7q49 0 80 7q0 -156 -79 -240t-226 -84t-225 84t-78 240z" />
    <glyph glyph-name="dotaccent" unicode="&#x2d9;" 
d="M438 1397q0 62 45.5 102.5t112.5 40.5q64 0 110 -40.5t46 -102.5t-46 -103t-110 -41q-67 0 -112.5 41t-45.5 103z" />
    <glyph glyph-name="ring" unicode="&#x2da;" 
d="M594 1583q87 0 140.5 -52.5t53.5 -133.5t-53.5 -134t-140.5 -53q-86 0 -139.5 53t-53.5 134t53 133.5t140 52.5zM594 1323q30 0 47.5 22.5t17.5 51.5t-17.5 51t-47.5 22t-48 -22t-18 -51t18 -51.5t48 -22.5z" />
    <glyph glyph-name="ogonek" unicode="&#x2db;" 
d="M657 27h66q-56 -48 -89.5 -105.5t-33.5 -107.5q0 -49 32.5 -77t78.5 -28q31 0 77 21l39 -107q-95 -65 -213 -65q-96 0 -172 55q-77 53 -77 158q0 77 86 151q90 72 206 105z" />
    <glyph glyph-name="tilde" unicode="&#x2dc;" 
d="M219 1337q74 224 248 224q44 0 84.5 -16.5t66 -37t57.5 -37t62 -16.5q32 0 59 16t60 68q55 -39 119 -63q-29 -71 -63.5 -118.5t-70.5 -67.5t-63.5 -27t-60.5 -7q-44 0 -85.5 16.5t-68 37t-59.5 37t-62 16.5q-62 0 -108 -82q-38 24 -57 33.5t-58 23.5z" />
    <glyph glyph-name="hungarumlaut" unicode="&#x2dd;" 
d="M825 1255h-170l105 336h252v-22zM498 1255h-170l104 336h252v-22z" />
    <glyph glyph-name="dotbelowcomb" unicode="&#x323;" horiz-adv-x="0" 
d="M-158 -236q0 62 46 103t114 41q64 0 110 -41t46 -103t-46 -102.5t-110 -40.5q-68 0 -114 40.5t-46 102.5z" />
    <glyph glyph-name="Deltagreek" unicode="&#x394;" horiz-adv-x="1536" 
d="M623 1438h292l562 -1438h-1418zM1008 293l-240 665l-240 -665h480z" />
    <glyph glyph-name="Omegagreek" unicode="&#x3a9;" horiz-adv-x="1599" 
d="M113 141q0 53 -11 146h355v39q-166 88 -252 226t-86 292q0 115 47 222t131.5 191.5t215.5 135.5t286 51q157 0 288 -51t216 -135.5t131.5 -191.5t46.5 -222q0 -154 -86 -292t-252 -226v-39h354q-10 -78 -10 -144q0 -58 10 -143h-618v461q96 50 147 153q55 104 55 209
q0 157 -84 245.5t-198 88.5q-115 0 -199 -86.5t-84 -241.5q0 -108 55 -215q54 -106 150 -153v-461h-619q11 86 11 141z" />
    <glyph glyph-name="mugreek" unicode="&#x3bc;" horiz-adv-x="1284" 
d="M1108 1118h55v-796q0 -200 33 -322q-214 0 -383 -12q-8 74 -16 190q-66 -77 -147.5 -127.5t-166.5 -60.5v-185q0 -155 11 -245q-202 0 -385 -13v8q0 8 0.5 25.5t1 44t1 67t1 91t1 121t1 151t0.5 186v222.5l2 215q0 159 -23 420q123 0 336 20h55v-688q0 -63 35.5 -98
t89.5 -35q42 0 93 20t92 48v303q0 192 -21 430q116 0 334 20z" />
    <glyph glyph-name="pi" unicode="&#x3c0;" horiz-adv-x="1318" 
d="M1210 164v-21q-102 -55 -180 -159q-137 43 -194.5 135t-57.5 274v414h-252v-807h-297v807h-168v297h1196v-297h-180v-330q0 -84 10 -141.5t31 -91t41 -49.5t51 -31z" />
    <glyph glyph-name="Wgrave" unicode="&#x1e80;" horiz-adv-x="2242" 
d="M1130 883l-198 -885q-31 1 -85.5 2.5t-99 2.5t-81.5 1q-33 0 -86.5 -2.5t-77.5 -3.5q-39 130 -101 315q-56 175 -139 418q-89 261 -143 408q-82 225 -109 286l-2 13q153 -6 238 -6q15 0 186 6q10 -37 55.5 -215.5t90.5 -345t133 -478.5q25 107 88.5 359.5t128.5 521.5
h424l207 -881q142 532 177.5 680t71.5 359q171 -6 189 -6q82 0 235 6l2 -13q-29 -66 -106 -286q-15 -46 -62.5 -186.5t-74.5 -221.5q-21 -63 -43.5 -134.5t-48.5 -154.5t-41 -129q-70 -219 -95 -315q-15 0 -84 3t-104 3q-49 0 -128.5 -2.5t-105.5 -3.5zM811 1905v22h313
l105 -336h-170z" />
    <glyph glyph-name="wgrave" unicode="&#x1e81;" horiz-adv-x="1683" 
d="M0 1106q136 -4 201 -4q72 0 190 4l146 -819l161 819h303l175 -819l141 819q126 -4 184 -4h105l77 4l-335 -1104q-178 0 -353 -14q-22 86 -41.5 168.5t-34 152t-25.5 126t-19.5 110t-13 83t-10 66t-5.5 39.5q-40 -285 -141 -731q-178 0 -353 -14q-65 202 -192.5 609.5
t-159.5 508.5zM514 1569v22h313l105 -336h-170z" />
    <glyph glyph-name="Wacute" unicode="&#x1e82;" horiz-adv-x="2242" 
d="M1130 883l-198 -885q-31 1 -85.5 2.5t-99 2.5t-81.5 1q-33 0 -86.5 -2.5t-77.5 -3.5q-39 130 -101 315q-56 175 -139 418q-89 261 -143 408q-82 225 -109 286l-2 13q153 -6 238 -6q15 0 186 6q10 -37 55.5 -215.5t90.5 -345t133 -478.5q25 107 88.5 359.5t128.5 521.5
h424l207 -881q142 532 177.5 680t71.5 359q171 -6 189 -6q82 0 235 6l2 -13q-29 -66 -106 -286q-15 -46 -62.5 -186.5t-74.5 -221.5q-21 -63 -43.5 -134.5t-48.5 -154.5t-41 -129q-70 -219 -95 -315q-15 0 -84 3t-104 3q-49 0 -128.5 -2.5t-105.5 -3.5zM1251 1591h-170
l105 336h313v-22z" />
    <glyph glyph-name="wacute" unicode="&#x1e83;" horiz-adv-x="1683" 
d="M0 1106q136 -4 201 -4q72 0 190 4l146 -819l161 819h303l175 -819l141 819q126 -4 184 -4h105l77 4l-335 -1104q-178 0 -353 -14q-22 86 -41.5 168.5t-34 152t-25.5 126t-19.5 110t-13 83t-10 66t-5.5 39.5q-40 -285 -141 -731q-178 0 -353 -14q-65 202 -192.5 609.5
t-159.5 508.5zM940 1255h-170l104 336h314v-22z" />
    <glyph glyph-name="Wdieresis" unicode="&#x1e84;" horiz-adv-x="2242" 
d="M1130 883l-198 -885q-31 1 -85.5 2.5t-99 2.5t-81.5 1q-33 0 -86.5 -2.5t-77.5 -3.5q-39 130 -101 315q-56 175 -139 418q-89 261 -143 408q-82 225 -109 286l-2 13q153 -6 238 -6q15 0 186 6q10 -37 55.5 -215.5t90.5 -345t133 -478.5q25 107 88.5 359.5t128.5 521.5
h424l207 -881q142 532 177.5 680t71.5 359q171 -6 189 -6q82 0 235 6l2 -13q-29 -66 -106 -286q-15 -46 -62.5 -186.5t-74.5 -221.5q-21 -63 -43.5 -134.5t-48.5 -154.5t-41 -129q-70 -219 -95 -315q-15 0 -84 3t-104 3q-49 0 -128.5 -2.5t-105.5 -3.5zM1180 1755
q0 62 44.5 105t110.5 43t112 -43t46 -105q0 -63 -46 -107t-112 -44t-110.5 44t-44.5 107zM770 1755q0 62 46 105t112 43t110.5 -43t44.5 -105q0 -63 -44.5 -107t-110.5 -44t-112 44t-46 107z" />
    <glyph glyph-name="wdieresis" unicode="&#x1e85;" horiz-adv-x="1683" 
d="M0 1106q136 -4 201 -4q72 0 190 4l146 -819l161 819h303l175 -819l141 819q126 -4 184 -4h105l77 4l-335 -1104q-178 0 -353 -14q-22 86 -41.5 168.5t-34 152t-25.5 126t-19.5 110t-13 83t-10 66t-5.5 39.5q-40 -285 -141 -731q-178 0 -353 -14q-65 202 -192.5 609.5
t-159.5 508.5zM897 1399q0 62 45 104.5t111 42.5t111.5 -42.5t45.5 -104.5q0 -63 -45.5 -107.5t-111.5 -44.5t-111 44.5t-45 107.5zM487 1399q0 61 46 104t112 43t111 -42.5t45 -104.5q0 -63 -45 -107.5t-111 -44.5t-112 44.5t-46 107.5z" />
    <glyph glyph-name="uni1E9E" unicode="&#x1e9e;" horiz-adv-x="1415" 
d="M557 113q54 105 70 215q31 -27 120.5 -54.5t170.5 -27.5q149 0 149 98q0 31 -28 51.5t-97 44.5q-205 72 -289 136.5t-84 150.5q0 65 28.5 112t86.5 105q87 83 133 137q35 44 35 82q0 66 -46.5 104t-113.5 38q-111 0 -163 -72t-52 -193v-800q0 -36 8 -240q-230 0 -385 -12
q1 17 2 61t2 66q2 55 2 139v848q0 109 47 201t124 152t174 93t198 33q257 0 400 -100.5t143 -274.5q0 -55 -16 -105t-42 -86.5t-57 -68.5t-62.5 -56.5t-57.5 -45t-42 -40t-16 -36.5q0 -26 35 -44.5t121 -37.5q309 -64 309 -352q0 -56 -22.5 -113t-69.5 -111t-133 -88
t-199 -34q-104 0 -205.5 32t-177.5 93z" />
    <glyph glyph-name="Adotbelow" unicode="&#x1ea0;" horiz-adv-x="1462" 
d="M1442 0q-216 -3 -422 -12q-51 174 -82 284q-84 2 -244 2q-143 0 -192 -2l-76 -272q-192 -3 -406 -12q102 282 249.5 725.5t236.5 726.5q152 -4 225 -4q75 0 227 4q49 -161 102 -326t90.5 -278.5t90.5 -267t74.5 -214.5t72 -201.5t54.5 -152.5zM860 561l-141 563
l-141 -563q35 2 106 2q37 0 98 -1t78 -1zM555 -236q0 62 46 103t114 41q64 0 109.5 -41t45.5 -103t-45.5 -102.5t-109.5 -40.5q-68 0 -114 40.5t-46 102.5z" />
    <glyph glyph-name="adotbelow" unicode="&#x1ea1;" horiz-adv-x="1120" 
d="M61 270q0 42 13.5 83t52.5 89.5t100 88t166.5 73t241.5 49.5v47q0 57 -17 113q-15 51 -94 51q-57 0 -84 -43.5t-14 -97.5q-11 -1 -82 -5t-134.5 -11.5t-103.5 -20.5q-4 46 -4 66q0 72 17 129.5t43 95t66 65t77 41.5t85 22.5t82 10.5t75 2q62 0 120 -10t119.5 -37.5
t106 -70.5t73.5 -116t29 -167v-328q0 -80 20 -115.5t68 -35.5h17q-7 -60 8 -150q-34 -48 -92.5 -74t-122.5 -26q-69 0 -137 24q-67 27 -101 121q-49 -63 -126 -104t-171 -41q-137 0 -217 74.5t-80 207.5zM635 276v205q-51 -6 -99.5 -20.5t-89 -46t-40.5 -72.5
q0 -48 31.5 -70t80.5 -22q60 0 117 26zM424 -236q0 62 46 103t114 41q64 0 109.5 -41t45.5 -103t-45.5 -102.5t-109.5 -40.5q-68 0 -114 40.5t-46 102.5z" />
    <glyph glyph-name="Edotbelow" unicode="&#x1eb8;" 
d="M154 244v815q0 71 -8 202.5t-13 176.5h1000q-20 -132 -23 -310q-162 14 -381 11l-205 -4v-265q284 0 486 9q-9 -45 -9 -160q0 -67 9 -156q-29 1 -79.5 2.5t-91.5 2.5t-77 1q-86 0 -238 -4v-270q196 -4 289 -4q174 0 313 8q-13 -103 -14 -115q-4 -54 -4 -116q0 -45 2 -70
q-40 1 -114 2.5t-134 2.5t-114 1q-427 0 -603 -12q9 64 9 252zM487 -236q0 62 46 103t114 41q64 0 110 -41t46 -103t-46 -102.5t-110 -40.5q-68 0 -114 40.5t-46 102.5z" />
    <glyph glyph-name="edotbelow" unicode="&#x1eb9;" horiz-adv-x="1142" 
d="M55 555q0 110 37 211t104 179.5t171 125.5t229 47q219 0 354 -123q137 -119 137 -331q0 -96 -18 -195h-643q0 -3 1 -9t1 -9q27 -189 236 -189q133 0 292 86l54 -98q38 -65 55 -84q-91 -88 -211 -133t-246 -45q-122 0 -222.5 35.5t-174.5 104.5t-115 178t-41 249zM422 672
h348q0 19 -2.5 39t-12 49t-25 51t-45.5 37.5t-69 15.5q-99 0 -143 -59q-42 -61 -51 -133zM436 -236q0 62 46 103t114 41q64 0 110 -41t46 -103t-46 -102.5t-110 -40.5q-68 0 -114 40.5t-46 102.5z" />
    <glyph glyph-name="Etilde" unicode="&#x1ebc;" 
d="M301 1694q74 223 248 223q44 0 84.5 -16.5t66 -37t57.5 -37t62 -16.5q32 0 59 16t60 68q55 -39 119 -63q-29 -71 -63.5 -118t-70.5 -67.5t-63.5 -27t-60.5 -6.5q-44 0 -85.5 16.5t-68 36.5t-59.5 36.5t-62 16.5q-62 0 -108 -82q-39 25 -58 35t-57 23zM154 244v815
q0 71 -8 202.5t-13 176.5h1000q-20 -132 -23 -310q-162 14 -381 11l-205 -4v-265q284 0 486 9q-9 -45 -9 -160q0 -67 9 -156q-29 1 -79.5 2.5t-91.5 2.5t-77 1q-86 0 -238 -4v-270q196 -4 289 -4q174 0 313 8q-13 -103 -14 -115q-4 -54 -4 -116q0 -45 2 -70q-40 1 -114 2.5
t-134 2.5t-114 1q-427 0 -603 -12q9 64 9 252z" />
    <glyph glyph-name="etilde" unicode="&#x1ebd;" horiz-adv-x="1142" 
d="M55 555q0 110 37 211t104 179.5t171 125.5t229 47q219 0 354 -123q137 -119 137 -331q0 -96 -18 -195h-643q0 -3 1 -9t1 -9q27 -189 236 -189q133 0 292 86l54 -98q38 -65 55 -84q-91 -88 -211 -133t-246 -45q-122 0 -222.5 35.5t-174.5 104.5t-115 178t-41 249zM422 672
h348q0 19 -2.5 39t-12 49t-25 51t-45.5 37.5t-69 15.5q-99 0 -143 -59q-42 -61 -51 -133zM195 1337q74 224 247 224q44 0 85 -16.5t66.5 -37t57.5 -37t62 -16.5q31 0 58 16t60 68q55 -39 119 -63q-29 -71 -63.5 -118.5t-70.5 -67.5t-63.5 -27t-60.5 -7q-44 0 -85.5 16.5
t-68 37t-59 37t-61.5 16.5q-63 0 -109 -82q-57 37 -114 57z" />
    <glyph glyph-name="Idotbelow" unicode="&#x1eca;" horiz-adv-x="679" 
d="M524 1184v-815q0 -70 8.5 -194.5t14.5 -174.5q-131 0 -397 -12q0 3 2 112t2 154v815q0 71 -8 197t-13 172q199 0 399 12q0 -3 -4 -112t-4 -154zM190 -236q0 62 46 103t114 41q64 0 110 -41t46 -103t-46 -102.5t-110 -40.5q-68 0 -114 40.5t-46 102.5z" />
    <glyph glyph-name="idotbelow" unicode="&#x1ecb;" horiz-adv-x="600" 
d="M113 1405q0 78 57 127t141 49q78 0 136.5 -49.5t58.5 -126.5t-59 -129.5t-136 -52.5q-83 0 -140.5 52t-57.5 130zM115 254v414q0 160 -21 381q61 0 160.5 16.5t175.5 40.5h55v-860q0 -156 11 -246q-218 0 -387 -12q0 22 3 126.5t3 139.5zM150 -236q0 63 45.5 103.5
t113.5 40.5q64 0 110 -41t46 -103t-46 -102.5t-110 -40.5q-68 0 -113.5 40.5t-45.5 102.5z" />
    <glyph glyph-name="Odotbelow" unicode="&#x1ecc;" horiz-adv-x="1509" 
d="M1438 723q0 -172 -53 -312t-145.5 -232t-217.5 -141.5t-270 -49.5q-147 0 -269 44t-215 130.5t-144.5 227t-51.5 323.5q0 172 53 312.5t145.5 232.5t217.5 142t270 50q117 0 218.5 -27t187 -84.5t146 -142t94.5 -205.5t34 -268zM1061 713q0 191 -84 314.5t-221 123.5
t-216 -120.5t-79 -307.5q0 -192 80 -315t217 -123t220 121.5t83 306.5zM604 -236q0 62 46 103t114 41q64 0 110 -41t46 -103t-46 -102.5t-110 -40.5q-68 0 -114 40.5t-46 102.5z" />
    <glyph glyph-name="odotbelow" unicode="&#x1ecd;" 
d="M1137 557q0 -110 -37 -212t-104 -181.5t-171 -127.5t-229 -48q-115 0 -207.5 31.5t-154 84.5t-102.5 126.5t-59 154t-18 170.5q0 110 37 211t104 179.5t171 125.5t229 47q115 0 207.5 -31t154 -83t102.5 -124.5t59 -152.5t18 -170zM770 563q0 61 -7 108.5t-24.5 93.5
t-54 71.5t-90.5 25.5t-90.5 -25.5t-54 -71.5t-24.5 -93.5t-7 -108.5q0 -299 174 -299q81 0 129.5 71t48.5 228zM426 -236q0 62 46 103t114 41q64 0 109.5 -41t45.5 -103t-45.5 -102.5t-109.5 -40.5q-68 0 -114 40.5t-46 102.5z" />
    <glyph glyph-name="Udotbelow" unicode="&#x1ee4;" horiz-adv-x="1456" 
d="M133 565v873q161 -2 371 12v-832q0 -156 60 -233.5t167 -77.5q102 0 161.5 76.5t59.5 224.5v830q176 -3 371 12v-850q0 -162 -44.5 -281.5t-126.5 -191t-189.5 -105.5t-241.5 -34q-588 0 -588 577zM565 -236q0 62 46 103t114 41q64 0 110 -41t46 -103t-46 -102.5
t-110 -40.5q-68 0 -114 40.5t-46 102.5z" />
    <glyph glyph-name="udotbelow" unicode="&#x1ee5;" horiz-adv-x="1284" 
d="M115 322q0 87 1 205t1 151q0 159 -23 420q123 0 336 20h55v-688q0 -63 35.5 -98t89.5 -35q42 0 93 20t92 48v303q0 192 -21 430q116 0 334 20h55v-796q0 -200 33 -322q-214 0 -383 -12q-8 74 -16 190q-76 -87 -168 -138.5t-187 -51.5q-57 0 -113.5 20t-105 59
t-78.5 105.5t-30 149.5zM479 -236q0 62 46 103t114 41q64 0 110 -41t46 -103t-46 -102.5t-110 -40.5q-68 0 -114 40.5t-46 102.5z" />
    <glyph glyph-name="Ygrave" unicode="&#x1ef2;" horiz-adv-x="1421" 
d="M557 -4v453l-549 974v15q305 4 453 12l252 -541q32 -76 41 -116q10 40 17.5 67t10.5 36.5t4 12.5l195 529q223 -3 432 12v-12l-465 -992v-448q-128 2 -391 -2zM401 1905v22h314l104 -336h-170z" />
    <glyph glyph-name="ygrave" unicode="&#x1ef3;" horiz-adv-x="1183" 
d="M391 1106l223 -787h9l194 787q21 -1 60 -2.5t70 -2.5t57 -1q3 0 180 6l-78 -232q-82 -241 -115 -344q-32 -99 -112 -337q-42 -124 -66 -209q-127 -426 -481 -426q-144 0 -281 88q75 116 107 248q81 -48 155 -48q58 0 94 32.5t48 121.5l-455 1106q23 -1 64.5 -2.5
t75.5 -2.5t63 -1q11 0 188 6zM264 1569v22h314l104 -336h-170z" />
    <glyph glyph-name="Ytilde" unicode="&#x1ef8;" horiz-adv-x="1421" 
d="M557 -4v453l-549 974v15q305 4 453 12l252 -541q32 -76 41 -116q10 40 17.5 67t10.5 36.5t4 12.5l195 529q223 -3 432 12v-12l-465 -992v-448q-128 2 -391 -2zM342 1694q74 223 248 223q44 0 84.5 -16.5t66 -37t57.5 -37t62 -16.5q32 0 59 16t60 68q55 -39 119 -63
q-29 -71 -63.5 -118t-70.5 -67.5t-63.5 -27t-60.5 -6.5q-44 0 -85.5 16.5t-68 36.5t-59.5 36.5t-62 16.5q-62 0 -108 -82q-39 25 -58 35t-57 23z" />
    <glyph glyph-name="ytilde" unicode="&#x1ef9;" horiz-adv-x="1183" 
d="M391 1106l223 -787h9l194 787q21 -1 60 -2.5t70 -2.5t57 -1q3 0 180 6l-78 -232q-82 -241 -115 -344q-32 -99 -112 -337q-42 -124 -66 -209q-127 -426 -481 -426q-144 0 -281 88q75 116 107 248q81 -48 155 -48q58 0 94 32.5t48 121.5l-455 1106q23 -1 64.5 -2.5
t75.5 -2.5t63 -1q11 0 188 6zM256 1337q74 224 248 224q44 0 84.5 -16.5t66 -37t57.5 -37t62 -16.5q32 0 59 16t60 68q55 -39 119 -63q-29 -71 -63.5 -118.5t-70.5 -67.5t-63.5 -27t-60.5 -7q-44 0 -85.5 16.5t-68 37t-59.5 37t-62 16.5q-62 0 -108 -82q-38 24 -57 33.5
t-58 23.5z" />
    <glyph glyph-name="endash" unicode="&#x2013;" horiz-adv-x="1140" 
d="M154 582v249h833v-249h-833z" />
    <glyph glyph-name="emdash" unicode="&#x2014;" horiz-adv-x="1970" 
d="M154 582v249h1663v-249h-1663z" />
    <glyph glyph-name="horizontalbar" unicode="&#x2015;" horiz-adv-x="1990" 
d="M0 582v249h1991v-249h-1991z" />
    <glyph glyph-name="quoteleft" unicode="&#x2018;" horiz-adv-x="507" 
d="M340 1452q35 -54 102 -106v-23q-65 -12 -120 -61q-54 -51 -54 -95q93 0 141 -45t48 -116q0 -92 -56 -140.5t-143 -48.5q-94 0 -150.5 65t-56.5 179q0 64 19.5 121t47 94.5t66 72t65.5 51.5t58 34t33 18z" />
    <glyph glyph-name="quoteright" unicode="&#x2019;" horiz-adv-x="507" 
d="M168 817q-36 56 -102 107v22q65 12 118 62q56 50 56 94q-93 0 -141 45.5t-48 116.5q0 92 56 140t143 48q94 0 150.5 -65t56.5 -179q0 -64 -19.5 -121t-47 -94.5t-66 -72t-65.5 -51.5t-58 -34t-33 -18z" />
    <glyph glyph-name="quotesinglbase" unicode="&#x201a;" horiz-adv-x="548" 
d="M188 -297q-36 56 -102 107v22q66 12 119 62q55 49 55 94q-93 0 -140.5 45.5t-47.5 116.5q0 92 55.5 140t142.5 48q94 0 150.5 -65t56.5 -179q0 -64 -19.5 -121t-47 -94.5t-66 -72t-65.5 -51.5t-58 -34t-33 -18z" />
    <glyph glyph-name="quotedblleft" unicode="&#x201c;" horiz-adv-x="991" 
d="M340 1452q35 -54 102 -106v-23q-65 -12 -120 -61q-54 -51 -54 -95q93 0 141 -45t48 -116q0 -92 -56 -140.5t-143 -48.5q-94 0 -150.5 65t-56.5 179q0 64 19.5 121t47 94.5t66 72t65.5 51.5t58 34t33 18zM823 1452q34 -53 103 -106v-23q-66 -12 -121 -61q-53 -50 -53 -95
q93 0 140.5 -45t47.5 -116q0 -92 -56 -140.5t-143 -48.5q-94 0 -150 65t-56 179q0 64 19.5 121t46.5 94.5t65.5 72t65.5 51.5t58 34t33 18z" />
    <glyph glyph-name="quotedblright" unicode="&#x201d;" horiz-adv-x="991" 
d="M168 817q-36 56 -102 107v22q65 12 118 62q56 50 56 94q-93 0 -141 45.5t-48 116.5q0 92 56 140t143 48q94 0 150.5 -65t56.5 -179q0 -64 -19.5 -121t-47 -94.5t-66 -72t-65.5 -51.5t-58 -34t-33 -18zM651 817q-36 56 -102 107v22q66 12 119 62q55 49 55 94
q-93 0 -140.5 45.5t-47.5 116.5q0 92 55.5 140t142.5 48q94 0 150.5 -65t56.5 -179q0 -64 -19.5 -121t-47 -94.5t-66 -72t-65.5 -51.5t-58 -34t-33 -18z" />
    <glyph glyph-name="quotedblbase" unicode="&#x201e;" horiz-adv-x="1032" 
d="M188 -297q-36 56 -102 107v22q66 12 119 62q55 49 55 94q-93 0 -140.5 45.5t-47.5 116.5q0 92 55.5 140t142.5 48q94 0 150.5 -65t56.5 -179q0 -64 -19.5 -121t-47 -94.5t-66 -72t-65.5 -51.5t-58 -34t-33 -18zM672 -297q-35 54 -103 107v22q66 12 119 62q55 49 55 94
q-93 0 -140.5 45.5t-47.5 116.5q0 92 56 140t143 48q94 0 150.5 -65t56.5 -179q0 -64 -19.5 -121t-47 -94.5t-66 -72t-65.5 -51.5t-58 -34t-33 -18z" />
    <glyph glyph-name="dagger" unicode="&#x2020;" horiz-adv-x="1052" 
d="M686 858v-1147h-305v1147h-320l21 250h299v451h305v-451h305l-20 -250h-285z" />
    <glyph glyph-name="daggerdbl" unicode="&#x2021;" horiz-adv-x="1079" 
d="M1018 612l-21 -250h-288v-651h-306v651h-342l21 250h321v246h-319l20 250h299v451h306v-451h305l-21 -250h-284v-246h309z" />
    <glyph glyph-name="bullet" unicode="&#x2022;" horiz-adv-x="901" 
d="M113 713q0 63 22 121t63 105t106.5 75t146.5 28q107 0 185.5 -49t115 -122t36.5 -158q0 -63 -22 -121.5t-62.5 -106t-106 -76t-146.5 -28.5t-146.5 28.5t-106.5 76t-63 106t-22 121.5z" />
    <glyph glyph-name="ellipsis" unicode="&#x2026;" horiz-adv-x="1517" 
d="M1260 -12q-76 0 -132.5 51t-56.5 125q0 73 56 121.5t133 48.5q76 0 131 -48.5t55 -121.5q0 -74 -55.5 -125t-130.5 -51zM756 -12q-76 0 -132.5 51t-56.5 125q0 73 56 121.5t133 48.5q76 0 131 -48.5t55 -121.5q0 -74 -55.5 -125t-130.5 -51zM260 -12q-76 0 -132 51
t-56 125q0 73 55.5 121.5t132.5 48.5q76 0 131 -48.5t55 -121.5q0 -74 -55.5 -125t-130.5 -51z" />
    <glyph glyph-name="perthousand" unicode="&#x2030;" horiz-adv-x="2574" 
d="M31 1020q0 112 38 207.5t121 159t197 63.5q84 0 152.5 -36.5t111.5 -97.5t65.5 -137t22.5 -159q0 -80 -23 -154t-66 -133t-111 -94t-152 -35q-113 0 -196 61t-121.5 153.5t-38.5 201.5zM500 1030q0 43 -5.5 83t-17.5 79t-35.5 62.5t-56.5 23.5t-56.5 -23.5t-35.5 -62.5
t-17.5 -79t-5.5 -83t5.5 -83t17 -79t35 -62.5t55.5 -23.5q33 0 57 23.5t36.5 62t18 79t5.5 83.5zM1042 393q0 83 23 159t66 137t112.5 97.5t155.5 36.5q84 0 152.5 -36.5t111.5 -97.5t65.5 -137t22.5 -159q0 -80 -23 -154t-66 -133t-111 -94t-152 -35q-85 0 -154.5 35
t-113 94t-66.5 132.5t-23 154.5zM1511 403q0 43 -5 83t-17 79t-35.5 62.5t-56.5 23.5t-56.5 -23.5t-35.5 -62.5t-17.5 -79t-5.5 -83t5.5 -83t17 -78.5t35 -62t55.5 -23.5q33 0 57 23.5t36 62t17.5 78.5t5.5 83zM1835 393q0 112 38 207.5t121 159t197 63.5q84 0 153 -36.5
t111.5 -97.5t65.5 -137t23 -159q0 -109 -39 -201.5t-121 -153.5t-193 -61q-113 0 -196 61t-121.5 153.5t-38.5 201.5zM2304 403q0 43 -5.5 83t-17.5 79t-35.5 62.5t-56.5 23.5t-56.5 -23.5t-35.5 -62.5t-17 -79t-5 -83t5 -83t17 -79t35 -62t55 -23q33 0 57 23.5t36.5 62
t18 78.5t5.5 83zM1516 1456l-998 -1462h-235l997 1462h236z" />
    <glyph glyph-name="minute" unicode="&#x2032;" horiz-adv-x="503" 
d="M55 1282q10 73 73 121.5t140 48.5q76 0 124 -48.5t38 -121.5q-2 -17 -23.5 -59t-70 -146t-98.5 -239q-53 9 -115 0q-10 136 -28.5 238.5t-30 145.5t-9.5 60z" />
    <glyph glyph-name="second" unicode="&#x2033;" horiz-adv-x="944" 
d="M496 1282q10 73 73 121.5t140 48.5q75 0 123 -48.5t38 -121.5q-2 -17 -23.5 -59t-70 -146t-98.5 -239q-53 9 -115 0q-10 136 -28.5 238.5t-29.5 145.5t-9 60zM55 1282q10 73 73 121.5t140 48.5q76 0 124 -48.5t38 -121.5q-2 -17 -23.5 -59t-70 -146t-98.5 -239
q-53 9 -115 0q-10 136 -28.5 238.5t-30 145.5t-9.5 60z" />
    <glyph glyph-name="guilsinglleft" unicode="&#x2039;" horiz-adv-x="677" 
d="M49 584v28l301 400h287l-258 -402v-24l258 -402h-287z" />
    <glyph glyph-name="guilsinglright" unicode="&#x203a;" horiz-adv-x="677" 
d="M41 184l258 402v24l-258 402h287l301 -400v-28l-301 -400h-287z" />
    <glyph glyph-name="fraction" unicode="&#x2044;" horiz-adv-x="372" 
d="M803 1456l-998 -1462h-235l997 1462h236z" />
    <glyph glyph-name="uni2070" unicode="&#x2070;" horiz-adv-x="770" 
d="M31 1020q0 112 38 207.5t121 159t197 63.5q84 0 152.5 -36.5t111.5 -97.5t65.5 -137t22.5 -159q0 -80 -23 -154t-66 -133t-111 -94t-152 -35q-113 0 -196 61t-121.5 153.5t-38.5 201.5zM500 1030q0 43 -5.5 83t-17.5 79t-35.5 62.5t-56.5 23.5t-56.5 -23.5t-35.5 -62.5
t-17.5 -79t-5.5 -83t5.5 -83t17 -79t35 -62.5t55.5 -23.5q33 0 57 23.5t36.5 62t18 79t5.5 83.5z" />
    <glyph glyph-name="uni2074" unicode="&#x2074;" horiz-adv-x="768" 
d="M377 602l8 203h-354v106q22 26 88 121t165.5 240t114.5 166h207v-480h131q-6 -37 -2 -153h-129q0 -127 8 -195q-155 0 -237 -8zM244 958h143v213q-93 -152 -143 -213z" />
    <glyph glyph-name="uni2075" unicode="&#x2075;" horiz-adv-x="653" 
d="M305 604q-77 0 -152.5 20t-121.5 50q34 81 37 176q90 -68 190 -68q60 0 90.5 29t30.5 78t-38.5 76.5t-107.5 27.5q-61 0 -147 -22l-16 10q14 258 22 457h502q-4 -50 -4 -80q0 -48 4 -98q-13 0 -148.5 2t-166.5 2l-9 -134q34 11 84 11q132 0 200.5 -76t68.5 -184
q0 -114 -83 -195.5t-235 -81.5z" />
    <glyph glyph-name="uni2076" unicode="&#x2076;" horiz-adv-x="737" 
d="M31 977q0 210 125.5 341.5t310.5 131.5q115 0 178 -29q-35 -107 -35 -174l-10 -6q-66 29 -129 29q-74 0 -131 -53.5t-74 -145.5q80 70 191 70q117 0 183.5 -70t66.5 -184q0 -121 -90 -202t-240 -81q-71 0 -131.5 21t-109.5 64.5t-77 117t-28 170.5zM264 918
q7 -76 36.5 -109t80.5 -33q44 0 71 24.5t27 73.5q0 47 -24.5 76t-73.5 29q-63 0 -117 -61z" />
    <glyph glyph-name="uni2077" unicode="&#x2077;" horiz-adv-x="671" 
d="M311 612h-256q14 23 40.5 70.5t35.5 62.5q198 398 231 510q-318 -3 -331 -4q4 62 4 95q0 42 -4 92h610q-2 -23 -2 -66v-76q-11 -27 -55 -118l-107 -220l-108 -223q-45 -93 -58 -123z" />
    <glyph glyph-name="uni2078" unicode="&#x2078;" horiz-adv-x="739" 
d="M541 1024q54 -19 112 -68q56 -47 56 -114q0 -107 -99.5 -172.5t-244.5 -65.5t-239.5 63.5t-94.5 166.5q0 67 48.5 114.5t123.5 75.5q-69 27 -110.5 76t-41.5 110q0 94 84 166q83 74 236 74q150 0 233 -74q84 -72 84 -166q0 -59 -42.5 -108t-104.5 -78zM369 1106
q88 47 88 102q0 28 -23.5 49t-60.5 21q-39 0 -63.5 -21t-24.5 -49q0 -32 22.5 -55.5t61.5 -46.5zM373 952q-90 -42 -90 -102q0 -27 25 -47t65 -21q37 0 61.5 20.5t24.5 47.5q0 60 -86 102z" />
    <glyph glyph-name="uni2079" unicode="&#x2079;" horiz-adv-x="737" 
d="M473 1137q-7 75 -36 108t-81 33q-44 0 -71 -24.5t-27 -73.5q0 -47 24.5 -76t73.5 -29q63 0 117 62zM707 1077q0 -210 -126 -341.5t-311 -131.5q-115 0 -178 29q35 107 35 174l10 6q66 -29 129 -29q74 0 131 53.5t74 145.5q-80 -70 -190 -70q-117 0 -183.5 70t-66.5 184
q0 121 89.5 202t239.5 81q71 0 131.5 -21t110 -64.5t77.5 -117t28 -170.5z" />
    <glyph glyph-name="uni2080" unicode="&#x2080;" horiz-adv-x="770" 
d="M31 100q0 112 38 207.5t121 159t197 63.5q84 0 152.5 -36.5t111.5 -97.5t65.5 -137t22.5 -159q0 -80 -23 -154t-66 -132.5t-111 -93.5t-152 -35q-85 0 -154.5 35t-112.5 93.5t-66 132t-23 154.5zM500 111q0 43 -5.5 83t-17.5 78.5t-35.5 62t-56.5 23.5t-56.5 -23.5
t-35.5 -62t-17.5 -78.5t-5.5 -83t5.5 -83t17 -79t35 -62.5t55.5 -23.5q33 0 57 23.5t36.5 62t18 79t5.5 83.5z" />
    <glyph glyph-name="uni2081" unicode="&#x2081;" horiz-adv-x="589" 
d="M33 -307v153l162 11v450h-164q0 2 1 17t2 31.5t0.5 40.5t-3.5 44q167 16 311 78h88v-661l129 -11v-153h-526z" />
    <glyph glyph-name="uni2082" unicode="&#x2082;" horiz-adv-x="733" 
d="M700 -305h-645v131q147 93 242 188q115 124 115 219q0 57 -36.5 86t-90.5 29q-46 0 -89.5 -25.5t-66.5 -68.5h-8q-11 33 -40.5 72t-49.5 57q57 69 145.5 109t185.5 40q61 0 116.5 -16.5t101.5 -49t73 -86t27 -122.5q0 -122 -84 -215q-78 -87 -201 -186l307 6
q-4 -54 -4 -82q0 -59 2 -86z" />
    <glyph glyph-name="uni2083" unicode="&#x2083;" horiz-adv-x="688" 
d="M350 530q126 0 201.5 -59t75.5 -149q0 -117 -131 -175q82 -23 121.5 -72t39.5 -130q0 -117 -96 -189q-95 -71 -227 -71q-83 0 -165.5 22.5t-131.5 56.5q32 77 35 166q29 -21 49 -32.5t62 -23t93 -11.5q55 0 85 29.5t30 74.5q0 62 -53 74q-52 12 -105 12h-24q0 63 -12 113
q73 0 119 26t46 84q0 34 -28 52t-64 18q-39 0 -77 -20.5t-60 -59.5h-10q-10 33 -40.5 71.5t-51.5 57.5q45 56 126 95.5t193 39.5z" />
    <glyph glyph-name="uni2084" unicode="&#x2084;" horiz-adv-x="768" 
d="M377 -317l8 202h-354v107q22 26 86.5 118.5t168.5 244t113 163.5h207v-479h131q-6 -37 -2 -154h-129q0 -126 8 -194q-155 0 -237 -8zM244 39h143v213q-93 -152 -143 -213z" />
    <glyph glyph-name="uni2085" unicode="&#x2085;" horiz-adv-x="653" 
d="M305 -315q-78 0 -153.5 19.5t-120.5 49.5q34 81 37 176q89 -67 190 -67q60 0 90.5 28.5t30.5 77.5q0 50 -38.5 77.5t-107.5 27.5q-57 0 -147 -23l-16 10q14 258 22 457h502q-4 -50 -4 -80q0 -48 4 -98q-13 0 -148.5 2t-166.5 2l-9 -133q31 10 84 10q132 0 200.5 -76
t68.5 -184q0 -114 -83 -195t-235 -81z" />
    <glyph glyph-name="uni2086" unicode="&#x2086;" horiz-adv-x="737" 
d="M31 57q0 210 125.5 341.5t310.5 131.5q117 0 178 -28q-35 -108 -35 -174l-10 -6q-64 28 -129 28q-74 0 -131 -53t-74 -145q79 69 191 69q117 0 183.5 -70t66.5 -184q0 -120 -90 -201t-240 -81q-71 0 -131.5 21t-109.5 64t-77 116.5t-28 170.5zM264 -2q7 -75 36 -108
t81 -33q44 0 71 24.5t27 73.5q0 47 -24.5 75.5t-73.5 28.5q-63 0 -117 -61z" />
    <glyph glyph-name="uni2087" unicode="&#x2087;" horiz-adv-x="671" 
d="M311 -307h-256q14 23 40.5 70.5t35.5 62.5q198 398 231 510q-318 -3 -331 -4q4 62 4 94q0 42 -4 92h610q-2 -23 -2 -65v-76q-13 -32 -55 -119l-107 -219q-103 -211 -108 -221z" />
    <glyph glyph-name="uni2088" unicode="&#x2088;" horiz-adv-x="739" 
d="M541 104q56 -20 112 -67t56 -115q0 -107 -99 -172t-245 -65q-145 0 -239.5 63t-94.5 166q0 67 48.5 114.5t123.5 75.5q-68 27 -110 76.5t-42 110.5q0 94 84 166q82 73 236 73q151 0 233 -73q84 -72 84 -166q0 -59 -42.5 -108.5t-104.5 -78.5zM369 186q88 47 88 103
q0 27 -23.5 48t-60.5 21q-40 0 -64 -20.5t-24 -48.5q0 -54 84 -103zM373 33q-90 -42 -90 -103q0 -27 25 -46.5t65 -20.5q37 0 61.5 20t24.5 47q0 61 -86 103z" />
    <glyph glyph-name="uni2089" unicode="&#x2089;" horiz-adv-x="737" 
d="M473 217q-7 75 -36 108t-81 33q-44 0 -71 -24.5t-27 -73.5q0 -47 24.5 -75.5t73.5 -28.5q63 0 117 61zM707 158q0 -210 -126 -341.5t-311 -131.5q-117 0 -178 28q35 107 35 174l10 7q66 -29 129 -29q74 0 131 53t74 145q-79 -69 -190 -69q-117 0 -183.5 70t-66.5 184
q0 121 89.5 201.5t239.5 80.5q71 0 131.5 -21t110 -64t77.5 -116.5t28 -170.5z" />
    <glyph glyph-name="Euro" unicode="&#x20ac;" horiz-adv-x="1312" 
d="M63 674h148v20q0 44 2 62h-150v166h170q51 248 218.5 388t414.5 140q205 0 385 -94q-2 -5 -7.5 -20t-8.5 -21q-59 -151 -84 -258l-23 -13q-119 80 -233 80q-95 0 -168 -52t-109 -150h398l-51 -166h-377v-82h350l-51 -166h-264q37 -97 109 -149t171 -52q129 0 262 74
q9 -96 27 -148l47 -127q-68 -59 -172.5 -88.5t-212.5 -29.5q-254 0 -420 131.5t-209 388.5h-162v166z" />
    <glyph glyph-name="uni2113" unicode="&#x2113;" horiz-adv-x="921" 
d="M61 502l13 78q7 0 88 6v504q0 205 76 333q76 129 249 129q263 0 263 -313q0 -176 -59.5 -317.5t-164.5 -239.5v-432q0 -74 28 -113t79 -39q63 0 108 73t45 212l72 -21q2 -10 2 -38q0 -154 -96 -244t-266 -90q-162 0 -249 86.5t-87 232.5v201q-47 -8 -101 -8zM526 1294
v-516q146 173 146 447q0 108 -21 166.5t-59 58.5q-33 0 -49.5 -36t-16.5 -120z" />
    <glyph glyph-name="uni2116" unicode="&#x2116;" horiz-adv-x="2377" 
d="M154 254v815q0 71 -8 197t-13 172q88 0 231 6t166 6l578 -934l-18 555q-2 34 -6.5 124t-8 156t-6.5 89q91 0 242.5 5t156.5 5q0 -15 -3 -118t-3 -146v-815q0 -80 4.5 -208t8.5 -163l-437 -12q-59 118 -145.5 263.5t-208 337t-160.5 255.5v-475q0 -70 8.5 -194.5
t14.5 -174.5q-80 0 -232 -4l-168 -8q7 252 7 266zM2216 252v-250h-592v250h592z" />
    <glyph glyph-name="copyrightsound" unicode="&#x2117;" horiz-adv-x="1632" 
d="M61 702q0 161 62.5 300.5t167 235t244 150t290.5 54.5q208 0 379.5 -100t269 -273t97.5 -381q0 -218 -102 -391t-278.5 -268t-393.5 -95q-208 0 -376.5 100t-264 276t-95.5 392zM1366 688q0 166 -73.5 297t-201.5 203t-288 72q-158 0 -281 -77t-189.5 -209.5
t-66.5 -295.5q0 -166 74 -295.5t201.5 -198.5t285.5 -69q234 0 386.5 164t152.5 409zM588 434v436q0 31 -5 110t-5 89h307q127 0 197.5 -68t70.5 -180q0 -118 -71.5 -190t-196.5 -72h-101v-63q0 -28 6.5 -108t6.5 -89l-211 -6q0 26 1 74.5t1 66.5zM784 915v-202h90
q44 0 68.5 30.5t24.5 69.5q0 43 -28.5 72.5t-74.5 29.5h-80z" />
    <glyph glyph-name="trademark" unicode="&#x2122;" horiz-adv-x="1357" 
d="M870 864q-8 21 -26 75t-27 79l-61 190l-8 -340q-37 0 -95 -3t-69 -3l30 576h197l125 -357l123 357h182q25 -342 35 -570q-10 0 -36.5 -1t-64.5 -2.5t-63 -2.5l-8 348l-123 -342h-23q-34 0 -88 -4zM360 1294v-426q-30 0 -159 -6v432q-90 0 -160 -4q6 93 6 103v45h479
q-8 -66 -8 -150q-105 6 -158 6z" />
    <glyph glyph-name="Omega" unicode="&#x2126;" horiz-adv-x="1599" 
d="M113 141q0 53 -11 146h355v39q-166 88 -252 226t-86 292q0 115 47 222t131.5 191.5t215.5 135.5t286 51q157 0 288 -51t216 -135.5t131.5 -191.5t46.5 -222q0 -154 -86 -292t-252 -226v-39h354q-10 -78 -10 -144q0 -58 10 -143h-618v461q96 50 147 153q55 104 55 209
q0 157 -84 245.5t-198 88.5q-115 0 -199 -86.5t-84 -241.5q0 -108 55 -215q54 -106 150 -153v-461h-619q11 86 11 141z" />
    <glyph glyph-name="estimated" unicode="&#x212e;" horiz-adv-x="1267" 
d="M1028 285l72 -41q-97 -152 -205 -215.5t-262 -63.5q-232 0 -381.5 161.5t-149.5 403.5q0 253 150.5 409.5t380.5 156.5q112 2 211 -40.5t170 -117t111 -181t38 -227.5h-827v-356q50 -54 132.5 -88.5t164.5 -34.5q131 0 222.5 53.5t172.5 180.5zM336 895v-279h596v277
q-50 54 -131.5 86.5t-169.5 32.5q-169 0 -295 -117z" />
    <glyph glyph-name="partialdiff" unicode="&#x2202;" horiz-adv-x="1236" 
d="M41 434q0 216 138 355t345 139q193 0 310 -117q-3 48 -17 96q-32 116 -110.5 181t-182.5 65q-67 0 -110.5 -9.5t-108.5 -33.5l-16 8q9 59 -4 146q-3 33 -21 141q98 45 287 45q142 0 263 -54t204 -147.5t129.5 -222.5t46.5 -276q0 -159 -38.5 -289.5t-102.5 -216.5
t-150.5 -145t-179.5 -85t-193 -26q-223 0 -356 125t-133 321zM811 563q-91 103 -195 103q-99 0 -154.5 -59.5t-55.5 -160.5q0 -73 44.5 -112t116.5 -39q183 0 244 268z" />
    <glyph glyph-name="increment" unicode="&#x2206;" horiz-adv-x="1536" 
d="M623 1438h292l562 -1438h-1418zM1008 293l-240 665l-240 -665h480z" />
    <glyph glyph-name="product" unicode="&#x220f;" horiz-adv-x="1406" 
d="M256 305v602q0 101 -4 211h-191q1 55 9 164t8 156h1268q-19 -190 -19 -320h-158v-817q0 -43 5.5 -169.5t5.5 -131.5q-58 0 -141 -2t-144.5 -4t-65.5 -2q0 1 5.5 132.5t5.5 180.5v592q0 103 -4 221h-250v-817q0 -43 5 -169t5 -132q-58 0 -141 -2t-144 -4t-65 -2
q0 1 5 132.5t5 180.5z" />
    <glyph glyph-name="summation" unicode="&#x2211;" horiz-adv-x="1523" 
d="M211 1171v267h1051q-10 -155 0 -281h-656l324 -448l-338 -439h684q-3 -35 -3.5 -77t0 -66t2 -72.5t1.5 -56.5h-1081v254l354 459z" />
    <glyph glyph-name="minus" unicode="&#x2212;" horiz-adv-x="1304" 
d="M184 584v250h936v-250h-936z" />
    <glyph glyph-name="uni2215" unicode="&#x2215;" horiz-adv-x="1130" 
d="M1069 1516l-674 -1616h-334l674 1616h334z" />
    <glyph glyph-name="uni2219" unicode="&#x2219;" horiz-adv-x="901" 
d="M113 713q0 63 22 121t63 105t106.5 75t146.5 28q107 0 185.5 -49t115 -122t36.5 -158q0 -63 -22 -121.5t-62.5 -106t-106 -76t-146.5 -28.5t-146.5 28.5t-106.5 76t-63 106t-22 121.5z" />
    <glyph glyph-name="radical" unicode="&#x221a;" horiz-adv-x="1357" 
d="M713 -129h-191l-264 688l-133 -100l-84 192l367 283l231 -653l434 1280h250z" />
    <glyph glyph-name="infinity" unicode="&#x221e;" horiz-adv-x="1771" 
d="M1225 1147q92 0 166.5 -36t121 -96t71 -134.5t24.5 -155.5q0 -94 -32 -174.5t-84.5 -133.5t-119.5 -82.5t-139 -29.5q-106 0 -199.5 66.5t-146.5 199.5q-48 -131 -135 -196.5t-195 -65.5q-168 0 -281 113q-112 112 -112 293q0 81 25.5 157.5t72.5 138t122 99t165 37.5
q106 0 198.5 -65.5t139.5 -192.5q45 127 137 192.5t201 65.5zM1346 723q0 71 -39 113.5t-93 42.5q-59 0 -103.5 -41.5t-82.5 -120.5q39 -75 83 -115.5t103 -40.5q53 0 92.5 45.5t39.5 116.5zM745 717q-38 79 -82.5 120.5t-103.5 41.5q-54 0 -92.5 -42.5t-38.5 -113.5
t39 -116.5t92 -45.5q59 0 103 40.5t83 115.5z" />
    <glyph glyph-name="integral" unicode="&#x222b;" horiz-adv-x="1288" 
d="M258 -356q-161 0 -258 55q74 180 94 283q75 -48 135 -48q145 0 164 146l135 1083q11 95 46 169t82.5 120t111 76t127.5 41.5t135 11.5q161 0 258 -55q-81 -216 -94 -283q-73 47 -135 47q-146 0 -164 -143l-135 -1086q-11 -95 -46 -169t-82.5 -120t-111 -75.5t-127 -41
t-135.5 -11.5z" />
    <glyph glyph-name="approxequal" unicode="&#x2248;" horiz-adv-x="1126" 
d="M823 868q55 -39 119 -63q-29 -71 -63.5 -118t-70.5 -67.5t-63.5 -27t-60.5 -6.5q-44 0 -85.5 16.5t-68 36.5t-59 36.5t-61.5 16.5q-65 0 -111 -82q-39 25 -58 35t-57 23q74 223 250 223q44 0 85 -16.5t66.5 -37t57.5 -37t62 -16.5q31 0 58 16t60 68zM823 506
q58 -41 119 -64q-29 -71 -63.5 -118t-70.5 -67.5t-63.5 -27t-60.5 -6.5q-44 0 -85.5 16.5t-68 37t-59 37t-61.5 16.5q-65 0 -111 -82q-38 24 -57 33.5t-58 23.5q74 223 250 223q44 0 85 -16.5t66.5 -36.5t57.5 -36.5t62 -16.5q31 0 58 16t60 68z" />
    <glyph glyph-name="notequal" unicode="&#x2260;" horiz-adv-x="1325" 
d="M586 362l-129 -215h-273l129 215h-112v250h264l127 209h-391v250h542l125 205h273l-125 -205h121v-250h-273l-127 -209h400v-250h-551z" />
    <glyph glyph-name="lessequal" unicode="&#x2264;" horiz-adv-x="1304" 
d="M266 760v168l770 401v-274l-422 -211l422 -211v-275zM266 0v250h770v-250h-770z" />
    <glyph glyph-name="greaterequal" unicode="&#x2265;" horiz-adv-x="1304" 
d="M266 356v275l422 211l-422 211v274l770 -401v-168zM266 -2v250h770v-250h-770z" />
    <glyph glyph-name="lozenge" unicode="&#x25ca;" horiz-adv-x="1212" 
d="M1110 729l-360 -729h-291l-357 729l361 709h287zM391 729l215 -483l213 483l-213 463z" />
    <glyph glyph-name="checkmark" unicode="&#x2713;" horiz-adv-x="1300" 
d="M614 -2h-190l-348 745l231 154l228 -506l440 1100h250z" />
    <glyph glyph-name="commaaccent" unicode="&#xf6c3;" horiz-adv-x="610" 
d="M238 -596q-28 40 -82 86v16q51 10 95 50t44 75q-75 0 -113.5 37t-38.5 92q0 74 44.5 111t115.5 37q75 0 119.5 -50t44.5 -141q0 -61 -23 -115.5t-52.5 -87.5t-67 -60t-56 -36t-30.5 -14z" />
    <glyph glyph-name="uniF8FF" unicode="&#xf8ff;" horiz-adv-x="1628" 
d="M559 1110l86 -18l6 71q4 5 13.5 15.5t14.5 17t9.5 17t5.5 22.5q-8 8 -41 8q-5 0 -14 -1t-12 -1q-6 -2 -13 -2l-61 -8l-6 -10l39 -56q-27 -44 -27 -55zM766 1217v20q-48 -4 -55 -8q4 -4 4 -17q0 -14 -16 -33t-19 -34q1 -3 3.5 -14.5t3.5 -16t4.5 -13.5t8 -16t11.5 -14
q3 -1 12 -3.5t14 -2.5q3 0 9.5 2t9.5 2q0 1 -5.5 8t-5.5 15q0 9 15 49q-25 0 -25 10q0 12 12 15q1 0 1.5 0.5t1.5 0.5q16 13 16 50zM1169 1141l19 12q0 9 -10.5 20t-16.5 13q-2 2 -10 21.5t-8 23.5h-13q-47 -4 -61 -10q-8 -13 -8 -27v-14q0 -19 -2 -21q23 -23 35 -59
q16 -3 47 -16t39 -13q6 0 6 2q2 2 2 10l-6 23l2 14q-2 0 -8.5 8.5t-6.5 12.5zM422 1151q18 0 18 16q0 17 -18 17q-16 0 -16 -17q0 -16 16 -16zM467 1229h-51q0 -35 4 -35q26 0 26 -27q0 -26 -26 -26q-27 0 -27 33l-8 -5q2 -13 4.5 -38.5t5 -39.5t6.5 -18q31 -14 35 -14t8 4
q3 3 7 29q0 14 2 22h-11q-8 0 -8 6q0 8 11.5 16t11.5 15q1 10 5 37t5 41zM946 1092q21 0 66 -5l28 -4q17 17 17 25l-37 80q2 5 9 14t7 17t-2 10q-15 4 -59 4h-39q-37 0 -53 2q4 -28 16 -47q-7 -17 -12.5 -53.5t-12.5 -53.5q32 11 72 11zM813 821l6 107l-84 -17q2 2 2 7
q0 4 -1 6q-1 1 -1 2q3 3 11.5 7t17 11t12.5 17l6 14l-41 -17q-44 -19 -71 -40q0 -7 2 -9q1 -3 3.5 -10t2.5 -10q0 -10 -9 -16t-23 -10t-19 -7q4 -4 11.5 -19t16.5 -24.5t23 -9.5q25 18 51 18h84zM471 776q5 0 29 -18l-37 12q6 6 8 6zM1309 721q17 0 26 31t29 34
q-3 11 -21.5 26t-21.5 28v10q0 7 4 27l-22 2q-6 -4 -8.5 -12.5t-2.5 -19.5v-13q-38 30 -92 30q-31 0 -45 -6v-18q2 -2 10 -2l27 2q15 0 18 -9l-2 -8q-7 4 -34 4q-36 0 -64 -28l2 -13l6 2q34 15 56 15q8 0 14 -6h-8q-12 0 -22.5 -9t-16 -17.5t-15.5 -25.5q2 -1 6 -3.5t7 -2.5
q10 14 19.5 20.5t24 10.5t19.5 6q8 0 8 -14q-9 -5 -13.5 -9t-8.5 -13.5t-4 -24.5q3 -8 14 -8q1 0 2 0.5t3.5 1.5t4.5 2q0 11 5.5 18.5t11 9.5t18.5 6t17 5q8 0 15.5 -6.5t12.5 -8.5q14 -14 21 -14zM535 756l-27 22q-8 6 -25.5 21t-26 21t-23.5 13.5t-32 10.5
q-16 -6 -52.5 -28.5t-57.5 -29.5l20 -32q14 1 66 22q3 -12 11 -34.5t11 -39.5l-18 -36l45 30l-6 37q6 6 8 6l14 -16q1 -2 2.5 -6t3 -6.5t1.5 -3.5q0 -21 -15 -41q4 -4 10 -4q5 0 11 6l20 37q-3 3 -10 40q3 -1 8.5 -3.5t9 -4t8 -4t8 -5.5t5.5 -7q-4 -8 -12 -19.5t-9 -13.5
l15 -10l32 53q-6 6 -6 8q0 6 11 17zM254 41v12q-64 -9 -117 -39q-57 -29 -121 -32q3 13 30 28t69.5 33.5t62.5 30.5q3 29 10 55q11 37 25.5 75t36 90.5t31.5 76.5q-30 4 -61 10t-73.5 15.5t-62.5 13.5q5 28 11.5 73t13 81.5t14.5 70.5q0 11 4 31t4 32v9q-6 6 -23.5 7
t-23.5 3q0 35 19 93.5t22 82.5q11 31 27 88t28 88q11 3 57 14t76.5 16.5t63.5 8.5q0 30 -21 68q33 33 33 45q0 4 -4 8q-38 14 -72 14v8h76v146q180 5 203 8q-5 -21 -29 -76l-16 -80q19 3 41.5 4t51 1t44.5 1l2 19q8 41 33 80l4 10q19 -3 64.5 -4.5t74.5 -9.5q10 -38 10 -64
q0 -23 -2 -29l97 -14l67 8v17q0 8 -4 90q-3 72 -10 100q6 -2 45 -2q68 0 80 4l35 4q54 6 55 6q-1 -12 -12 -82.5t-11 -113.5v-17q12 -4 48 -6t49 -6q-7 -2 -39 -4t-45 -10l41 -72q-9 -22 -21 -86q148 31 160 33q2 -2 2 -10t-5 -29.5t-5 -34.5q39 -65 49 -86l27 -53l57 -270
q3 -3 6 -45t6.5 -109.5t5.5 -95.5l2 -19h-98q10 -18 29.5 -54t35.5 -64.5t31 -51.5l37 -53l-31 -22l58 -43q-12 -3 -23 -3q-17 0 -46 10.5t-42 12.5q-1 -8 -3 -12t-5.5 -5t-8.5 -1h-11q-8 3 -12.5 8t-8.5 17t-4 13q-8 8 -10 23q-12 22 -38 66.5t-45 80.5t-34 72q-18 6 -23 6
l-38 -2q-21 -61 -56 -127q-3 -15 -4 -31t-1 -35.5t-1 -29.5q0 -33 -12 -61l-49 -13v11q0 4 -4 8q-7 -3 -31.5 -22t-42.5 -19l24 96q5 14 19 52t21 58.5t14.5 53t9.5 61.5q-2 0 -43.5 -10t-67.5 -10h-26q-13 -67 -13 -117q0 -18 3.5 -51.5t3.5 -36.5q4 -29 24 -133
q1 -2 1.5 -9t2 -12t4.5 -8q-40 7 -96 53q-3 5 -4.5 7t-2.5 2.5t-3.5 1t-5.5 2.5l-13 -8l-24 4q1 20 6 51.5t6 48.5q18 131 25 215q-3 0 -18 3t-21 3l-47 -2l-9 -14v-76q0 -11 -2 -31t-2 -47v-51q1 -6 1 -25t3 -32l-6 -37l-37 -8q0 14 -8 14q-3 0 -9 -3t-9 -3
q-9 -2 -39.5 -11.5t-48.5 -9.5q1 13 15 28t18 24v63q-13 137 -13 182v25l-2 10q-18 -6 -20 -6l-23 4h-69q-23 0 -33 -6q3 -14 14 -62.5t16.5 -81.5t8.5 -65q2 -14 2 -37q5 -21 27.5 -71t23.5 -82q-18 8 -48 33t-40 32l-29 19l-8 -19l-45 25q-3 59 -10 100q-16 151 -41 223
q-4 4 -21 4h-12q-19 0 -23 4q-40 -88 -51 -231q-4 -20 -4 -27l2 -32l-2 -35l-39 -2q-14 0 -16 2q4 0 4 6z" />
    <glyph glyph-name="fi" unicode="&#xfb01;" horiz-adv-x="1454" 
d="M139 254v594l-139 37q4 70 4 84q0 38 -4 108l139 19v67q0 95 25.5 169t67.5 120t101.5 76t122 41.5t134.5 11.5q159 0 264 -55q-3 -10 -12.5 -45.5t-12 -45.5t-9.5 -37t-9 -41.5t-5.5 -35.5t-4.5 -41q-60 31 -123 31q-72 0 -125 -45t-53 -119v-41h274q-8 -68 -8 -154
q0 -25 2.5 -66t3.5 -55h-272v-591q0 -56 4 -158q1 -22 2 -42t1.5 -29.5t0.5 -10.5q-191 -3 -375 -12zM967 1405q0 78 57 127t141 49q78 0 136.5 -49.5t58.5 -126.5t-59 -129.5t-136 -52.5q-83 0 -140.5 52t-57.5 130zM969 254v414q0 160 -21 381q61 0 160.5 16.5t175.5 40.5
h55v-860q0 -156 11 -246q-218 0 -387 -12q0 22 3 126.5t3 139.5z" />
    <glyph glyph-name="fl" unicode="&#xfb02;" horiz-adv-x="1456" 
d="M139 254v594l-139 37q4 70 4 84q0 38 -4 108l139 19v67q0 95 25.5 169t67.5 120t101.5 76t122 41.5t134.5 11.5q159 0 264 -55q-3 -10 -12.5 -45.5t-12 -45.5t-9.5 -37t-9 -41.5t-5.5 -35.5t-4.5 -41q-60 31 -123 31q-72 0 -125 -45t-53 -119v-41h274q-8 -68 -8 -154
q0 -25 2.5 -66t3.5 -55h-272v-591q0 -56 4 -158q1 -22 2 -42t1.5 -29.5t0.5 -10.5q-191 -3 -375 -12zM977 254v881q0 98 -23 374q80 0 336 52h53v-1315q0 -166 13 -246q-230 0 -385 -12q0 25 3 125t3 141z" />
    <glyph glyph-name="i.TRK" horiz-adv-x="600" 
d="M113 1405q0 78 57 127t141 49q78 0 136.5 -49.5t58.5 -126.5t-59 -129.5t-136 -52.5q-83 0 -140.5 52t-57.5 130zM115 254v414q0 160 -21 381q61 0 160.5 16.5t175.5 40.5h55v-860q0 -156 11 -246q-218 0 -387 -12q0 22 3 126.5t3 139.5z" />
    <glyph glyph-name="ringacute" 
d="M401 1397q0 63 33.5 110t93.5 66l76 242h273v-23l-185 -231q45 -23 70.5 -66.5t25.5 -97.5q0 -81 -53.5 -134t-140.5 -53q-86 0 -139.5 53t-53.5 134zM594 1323q30 0 47.5 22.5t17.5 51.5t-17.5 51t-47.5 22t-48 -22t-18 -51t18 -51.5t48 -22.5z" />
    <glyph glyph-name="caronalt" horiz-adv-x="409" 
d="M197 967q-28 40 -82 86v16q51 10 95 50t44 75q-75 0 -113.5 37t-38.5 92q0 74 44.5 110.5t115.5 36.5q75 0 119.5 -49.5t44.5 -140.5q0 -61 -23 -115.5t-52.5 -87.5t-67 -60t-56 -36t-30.5 -14z" />
    <glyph glyph-name="commaaccentalt" horiz-adv-x="409" 
d="M332 1470q28 -40 82 -86v-16q-51 -11 -95.5 -50.5t-44.5 -74.5q75 0 113.5 -37t38.5 -92q0 -74 -44.5 -110.5t-115.5 -36.5q-75 0 -119.5 49.5t-44.5 140.5q0 61 23 115.5t52.5 87.5t67.5 60t56.5 36t30.5 14z" />
    <glyph glyph-name="exclamdown.cap" horiz-adv-x="579" 
d="M92 1274q0 74 56 125t131 51q76 0 132 -51t56 -125q0 -73 -55.5 -121.5t-132.5 -48.5q-76 0 -131.5 48.5t-55.5 121.5zM154 -8h-56l45 1005q78 -10 138 -10q65 0 137 10q27 -406 69 -956q-92 0 -333 -49z" />
    <glyph glyph-name="questiondown.cap" horiz-adv-x="917" 
d="M475 1450q76 0 132.5 -51t56.5 -125q0 -73 -56 -121.5t-133 -48.5q-76 0 -131 48.5t-55 121.5q0 74 55.5 125t130.5 51zM672 786q0 -48 -32.5 -97t-78.5 -90t-92 -80t-78.5 -81.5t-32.5 -81.5q0 -57 37 -87.5t86 -30.5q46 0 80.5 26t34.5 68q0 37 -2 47q45 -5 142.5 -4
t148.5 8v-64q0 -83 -37 -152t-98 -112.5t-136 -67.5t-155 -24q-215 0 -332 88t-117 268q0 101 67.5 189t258.5 252q51 44 51 98q0 37 -20 84l198 -2q107 -45 107 -154z" />
    <glyph glyph-name="parenleft.cap" horiz-adv-x="770" 
d="M483 1640h287q-160 -197 -234.5 -433t-74.5 -482q0 -235 69 -479q72 -252 238 -453h-287q-171 156 -269.5 406t-98.5 522q0 267 98 512t272 407z" />
    <glyph glyph-name="parenright.cap" horiz-adv-x="770" 
d="M289 -207h-287q166 201 238 453q69 244 69 479q0 246 -74.5 482t-234.5 433h287q174 -162 272 -407t98 -512q0 -272 -98.5 -522t-269.5 -406z" />
    <glyph glyph-name="bracketleft.cap" horiz-adv-x="735" 
d="M664 37v-244h-510v1847h510v-243h-203v-1360h203z" />
    <glyph glyph-name="bracketright.cap" horiz-adv-x="735" 
d="M274 37v1360h-202v243h510v-1847h-510v244h202z" />
    <glyph glyph-name="braceleft.cap" horiz-adv-x="776" 
d="M154 137v266q0 61 -14 100t-37.5 61.5t-69.5 49.5q14 46 14 103t-14 100q46 27 69.5 49.5t37.5 61.5t14 100v266q0 174 90.5 270.5t234.5 96.5q111 0 226 -35q-11 -75 -11 -86q0 -50 11 -100q-63 0 -107 -9t-68.5 -23t-38 -37.5t-17 -44.5t-3.5 -52v-246q0 -121 -28 -188
t-95 -119q67 -58 95 -127.5t28 -190.5v-245q0 -33 3 -54t16.5 -44.5t37.5 -36.5t68.5 -22t108.5 -9q-11 -50 -11 -101q0 -11 11 -86q-118 -36 -226 -36q-144 0 -234.5 97t-90.5 271z" />
    <glyph glyph-name="braceright.cap" horiz-adv-x="776" 
d="M72 -195q10 68 10 86q0 56 -10 101q64 0 108.5 9t68.5 22t37 36.5t16 44.5t3 54v245q0 121 28 190.5t95 127.5q-67 52 -95 119t-28 188v246q0 40 -6.5 65t-28.5 50.5t-71.5 38t-126.5 12.5q10 45 10 100q0 18 -10 86q115 35 225 35q144 0 235 -97t91 -270v-266
q0 -61 13.5 -100t37 -61.5t69.5 -49.5q-14 -43 -14 -100t14 -103q-46 -27 -69.5 -49.5t-37 -61.5t-13.5 -100v-266q0 -174 -91 -271t-235 -97q-107 0 -225 36z" />
    <glyph glyph-name="backslash.cap" horiz-adv-x="1130" 
d="M395 1597l674 -1615h-334l-674 1615h334z" />
    <glyph glyph-name="bar.cap" horiz-adv-x="530" 
d="M418 -207h-305v1847h305v-1847z" />
    <glyph glyph-name="slash.cap" horiz-adv-x="1130" 
d="M1069 1597l-674 -1615h-334l674 1615h334z" />
    <glyph glyph-name="hyphen.cap" horiz-adv-x="899" 
d="M745 903v-250h-591v250h591z" />
    <glyph glyph-name="emdash.cap" horiz-adv-x="1970" 
d="M154 653v250h1663v-250h-1663z" />
    <glyph glyph-name="endash.cap" horiz-adv-x="1140" 
d="M154 653v250h833v-250h-833z" />
    <glyph glyph-name="guillemotleft.cap" 
d="M563 694l301 400h287l-258 -402v-24l258 -402h-287l-301 400v28zM49 666v28l301 400h287l-258 -402v-24l258 -402h-287z" />
    <glyph glyph-name="guillemotright.cap" 
d="M563 266l258 402v24l-258 402h287l301 -400v-28l-301 -400h-287zM336 266h-287l258 402v24l-258 402h287l301 -400v-28z" />
    <glyph glyph-name="guilsinglleft.cap" horiz-adv-x="677" 
d="M49 666v28l301 400h287l-258 -402v-24l258 -402h-287z" />
    <glyph glyph-name="guilsinglright.cap" horiz-adv-x="677" 
d="M49 266l258 402v24l-258 402h287l301 -400v-28l-301 -400h-287z" />
    <glyph glyph-name="zeroslash" horiz-adv-x="1320" 
d="M57 702q0 171 49 314t133 237t195.5 145.5t237.5 51.5q123 0 229.5 -45.5t188 -131.5t128 -222t46.5 -306q0 -172 -50 -316t-135 -239.5t-198 -148.5t-238 -53q-258 0 -422 194t-164 520zM442 737q0 -143 21 -237l266 639q-32 14 -76 14q-95 0 -153 -101t-58 -315z
M877 719q0 105 -13 188l-258 -614q24 -8 62 -8q209 0 209 434z" />
    <glyph glyph-name="zero.dnom" horiz-adv-x="770" 
d="M31 408q0 112 38 207.5t121 159t197 63.5q84 0 152.5 -36.5t111.5 -97.5t65.5 -137t22.5 -159q0 -80 -23 -154t-66 -133t-111 -94t-152 -35q-113 0 -196 61t-121.5 153.5t-38.5 201.5zM500 418q0 43 -5.5 83t-17.5 79t-35.5 62.5t-56.5 23.5t-56.5 -23.5t-35.5 -62.5
t-17.5 -79t-5.5 -83t5.5 -83t17 -79t35 -62.5t55.5 -23.5q33 0 57 23.5t36.5 62t18 79t5.5 83.5z" />
    <glyph glyph-name="one.dnom" horiz-adv-x="589" 
d="M33 0v154l162 10v450h-164q0 2 1 17t2 31.5t0.5 41t-3.5 44.5q170 16 311 77h88v-661l129 -10v-154h-526z" />
    <glyph glyph-name="two.dnom" horiz-adv-x="733" 
d="M700 2h-645v131q144 91 242 189q115 124 115 219q0 56 -36.5 85t-90.5 29q-46 0 -89.5 -25.5t-66.5 -68.5h-8q-11 33 -40.5 72t-49.5 57q57 69 146 109.5t185 40.5q83 0 153 -28t117.5 -92.5t47.5 -154.5q0 -122 -84 -215q-78 -87 -201 -186l307 6q-4 -54 -4 -82
q0 -59 2 -86z" />
    <glyph glyph-name="three.dnom" horiz-adv-x="688" 
d="M350 838q126 0 201.5 -59.5t75.5 -149.5q0 -116 -131 -174q82 -23 121.5 -72.5t39.5 -130.5q0 -117 -96 -189q-95 -71 -227 -71q-83 0 -165.5 23t-131.5 57q32 77 35 166q29 -21 49 -32.5t62 -23.5t93 -12q55 0 85 29.5t30 74.5q0 62 -53 74q-52 12 -105 12h-24
q0 64 -12 113q73 0 119 26.5t46 84.5q0 34 -27.5 51.5t-64.5 17.5q-39 0 -77 -20.5t-60 -59.5h-10q-10 33 -40.5 71.5t-51.5 57.5q46 56 126.5 96t192.5 40z" />
    <glyph glyph-name="four.dnom" horiz-adv-x="768" 
d="M377 -10l8 203h-354v106q22 26 86.5 118.5t168.5 244t113 163.5h207v-479h131q-6 -37 -2 -153h-129q0 -127 8 -195q-155 0 -237 -8zM244 346h143v213q-93 -152 -143 -213z" />
    <glyph glyph-name="five.dnom" horiz-adv-x="653" 
d="M305 -8q-78 0 -153.5 19.5t-120.5 49.5q34 81 37 177q90 -68 190 -68q60 0 90.5 28.5t30.5 77.5q0 50 -38.5 77.5t-107.5 27.5q-57 0 -147 -23l-16 11q14 261 22 456h502q-4 -50 -4 -80q0 -48 4 -98q-13 0 -148.5 2t-166.5 2l-9 -133q31 10 84 10q132 0 200.5 -76
t68.5 -184q0 -114 -83 -195t-235 -81z" />
    <glyph glyph-name="six.dnom" horiz-adv-x="737" 
d="M31 365q0 210 125.5 341.5t310.5 131.5q115 0 178 -29q-35 -107 -35 -174l-10 -6q-64 28 -129 28q-74 0 -131 -53t-74 -145q79 69 191 69q117 0 183.5 -70t66.5 -184q0 -120 -90 -201t-240 -81q-71 0 -131.5 21t-109.5 64.5t-77 117t-28 170.5zM264 305q7 -75 36 -108
t81 -33q44 0 71 24.5t27 73.5q0 47 -24.5 76t-73.5 29q-63 0 -117 -62z" />
    <glyph glyph-name="seven.dnom" horiz-adv-x="671" 
d="M311 0h-256q14 23 40.5 70.5t35.5 62.5q198 398 231 510q-318 -3 -331 -4q4 62 4 94q0 42 -4 92h610q-2 -23 -2 -65v-76q-13 -32 -55 -119l-107 -219l-108 -223q-45 -93 -58 -123z" />
    <glyph glyph-name="eight.dnom" horiz-adv-x="739" 
d="M541 412q54 -19 112 -68q56 -47 56 -115q0 -107 -99 -172t-245 -65q-145 0 -239.5 63t-94.5 166q0 67 48.5 115t123.5 76q-69 27 -110.5 76t-41.5 110q0 94 84 166q83 74 236 74q150 0 233 -74q84 -72 84 -166q0 -59 -42.5 -108t-104.5 -78zM369 494q88 47 88 102
q0 28 -23.5 49t-60.5 21q-39 0 -63.5 -21t-24.5 -49q0 -32 22.5 -55.5t61.5 -46.5zM373 340q-90 -42 -90 -102q0 -27 25 -47t65 -21q37 0 61.5 20.5t24.5 47.5q0 60 -86 102z" />
    <glyph glyph-name="nine.dnom" horiz-adv-x="737" 
d="M473 524q-7 76 -36.5 109t-80.5 33q-44 0 -71 -25t-27 -74q0 -47 24.5 -75.5t73.5 -28.5q63 0 117 61zM707 465q0 -210 -126 -341.5t-311 -131.5q-117 0 -178 28q35 107 35 175l10 6q66 -29 129 -29q74 0 131 53.5t74 145.5q-80 -70 -190 -70q-117 0 -183.5 70t-66.5 184
q0 121 89.5 202t239.5 81q71 0 131.5 -21t110 -64.5t77.5 -117t28 -170.5z" />
    <glyph glyph-name="zero.sup" horiz-adv-x="770" 
d="M31 1186q0 112 38 207.5t121 159t197 63.5q84 0 152.5 -36.5t111.5 -97.5t65.5 -137t22.5 -159q0 -80 -23 -154t-66 -133t-111 -94t-152 -35q-113 0 -196 61t-121.5 153.5t-38.5 201.5zM500 1196q0 43 -5.5 83t-17.5 79t-35.5 62.5t-56.5 23.5t-56.5 -23.5t-35.5 -62.5
t-17.5 -79t-5.5 -83t5.5 -83t17 -79t35 -62.5t55.5 -23.5q33 0 57 23.5t36.5 62t18 79t5.5 83.5z" />
    <glyph glyph-name="one.sup" horiz-adv-x="589" 
d="M33 778v154l162 10v451h-164q0 2 1 17t2 31.5t0.5 40.5t-3.5 44q167 16 311 78h88v-662l129 -10v-154h-526z" />
    <glyph glyph-name="two.sup" horiz-adv-x="733" 
d="M700 780h-645v131q144 91 242 189q115 124 115 219q0 57 -36.5 86t-90.5 29q-45 0 -89 -26t-67 -69h-8q-11 33 -40.5 72t-49.5 57q57 69 146 109.5t185 40.5q83 0 153 -28t117.5 -92.5t47.5 -154.5q0 -122 -84 -215q-78 -87 -201 -186l307 6q-4 -54 -4 -82q0 -59 2 -86z
" />
    <glyph glyph-name="three.sup" horiz-adv-x="688" 
d="M350 1616q126 0 201.5 -59.5t75.5 -149.5q0 -116 -131 -174q82 -23 121.5 -72.5t39.5 -130.5q0 -116 -96 -188q-97 -72 -227 -72q-83 0 -165.5 23t-131.5 57q32 77 35 166q29 -21 49 -32.5t62 -23.5t93 -12q55 0 85 30t30 75q0 61 -53 73q-57 13 -105 13h-24
q0 63 -12 112q73 0 119 26.5t46 84.5q0 34 -28 52t-64 18q-39 0 -77 -20.5t-60 -59.5h-10q-10 33 -40.5 71.5t-51.5 57.5q45 56 126 95.5t193 39.5z" />
    <glyph glyph-name="four.sup" horiz-adv-x="768" 
d="M377 768l8 203h-354v106q22 26 88 121t165.5 240t114.5 166h207v-480h131q-6 -37 -2 -153h-129q0 -127 8 -195q-155 0 -237 -8zM244 1124h143v213q-93 -152 -143 -213z" />
    <glyph glyph-name="five.sup" horiz-adv-x="653" 
d="M305 770q-77 0 -152.5 20t-121.5 50q34 81 37 176q90 -68 190 -68q60 0 90.5 29t30.5 78t-38.5 76.5t-107.5 27.5q-61 0 -147 -22l-16 10q14 258 22 457h502q-4 -50 -4 -80q0 -49 4 -99q-14 0 -149 2.5t-166 2.5l-9 -134q34 11 84 11q132 0 200.5 -76t68.5 -184
q0 -114 -83 -195.5t-235 -81.5z" />
    <glyph glyph-name="six.sup" horiz-adv-x="737" 
d="M31 1143q0 210 125.5 341.5t310.5 131.5q115 0 178 -29q-35 -107 -35 -174l-10 -6q-66 29 -129 29q-74 0 -131 -53.5t-74 -145.5q80 70 191 70q117 0 183.5 -70t66.5 -184q0 -121 -90 -202t-240 -81q-71 0 -131.5 21t-109.5 64.5t-77 117t-28 170.5zM264 1083
q7 -75 36 -108t81 -33q44 0 71 24.5t27 73.5q0 47 -24.5 76t-73.5 29q-63 0 -117 -62z" />
    <glyph glyph-name="seven.sup" horiz-adv-x="671" 
d="M311 778h-256q14 23 40.5 70.5t35.5 62.5q198 398 231 510q-318 -3 -331 -4q4 62 4 94q0 43 -4 93h610q-2 -23 -2 -66v-76q-13 -32 -55 -119l-107 -219l-108 -223q-45 -93 -58 -123z" />
    <glyph glyph-name="eight.sup" horiz-adv-x="739" 
d="M541 1190q54 -19 112 -68q56 -47 56 -114q0 -107 -99.5 -172.5t-244.5 -65.5t-239.5 63t-94.5 166q0 67 48.5 115t123.5 76q-69 27 -110.5 76t-41.5 110q0 94 84 166q83 74 236 74q150 0 233 -74q84 -72 84 -166q0 -59 -42.5 -108t-104.5 -78zM369 1272q88 47 88 102
q0 28 -23.5 49t-60.5 21q-39 0 -63.5 -21t-24.5 -49q0 -32 22.5 -55.5t61.5 -46.5zM373 1118q-90 -42 -90 -102q0 -27 25 -47t65 -21q37 0 61.5 20.5t24.5 47.5q0 60 -86 102z" />
    </font>
</defs>
</svg>
